<svg id="Layer_1" data-name="Layer 1" xmlns="http://www.w3.org/2000/svg"
    xmlns:xlink="http://www.w3.org/1999/xlink" viewBox="1000 0 900.92 885.6">
    <defs>
        <style>.cls-1,.cls-5,.cls-8{fill:none;}.cls-2{clip-path:url(#clip-path);}.cls-3{fill:none;}.cls-4{fill:#4999d4;}.cls-5{stroke:#010101;}.cls-5,.cls-8{stroke-linejoin:round;stroke-width:2px;}.cls-6{clip-path:url(#clip-path-3);}.cls-7{fill:#595a5a;}.cls-8{stroke:#818181;}.cls-9{clip-path:url(#clip-path-5);}.cls-10{fill:#f3f3f3;}.cls-11{clip-path:url(#clip-path-7);}.cls-12{fill:#c0bfbf;}.cls-13{clip-path:url(#clip-path-10);}.cls-14{clip-path:url(#clip-path-12);}.cls-15{clip-path:url(#clip-path-15);}.cls-16{clip-path:url(#clip-path-17);}.cls-17{font-size:350px;fill:#515151;font-family:AvenirNext-Bold,
            Avenir Next;font-weight:700;}</style>
        <clipPath id="clip-path">
            <rect class="cls-1" x="-454.21" y="-592.07" width="2880" height="1620" />
        </clipPath>
        <clipPath id="clip-path-3">
            <rect class="cls-1" x="1279.99" y="668.48" width="106.46" height="106.46" />
        </clipPath>
        <clipPath id="clip-path-5">
            <rect class="cls-1" x="1279.99" y="484.78" width="106.46" height="106.46" />
        </clipPath>
        <clipPath id="clip-path-7">
            <rect class="cls-1" x="1279.99" y="301.09" width="106.46" height="106.46" />
        </clipPath>
        <clipPath id="clip-path-10">
            <rect class="cls-1" x="1411.13" y="484.78" width="106.46" height="290.15" />
        </clipPath>
        <clipPath id="clip-path-12">
            <rect class="cls-1" x="1411.13" y="301.09" width="106.46" height="106.46" />
        </clipPath>
        <clipPath id="clip-path-15">
            <rect class="cls-1" x="1148.86" y="301.09" width="106.46" height="473.85" />
        </clipPath>
        <clipPath id="clip-path-17">
            <rect class="cls-1" x="1148.86" y="484.78" width="106.46" height="106.46" />
        </clipPath>
    </defs>
    <g class="cls-2">
        <g class="cls-2">
            <rect class="cls-3" x="-454.21" y="-592.07" width="2880" height="1620" />
            <rect class="cls-4" x="1693.4" y="673.58" width="198.81" height="102" />
            <rect class="cls-5" x="1693.4" y="673.58" width="198.81" height="102" />
            <rect class="cls-4" x="1693.4" y="489.89" width="102.46" height="102" />
            <rect class="cls-5" x="1693.4" y="489.89" width="102.46" height="102" />
            <rect class="cls-4" x="1693.4" y="306.2" width="226.02" height="102" />
            <rect class="cls-5" x="1693.4" y="306.2" width="226.02" height="102" />
        </g>
        <g class="cls-6">
            <g class="cls-2">
                <circle class="cls-7" cx="1333.22" cy="721.71" r="51.23" />
                <circle class="cls-8" cx="1333.23" cy="721.71" r="51.23" />
            </g>
        </g>
        <g class="cls-9">
            <g class="cls-2">
                <circle class="cls-10" cx="1333.22" cy="538.01" r="51.23" />
                <circle class="cls-8" cx="1333.23" cy="538.01" r="51.23" />
            </g>
        </g>
        <g class="cls-11">
            <g class="cls-2">
                <circle class="cls-10" cx="1333.22" cy="354.32" r="51.23" />
                <circle class="cls-8" cx="1333.23" cy="354.32" r="51.23" />
            </g>
        </g>
        <g class="cls-2">
            <rect class="cls-12" x="1281.99" y="73.75" width="102.46" height="185.11" />
            <rect class="cls-8" x="1281.99" y="73.75" width="102.46" height="185.11" />
        </g>
        <g class="cls-13">
            <g class="cls-2">
                <path class="cls-7"
                    d="M1413.13,721.71a51.25,51.25,0,0,1,31.29-47.21l7.94-2.46V587.68l-7.94-2.46a51.23,51.23,0,1,1,39.88,0l-7.94,2.46V672l7.94,2.46a51.24,51.24,0,1,1-71.17,47.21Z" />
                <path class="cls-8"
                    d="M1413.13,721.71a51.25,51.25,0,0,1,31.29-47.21l7.94-2.46V587.68l-7.94-2.46a51.23,51.23,0,1,1,39.88,0l-7.94,2.46V672l7.94,2.46a51.24,51.24,0,1,1-71.17,47.21Z" />
            </g>
        </g>
        <g class="cls-14">
            <g class="cls-2">
                <circle class="cls-10" cx="1464.36" cy="354.32" r="51.23" />
                <circle class="cls-8" cx="1464.36" cy="354.32" r="51.23" />
            </g>
        </g>
        <g class="cls-2">
            <rect class="cls-12" x="1413.13" y="137.75" width="102.46" height="121.11" />
            <rect class="cls-8" x="1413.13" y="137.75" width="102.46" height="121.11" />
        </g>
        <g class="cls-15">
            <g class="cls-2">
                <path class="cls-7"
                    d="M1150.86,354.32A51.23,51.23,0,1,1,1222,401.53l-5.35,1.66V672.84l5.35,1.66a51.23,51.23,0,1,1-39.88,0l7.94-2.46V404l-7.94-2.46A51.25,51.25,0,0,1,1150.86,354.32Z" />
                <path class="cls-8"
                    d="M1150.86,354.32A51.23,51.23,0,1,1,1222,401.53l-5.35,1.66V672.84l5.35,1.66a51.23,51.23,0,1,1-39.88,0l7.94-2.46V404l-7.94-2.46A51.25,51.25,0,0,1,1150.86,354.32Z" />
            </g>
        </g>
        <g class="cls-16">
            <g class="cls-2">
                <circle class="cls-10" cx="1202.09" cy="538.01" r="51.23" />
                <circle class="cls-8" cx="1202.09" cy="538.01" r="51.23" />
            </g>
        </g>
        <g class="cls-2">
            <rect class="cls-12" x="1150.86" y="19.4" width="102.46" height="239.46" />
            <rect class="cls-8" x="1150.86" y="19.4" width="102.46" height="239.46" />
            <path class="cls-7"
                d="M1545.27,724.81a51.24,51.24,0,0,1,31.29-47.2l6.64-2.06V590.39l-6.64-2.06a51.25,51.25,0,0,1,0-94.41l6.64-2.07V406.7l-6.64-2.07a51.23,51.23,0,1,1,39.88,0l-6.65,2.07v85.15l6.65,2.07a51.25,51.25,0,0,1,0,94.41l-6.65,2.06v85.16l6.65,2.06a51.24,51.24,0,1,1-71.17,47.2Z" />
            <path class="cls-8"
                d="M1545.27,724.81a51.24,51.24,0,0,1,31.29-47.2l6.64-2.06V590.39l-6.64-2.06a51.25,51.25,0,0,1,0-94.41l6.64-2.07V406.7l-6.64-2.07a51.23,51.23,0,1,1,39.88,0l-6.65,2.07v85.15l6.65,2.07a51.25,51.25,0,0,1,0,94.41l-6.65,2.06v85.16l6.65,2.06a51.24,51.24,0,1,1-71.17,47.2Z" />
            <rect class="cls-12" x="1545.27" y="235.45" width="102.46" height="26.52" />
            <rect class="cls-8" x="1545.27" y="235.45" width="102.46" height="26.52" />

        </g>
    </g>
</svg>