<?xml version="1.0" encoding="utf-8"?>
<!-- Generator: Adobe Illustrator 19.2.1, SVG Export Plug-In . SVG Version: 6.00 Build 0)  -->
<svg version="1.1" id="Layer_1" xmlns="http://www.w3.org/2000/svg" xmlns:xlink="http://www.w3.org/1999/xlink" x="0px" y="0px"
	 viewBox="0 0 175.2 86.8" style="enable-background:new 0 0 175.2 86.8;" xml:space="preserve">
<style type="text/css">
	.st0{fill:#36373A;}
</style>
<title>sci-logo-one-color</title>
<path class="st0" d="M43.5,52l-4.2,5.2l-7,6.1l-7,0.5l-3.9,3.6H0L5.2,60l8-0.3l11.5-3.6l1.9-3.8l9.2-6l0.9-0.7
	C36.7,45.7,38.4,48.9,43.5,52z"/>
<path class="st0" d="M47.1,46.9l1.3-1.9l7-8l-11,2.6L42.7,41C42.7,40.9,44.8,45.1,47.1,46.9z"/>
<polygon class="st0" points="63.7,67.3 71.6,62 62,63.9 61.3,61.8 53,67.3 "/>
<polygon class="st0" points="85.1,67.3 85.6,65.1 93.4,61.8 103.2,53.4 108.1,53.2 111.6,49.9 110,38.2 114.2,34 108.3,37.2 
	106.9,43.1 101.3,48.7 101.1,50.1 84.7,64.4 81.9,65.1 78.7,67.3 "/>
<polygon class="st0" points="70.4,67.3 82.3,59.7 78.1,61.1 83.8,54.8 65.9,67.3 "/>
<path class="st0" d="M51.7,54.8l-1.2,4.9h-1.4L47,56.9l-2.1,1.2V60l-2.6,2.8v1.4L40,64.6l-4.1,2.7l-0.3-0.6l3.8-3l0.9-5.2l3.8-0.9
	l0.7-1.4l1-3.2C47.7,53.8,49.7,54.4,51.7,54.8z"/>
<path class="st0" d="M51.5,49.5l3.5-3.3l-5,2.7C50,48.8,50.9,49.2,51.5,49.5z"/>
<polygon class="st0" points="103.5,67.3 117.5,55 101.3,67.3 "/>
<polygon class="st0" points="128.4,67.3 131.5,66 127.5,60.2 113.7,63.5 110.2,67.3 "/>
<polygon class="st0" points="115.6,23.4 108.6,28.3 110.4,29.5 109,32.8 93.6,45.9 86.1,51.3 97.6,38.4 99.7,35.1 99.7,32.5 
	109.3,24.4 "/>
<polygon class="st0" points="84,23.3 85.6,22.5 88.2,18.7 92.2,15.7 101.3,8 94.8,10.3 92.4,12.2 84,15.5 "/>
<polygon class="st0" points="76.3,30.5 66.7,39.3 64.3,44.2 63.4,44.7 62.5,42.4 59.6,43.3 59.6,34.7 57.8,34.9 61.3,30.4 
	64.3,30.4 65.3,27.2 69.2,22.9 76.3,21.1 "/>
<polygon class="st0" points="124,19.4 121.7,20.8 128.9,26.2 135.3,28.8 130.1,21.3 "/>
<polygon class="st0" points="175.1,38.8 164.1,35.3 141.8,23.6 123.8,8.9 117.2,4.9 117.7,1.4 123.3,2.8 119.1,0 121,0 175,31.4 "/>
<polygon class="st0" points="175.1,40.3 173.2,40.7 164.8,37.7 154.7,35.7 151.2,34.2 144.9,33.6 146.5,35.3 151.2,36.8 154.9,39.3 
	155.4,41 159.4,43.9 147.6,40.7 141.1,40.4 136.7,38.2 132.6,33.5 137.8,36.5 141.5,38 140.6,36.3 137.4,35 134.7,32.2 132.6,31.5 
	126.5,26.7 120.5,23.4 118.9,31.8 120.3,32.1 120.5,34 118.2,37.2 117,35.6 116.5,37.5 117,39.6 114,42.1 112.6,47.5 113.7,48.9 
	113,50.8 118.4,55.3 121.2,54.5 125.2,58.8 129.2,60.6 133.2,58.3 134.6,59.9 134.8,62.8 137.4,64.6 141.4,65.1 137.3,67.4 
	175.2,67.2 "/>
<path class="st0" d="M13.3,54.1c-4.2,0-7.7-1.9-10.7-3.8l1.3-5.8h0.5c2,4,5.2,6.8,9.9,6.8c5.2,0.2,9.6-3.9,9.8-9.2
	c0-0.1,0-0.2,0-0.3c0-4.7-3.4-6.9-7.6-8.6C10.8,31,3.9,28.9,3.9,20.8c0-8.3,6.3-12.3,14-12.3c4,0,7.1,1,9.6,3.2L25.7,17H25
	c-1-3.5-4.3-5.8-7.9-5.7c-4.7,0-8.4,3.2-8.4,7.6c0,5.7,4.7,7.2,9.8,9.2c5.3,2.1,10.8,5.1,10.8,12.4C29.3,49.9,21.9,54.1,13.3,54.1z"
	/>
<path class="st0" d="M71.1,16.2h-0.8c-3.2-3.4-7.7-5.3-12.4-5.1c-10.5,0-17.8,7.8-17.8,20.4c0,10.6,5.7,20,17.8,20
	c5.2,0,10.3-2.6,12.6-5.2h0.7v4.1c-3.9,2.5-8.5,3.6-14.1,3.6c-15.5,0-23.3-9.9-23.3-22.6c0-14.3,10.1-23.1,24.1-23.1
	c5,0,9.9,1,14.5,3L71.1,16.2z"/>
<rect x="77.4" y="9.2" class="st0" width="5.8" height="44"/>
<path class="st0" d="M15.9,86.5h-1.3l-2.9-8.6l-3.3,8.6H7.2L3.3,75.4h1.9l3.1,8.7h0.2l2.9-8.7H13l2.9,8.7h0.2l3.2-8.7h1.5L15.9,86.5
	z"/>
<path class="st0" d="M34.6,86.5h-1.3l-2.8-8.6l-3.3,8.6h-1.4L22,75.4h1.9l3.1,8.7h0.2l2.9-8.7h1.5l2.9,8.7h0.2l3.2-8.7h1.5
	L34.6,86.5z"/>
<path class="st0" d="M53.2,86.5h-1.4L49,77.9l-3.3,8.6h-1.3l-3.8-11.1h1.9l3.1,8.7h0.2l2.9-8.7h1.5l2.9,8.7h0.2l3.2-8.7H58
	L53.2,86.5z"/>
<path class="st0" d="M57.7,86.7c-0.8,0.1-1.4-0.5-1.5-1.3s0.5-1.4,1.3-1.5c0.1,0,0.2,0,0.2,0c0.8-0.1,1.4,0.5,1.5,1.3
	s-0.5,1.4-1.3,1.5C57.9,86.7,57.8,86.7,57.7,86.7z"/>
<path class="st0" d="M63.7,86.8c-1,0-2.1-0.3-3-0.8l0.5-1.7h0.2c0.5,1,1.5,1.7,2.7,1.8c1.3,0,2.3-1,2.3-2.2l0,0
	c0-2.8-5.4-1.4-5.4-5.2c0-2.1,1.6-3.4,4-3.4c0.9,0,1.8,0.2,2.6,0.6L67,77.6h-0.3c-0.3-0.9-1.1-1.5-2-1.6c-1.1-0.1-2,0.7-2.1,1.7
	c0,0.1,0,0.2,0,0.3c0,2.9,5.4,1.8,5.4,5.1C68.1,85.5,66.1,86.8,63.7,86.8z"/>
<path class="st0" d="M79.1,77.6h-0.2c-0.7-1.1-1.9-1.8-3.2-1.7c-2.6,0-4,2.3-4,5S73.2,86,76,86c1.2-0.1,2.4-0.6,3.2-1.6l0.2,0.1v1.1
	c-1.1,0.8-2.3,1.2-3.7,1.2c-3.1,0.2-5.8-2.1-6-5.2c0-0.2,0-0.5,0-0.7c0-3.5,2.5-5.8,6-5.8c1.3-0.1,2.7,0.3,3.9,0.9L79.1,77.6z"/>
<path class="st0" d="M82.4,72.4c-0.7,0-1.2-0.5-1.2-1.2c0,0,0,0,0-0.1c0-0.7,0.5-1.2,1.2-1.2l0,0c0.7,0,1.2,0.6,1.2,1.2l0,0
	C83.7,71.8,83.1,72.4,82.4,72.4C82.5,72.4,82.5,72.4,82.4,72.4z M81.4,86.6V75.4h1.9v11.1L81.4,86.6L81.4,86.6z"/>
<path class="st0" d="M86.7,86.7c-0.8,0.1-1.4-0.5-1.5-1.3s0.5-1.4,1.3-1.5c0.1,0,0.2,0,0.2,0c0.8-0.1,1.4,0.5,1.5,1.3
	s-0.5,1.4-1.3,1.5C86.9,86.7,86.8,86.7,86.7,86.7z"/>
<path class="st0" d="M97.8,86.5v-2c-0.7,1.4-2.2,2.3-3.8,2.3c-2.9,0-3.9-1.8-3.9-4.7v-6.8H92v6.8c0,2.1,0.9,3.5,2.9,3.5
	c2.2,0,2.9-1.7,2.9-4v-6.2h1.9v11.1L97.8,86.5L97.8,86.5z"/>
<path class="st0" d="M105.6,86.8c-2.1,0-2.7-1.4-2.7-3.2v-7.2h-1.4v-1.1h1.4v-2.5l1.9-0.8v3.3h2.5v1.1h-2.5V83c0,2,0.5,3,1.7,3
	c0.4,0,0.7-0.1,1.1-0.2v0.6C107,86.7,106.3,86.8,105.6,86.8z"/>
<path class="st0" d="M116.9,86.5c-0.8,0.1-1.5-0.4-1.6-1.2c0-0.1,0-0.1,0-0.2c-1,1.1-2.3,1.7-3.8,1.7c-1.7,0-3-1.3-3.1-2.9
	c0,0,0,0,0-0.1c0-2.7,4.4-3.3,6.8-3.7V79c0.2-1.4-0.9-2.7-2.3-2.9c-0.1,0-0.2,0-0.3,0c-1.2,0-2.2,0.7-2.6,1.8h-0.2l-0.2-1.5
	c1.1-0.8,2.5-1.3,3.9-1.3c1.9-0.1,3.6,1.3,3.8,3.3c0,0.2,0,0.4,0,0.6v6c0,0.4,0,0.8,0.6,0.8c0.3,0,0.5-0.1,0.8-0.1v0.6
	C118,86.5,117.5,86.6,116.9,86.5z M115.2,80.7c-1.8,0.3-4.8,0.6-4.8,2.8c-0.1,1.1,0.7,2.1,1.8,2.3c0.1,0,0.2,0,0.4,0
	c1.1-0.1,2-0.7,2.6-1.6C115.2,84.2,115.2,80.7,115.2,80.7z"/>
<path class="st0" d="M127.9,86.5v-6.8c0-2-0.8-3.4-2.7-3.4s-3,1.3-3,3.4v6.8h-1.9V68.9h1.9v8.4c0.7-1.4,2.2-2.3,3.8-2.2
	c2.6,0,3.8,1.6,3.8,4.6v6.8L127.9,86.5L127.9,86.5z"/>
<path class="st0" d="M133.2,86.7c-0.8,0.1-1.4-0.5-1.5-1.3s0.5-1.4,1.3-1.5c0.1,0,0.2,0,0.2,0c0.8-0.1,1.4,0.5,1.5,1.3
	s-0.5,1.4-1.3,1.5C133.3,86.7,133.3,86.7,133.2,86.7z"/>
<path class="st0" d="M138.4,80.8c0,3.1,1.5,5,4.1,5c1.4-0.1,2.6-0.7,3.6-1.7v1.2c-1.1,0.8-2.5,1.3-3.9,1.4c-3.6,0-5.8-2.3-5.8-5.9
	c0-3.8,2.4-5.8,5.5-5.8s4.8,2.3,4.8,5.7C146.7,80.9,138.4,80.9,138.4,80.8z M141.8,75.8c-2.2,0-3.2,2.2-3.4,4.1h6.4
	C144.8,78.1,144.1,75.8,141.8,75.8z"/>
<path class="st0" d="M157.1,86.5v-2.2c-0.8,1.5-2.4,2.5-4.1,2.5c-2.9,0-4.7-2.4-4.7-5.7c0-3.5,2-6,5-6c1.6,0,3.1,0.9,3.8,2.3v-8.5
	h1.9v17.6L157.1,86.5L157.1,86.5z M153.9,76.1c-2.6,0-3.5,2.3-3.5,5.1s1,4.8,3.2,4.8c2.4,0,3.5-2.3,3.5-5.3
	C157.1,78,155.9,76.1,153.9,76.1L153.9,76.1z"/>
<path class="st0" d="M168.7,86.5v-2c-0.7,1.4-2.2,2.3-3.8,2.3c-2.9,0-3.9-1.8-3.9-4.7v-6.8h1.9v6.8c0,2.1,0.9,3.5,2.9,3.5
	c2.2,0,2.9-1.7,2.9-4v-6.2h1.9v11.1C170.6,86.5,168.7,86.5,168.7,86.5z"/>
</svg>
