<svg width="176" height="87" viewBox="0 0 176 87" fill="none" xmlns="http://www.w3.org/2000/svg">
<g clip-path="url(#clip0_12_2)">
<path d="M43.5 52.0001L39.3 57.2001L32.3 63.3001L25.3 63.8001L21.4 67.4001H0L5.2 60.0001L13.2 59.7001L24.7 56.1001L26.6 52.3001L35.8 46.3001L36.7 45.6001C36.7 45.7001 38.4 48.9001 43.5 52.0001Z" fill="white"/>
<path d="M47.0999 46.9L48.4 45L55.4 37L44.4 39.6L42.7 41C42.7 40.9 44.7999 45.1 47.0999 46.9Z" fill="white"/>
<path d="M63.7 67.3001L71.6 62L62 63.9001L61.3 61.8L53 67.3001H63.7Z" fill="white"/>
<path d="M85.1 67.3L85.6 65.1L93.4 61.8L103.2 53.4L108.1 53.2L111.6 49.9L110 38.2L114.2 34L108.3 37.2L106.9 43.1L101.3 48.7L101.1 50.1L84.7 64.4L81.9 65.1L78.7 67.3H85.1Z" fill="white"/>
<path d="M70.3999 67.3001L82.2999 59.7001L78.0999 61.1L83.7999 54.8L65.8999 67.3001H70.3999Z" fill="white"/>
<path d="M51.7001 54.8L50.5001 59.7H49.1001L47.0001 56.9L44.9001 58.1V60L42.3001 62.8V64.2L40.0001 64.6L35.9001 67.3L35.6001 66.7L39.4001 63.7L40.3001 58.5L44.1001 57.6L44.8001 56.2L45.8001 53C47.7001 53.8 49.7001 54.4 51.7001 54.8Z" fill="white"/>
<path d="M51.5 49.5L55 46.2L50 48.9C50 48.8 50.9 49.2 51.5 49.5Z" fill="white"/>
<path d="M103.5 67.3L117.5 55L101.3 67.3H103.5Z" fill="white"/>
<path d="M128.4 67.3L131.5 66L127.5 60.2L113.7 63.5L110.2 67.3H128.4Z" fill="white"/>
<path d="M115.6 23.3999L108.6 28.2999L110.4 29.4999L109 32.7999L93.6001 45.8999L86.1001 51.2999L97.6001 38.3999L99.7001 35.0999V32.4999L109.3 24.3999L115.6 23.3999Z" fill="white"/>
<path d="M84 23.3L85.6 22.5L88.2 18.7L92.2 15.7L101.3 8L94.8 10.3L92.4 12.2L84 15.5V23.3Z" fill="white"/>
<path d="M76.3001 30.5001L66.7 39.3001L64.3001 44.2001L63.4001 44.7001L62.5 42.4001L59.6 43.3001V34.7001L57.8 34.9001L61.3 30.4001H64.3001L65.3001 27.2001L69.2 22.9001L76.3001 21.1001V30.5001Z" fill="white"/>
<path d="M124 19.3999L121.7 20.7999L128.9 26.1999L135.3 28.7999L130.1 21.2999L124 19.3999Z" fill="white"/>
<path d="M175.1 38.8L164.1 35.3L141.8 23.6L123.8 8.9L117.2 4.9L117.7 1.4L123.3 2.8L119.1 0H121L175 31.4L175.1 38.8Z" fill="white"/>
<path d="M175.1 40.2999L173.2 40.6999L164.8 37.6999L154.7 35.6999L151.2 34.1999L144.9 33.5999L146.5 35.2999L151.2 36.7999L154.9 39.2999L155.4 40.9999L159.4 43.8999L147.6 40.6999L141.1 40.3999L136.7 38.1999L132.6 33.4999L137.8 36.4999L141.5 37.9999L140.6 36.2999L137.4 34.9999L134.7 32.1999L132.6 31.4999L126.5 26.6999L120.5 23.3999L118.9 31.7999L120.3 32.0999L120.5 33.9999L118.2 37.1999L117 35.5999L116.5 37.4999L117 39.5999L114 42.0999L112.6 47.4999L113.7 48.8999L113 50.7999L118.4 55.2999L121.2 54.4999L125.2 58.7999L129.2 60.5999L133.2 58.2999L134.6 59.8999L134.8 62.7999L137.4 64.5999L141.4 65.0999L137.3 67.3999L175.2 67.1999L175.1 40.2999Z" fill="white"/>
<path d="M13.3001 54.1C9.1001 54.1 5.6001 52.2 2.6001 50.3L3.9001 44.5H4.4001C6.4001 48.5 9.6001 51.3 14.3001 51.3C19.5001 51.5 23.9001 47.4 24.1001 42.1C24.1001 42 24.1001 41.9 24.1001 41.8C24.1001 37.1 20.7001 34.9 16.5001 33.2C10.8001 31 3.9001 28.9 3.9001 20.8C3.9001 12.5 10.2001 8.5 17.9001 8.5C21.9001 8.5 25.0001 9.5 27.5001 11.7L25.7001 17H25.0001C24.0001 13.5 20.7001 11.2 17.1001 11.3C12.4001 11.3 8.7001 14.5 8.7001 18.9C8.7001 24.6 13.4001 26.1 18.5001 28.1C23.8001 30.2 29.3001 33.2 29.3001 40.5C29.3001 49.9 21.9001 54.1 13.3001 54.1Z" fill="white"/>
<path d="M71.1 16.2H70.3001C67.1001 12.8 62.6001 10.9 57.9001 11.1C47.4001 11.1 40.1 18.9 40.1 31.5C40.1 42.1 45.8001 51.5 57.9001 51.5C63.1001 51.5 68.2 48.9 70.5 46.3H71.2V50.4001C67.3 52.9001 62.7 54 57.1 54C41.6 54 33.8 44.1 33.8 31.4C33.8 17.1 43.9001 8.30005 57.9001 8.30005C62.9001 8.30005 67.8001 9.30005 72.4001 11.3L71.1 16.2Z" fill="white"/>
<path d="M83.1999 9.19995H77.3999V53.2H83.1999V9.19995Z" fill="white"/>
<path d="M15.9 86.4999H14.6L11.7 77.8999L8.40005 86.4999H7.20005L3.30005 75.3999H5.20005L8.30005 84.0999H8.50005L11.4 75.3999H13L15.9 84.0999H16.1L19.3 75.3999H20.8L15.9 86.4999Z" fill="white"/>
<path d="M34.6 86.4999H33.3L30.5 77.8999L27.2 86.4999H25.8L22 75.3999H23.9L27 84.0999H27.2L30.1 75.3999H31.6L34.5 84.0999H34.7L37.9 75.3999H39.4L34.6 86.4999Z" fill="white"/>
<path d="M53.2001 86.4999H51.8001L49.0001 77.8999L45.7001 86.4999H44.4001L40.6001 75.3999H42.5001L45.6001 84.0999H45.8001L48.7001 75.3999H50.2001L53.1001 84.0999H53.3001L56.5001 75.3999H58.0001L53.2001 86.4999Z" fill="white"/>
<path d="M57.7001 86.7001C56.9001 86.8001 56.3001 86.2001 56.2001 85.4001C56.1001 84.6001 56.7001 84.0001 57.5001 83.9001C57.6001 83.9001 57.7001 83.9001 57.7001 83.9001C58.5001 83.8001 59.1001 84.4001 59.2001 85.2001C59.3001 86.0001 58.7001 86.6001 57.9001 86.7001C57.9001 86.7001 57.8001 86.7001 57.7001 86.7001Z" fill="white"/>
<path d="M63.7 86.8C62.7 86.8 61.6 86.5 60.7 86L61.2 84.3H61.4C61.9 85.3 62.8999 86 64.0999 86.1C65.3999 86.1 66.4 85.1 66.4 83.9C66.4 81.1 61 82.5 61 78.7C61 76.6 62.6 75.3 65 75.3C65.9 75.3 66.7999 75.5 67.5999 75.9L67 77.6H66.6999C66.3999 76.7 65.5999 76.1 64.6999 76C63.5999 75.9 62.6999 76.7 62.5999 77.7C62.5999 77.8 62.5999 77.9 62.5999 78C62.5999 80.9 68 79.8 68 83.1C68.1 85.5 66.1 86.8 63.7 86.8Z" fill="white"/>
<path d="M79.1 77.6H78.9C78.2 76.5 77 75.8 75.7 75.9C73.1 75.9 71.7 78.2 71.7 80.9C71.7 83.6 73.2 86 76 86C77.2 85.9 78.4 85.4 79.2 84.4L79.4 84.5V85.6C78.3 86.4 77.1 86.8 75.7 86.8C72.6 87 69.9 84.7 69.7 81.6C69.7 81.4 69.7 81.1 69.7 80.9C69.7 77.4 72.2 75.1 75.7 75.1C77 75 78.4 75.4 79.6 76L79.1 77.6Z" fill="white"/>
<path d="M82.4 72.3999C81.7 72.3999 81.2 71.8999 81.2 71.1999C81.2 71.1999 81.2 71.1999 81.2 71.0999C81.2 70.3999 81.7 69.8999 82.4 69.8999C83.1 69.8999 83.6 70.4999 83.6 71.0999C83.7 71.7999 83.1 72.3999 82.4 72.3999C82.5 72.3999 82.5 72.3999 82.4 72.3999ZM81.4 86.5999V75.3999H83.3V86.4999L81.4 86.5999Z" fill="white"/>
<path d="M86.7001 86.7001C85.9001 86.8001 85.3001 86.2001 85.2001 85.4001C85.1001 84.6001 85.7001 84.0001 86.5001 83.9001C86.6001 83.9001 86.7001 83.9001 86.7001 83.9001C87.5001 83.8001 88.1001 84.4001 88.2001 85.2001C88.3001 86.0001 87.7001 86.6001 86.9001 86.7001C86.9001 86.7001 86.8001 86.7001 86.7001 86.7001Z" fill="white"/>
<path d="M97.8001 86.5V84.5C97.1001 85.9 95.6001 86.8 94.0001 86.8C91.1001 86.8 90.1001 85 90.1001 82.1V75.3H92.0001V82.1C92.0001 84.2 92.9001 85.6 94.9001 85.6C97.1001 85.6 97.8001 83.9 97.8001 81.6V75.4H99.7001V86.5H97.8001Z" fill="white"/>
<path d="M105.6 86.8C103.5 86.8 102.9 85.4 102.9 83.6V76.4H101.5V75.3H102.9V72.8L104.8 72V75.3H107.3V76.4H104.8V83C104.8 85 105.3 86 106.5 86C106.9 86 107.2 85.9 107.6 85.8V86.4C107 86.7 106.3 86.8 105.6 86.8Z" fill="white"/>
<path d="M116.9 86.5C116.1 86.6 115.4 86.1 115.3 85.3C115.3 85.2 115.3 85.2 115.3 85.1C114.3 86.2 113 86.8 111.5 86.8C109.8 86.8 108.5 85.5 108.4 83.9C108.4 83.9 108.4 83.9 108.4 83.8C108.4 81.1 112.8 80.5 115.2 80.1V79C115.4 77.6 114.3 76.3 112.9 76.1C112.8 76.1 112.7 76.1 112.6 76.1C111.4 76.1 110.4 76.8 110 77.9H109.8L109.6 76.4C110.7 75.6 112.1 75.1 113.5 75.1C115.4 75 117.1 76.4 117.3 78.4C117.3 78.6 117.3 78.8 117.3 79V85C117.3 85.4 117.3 85.8 117.9 85.8C118.2 85.8 118.4 85.7 118.7 85.7V86.3C118 86.5 117.5 86.6 116.9 86.5ZM115.2 80.7C113.4 81 110.4 81.3 110.4 83.5C110.3 84.6 111.1 85.6 112.2 85.8C112.3 85.8 112.4 85.8 112.6 85.8C113.7 85.7 114.6 85.1 115.2 84.2V80.7Z" fill="white"/>
<path d="M127.9 86.4999V79.6999C127.9 77.6999 127.1 76.2999 125.2 76.2999C123.3 76.2999 122.2 77.5999 122.2 79.6999V86.4999H120.3V68.8999H122.2V77.2999C122.9 75.8999 124.4 74.9999 126 75.0999C128.6 75.0999 129.8 76.6999 129.8 79.6999V86.4999H127.9Z" fill="white"/>
<path d="M133.2 86.7001C132.4 86.8001 131.8 86.2001 131.7 85.4001C131.6 84.6001 132.2 84.0001 133 83.9001C133.1 83.9001 133.2 83.9001 133.2 83.9001C134 83.8001 134.6 84.4001 134.7 85.2001C134.8 86.0001 134.2 86.6001 133.4 86.7001C133.3 86.7001 133.3 86.7001 133.2 86.7001Z" fill="white"/>
<path d="M138.4 80.8C138.4 83.9 139.9 85.8 142.5 85.8C143.9 85.7 145.1 85.1 146.1 84.1V85.3C145 86.1 143.6 86.6 142.2 86.7C138.6 86.7 136.4 84.4 136.4 80.8C136.4 77 138.8 75 141.9 75C145 75 146.7 77.3 146.7 80.7C146.7 80.9 138.4 80.9 138.4 80.8ZM141.8 75.8C139.6 75.8 138.6 78 138.4 79.9H144.8C144.8 78.1 144.1 75.8 141.8 75.8Z" fill="white"/>
<path d="M157.1 86.4999V84.2999C156.3 85.7999 154.7 86.7999 153 86.7999C150.1 86.7999 148.3 84.3999 148.3 81.0999C148.3 77.5999 150.3 75.0999 153.3 75.0999C154.9 75.0999 156.4 75.9999 157.1 77.3999V68.8999H159V86.4999H157.1ZM153.9 76.0999C151.3 76.0999 150.4 78.3999 150.4 81.1999C150.4 83.9999 151.4 85.9999 153.6 85.9999C156 85.9999 157.1 83.6999 157.1 80.6999C157.1 77.9999 155.9 76.0999 153.9 76.0999Z" fill="white"/>
<path d="M168.7 86.5V84.5C168 85.9 166.5 86.8 164.9 86.8C162 86.8 161 85 161 82.1V75.3H162.9V82.1C162.9 84.2 163.8 85.6 165.8 85.6C168 85.6 168.7 83.9 168.7 81.6V75.4H170.6V86.5H168.7Z" fill="white"/>
</g>
<defs>
<clipPath id="clip0_12_2">
<rect width="175.2" height="86.8" fill="white"/>
</clipPath>
</defs>
</svg>
