<svg enable-background="new 0 0 178 44.2" viewBox="0 0 178 44.2" xmlns="http://www.w3.org/2000/svg"><path d="m.2.2v13.2h4.4v21.9l8.8 8.7h21.8l8.8-8.7v-21.9h4.4v-13.2h-21.9v13.2h4.4v17.4h-13.2v-17.4h4.4v-13.2z" fill="#be0000"/><g fill="#fff"><path d="m57.6.7h-1.5c-.6 0-.8.1-1 .3-.1.1-.1.2-.2.4 0 .1 0 .1-.1.1s-.1 0-.1-.2.2-1.1.2-1.2.1-.1.1-.1c.1.1.3.1.4.1.3 0 .7.1 1 .1h4.1c.3 0 .7 0 1-.1.1 0 .1.1.1.2s0 .9 0 1.2c0 .1 0 .2-.1.2s-.1 0-.1-.2v-.2c0-.3-.3-.6-1.2-.6h-1.3v4.2 2.2s.1.5.4.6h.5s.2 0 .2.1-.1.1-.2.1c-.7 0-1.3 0-1.6 0h-1.3c-.1 0-.2 0-.2-.1s0-.1.2-.1h.4c.2-.1.3-.3.3-.6s0-1.2 0-2.2z"/><path d="m69.3 3.4s.1 0 0 0l.1-.3c0-1.6 0-1.9 0-2.2s-.1-.5-.4-.6c-.1 0-.3 0-.4 0s-.2 0-.2-.1.1-.1.2-.1h1.5 1.3c.2 0 .2 0 .2.1s-.1.1-.2.1h-.3c-.3.1-.4.2-.4.6s0 .6 0 2.2v1.8 2.2s.1.5.4.6h.5c.1 0 .2 0 .2.1s-.1.1-.2.1c-.7 0-1.3 0-1.6 0h-1.3c-.2 0-.2 0-.2-.1s0-.1.2-.1h.4c.2-.1.2-.3.3-.6s.1-1.2.1-2.2v-.9s0 0-.1 0h-3.9-.1v1 2.2s.1.5.4.6h.5c.1 0 .2 0 .2.1s-.1.1-.2.1c-.7 0-1.3 0-1.6 0h-1.3c-.1 0-.2 0-.2-.1s0-.1.2-.1h.4c.2-.1.2-.3.3-.6-.1-.8-.1-1.5-.1-2.2v-1.9c0-1.6 0-1.9 0-2.2s-.1-.5-.5-.6c-.1 0-.3 0-.4 0s-.2 0-.2-.1.1-.1.2-.1h1.5 1.4c.2 0 .2 0 .2.1s-.1.1-.2.1h-.3c-.3.1-.4.2-.4.6s0 .6 0 2.2v.2s0 .1.1.1z"/><path d="m74.6 3.1c0-1.6 0-1.9 0-2.2s-.1-.5-.4-.6c-.1 0-.3 0-.4 0s-.2 0-.2-.1.1-.1.2-.1h1.5 2.6l.4-.1h.2s.1 0 .1.1 0 .2-.1.7c0 .1 0 .6-.1.7s0 .1-.1.1-.1 0-.1-.1 0-.3-.1-.4c-.1-.2-.2-.4-.7-.4-.2 0-1.2 0-1.5 0 0 0-.1 0-.1.1v2.6c0 .1 0 .1.1.1h1.7s.4 0 .5-.2.1-.1.2-.1.1 0 .1.1 0 .2-.1.8v.7s0 .2-.1.2-.1 0-.1-.1 0-.2 0-.4-.2-.4-.6-.4c-.2 0-1.2 0-1.5 0-.1 0-.1 0-.1.1v.8 1.6c0 .7.2.9 1.2.9.3 0 .7 0 1-.1s.4-.3.5-.8c0-.1 0-.2.1-.2s.1.1.1.2c0 .4-.1.8-.1 1.2-.1.2-.2.2-.5.2-1.6 0-2.3 0-2.9 0h-1.3c-.1 0-.2 0-.2-.1s0-.1.2-.1h.4c.2-.1.3-.3.3-.6s0-1.2 0-2.2z"/><path d="m56.6 18c0-2.7 0-3.2 0-3.7s-.2-.9-.7-1c-.2 0-.4 0-.6 0-.1 0-.1 0-.1-.1s.1-.1.3-.1h2s1.2 0 1.7 0c.2 0 .3 0 .3.1s-.1.1-.1.1c-.1 0-.3 0-.4 0-.5.1-.6.4-.6 1s0 1 0 3.7v2.4c0 2.5.5 3.5 1.3 4.2.7.7 1.6 1 2.6.9 1 0 2-.5 2.7-1.2.8-1.3 1.1-2.7 1-4.2v-2.1c0-2.7 0-3.2 0-3.7s-.2-.9-.7-1c-.2 0-.4 0-.6 0-.1 0-.1 0-.1-.1s.1-.1.3-.1h1.8s.9 0 1.4 0c.2 0 .3 0 .3.1s-.1.1-.1.1c-.1 0-.3 0-.4 0-.5.1-.6.4-.6 1s0 1 0 3.7v1.8c0 1.9-.2 3.9-1.6 5.1-1 .9-2.2 1.3-3.5 1.3-1.3.1-2.7-.4-3.7-1.2-.8-.8-1.5-2-1.5-4.5z"/><path d="m73.2 23.6c0 1.4.2 1.9.7 2 .3.1.6.1.8.1.1 0 .1 0 .1.1s-.1.2-.3.2c-1 0-1.7 0-1.8 0s-.9 0-1.6 0c-.2 0-.3 0-.3-.1s0-.1.1-.1c.2 0 .5 0 .7-.1.4-.1.5-.6.5-2.2v-9.8c0-.7.1-.9.2-.9s.4.4.6.5 2.8 3.1 5.5 5.9c1.7 1.8 3.6 3.9 4.1 4.5l-.2-8.7c0-1.1-.1-1.5-.7-1.6-.3-.1-.6-.1-.8-.1-.1 0-.1-.1-.1-.1s.1-.2.3-.2h1.8s.8 0 1.4 0c.2 0 .3 0 .3.1s-.1.1-.2.1-.3 0-.4 0c-.6.1-.6.5-.6 1.5v10.1c0 1.1 0 1.2-.2 1.2s-.3-.2-1.2-1.1c-.2-.2-2.7-2.7-4.5-4.6-2-2.1-3.9-4.3-4.5-4.9z"/><path d="m91.2 21c0 1.6 0 3 .1 3.7.1.5.2.9.7.9.3 0 .5.1.8.1.1 0 .1 0 .1.1s-.1.2-.3.2c-.9 0-2 0-2.1 0s-1.2 0-1.7 0c-.2 0-.3 0-.3-.1s0-.1.1-.1c.2 0 .3 0 .5-.1.3-.1.4-.4.5-.9.1-.7.1-2.1.1-3.7v-3c0-2.7 0-3.2 0-3.7s-.2-.9-.6-1c-.2 0-.4-.1-.5-.1s-.1 0-.1-.1c0-.1.1-.1.3-.1h1.7s1.2 0 1.7 0c.2 0 .3 0 .3.1s-.1.1-.1.1c-.1 0-.3 0-.4 0-.5.1-.6.4-.6 1s0 1 0 3.7z"/><path d="m101.9 23.9c1-2.3 3.3-8.3 3.7-9.5.1-.2.1-.4.2-.6 0-.2-.1-.3-.2-.4-.2 0-.4-.1-.7-.1-.1 0-.2 0-.2-.1s.1-.1.4-.1h1.7s.8 0 1.3 0c.2 0 .3 0 .3.1s-.1.1-.2.1c-.3 0-.6.1-.8.2-.2.2-.5.4-.9 1.6-.2.5-1.1 2.5-1.9 4.7-1 2.5-1.8 4.4-2.2 5.2-.5 1-.6 1.3-.7 1.3s-.3-.2-.6-1.1l-4.2-10.5c-.4-1-.6-1.1-1.2-1.3-.2 0-.4-.1-.7-.1-.1 0-.1-.1-.1-.1s.2-.1.4-.1h2s.9 0 1.6 0c.3 0 .5 0 .5.1s0 .1-.2.1-.4 0-.7.1c-.1.1-.2.2-.2.3.1.5.3 1 .5 1.4z"/><path d="m111.8 18c0-2.7 0-3.2 0-3.7s-.2-.9-.7-1c-.2 0-.4 0-.6 0-.1 0-.1 0-.1-.1s.1-.1.3-.1h1.9s3.5 0 3.9 0c.2 0 .5 0 .7-.1.1 0 .2-.1.2-.1l.1.1s-.1.3-.1.8c0 .2 0 .9-.1 1.1s0 .2-.1.2-.2-.1-.2-.2c0-.2 0-.4-.1-.6-.1-.3-.3-.5-1.2-.6-.3 0-2.2-.1-2.3-.1s-.1.1-.1.2v4.7c0 .1 0 .2.1.2s2.3 0 2.7 0 .7-.1.8-.2.2-.2.3-.2.1 0 .1.1-.1.4-.1 1c0 .3-.1 1-.1 1.1s0 .3-.1.3-.1-.1-.1-.2c0-.2 0-.4-.1-.6s-.2-.5-.9-.6c-.5 0-2.2-.1-2.5-.1-.1 0-.1 0-.1.1v1.6 2.9c0 1.2.3 1.4 2 1.4.6 0 1.1 0 1.7-.2.4-.2.7-.5.8-1.2 0-.2.1-.2.2-.2s.1.1.1.2c0 .6-.1 1.1-.2 1.7-.1.4-.2.4-.9.4-2.6 0-3.7-.1-4.2-.1 0 0-.3 0-.7 0h-1c-.2 0-.3 0-.3-.1s0-.1.1-.1c.2 0 .3 0 .5-.1.3-.1.4-.4.5-.9.1-.7.1-2.1.1-3.7z"/><path d="m123.1 18c0-2.7 0-3.2 0-3.7s-.2-.9-.7-1c-.2 0-.4 0-.6 0-.1 0-.1 0-.1-.1s.1-.1.3-.1h1.9s1.5 0 2 0c1.1-.1 2.2.2 3.1.8.7.6 1.2 1.4 1.2 2.3-.1 1.6-.8 3-2.1 4 1.4 1.8 2.6 3.3 3.6 4.4.5.6 1.3 1.1 2.1 1.2.2 0 .4.1.7 0 .1 0 .2 0 .2.1s-.1.1-.4.1h-1.3c-.6.1-1.3-.1-1.8-.3-.9-.7-1.7-1.5-2.3-2.5-.7-.9-1.5-2.1-1.9-2.5-.1-.1-.1-.1-.2-.1h-2.1c-.1 0-.1 0-.1.1v.3c0 1.6 0 3 .1 3.7 0 .5.2.9.7.9.3 0 .5.1.8.1.1 0 .1 0 .1.1s-.1.1-.3.1c-.9 0-2 0-2.1 0s-1.1 0-1.6 0c-.2 0-.3 0-.3-.1s0-.1.1-.1c.2 0 .3 0 .5-.1.3-.1.4-.4.5-.9.1-.7.1-2.1.1-3.7zm1.4 1.5c0 .1 0 .2.1.2.6.2 1.2.3 1.8.3.5 0 .9-.1 1.3-.3.7-.7 1.1-1.7 1-2.6 0-2.1-1.1-3.4-3-3.4-.4 0-.8 0-1.2.1-.1 0-.1.1-.1.2z"/><path d="m135.6 25.7c-.2-.1-.3-.2-.3-.6 0-.9.1-1.5.1-1.8s.1-.3.1-.3.1.1.1.2v.6c.3 1.1 1.4 1.9 2.5 1.8 1.3.1 2.4-.9 2.4-2.1 0-.1 0-.1 0-.2 0-1.2-.5-1.9-2-3.1l-.8-.6c-1.8-1.5-2.2-2.5-2.2-3.7 0-1.8 1.4-3.1 3.6-3.1.5 0 1.1 0 1.6.2.2.1.4.1.6.1.1 0 .2 0 .2.1s-.1.6-.1 1.8c0 .3 0 .4-.1.4s-.1-.1-.1-.2c0-.3-.1-.6-.2-.9-.1-.2-.6-.9-2.1-.9-1.1-.1-2 .7-2.1 1.8v.2c0 1 .5 1.6 2.1 2.9l.5.4c2 1.6 2.5 2.7 2.5 4 0 1.1-.5 2.2-1.5 2.9-.8.5-1.7.8-2.6.7-.7-.1-1.5-.3-2.2-.6z"/><path d="m148.8 21c0 1.6 0 3 .1 3.7.1.5.2.9.7.9.3 0 .5.1.8.1.1 0 .1 0 .1.1s-.1.1-.3.1c-.9 0-2 0-2.1 0s-1.2 0-1.7 0c-.2 0-.3 0-.3-.1s0-.1.1-.1c.2 0 .3 0 .5-.1.4-.1.4-.4.5-.9.1-.7.1-2.1.1-3.7v-3c0-2.7 0-3.2 0-3.7s-.2-.9-.6-1c-.2 0-.4-.1-.5-.1s-.1 0-.1-.1.1-.1.3-.1h1.7s1.2 0 1.7 0c.2 0 .3 0 .3.1s-.1.1-.1.1c-.1 0-.3 0-.4 0-.5.1-.6.4-.6 1s0 1 0 3.7z"/><path d="m159.4 21c0 1.6 0 3 .1 3.7.1.5.2.9.7.9.3 0 .5.1.8.1.1 0 .1 0 .1.1s-.1.2-.3.2c-.9 0-2 0-2.1 0s-1.2 0-1.7 0c-.2 0-.3 0-.3-.1s0-.1.1-.1c.2 0 .3 0 .5-.1.3-.1.4-.4.5-.9.2-.8.2-2.2.2-3.8v-7.3h-2.5c-1.1 0-1.5.1-1.8.6-.1.2-.2.3-.3.5 0 .1-.1.2-.2.2s-.1-.1-.1-.2.3-1.6.4-1.8.1-.3.2-.3c.2.1.5.2.8.2.5.1 1.1.1 1.4.1h6.4c.4 0 .8 0 1.2-.1.2 0 .3-.1.5-.1.1 0 .1.1.1.2v1.9s-.1.2-.1.2-.1-.1-.1-.3v-.2c-.1-.5-.5-.9-2.1-.9h-2.2z"/><path d="m170.8 21.5c0-.6-.1-1.2-.4-1.8-.1-.3-2.4-4-3-4.9-.3-.5-.7-.9-1.2-1.3-.2-.2-.5-.2-.7-.3-.1 0-.2 0-.2-.1s.1-.1.2-.1h1.7 1.4c.2 0 .2 0 .2.1s-.1.1-.3.1c-.1 0-.2.2-.2.3 0 .2.1.5.2.7.3.5 2.9 4.9 3.2 5.4.3-.7 2.5-4.5 2.8-5 .2-.3.3-.6.3-.9 0-.2-.1-.4-.3-.5s-.3-.1-.3-.2.1-.1.3-.1h1.1 1.7c.1 0 .2 0 .2.1s-.1.1-.2.1c-.3 0-.5.1-.8.2-.4.2-.7.5-.9.9-1.2 1.8-2.3 3.6-3.3 5.4-.2.5-.3 1.1-.3 1.7v1.7c0 .3 0 1 .1 1.7 0 .5.2.9.7.9.3 0 .5.1.8.1.1 0 .1 0 .1.1s-.1.1-.3.1c-.9 0-2 0-2.1 0s-1.2 0-1.7 0c-.2 0-.3 0-.3-.1s0-.1.1-.1c.2 0 .3 0 .5-.1.3-.1.5-.4.5-.9.1-.7.1-1.4.1-1.7z"/><path d="m62.4 30.7c3.9 0 6.7 2.4 6.7 6.4.1 3.7-2.7 6.8-6.5 7-.1 0-.3 0-.4 0-4.7 0-6.7-3.7-6.7-6.7 0-3.7 2.9-6.7 6.6-6.7zm.4 12.8c1.6 0 4.7-.9 4.7-5.9 0-4.1-2.5-6.3-5.2-6.3-2.9 0-5 1.9-5 5.6 0 4.1 2.4 6.6 5.5 6.6z"/><path d="m73.6 36c0-2.7 0-3.2 0-3.7s-.2-.9-.7-1c-.2 0-.4-.1-.6-.1-.1 0-.1 0-.1-.1s.1-.1.3-.1c.8 0 1.9.1 1.9.1h4.2c.3 0 .5 0 .8-.1.1 0 .2-.1.2-.1l.1.1s-.1.3-.1.8c0 .2-.1.9-.1 1.1s0 .2-.1.2-.1-.1-.1-.2c0-.2-.1-.4-.2-.7-.3-.4-.7-.6-1.2-.5h-2.6c-.1 0-.2 0-.2.2v4.7c0 .1 0 .2.1.2h2.2.8c.4 0 .6-.1.8-.3s.1-.2.2-.2.1 0 .1.1-.1.4-.1 1c0 .3-.1 1-.1 1.2s0 .3-.1.3-.1-.1-.1-.2c0-.2-.1-.4-.1-.6-.2-.4-.5-.6-.9-.6s-2.3 0-2.6 0c-.1 0-.1 0-.1.2v1.3c0 1.6 0 3 .1 3.7 0 .5.2.9.7.9.3 0 .5.1.8.1.1 0 .1 0 .1.1s-.2.2-.4.2c-.9 0-2 0-2.1 0s-1.2 0-1.7 0c-.2 0-.3 0-.3-.1s0-.1.1-.1c.2 0 .3 0 .5-.1.3-.1.4-.4.5-.9.1-.7.1-2.1.1-3.7z"/><path d="m90.1 36c0-2.7 0-3.2 0-3.7s-.2-.9-.7-1c-.2 0-.4-.1-.6-.1-.1 0-.1 0-.1-.1s.1-.1.3-.1h2l1.7-.1c.2 0 .3 0 .3.1s-.1.1-.1.1c-.1 0-.3 0-.4.1-.5.1-.6.4-.6 1s0 1 0 3.7v2.4c0 2.5.6 3.5 1.3 4.2s1.6 1 2.6.9c1 0 2-.5 2.7-1.2.8-1 1-2.4 1-4.2v-2c0-2.7 0-3.2 0-3.7s-.2-.9-.7-1c-.2 0-.4-.1-.6-.1-.1 0-.1 0-.1-.1s.1-.1.3-.1h1.8s.9 0 1.4-.1c.2 0 .3 0 .3.1s-.1.1-.1.1c-.1 0-.3 0-.4.1-.5.1-.6.4-.6 1s0 1 0 3.7v1.8c0 1.9-.2 3.9-1.6 5.1-1 .9-2.2 1.3-3.5 1.3-1.3.1-2.7-.4-3.7-1.2-.8-.8-1.5-2-1.5-4.5z"/><path d="m109.8 39c0 1.6 0 3 .1 3.7 0 .5.2.9.7.9.3 0 .5.1.8.1.1 0 .1 0 .1.1s-.1.1-.3.1c-.9 0-2 0-2.1 0s-1.2 0-1.7 0c-.2 0-.3 0-.3-.1s0-.1.1-.1c.2 0 .3 0 .5-.1.3-.1.4-.4.5-.9.1-.7.1-2.1.1-3.7v-7.3h-2.5c-1.1 0-1.5.1-1.8.6-.1.2-.2.3-.3.5 0 .1-.1.2-.2.2s-.1 0-.1-.2.3-1.6.4-1.8.1-.3.2-.3c.2.1.5.2.8.2.5 0 1.2.1 1.3.1h6.4c.4 0 .8 0 1.2-.1.3 0 .4-.1.5-.1s.1.1.1.2c0 .5-.1 1.7-.1 1.9s-.1.2-.1.2-.1 0-.1-.3v-.2c-.1-.5-.5-.9-2.1-.9h-2.2z"/><path d="m120.6 31.4c.2-.6.3-.7.4-.7s.2.1.4.6 3 7.7 4 10.3c.6 1.5 1.1 1.8 1.5 1.9.2.1.5.1.7.1.1 0 .2 0 .2.1s-.2.1-.3.1-1.5 0-2.7 0c-.3 0-.5 0-.5-.1s.1-.1.1-.1c.1 0 .2-.2.1-.5l-1.6-4.2c0-.1-.1-.1-.2-.1h-3.7c-.1 0-.1 0-.2.1l-1 3c-.1.4-.2.7-.2 1.1 0 .3.4.5.7.5h.2c.1 0 .2 0 .2.1s-.1.1-.3.1c-.4 0-1.2 0-1.3 0s-1.1 0-1.9 0c-.2 0-.3 0-.3-.1s.1-.1.2-.1h.5c.8-.1 1.1-.8 1.4-1.6zm1.8 6.9c.1 0 .1 0 0 0l-1.5-4.7c-.1-.2-.2-.2-.3 0l-1.5 4.6v.1z"/><path d="m141.3 39c0 1.6 0 3 .1 3.7 0 .5.1.9.7.9.3 0 .5.1.8.1.1 0 .1 0 .1.1s-.1.1-.3.1c-.9 0-2 0-2.1 0s-1.2 0-1.7 0c-.2 0-.3 0-.3-.1s0-.1.1-.1c.2 0 .3 0 .5-.1.3-.1.4-.4.5-.9.1-.7.1-2.1.1-3.7v-1.8c0-.1 0-.1-.1-.1h-7.3c-.1 0-.1 0-.1.1v1.8c0 1.6 0 3 .1 3.7.1.5.1.9.7.9.3 0 .5.1.8.1.1 0 .1 0 .1.1s0 .2-.2.2c-.9 0-2 0-2.1 0s-1.2 0-1.7 0c-.2 0-.3 0-.3-.1s0-.1.1-.1c.2 0 .3 0 .5-.1.3-.1.4-.4.5-.9.2-.8.2-2.2.2-3.8v-3c0-2.7 0-3.2 0-3.7s-.2-.9-.7-1c-.2 0-.4-.1-.6-.1-.1 0-.1 0-.1-.1s.1-.1.3-.1h1.9l1.7-.1c.2 0 .3 0 .3.1s-.1.1-.1.1c-.1 0-.3 0-.4.1-.5.1-.6.4-.6 1s0 1 0 3.7v.4c0 .1.1.1.1.1h7.3s.1 0 .1-.1v-.3c0-2.7 0-3.2 0-3.7s-.2-.9-.7-1c-.2 0-.4-.1-.6-.1-.1 0-.1 0-.1-.1s.1-.1.3-.1h1.9l1.6-.1c.2 0 .3 0 .3.1s-.1.1-.1.1c-.1 0-.3 0-.4.1-.5.1-.6.4-.6 1s0 1 0 3.7z"/><path d="m148.9 30.9c1.5 0 2.6 1.2 2.6 2.6s-1.2 2.6-2.6 2.6c-1.5 0-2.6-1.2-2.6-2.6-.1-1.4 1.1-2.6 2.6-2.6-.1 0 0 0 0 0zm0 .4c-1.2 0-2.2 1-2.2 2.2s1 2.2 2.2 2.2 2.1-1 2.1-2.2c0-1.2-.9-2.2-2.1-2.2zm-.5 3.8h-.5v-2.9c.3 0 .6-.1.8-.1.3 0 .6.1.9.2.2.1.3.4.3.6 0 .3-.2.6-.6.7.3 0 .4.3.5.7 0 .3.1.5.2.7h-.5c-.1-.2-.2-.5-.2-.8s-.3-.5-.6-.5c0 0 0 0-.1 0h-.3zm0-1.7h.3c.4 0 .7-.1.7-.5s-.2-.5-.7-.5c-.1 0-.2 0-.3 0z"/></g></svg>