<svg width="767" height="239" viewBox="0 0 767 239" fill="none" xmlns="http://www.w3.org/2000/svg">
<g clip-path="url(#clip0_20_617)">
<mask id="mask0_20_617" style="mask-type:luminance" maskUnits="userSpaceOnUse" x="6" y="-374" width="149" height="609">
<path d="M51.9845 31.3015V31.7072C51.5788 31.7072 51.173 32.1129 51.173 32.5186V39.01C51.173 39.4157 51.5788 39.8214 51.9845 39.8214H58.4773C59.6946 39.8214 60.5062 40.6328 60.5062 41.8499V88.1005C60.5062 88.9119 60.1004 89.7234 58.8831 90.1291C27.6369 99.866 6.94141 128.266 6.94141 160.722C6.94141 201.699 40.2165 234.561 80.7959 234.561C121.781 234.561 154.65 201.293 154.65 160.722C154.65 128.266 133.549 99.4603 102.709 90.1291C101.897 89.7234 101.086 88.9119 101.086 88.1005V41.4442C101.086 40.2271 101.897 39.4157 103.115 39.4157H109.607C110.013 39.4157 110.419 39.0099 110.419 38.6042V-367.103V-374" fill="white"/>
</mask>
<g mask="url(#mask0_20_617)">
<path d="M76.7382 31.2321C79.5082 31.2321 81.7537 28.987 81.7537 26.2176C81.7537 23.4482 79.5082 21.2031 76.7382 21.2031C73.9682 21.2031 71.7227 23.4482 71.7227 26.2176C71.7227 28.987 73.9682 31.2321 76.7382 31.2321Z" fill="#C03A2B" stroke="black" stroke-width="0.016129"/>
<path d="M76.7373 15.9606C79.6492 15.9606 82.0098 13.6006 82.0098 10.6893C82.0098 7.77802 79.6492 5.41797 76.7373 5.41797C73.8254 5.41797 71.4648 7.77802 71.4648 10.6893C71.4648 13.6006 73.8254 15.9606 76.7373 15.9606Z" fill="#C03A2B" stroke="black" stroke-width="0.016129"/>
<path d="M40.3405 141.244C44.7343 141.244 48.2962 137.683 48.2962 133.29C48.2962 128.897 44.7343 125.336 40.3405 125.336C35.9467 125.336 32.3848 128.897 32.3848 133.29C32.3848 137.683 35.9467 141.244 40.3405 141.244Z" fill="#C03A2B" stroke="black" stroke-width="0.016129"/>
<path d="M38.7501 148.022C42.9419 148.022 46.3401 144.625 46.3401 140.434C46.3401 136.243 42.9419 132.846 38.7501 132.846C34.5583 132.846 31.1602 136.243 31.1602 140.434C31.1602 144.625 34.5583 148.022 38.7501 148.022Z" fill="#C03A2B" stroke="black" stroke-width="0.016129"/>
<path d="M21.4442 150.475C22.7552 150.475 23.8181 149.413 23.8181 148.102C23.8181 146.791 22.7552 145.729 21.4442 145.729C20.1331 145.729 19.0703 146.791 19.0703 148.102C19.0703 149.413 20.1331 150.475 21.4442 150.475Z" fill="#C03A2B" stroke="black" stroke-width="0.016129"/>
<path d="M16.6982 141.657C20.404 141.657 23.4081 138.654 23.4081 134.949C23.4081 131.244 20.404 128.24 16.6982 128.24C12.9924 128.24 9.98828 131.244 9.98828 134.949C9.98828 138.654 12.9924 141.657 16.6982 141.657Z" fill="#C03A2B" stroke="black" stroke-width="0.016129"/>
<path d="M35.1905 137.88C39.2653 137.88 42.5686 134.577 42.5686 130.503C42.5686 126.43 39.2653 123.127 35.1905 123.127C31.1158 123.127 27.8125 126.43 27.8125 130.503C27.8125 134.577 31.1158 137.88 35.1905 137.88Z" fill="#C03A2B" stroke="black" stroke-width="0.016129"/>
<path d="M41.4771 146.537C43.0382 146.537 44.3037 145.272 44.3037 143.711C44.3037 142.15 43.0382 140.885 41.4771 140.885C39.9159 140.885 38.6504 142.15 38.6504 143.711C38.6504 145.272 39.9159 146.537 41.4771 146.537Z" fill="#C03A2B" stroke="black" stroke-width="0.016129"/>
<path d="M25.0264 164.694C26.4033 164.694 27.5196 163.578 27.5196 162.202C27.5196 160.825 26.4033 159.709 25.0264 159.709C23.6494 159.709 22.5332 160.825 22.5332 162.202C22.5332 163.578 23.6494 164.694 25.0264 164.694Z" fill="#C03A2B" stroke="black" stroke-width="0.016129"/>
<path d="M39.2129 170.522C43.1317 170.522 46.3086 167.346 46.3086 163.428C46.3086 159.51 43.1317 156.334 39.2129 156.334C35.294 156.334 32.1172 159.51 32.1172 163.428C32.1172 167.346 35.294 170.522 39.2129 170.522Z" fill="#C03A2B" stroke="black" stroke-width="0.016129"/>
<path d="M76.8765 158.828C78.0768 158.828 79.0499 157.855 79.0499 156.655C79.0499 155.455 78.0768 154.482 76.8765 154.482C75.6762 154.482 74.7031 155.455 74.7031 156.655C74.7031 157.855 75.6762 158.828 76.8765 158.828Z" fill="#E64C3C" stroke="black" stroke-width="0.016129"/>
<path d="M66.9124 154.556C68.7614 154.556 70.2603 153.057 70.2603 151.209C70.2603 149.36 68.7614 147.861 66.9124 147.861C65.0634 147.861 63.5645 149.36 63.5645 151.209C63.5645 153.057 65.0634 154.556 66.9124 154.556Z" fill="#E64C3C" stroke="black" stroke-width="0.016129"/>
<path d="M93.0045 139.23C95.5268 139.23 97.5715 137.185 97.5715 134.664C97.5715 132.142 95.5268 130.098 93.0045 130.098C90.4822 130.098 88.4375 132.142 88.4375 134.664C88.4375 137.185 90.4822 139.23 93.0045 139.23Z" fill="#E64C3C" stroke="black" stroke-width="0.016129"/>
<path d="M88.5041 165.289C92.2602 165.289 95.3051 162.244 95.3051 158.489C95.3051 154.734 92.2602 151.689 88.5041 151.689C84.748 151.689 81.7031 154.734 81.7031 158.489C81.7031 162.244 84.748 165.289 88.5041 165.289Z" fill="#E64C3C" stroke="black" stroke-width="0.016129"/>
<path d="M67.6625 149.206C69.6658 149.206 71.2898 147.583 71.2898 145.58C71.2898 143.577 69.6658 141.953 67.6625 141.953C65.6592 141.953 64.0352 143.577 64.0352 145.58C64.0352 147.583 65.6592 149.206 67.6625 149.206Z" fill="#E64C3C" stroke="black" stroke-width="0.016129"/>
<path d="M92.7815 133.999C96.53 133.999 99.5688 130.961 99.5688 127.214C99.5688 123.466 96.53 120.428 92.7815 120.428C89.0329 120.428 85.9941 123.466 85.9941 127.214C85.9941 130.961 89.0329 133.999 92.7815 133.999Z" fill="#E64C3C" stroke="black" stroke-width="0.016129"/>
<path d="M71.9847 159.009C75.9857 159.009 79.2291 155.766 79.2291 151.766C79.2291 147.766 75.9857 144.523 71.9847 144.523C67.9837 144.523 64.7402 147.766 64.7402 151.766C64.7402 155.766 67.9837 159.009 71.9847 159.009Z" fill="#E64C3C" stroke="black" stroke-width="0.016129"/>
<path d="M83.5581 132.494C85.4294 132.494 86.9463 130.977 86.9463 129.106C86.9463 127.235 85.4294 125.719 83.5581 125.719C81.6869 125.719 80.1699 127.235 80.1699 129.106C80.1699 130.977 81.6869 132.494 83.5581 132.494Z" fill="#E64C3C" stroke="black" stroke-width="0.016129"/>
<path d="M84.8538 86.4508C88.6024 86.4508 91.6412 83.4126 91.6412 79.6648C91.6412 75.9171 88.6024 72.8789 84.8538 72.8789C81.1052 72.8789 78.0664 75.9171 78.0664 79.6648C78.0664 83.4126 81.1052 86.4508 84.8538 86.4508Z" fill="#E66558" stroke="black" stroke-width="0.016129"/>
<path d="M84.853 69.9652C88.0963 69.9652 90.7255 67.3365 90.7255 64.0939C90.7255 60.8513 88.0963 58.2227 84.853 58.2227C81.6097 58.2227 78.9805 60.8513 78.9805 64.0939C78.9805 67.3365 81.6097 69.9652 84.853 69.9652Z" fill="#E66558" stroke="black" stroke-width="0.016129"/>
<path d="M147.608 142.73C150.664 142.73 153.141 140.254 153.141 137.199C153.141 134.144 150.664 131.668 147.608 131.668C144.553 131.668 142.076 134.144 142.076 137.199C142.076 140.254 144.553 142.73 147.608 142.73Z" fill="#E66558" stroke="black" stroke-width="0.016129"/>
<path d="M126.31 149.352C128.402 149.352 130.098 147.656 130.098 145.565C130.098 143.473 128.402 141.777 126.31 141.777C124.217 141.777 122.521 143.473 122.521 145.565C122.521 147.656 124.217 149.352 126.31 149.352Z" fill="#E66558" stroke="black" stroke-width="0.016129"/>
<path d="M132.318 160.915C135.891 160.915 138.787 158.02 138.787 154.448C138.787 150.876 135.891 147.98 132.318 147.98C128.746 147.98 125.85 150.876 125.85 154.448C125.85 158.02 128.746 160.915 132.318 160.915Z" fill="#E66558" stroke="black" stroke-width="0.016129"/>
<path d="M119.095 166.348C121.641 166.348 123.705 164.284 123.705 161.738C123.705 159.193 121.641 157.129 119.095 157.129C116.549 157.129 114.484 159.193 114.484 161.738C114.484 164.284 116.549 166.348 119.095 166.348Z" fill="#E66558" stroke="black" stroke-width="0.016129"/>
<path d="M141.333 148C143.044 148 144.431 146.613 144.431 144.902C144.431 143.192 143.044 141.805 141.333 141.805C139.622 141.805 138.234 143.192 138.234 144.902C138.234 146.613 139.622 148 141.333 148Z" fill="#E66558" stroke="black" stroke-width="0.016129"/>
<path d="M128.061 148.187C129.463 148.187 130.6 147.05 130.6 145.648C130.6 144.246 129.463 143.109 128.061 143.109C126.658 143.109 125.521 144.246 125.521 145.648C125.521 147.05 126.658 148.187 128.061 148.187Z" fill="#E66558" stroke="black" stroke-width="0.016129"/>
<path d="M132.633 125.819C133.902 125.819 134.931 124.79 134.931 123.522C134.931 122.253 133.902 121.225 132.633 121.225C131.365 121.225 130.336 122.253 130.336 123.522C130.336 124.79 131.365 125.819 132.633 125.819Z" fill="#E66558" stroke="black" stroke-width="0.016129"/>
<path d="M139.916 130.988C142.532 130.988 144.653 128.868 144.653 126.253C144.653 123.638 142.532 121.518 139.916 121.518C137.3 121.518 135.18 123.638 135.18 126.253C135.18 128.868 137.3 130.988 139.916 130.988Z" fill="#E66558" stroke="black" stroke-width="0.016129"/>
</g>
<mask id="mask1_20_617" style="mask-type:luminance" maskUnits="userSpaceOnUse" x="6" y="-374" width="149" height="609">
<path d="M51.9845 31.3015V31.7072C51.5788 31.7072 51.173 32.1129 51.173 32.5186V39.01C51.173 39.4157 51.5788 39.8214 51.9845 39.8214H58.4773C59.6946 39.8214 60.5062 40.6328 60.5062 41.8499V88.1005C60.5062 88.9119 60.1004 89.7234 58.8831 90.1291C27.6369 99.866 6.94141 128.266 6.94141 160.722C6.94141 201.699 40.2165 234.561 80.7959 234.561C121.781 234.561 154.65 201.293 154.65 160.722C154.65 128.266 133.549 99.4603 102.709 90.1291C101.897 89.7234 101.086 88.9119 101.086 88.1005V41.4442C101.086 40.2271 101.897 39.4157 103.115 39.4157H109.607C110.013 39.4157 110.419 39.0099 110.419 38.6042V-367.103V-374" fill="white"/>
</mask>
<g mask="url(#mask1_20_617)">
<path d="M11.8118 193.991C14.053 193.991 15.8698 192.175 15.8698 189.934C15.8698 187.693 14.053 185.877 11.8118 185.877C9.57071 185.877 7.75391 187.693 7.75391 189.934C7.75391 192.175 9.57071 193.991 11.8118 193.991Z" fill="#C03A2B"/>
<path d="M15.8691 191.964C22.5926 191.964 28.043 186.514 28.043 179.792C28.043 173.07 22.5926 167.621 15.8691 167.621C9.14572 167.621 3.69531 173.07 3.69531 179.792C3.69531 186.514 9.14572 191.964 15.8691 191.964Z" fill="#C03A2B"/>
<path d="M19.9271 193.991C22.1682 193.991 23.985 192.175 23.985 189.934C23.985 187.693 22.1682 185.877 19.9271 185.877C17.6859 185.877 15.8691 187.693 15.8691 189.934C15.8691 192.175 17.6859 193.991 19.9271 193.991Z" fill="#C03A2B"/>
<path d="M23.984 191.963C25.1046 191.963 26.013 191.055 26.013 189.935C26.013 188.814 25.1046 187.906 23.984 187.906C22.8635 187.906 21.9551 188.814 21.9551 189.935C21.9551 191.055 22.8635 191.963 23.984 191.963Z" fill="#C03A2B"/>
<path d="M28.0423 193.991C30.2835 193.991 32.1003 192.175 32.1003 189.934C32.1003 187.693 30.2835 185.877 28.0423 185.877C25.8012 185.877 23.9844 187.693 23.9844 189.934C23.9844 192.175 25.8012 193.991 28.0423 193.991Z" fill="#C03A2B"/>
<path d="M32.101 191.152C38.1521 191.152 43.0574 186.248 43.0574 180.198C43.0574 174.148 38.1521 169.244 32.101 169.244C26.0499 169.244 21.1445 174.148 21.1445 180.198C21.1445 186.248 26.0499 191.152 32.101 191.152Z" fill="#C03A2B"/>
<path d="M36.1592 179.386C39.5209 179.386 42.2461 176.661 42.2461 173.3C42.2461 169.939 39.5209 167.215 36.1592 167.215C32.7975 167.215 30.0723 169.939 30.0723 173.3C30.0723 176.661 32.7975 179.386 36.1592 179.386Z" fill="#C03A2B"/>
<path d="M40.2165 183.848C41.337 183.848 42.2454 182.94 42.2454 181.82C42.2454 180.699 41.337 179.791 40.2165 179.791C39.0959 179.791 38.1875 180.699 38.1875 181.82C38.1875 182.94 39.0959 183.848 40.2165 183.848Z" fill="#C03A2B"/>
<path d="M45.0866 189.935C49.5689 189.935 53.2025 186.302 53.2025 181.821C53.2025 177.34 49.5689 173.707 45.0866 173.707C40.6043 173.707 36.9707 177.34 36.9707 181.821C36.9707 186.302 40.6043 189.935 45.0866 189.935Z" fill="#C03A2B"/>
<path d="M52.39 187.906H11.8105V593.613H52.39V187.906Z" fill="#C03A2B"/>
<path d="M64.5635 214.277C67.9252 214.277 70.6504 211.552 70.6504 208.191C70.6504 204.83 67.9252 202.105 64.5635 202.105C61.2018 202.105 58.4766 204.83 58.4766 208.191C58.4766 211.552 61.2018 214.277 64.5635 214.277Z" fill="#E64C3C"/>
<path d="M68.621 205.351C71.5345 205.351 73.8964 202.99 73.8964 200.077C73.8964 197.164 71.5345 194.803 68.621 194.803C65.7075 194.803 63.3457 197.164 63.3457 200.077C63.3457 202.99 65.7075 205.351 68.621 205.351Z" fill="#E64C3C"/>
<path d="M72.679 206.161C74.9202 206.161 76.737 204.345 76.737 202.104C76.737 199.863 74.9202 198.047 72.679 198.047C70.4379 198.047 68.6211 199.863 68.6211 202.104C68.6211 204.345 70.4379 206.161 72.679 206.161Z" fill="#E64C3C"/>
<path d="M76.7373 198.048C80.099 198.048 82.8242 195.324 82.8242 191.963C82.8242 188.602 80.099 185.877 76.7373 185.877C73.3756 185.877 70.6504 188.602 70.6504 191.963C70.6504 195.324 73.3756 198.048 76.7373 198.048Z" fill="#E64C3C"/>
<path d="M80.7943 212.247C83.0354 212.247 84.8522 210.431 84.8522 208.19C84.8522 205.949 83.0354 204.133 80.7943 204.133C78.5531 204.133 76.7363 205.949 76.7363 208.19C76.7363 210.431 78.5531 212.247 80.7943 212.247Z" fill="#E64C3C"/>
<path d="M84.8529 209.408C90.904 209.408 95.8094 204.504 95.8094 198.454C95.8094 192.404 90.904 187.5 84.8529 187.5C78.8019 187.5 73.8965 192.404 73.8965 198.454C73.8965 204.504 78.8019 209.408 84.8529 209.408Z" fill="#E64C3C"/>
<path d="M88.9111 197.642C92.2728 197.642 94.998 194.917 94.998 191.556C94.998 188.195 92.2728 185.471 88.9111 185.471C85.5494 185.471 82.8242 188.195 82.8242 191.556C82.8242 194.917 85.5494 197.642 88.9111 197.642Z" fill="#E64C3C"/>
<path d="M92.9684 202.104C94.089 202.104 94.9974 201.196 94.9974 200.075C94.9974 198.955 94.089 198.047 92.9684 198.047C91.8479 198.047 90.9395 198.955 90.9395 200.075C90.9395 201.196 91.8479 202.104 92.9684 202.104Z" fill="#E64C3C"/>
<path d="M97.8385 208.191C102.321 208.191 105.954 204.558 105.954 200.077C105.954 195.596 102.321 191.963 97.8385 191.963C93.3563 191.963 89.7227 195.596 89.7227 200.077C89.7227 204.558 93.3563 208.191 97.8385 208.191Z" fill="#E64C3C"/>
<path d="M101.085 204.133H60.5059V609.84H101.085V204.133Z" fill="#E64C3C"/>
<path d="M117.317 185.877C122.92 185.877 127.462 181.336 127.462 175.734C127.462 170.133 122.92 165.592 117.317 165.592C111.714 165.592 107.172 170.133 107.172 175.734C107.172 181.336 111.714 185.877 117.317 185.877Z" fill="#E66558"/>
<path d="M121.375 174.923C124.288 174.923 126.65 172.562 126.65 169.649C126.65 166.736 124.288 164.375 121.375 164.375C118.461 164.375 116.1 166.736 116.1 169.649C116.1 172.562 118.461 174.923 121.375 174.923Z" fill="#E66558"/>
<path d="M125.433 173.706C127.674 173.706 129.491 171.89 129.491 169.649C129.491 167.408 127.674 165.592 125.433 165.592C123.192 165.592 121.375 167.408 121.375 169.649C121.375 171.89 123.192 173.706 125.433 173.706Z" fill="#E66558"/>
<path d="M129.491 167.62C132.853 167.62 135.578 164.896 135.578 161.535C135.578 158.174 132.853 155.449 129.491 155.449C126.13 155.449 123.404 158.174 123.404 161.535C123.404 164.896 126.13 167.62 129.491 167.62Z" fill="#E66558"/>
<path d="M133.548 169.649C135.789 169.649 137.606 167.833 137.606 165.592C137.606 163.352 135.789 161.535 133.548 161.535C131.307 161.535 129.49 163.352 129.49 165.592C129.49 167.833 131.307 169.649 133.548 169.649Z" fill="#E66558"/>
<path d="M137.607 176.951C143.658 176.951 148.563 172.047 148.563 165.997C148.563 159.947 143.658 155.043 137.607 155.043C131.556 155.043 126.65 159.947 126.65 165.997C126.65 172.047 131.556 176.951 137.607 176.951Z" fill="#E66558"/>
<path d="M141.665 168.837C145.027 168.837 147.752 166.113 147.752 162.752C147.752 159.391 145.027 156.666 141.665 156.666C138.303 156.666 135.578 159.391 135.578 162.752C135.578 166.113 138.303 168.837 141.665 168.837Z" fill="#E66558"/>
<path d="M145.722 169.649C146.843 169.649 147.751 168.741 147.751 167.62C147.751 166.5 146.843 165.592 145.722 165.592C144.602 165.592 143.693 166.5 143.693 167.62C143.693 168.741 144.602 169.649 145.722 169.649Z" fill="#E66558"/>
<path d="M150.592 175.734C155.075 175.734 158.708 172.101 158.708 167.62C158.708 163.139 155.075 159.506 150.592 159.506C146.11 159.506 142.477 163.139 142.477 167.62C142.477 172.101 146.11 175.734 150.592 175.734Z" fill="#E66558"/>
<path d="M149.781 171.678H109.201V577.385H149.781V171.678Z" fill="#E66558"/>
</g>
<path d="M80.7953 238.618C37.7811 238.618 2.88281 203.727 2.88281 160.722C2.88281 126.642 23.9841 97.0258 56.4476 86.4774V43.4724H51.9839C49.1433 43.4724 47.1144 41.4439 47.1144 38.6039V32.1126C47.1144 29.2727 49.1433 27.2441 51.9839 27.2441H109.607C112.447 27.2441 114.476 29.2727 114.476 32.1126V38.6039C114.476 41.4439 112.447 43.4724 109.607 43.4724H105.143V86.4774C137.201 97.0258 158.708 126.642 158.708 160.722C158.708 203.727 123.809 238.618 80.7953 238.618ZM51.9839 31.7069C51.5781 31.7069 51.1723 32.1126 51.1723 32.5183V39.0097C51.1723 39.4154 51.5781 39.8211 51.9839 39.8211H58.4766C59.694 39.8211 60.5056 40.6325 60.5056 41.8496V88.1002C60.5056 88.9116 60.0998 89.7231 58.8824 90.1288C27.6363 99.8657 6.94075 128.265 6.94075 160.722C6.94075 201.698 40.2159 234.561 80.7953 234.561C121.781 234.561 154.65 201.293 154.65 160.722C154.65 128.265 133.549 99.46 102.708 90.1288C101.897 89.7231 101.085 88.9116 101.085 88.1002V41.4439C101.085 40.2268 101.897 39.4154 103.114 39.4154H109.607C110.012 39.4154 110.418 39.0097 110.418 38.6039V32.1126C110.418 31.7069 110.012 31.3012 109.607 31.3012H51.9839V31.7069Z" fill="white"/>
<path d="M218.766 63.7578H231.345L243.925 96.6201L256.504 63.7578H268.678L250.418 110.82H237.838L218.766 63.7578Z" fill="#C03A2B"/>
<path d="M275.982 93.7812H287.75V110.821H275.982V93.7812Z" fill="#C03A2B"/>
<path d="M325.895 76.7416C323.461 73.496 320.62 71.8731 316.562 71.8731C314.939 71.8731 313.316 72.2789 312.098 73.0903C310.475 73.9017 309.664 75.1188 309.664 76.7416C309.664 78.3645 310.475 79.1759 311.693 79.9873C312.91 80.7987 314.533 81.2044 316.562 81.6101C318.591 82.0158 320.62 82.4215 322.649 82.8272C324.678 83.233 326.707 84.0444 328.736 85.2615C330.765 86.0729 331.982 87.6957 333.605 89.3186C334.823 90.9414 335.634 93.3756 335.634 96.6213C335.634 99.4612 335.229 101.895 334.011 103.518C332.794 105.547 331.171 107.17 329.142 107.981C327.113 109.198 325.084 110.01 322.649 110.415C320.214 110.821 317.779 111.227 315.345 111.227C311.693 111.227 308.446 110.821 305.2 109.604C301.954 108.387 299.519 106.764 297.084 103.924L304.794 96.6213C306.417 98.2441 308.04 99.8669 309.664 100.678C311.287 101.49 313.316 102.301 315.751 102.301C316.562 102.301 317.374 102.301 318.185 101.895C318.997 101.895 319.808 101.49 320.62 101.084C321.432 100.678 321.837 99.867 322.649 99.4612C323.055 98.6498 323.461 97.8384 323.461 97.027C323.461 95.4042 322.649 94.187 321.432 93.3756C320.214 92.5642 318.591 92.1585 316.562 91.3471C314.533 90.9414 312.504 90.5357 310.475 90.13C308.446 89.7243 306.417 88.9129 304.388 88.1014C302.359 87.29 301.142 85.6672 299.519 84.0444C298.301 82.4215 297.49 79.9873 297.49 77.1473C297.49 74.7131 297.896 72.2789 299.113 70.2503C300.33 68.2218 301.548 66.599 303.171 65.3818C304.794 64.1647 306.823 63.3533 309.258 62.5419C311.693 62.1362 313.722 61.7305 316.156 61.7305C319.403 61.7305 322.243 62.1362 325.49 63.3533C328.736 64.5704 331.171 66.1932 332.794 69.0332L325.895 76.7416Z" fill="#C03A2B"/>
<path d="M386.765 110.82H375.809V103.517C374.591 105.951 372.968 107.98 370.939 109.603C368.504 111.226 365.664 112.037 361.606 112.037C358.36 112.037 355.925 111.631 353.49 110.414C351.055 109.197 349.432 107.98 348.215 106.357C346.997 104.734 345.78 102.706 345.374 100.271C344.968 98.2429 344.562 95.8087 344.562 93.3744V63.7578H356.331V87.2888C356.331 88.506 356.331 90.1288 356.331 91.7516C356.331 93.3744 356.736 94.9973 357.548 96.2144C357.954 97.4315 358.765 98.6486 359.983 99.8658C361.2 100.677 362.823 101.083 364.852 101.083C366.881 101.083 368.504 100.677 369.722 100.271C370.939 99.46 372.157 98.6486 372.968 97.8372C373.78 96.6201 374.591 95.403 374.997 94.1859C375.403 92.9687 375.403 91.3459 375.403 89.7231V63.7578H387.171V110.82H386.765Z" fill="#C03A2B"/>
<path d="M429.372 104.329C427.343 107.169 425.314 108.792 422.474 110.009C420.039 111.226 417.198 111.632 413.952 111.632C411.923 111.632 409.894 111.226 407.865 110.821C405.836 110.415 403.807 109.198 402.59 108.386C400.967 107.169 399.749 105.952 398.938 103.924C398.126 102.301 397.314 100.272 397.314 97.8381C397.314 95.4038 397.72 92.9696 398.532 91.3468C399.343 89.7239 400.561 88.1011 402.184 86.884C403.807 85.6669 405.43 84.8555 407.459 84.044C409.488 83.2326 411.517 82.8269 413.546 82.4212C415.575 82.0155 418.01 82.0155 420.039 81.6098C422.068 81.6098 424.503 81.6098 426.126 81.6098H428.966V80.3927C428.966 77.5527 428.155 75.1185 426.126 73.9014C424.097 72.6842 421.662 71.4671 418.416 71.4671C415.981 71.4671 413.546 71.8728 411.517 72.6842C409.488 73.4957 407.459 74.7128 405.836 76.3356L400.155 70.25C402.59 67.41 405.836 65.7872 409.082 64.5701C412.329 63.353 415.981 62.9473 420.039 62.9473C423.285 62.9473 426.126 63.353 428.561 64.1644C430.995 64.9758 432.619 65.7872 434.242 67.0043C435.865 68.2215 437.082 69.4386 437.894 71.0614C438.705 72.6842 439.111 74.3071 439.517 75.5242C439.923 77.147 439.923 78.7698 440.329 79.987C440.329 81.6098 440.329 82.8269 440.329 83.6383V110.821H429.778V104.329H429.372ZM428.561 89.7239H426.126C424.503 89.7239 422.879 89.7239 420.851 89.7239C418.822 89.7239 416.793 90.1296 415.169 90.5354C413.546 90.9411 411.923 91.7525 410.706 92.5639C409.488 93.3753 408.677 94.9981 408.677 96.621C408.677 97.8381 409.082 98.6495 409.488 99.4609C409.894 100.272 410.706 100.678 411.517 101.489C412.329 101.895 413.14 102.301 413.952 102.707C414.764 103.112 415.981 103.112 416.793 103.112C420.851 103.112 423.691 102.301 425.72 100.272C427.749 98.2438 428.561 95.8096 428.561 92.5639V89.7239Z" fill="#C03A2B"/>
<path d="M452.504 36.9824H464.272V110.821H452.504V36.9824Z" fill="#C03A2B"/>
<path d="M499.98 99.8658L525.14 73.4948H501.198V63.7578H539.342V74.3062L514.183 101.083H540.56V110.82H500.386V99.8658H499.98Z" fill="#C03A2B"/>
<path d="M579.11 104.329C577.082 107.169 575.053 108.792 572.212 110.009C569.777 111.226 566.937 111.632 563.69 111.632C561.661 111.632 559.632 111.226 557.603 110.821C555.574 110.415 553.545 109.198 552.328 108.386C550.705 107.169 549.488 105.952 548.676 103.924C547.864 102.301 547.053 100.272 547.053 97.8381C547.053 95.4038 547.459 92.9696 548.27 91.3468C549.082 89.7239 550.299 88.1011 551.922 86.884C553.545 85.6669 555.169 84.8555 557.198 84.044C559.227 83.2326 561.256 82.8269 563.284 82.4212C565.313 82.0155 567.748 82.0155 569.777 81.6098C571.806 81.6098 574.241 81.6098 575.864 81.6098H578.705V80.3927C578.705 77.5527 577.893 75.1185 575.864 73.9014C573.835 72.6842 571.806 71.4671 568.56 71.4671C566.125 71.4671 563.69 71.8728 561.661 72.6842C559.632 73.4957 557.603 74.7128 555.98 76.3356L549.893 70.25C552.328 67.41 555.574 65.7872 558.821 64.5701C562.067 63.353 565.719 62.9473 569.777 62.9473C573.024 62.9473 575.864 63.353 578.299 64.1644C580.734 64.9758 582.357 65.7872 583.98 67.0043C585.603 68.2215 586.821 69.4386 587.632 71.0614C588.444 72.6842 588.85 74.3071 589.255 75.5242C589.661 77.147 589.661 78.7698 590.067 79.987C590.067 81.6098 590.067 82.8269 590.067 83.6383V110.821H579.516V104.329H579.11ZM578.705 89.7239H576.27C574.647 89.7239 573.024 89.7239 570.995 89.7239C568.966 89.7239 566.937 90.1296 565.313 90.5354C563.69 90.9411 562.067 91.7525 560.85 92.5639C559.632 93.3753 558.821 94.9981 558.821 96.621C558.821 97.8381 559.227 98.6495 559.632 99.4609C560.038 100.272 560.85 100.678 561.661 101.489C562.473 101.895 563.284 102.301 564.096 102.707C564.908 103.112 566.125 103.112 566.937 103.112C570.995 103.112 573.835 102.301 575.864 100.272C577.893 98.2438 578.705 95.8096 578.705 92.5639V89.7239Z" fill="#C03A2B"/>
<path d="M596.965 73.9021V63.7594H606.704V50.3711H618.472V63.7594H631.457V73.4964H618.472V93.7818C618.472 96.216 618.878 97.8388 619.689 99.4617C620.501 100.679 622.124 101.49 624.965 101.49C626.182 101.49 626.994 101.49 628.211 101.084C629.428 100.679 630.24 100.679 631.052 99.8674V109.604C629.834 110.01 628.211 110.416 626.588 110.821C624.965 111.227 623.341 111.227 621.718 111.227C618.472 111.227 616.037 110.821 614.008 110.01C611.979 109.199 610.356 108.387 609.139 106.764C607.921 105.547 607.11 103.519 606.704 101.49C606.298 99.4617 605.892 97.0274 605.892 94.1875V73.9021H596.965Z" fill="#C03A2B"/>
<path d="M663.516 87.2897C663.516 83.6383 664.327 80.3927 665.545 77.147C666.762 74.3071 668.791 71.4671 670.82 69.4386C673.255 67.41 675.689 65.7872 678.936 64.5701C682.182 63.353 685.429 62.9473 688.675 62.9473C692.327 62.9473 695.573 63.353 698.414 64.5701C701.254 65.7872 704.095 67.41 706.53 69.4386C708.965 71.4671 710.588 74.3071 711.805 77.147C713.023 79.987 713.834 83.6383 713.834 87.2897C713.834 90.9411 713.023 94.1867 711.805 97.4324C710.588 100.272 708.559 103.112 706.53 105.141C704.095 107.169 701.66 108.792 698.414 110.009C695.168 111.226 691.921 111.632 688.675 111.632C685.023 111.632 681.776 111.226 678.936 110.009C675.689 108.792 673.255 107.169 670.82 105.141C668.385 103.112 666.762 100.272 665.545 97.4324C663.921 94.1867 663.516 90.9411 663.516 87.2897ZM674.878 87.2897C674.878 88.9125 675.284 90.9411 675.689 92.5639C676.095 94.1867 677.313 95.8096 678.53 97.0267C679.747 98.2438 681.371 99.4609 682.994 100.272C684.617 101.084 686.646 101.489 688.675 101.489C690.704 101.489 692.733 101.084 694.356 100.272C695.979 99.4609 697.602 98.6495 698.82 97.0267C700.037 95.8096 700.849 94.1867 701.66 92.5639C702.472 90.9411 702.472 89.3182 702.472 87.2897C702.472 85.2612 702.066 83.6383 701.66 82.0155C700.849 80.3927 700.037 78.7698 698.82 77.5527C697.602 76.3356 695.979 75.1185 694.356 74.3071C692.733 73.4957 690.704 73.0899 688.675 73.0899C686.646 73.0899 684.617 73.4957 682.994 74.3071C681.371 75.1185 679.747 75.9299 678.53 77.5527C677.313 78.7698 676.501 80.3927 675.689 82.0155C675.284 83.6383 674.878 85.2612 674.878 87.2897Z" fill="#C03A2B"/>
<path d="M725.197 63.7581H736.153V71.0609C737.371 68.6266 738.994 66.5981 741.023 64.9753C743.458 63.3524 746.298 62.541 750.356 62.541C753.602 62.541 756.037 62.9467 758.472 64.1638C760.907 65.381 762.53 66.5981 763.747 68.2209C764.965 69.8437 766.182 71.8723 766.588 73.9008C766.994 75.9294 767.399 78.3636 767.399 80.7978V110.82H755.631V87.2892C755.631 86.072 755.631 84.4492 755.631 82.8264C755.631 81.2035 755.226 79.5807 754.414 78.3636C754.008 77.1465 753.197 75.9294 751.979 74.7122C750.762 73.9008 749.139 73.4951 747.11 73.4951C745.081 73.4951 743.458 73.9008 742.24 74.3065C741.023 75.1179 739.805 75.9294 738.994 76.7408C738.182 77.9579 737.371 79.175 736.965 80.3921C736.559 82.015 736.559 83.2321 736.559 84.8549V110.82H724.791V63.7581H725.197Z" fill="#C03A2B"/>
<path d="M262.186 204.134C260.157 206.974 258.128 209.002 255.288 210.219C252.041 211.842 249.201 212.248 245.954 212.248C242.302 212.248 239.056 211.436 236.215 210.219C233.375 209.002 230.94 207.379 228.911 204.945C226.882 202.511 225.259 200.077 224.447 197.237C223.636 194.397 222.824 191.151 222.824 187.905C222.824 184.66 223.23 181.414 224.447 178.168C225.665 175.328 227.288 172.488 228.911 170.46C230.94 168.431 233.375 166.403 236.215 165.186C239.056 163.969 241.897 163.157 245.549 163.157C247.578 163.157 249.607 163.563 251.23 163.969C252.853 164.374 254.476 165.186 255.694 165.591C256.911 166.403 258.128 167.214 258.94 168.026C259.751 168.837 260.563 169.649 261.375 170.46H261.78V137.598H273.548V211.031H262.592V204.134H262.186ZM234.592 187.905C234.592 189.528 234.998 191.557 235.404 193.18C236.215 194.802 237.027 196.425 238.244 197.642C239.462 198.859 241.085 200.077 242.708 200.888C244.331 201.699 246.36 202.105 248.389 202.105C250.418 202.105 252.447 201.699 254.07 200.888C255.694 200.077 257.317 199.265 258.534 197.642C259.751 196.425 260.563 194.802 261.375 193.18C262.186 191.557 262.186 189.934 262.186 187.905C262.186 185.877 261.78 184.254 261.375 182.631C260.563 181.008 259.751 179.385 258.534 178.168C257.317 176.951 255.694 175.734 254.07 174.923C252.447 174.111 250.418 173.706 248.389 173.706C246.36 173.706 244.331 174.111 242.708 174.923C241.085 175.734 239.462 176.546 238.244 178.168C237.027 179.385 236.215 181.008 235.404 182.631C234.592 184.254 234.592 185.877 234.592 187.905Z" fill="white"/>
<path d="M295.866 191.963C296.272 195.614 297.489 198.048 299.924 200.077C302.359 202.105 305.199 202.917 308.446 202.917C311.286 202.917 313.721 202.511 315.75 201.294C317.779 200.077 319.402 198.454 321.025 196.831L329.547 203.322C326.706 206.568 323.866 209.002 320.214 210.625C316.967 212.248 313.315 212.654 309.663 212.654C306.011 212.654 302.765 212.248 299.924 211.031C296.678 209.814 294.243 208.191 291.808 206.162C289.373 204.134 287.75 201.294 286.533 198.454C285.315 195.614 284.504 191.963 284.504 188.311C284.504 184.66 285.315 181.414 286.533 178.169C287.75 175.329 289.779 172.489 291.808 170.46C294.243 168.432 296.678 166.809 299.924 165.592C303.17 164.374 306.417 163.969 309.663 163.969C312.909 163.969 315.75 164.374 318.591 165.592C321.431 166.809 323.46 168.432 325.489 170.46C327.518 172.489 328.735 175.329 329.953 178.574C331.17 181.82 331.576 185.471 331.576 189.528V191.963H295.866ZM319.808 183.037C319.808 179.791 318.591 176.951 316.562 174.923C314.533 172.894 311.692 172.083 308.04 172.083C304.388 172.083 301.953 172.894 299.518 174.923C297.084 176.951 296.272 179.791 295.866 183.037H319.808Z" fill="white"/>
<path d="M367.286 177.357C364.851 174.112 362.01 172.489 357.952 172.489C356.329 172.489 354.706 172.895 353.489 173.706C351.865 174.517 351.054 175.735 351.054 177.357C351.054 178.98 351.865 179.792 353.083 180.603C354.3 181.414 355.923 181.82 357.952 182.226C359.981 182.632 362.01 183.037 364.039 183.443C366.068 183.849 368.097 184.66 370.126 185.877C372.155 186.689 373.372 188.312 374.996 189.934C376.213 191.557 377.025 193.991 377.025 197.237C377.025 200.077 376.619 202.511 375.401 204.134C374.184 206.163 372.561 207.785 370.532 208.597C368.503 209.814 366.474 210.625 364.039 211.031C361.199 212.248 358.764 212.248 356.329 212.248C352.677 212.248 349.431 211.843 346.184 210.625C342.938 209.408 340.503 207.785 338.068 204.946L345.778 197.643C347.402 199.266 349.025 200.888 350.648 201.7C352.271 202.917 354.3 203.323 356.735 203.323C357.546 203.323 358.358 203.323 359.17 202.917C359.981 202.917 360.793 202.511 361.604 202.106C362.416 201.7 362.822 200.888 363.633 200.483C364.445 200.077 364.445 198.86 364.445 198.048C364.445 196.426 363.633 195.209 362.416 194.397C361.199 193.586 359.575 193.18 357.546 192.369C355.518 191.963 353.489 191.557 351.46 191.151C349.431 190.746 347.402 189.934 345.373 189.123C343.344 188.312 342.126 186.689 340.503 185.066C339.286 183.443 338.474 181.009 338.474 178.169C338.474 175.735 338.88 173.3 340.097 171.272C341.315 169.243 342.532 167.62 344.155 166.403C345.778 165.186 347.807 164.375 350.242 163.563C352.677 163.158 354.706 162.752 357.141 162.752C360.387 162.752 363.228 163.158 366.474 164.375C369.72 165.592 372.155 167.215 373.778 170.055L367.286 177.357Z" fill="white"/>
<path d="M384.33 148.551C384.33 146.523 385.142 144.9 386.359 143.683C387.576 142.466 389.605 141.654 391.634 141.654C393.663 141.654 395.692 142.466 396.91 143.683C398.533 144.9 398.939 146.523 398.939 148.551C398.939 150.58 398.127 152.203 396.91 153.42C395.287 154.637 393.663 155.448 391.634 155.448C389.605 155.448 387.576 154.637 386.359 153.42C384.736 152.203 384.33 150.58 384.33 148.551ZM385.953 164.374H397.315V211.03H385.547V164.374H385.953Z" fill="white"/>
<path d="M458.996 164.374V206.973C458.996 211.031 458.59 215.088 457.373 218.333C456.155 221.579 454.532 224.825 452.503 226.853C450.474 228.882 447.634 230.91 444.387 232.533C441.141 233.75 437.083 234.562 432.619 234.562C428.155 234.562 424.097 234.156 420.445 232.939C416.387 231.722 413.141 229.693 409.489 226.853L416.387 217.116C418.822 219.145 421.257 220.768 423.692 221.985C426.126 223.202 428.967 223.607 432.619 223.607C435.46 223.607 437.894 223.202 439.518 222.39C441.547 221.579 442.764 220.362 443.981 219.145C445.199 217.928 446.01 216.305 446.416 214.276C446.822 212.248 447.228 210.219 447.228 207.785V204.539C445.605 206.973 443.17 208.596 440.329 209.813C437.489 211.031 434.648 211.436 431.808 211.436C428.155 211.436 425.315 210.625 422.068 209.408C419.228 208.191 416.793 206.568 414.764 204.134C412.735 201.699 411.112 199.265 409.895 196.425C408.677 193.585 408.271 190.339 408.271 187.094C408.271 183.848 408.677 180.603 409.895 177.357C411.112 174.517 412.329 171.677 414.358 169.648C416.387 167.62 418.822 165.591 421.663 164.374C424.503 163.157 427.75 162.346 431.402 162.346C434.648 162.346 437.894 163.157 440.735 164.374C443.576 165.591 446.01 167.62 447.634 170.46V163.563H458.996V164.374ZM434.242 173.706C432.213 173.706 430.184 174.111 428.561 174.923C426.938 175.734 425.315 176.545 424.097 177.763C422.88 178.98 422.068 180.603 421.257 182.225C420.445 183.848 420.04 185.877 420.04 187.905C420.04 189.934 420.445 191.557 421.257 193.179C422.068 194.802 422.88 196.425 424.097 197.642C425.315 198.859 426.938 199.671 428.561 200.482C430.184 201.294 432.213 201.699 433.837 201.699C435.865 201.699 437.894 201.294 439.518 200.482C441.141 199.671 442.764 198.859 443.981 197.642C445.199 196.425 446.01 194.802 446.822 193.179C447.634 191.557 447.634 189.528 447.634 187.905C447.634 183.848 446.416 180.603 443.981 178.168C441.547 175.734 438.3 173.706 434.242 173.706Z" fill="white"/>
<path d="M472.386 164.373H483.343V171.676C484.56 169.242 486.183 167.213 488.212 165.59C490.647 163.968 493.488 163.156 497.545 163.156C500.792 163.156 503.227 163.562 505.661 164.779C508.096 165.996 509.719 167.213 510.937 168.836C512.154 170.459 513.371 172.488 513.777 174.516C514.183 176.545 514.589 178.979 514.589 181.413V211.03H502.821V187.499C502.821 186.282 502.821 184.659 502.821 183.036C502.821 181.413 502.415 179.79 501.603 178.573C501.198 177.356 500.386 176.139 499.169 174.922C497.951 174.11 496.328 173.705 494.299 173.705C492.27 173.705 490.647 174.11 489.43 174.516C488.212 175.327 486.995 176.139 486.183 176.95C485.372 178.167 484.56 179.385 484.154 180.602C483.748 182.224 483.749 183.442 483.749 185.064V210.624H471.98V164.373H472.386Z" fill="white"/>
<path d="M557.197 137.598H568.965V211.031H557.197V137.598Z" fill="white"/>
<path d="M611.573 204.945C609.544 207.785 607.515 209.408 604.675 210.625C602.24 211.842 599.4 212.248 596.153 212.248C594.124 212.248 592.095 211.842 590.066 211.436C588.037 211.031 586.008 209.814 584.791 209.002C583.168 207.785 581.95 206.568 581.139 204.539C580.327 202.917 579.516 200.888 579.516 198.454C579.516 196.02 579.921 193.585 580.733 191.963C581.545 190.34 582.762 188.717 584.385 187.5C586.008 186.283 587.632 185.471 589.66 184.66C591.689 183.848 593.718 183.443 595.747 183.037C597.776 182.631 600.211 182.631 602.24 182.226C604.269 182.226 606.704 182.226 608.327 182.226H611.168V181.008C611.168 178.169 610.356 175.734 608.327 174.517C606.298 173.3 603.863 172.489 600.617 172.489C598.182 172.489 595.747 172.894 593.718 173.706C591.689 174.517 589.66 175.734 588.037 177.357L581.95 171.271C584.385 168.432 587.631 166.809 590.878 165.592C594.124 164.374 597.776 163.969 601.834 163.969C605.081 163.969 607.921 164.374 610.356 165.186C612.791 165.997 614.414 166.809 616.037 168.026C617.66 169.243 618.878 170.46 619.689 172.083C620.501 173.706 620.907 175.329 621.312 176.546C621.718 177.763 621.718 179.791 622.124 181.008C622.124 182.631 622.124 183.848 622.124 184.66V211.436H611.573V204.945ZM610.762 190.34H608.327C606.704 190.34 605.081 190.34 603.052 190.34C601.023 190.34 598.994 190.745 597.371 191.151C595.747 191.557 594.124 192.368 592.907 193.18C591.689 193.991 590.878 195.614 590.878 197.237C590.878 198.454 591.284 199.265 591.689 200.077C592.095 200.888 592.907 201.294 593.718 202.105C594.53 202.511 595.342 202.917 596.153 203.322C596.965 203.728 598.182 203.728 598.994 203.728C603.052 203.728 605.892 202.917 607.921 200.888C609.95 198.86 610.762 196.425 610.762 193.18V190.34Z" fill="white"/>
<path d="M634.705 137.598H646.473V170.46H646.879C647.285 169.649 648.096 168.837 649.314 168.026C650.125 167.214 651.343 166.403 652.56 165.591C653.777 164.78 655.401 164.374 657.024 163.969C658.647 163.563 660.676 163.157 662.705 163.157C665.951 163.157 669.198 163.969 672.038 165.186C674.879 166.403 677.313 168.026 679.342 170.46C681.371 172.488 682.995 175.328 683.806 178.168C685.024 181.008 685.429 184.254 685.429 187.905C685.429 191.557 685.024 194.397 683.806 197.642C682.589 200.482 681.371 203.322 679.342 205.351C677.313 207.379 674.879 209.408 672.038 210.625C669.198 211.842 665.951 212.653 662.299 212.653C659.053 212.653 655.806 211.842 652.966 210.625C650.125 209.408 647.691 207.379 646.067 204.539V211.436H635.111V137.598H634.705ZM673.256 187.905C673.256 186.283 672.85 184.254 672.444 182.631C671.632 181.008 670.821 179.385 669.603 178.168C668.386 176.951 666.763 175.734 665.14 174.923C663.516 174.111 661.487 173.706 659.459 173.706C657.43 173.706 655.401 174.111 653.777 174.923C652.154 175.734 650.531 176.546 649.314 178.168C648.096 179.385 647.285 181.008 646.473 182.631C645.662 184.254 645.662 185.877 645.662 187.905C645.662 189.934 646.067 191.557 646.473 193.18C646.879 194.802 648.096 196.425 649.314 197.642C650.531 198.859 652.154 200.077 653.777 200.888C655.401 201.699 657.43 202.105 659.459 202.105C661.487 202.105 663.516 201.699 665.14 200.888C666.763 200.077 668.386 199.265 669.603 197.642C670.821 196.425 671.632 194.802 672.444 193.18C673.256 191.557 673.256 189.528 673.256 187.905Z" fill="white"/>
<path d="M277.199 92.9696C277.199 93.3753 276.794 93.781 276.388 93.781C275.982 93.781 275.576 93.3753 275.576 92.9696C275.576 92.5639 275.982 92.1582 276.388 92.1582C276.794 92.1582 277.199 92.5639 277.199 92.9696Z" fill="#C03A2B"/>
<path d="M276.388 93.781C275.982 93.781 275.576 93.3753 275.576 92.9696C275.576 92.5639 275.982 92.1582 276.388 92.1582C276.794 92.1582 277.199 92.5639 277.199 92.9696C277.199 93.3753 276.794 93.781 276.388 93.781ZM276.388 92.1582C275.982 92.1582 275.576 92.5639 275.576 92.9696C275.576 93.3753 275.982 93.781 276.388 93.781C276.794 93.781 277.199 93.3753 277.199 92.9696C276.794 92.5639 276.794 92.1582 276.388 92.1582Z" fill="#C03A2B"/>
<path d="M283.694 91.7535C283.694 93.3763 282.071 94.9991 280.448 94.9991C278.824 94.9991 277.201 93.3763 277.201 91.7535C277.201 90.1306 278.824 88.5078 280.448 88.5078C282.071 88.5078 283.694 89.7249 283.694 91.7535Z" fill="#C03A2B"/>
<path d="M280.447 95.4043C278.418 95.4043 276.795 93.7815 276.795 91.7529C276.795 89.7244 278.418 88.1016 280.447 88.1016C282.476 88.1016 284.099 89.7244 284.099 91.7529C284.099 93.7815 282.476 95.4043 280.447 95.4043ZM280.447 88.913C278.824 88.913 277.607 90.1301 277.607 91.7529C277.607 93.3758 278.824 94.5929 280.447 94.5929C282.07 94.5929 283.288 93.3758 283.288 91.7529C282.882 90.1301 281.664 88.913 280.447 88.913Z" fill="#C03A2B"/>
<path d="M287.751 86.4788C287.751 86.8845 287.345 87.696 286.534 87.696C286.128 87.696 285.316 87.2903 285.316 86.4788C285.316 86.0731 285.722 85.2617 286.534 85.2617C287.345 85.6674 287.751 86.0731 287.751 86.4788Z" fill="#C03A2B"/>
<path d="M286.94 87.696C286.128 87.696 285.723 87.2903 285.723 86.4788C285.723 85.6674 286.128 85.2617 286.94 85.2617C287.752 85.2617 288.157 85.6674 288.157 86.4788C287.752 87.2903 287.346 87.696 286.94 87.696ZM286.94 85.6674C286.534 85.6674 286.128 86.0731 286.128 86.4788C286.128 86.8845 286.534 87.2903 286.94 87.2903C287.346 87.2903 287.752 86.8845 287.752 86.4788C287.752 86.0731 287.346 85.6674 286.94 85.6674Z" fill="#C03A2B"/>
<path d="M277.606 94.5927C277.606 94.9984 277.2 95.4041 276.794 95.4041C276.388 95.4041 275.982 94.9984 275.982 94.5927C275.982 94.187 276.388 93.7812 276.794 93.7812C277.2 93.7812 277.606 94.187 277.606 94.5927Z" fill="#C03A2B"/>
<path d="M276.794 95.8092C276.388 95.8092 275.576 95.4035 275.576 94.5921C275.576 94.1864 275.982 93.375 276.794 93.375C277.199 93.375 278.011 93.7807 278.011 94.5921C278.011 95.4035 277.199 95.8092 276.794 95.8092ZM276.794 93.7807C276.388 93.7807 275.982 94.1864 275.982 94.5921C275.982 94.9978 276.388 95.4035 276.794 95.4035C277.199 95.4035 277.605 94.9978 277.605 94.5921C277.605 94.1864 277.199 93.7807 276.794 93.7807Z" fill="#C03A2B"/>
<path d="M286.94 93.7811C286.94 94.5925 286.128 95.4039 285.317 95.4039C284.505 95.4039 283.693 94.5925 283.693 93.7811C283.693 92.9697 284.505 92.1583 285.317 92.1583C286.128 91.7526 286.94 92.564 286.94 93.7811Z" fill="#C03A2B"/>
<path d="M285.316 95.809C284.099 95.809 283.287 94.9976 283.287 93.7805C283.287 92.5634 284.099 91.752 285.316 91.752C286.533 91.752 287.345 92.5634 287.345 93.7805C287.345 94.5919 286.533 95.809 285.316 95.809ZM285.316 92.1577C284.504 92.1577 283.693 92.9691 283.693 93.7805C283.693 94.5919 284.504 95.4033 285.316 95.4033C286.128 95.4033 286.939 94.5919 286.939 93.7805C286.939 92.9691 286.128 92.1577 285.316 92.1577Z" fill="#C03A2B"/>
<path d="M286.939 89.7238C286.939 90.941 286.127 91.7524 284.91 91.7524C283.692 91.7524 282.881 90.941 282.881 89.7238C282.881 88.5067 283.692 87.6953 284.91 87.6953C286.127 87.6953 286.939 88.9124 286.939 89.7238Z" fill="#C03A2B"/>
<path d="M284.909 92.1575C283.692 92.1575 282.475 90.9404 282.475 89.7233C282.475 88.5062 283.692 87.2891 284.909 87.2891C286.127 87.2891 287.344 88.5062 287.344 89.7233C287.344 91.3461 286.533 92.1575 284.909 92.1575ZM284.909 88.1005C284.098 88.1005 283.286 88.9119 283.286 89.7233C283.286 90.5347 284.098 91.3461 284.909 91.3461C285.721 91.3461 286.533 90.5347 286.533 89.7233C286.938 88.9119 286.127 88.1005 284.909 88.1005Z" fill="#C03A2B"/>
<path d="M284.505 85.261C284.505 86.4781 283.694 87.2895 282.476 87.2895C281.259 87.2895 280.447 86.4781 280.447 85.261C280.447 84.0438 281.259 83.2324 282.476 83.2324C283.694 83.2324 284.505 84.0438 284.505 85.261Z" fill="#C03A2B"/>
<path d="M282.476 87.6947C281.258 87.6947 280.041 86.4775 280.041 85.2604C280.041 84.0433 281.258 82.8262 282.476 82.8262C283.693 82.8262 284.911 84.0433 284.911 85.2604C284.911 86.8832 284.099 87.6947 282.476 87.6947ZM282.476 83.6376C281.664 83.6376 280.853 84.449 280.853 85.2604C280.853 86.0718 281.664 86.8832 282.476 86.8832C283.287 86.8832 284.099 86.0718 284.099 85.2604C284.505 84.449 283.693 83.6376 282.476 83.6376Z" fill="#C03A2B"/>
<path d="M278.011 90.9417C278.011 91.3474 277.605 92.1589 276.794 92.1589C276.388 92.1589 275.576 91.7531 275.576 90.9417C275.576 90.536 275.982 89.7246 276.794 89.7246C277.199 89.7246 278.011 90.1303 278.011 90.9417Z" fill="#C03A2B"/>
<path d="M276.794 92.1589C275.982 92.1589 275.576 91.7531 275.576 90.9417C275.576 90.1303 275.982 89.7246 276.794 89.7246C277.605 89.7246 278.011 90.1303 278.011 90.9417C278.011 91.3474 277.605 92.1589 276.794 92.1589ZM276.794 90.1303C276.388 90.1303 275.982 90.536 275.982 90.9417C275.982 91.3474 276.388 91.7531 276.794 91.7531C277.199 91.7531 277.605 91.3474 277.605 90.9417C277.605 90.536 277.199 90.1303 276.794 90.1303Z" fill="#C03A2B"/>
<path d="M277.606 88.5067C277.606 88.9124 277.2 89.3181 276.794 89.3181C276.388 89.3181 275.982 88.9124 275.982 88.5067C275.982 88.101 276.388 87.6953 276.794 87.6953C277.2 87.6953 277.606 88.101 277.606 88.5067Z" fill="#C03A2B"/>
<path d="M276.794 89.7233C276.388 89.7233 275.576 89.3176 275.576 88.5062C275.576 88.1005 275.982 87.2891 276.794 87.2891C277.199 87.2891 278.011 87.6948 278.011 88.5062C278.011 89.3176 277.199 89.7233 276.794 89.7233ZM276.794 87.6948C276.388 87.6948 275.982 88.1005 275.982 88.5062C275.982 88.9119 276.388 89.3176 276.794 89.3176C277.199 89.3176 277.605 88.9119 277.605 88.5062C277.605 88.1005 277.199 87.6948 276.794 87.6948Z" fill="#C03A2B"/>
<path d="M281.259 87.2894C281.259 88.1008 280.853 88.5065 280.042 88.5065C279.23 88.5065 278.824 88.1008 278.824 87.2894C278.824 86.478 279.23 86.0723 280.042 86.0723C280.447 86.0723 281.259 86.478 281.259 87.2894Z" fill="#C03A2B"/>
<path d="M279.635 88.9117C278.823 88.9117 278.012 88.1003 278.012 87.2888C278.012 86.4774 278.823 85.666 279.635 85.666C280.446 85.666 281.258 86.4774 281.258 87.2888C281.258 88.1003 280.446 88.9117 279.635 88.9117ZM279.635 86.0717C278.823 86.0717 278.418 86.4774 278.418 87.2888C278.418 88.1003 278.823 88.506 279.635 88.506C280.446 88.506 280.852 88.1003 280.852 87.2888C280.852 86.4774 280.446 86.0717 279.635 86.0717Z" fill="#C03A2B"/>
<path d="M279.634 85.2613C279.228 85.667 278.822 85.2613 278.822 85.2613C278.822 84.8556 279.228 84.8556 279.634 85.2613C279.634 84.8556 279.634 84.8556 279.634 85.2613Z" fill="#C03A2B"/>
<path d="M279.227 85.6669C278.821 85.2612 279.227 84.8555 279.227 84.8555C279.633 84.8555 279.633 84.8555 279.227 85.6669C279.633 85.6669 279.633 85.2612 279.227 85.6669ZM279.227 84.8555C278.821 85.2612 279.227 85.2612 279.227 85.2612C279.633 85.2612 279.633 85.2612 279.227 84.8555C279.633 84.8555 279.633 84.8555 279.227 84.8555Z" fill="#C03A2B"/>
<path d="M280.446 83.6383C280.041 84.044 279.635 83.6383 279.635 83.6383C279.635 83.2326 280.041 83.2326 280.446 83.6383C280.446 83.2326 280.041 83.2326 280.446 83.6383Z" fill="#C03A2B"/>
<path d="M280.04 84.0438C279.634 83.6381 280.04 83.2324 280.04 83.2324C280.446 83.2324 280.446 83.2324 280.04 84.0438C280.446 84.0438 280.446 83.6381 280.04 84.0438ZM280.04 83.2324C279.634 83.6381 280.04 83.6381 280.04 83.6381C280.04 83.6381 280.446 83.6381 280.04 83.2324Z" fill="#C03A2B"/>
<path d="M286.534 84.4506C286.534 84.8563 286.128 84.8563 286.128 84.8563C285.723 84.8563 285.723 84.4506 285.723 84.4506C285.723 84.0449 286.128 84.0449 286.128 84.0449C286.128 84.0449 286.534 84.0449 286.534 84.4506Z" fill="#C03A2B"/>
<path d="M285.722 85.2615C285.316 85.2615 284.91 84.8558 284.91 84.4501C284.91 84.0444 285.316 83.6387 285.722 83.6387C286.128 83.6387 286.533 84.0444 286.533 84.4501C286.533 84.8558 286.128 85.2615 285.722 85.2615ZM285.722 84.0444C285.316 84.0444 285.316 84.4501 285.316 84.4501C285.316 84.8558 285.722 84.8558 285.722 84.8558C286.128 84.8558 286.128 84.4501 286.128 84.4501C286.533 84.0444 286.128 84.0444 285.722 84.0444Z" fill="#C03A2B"/>
<path d="M280.853 82.0145C280.853 82.8259 280.447 83.2316 279.635 83.2316C278.824 83.2316 278.418 82.8259 278.418 82.0145C278.418 81.2031 278.824 80.7974 279.635 80.7974C280.447 80.3917 280.853 81.2031 280.853 82.0145Z" fill="#C03A2B"/>
<path d="M279.635 83.6382C278.823 83.6382 278.012 82.8268 278.012 82.0154C278.012 81.204 278.823 80.3926 279.635 80.3926C280.446 80.3926 281.258 81.204 281.258 82.0154C281.258 82.8268 280.446 83.6382 279.635 83.6382ZM279.635 80.7983C278.823 80.7983 278.418 81.204 278.418 82.0154C278.418 82.8268 278.823 83.2325 279.635 83.2325C280.446 83.2325 280.852 82.8268 280.852 82.0154C280.852 81.204 280.041 80.7983 279.635 80.7983Z" fill="#C03A2B"/>
<path d="M282.882 82.0159C282.882 82.4217 282.476 83.2331 281.665 83.2331C281.259 83.2331 280.447 82.8274 280.447 82.0159C280.447 81.6102 280.853 80.7988 281.665 80.7988C282.476 81.2045 282.882 81.6102 282.882 82.0159Z" fill="#C03A2B"/>
<path d="M281.665 83.2331C280.853 83.2331 280.447 82.8274 280.447 82.0159C280.447 81.2045 280.853 80.7988 281.665 80.7988C282.476 80.7988 282.882 81.2045 282.882 82.0159C282.882 82.8274 282.476 83.2331 281.665 83.2331ZM281.665 81.2045C281.259 81.2045 280.853 81.6102 280.853 82.0159C280.853 82.4217 281.259 82.8274 281.665 82.8274C282.07 82.8274 282.476 82.4217 282.476 82.0159C282.882 81.6102 282.476 81.2045 281.665 81.2045Z" fill="#C03A2B"/>
<path d="M286.533 82.827C286.533 83.2327 286.128 83.6385 285.722 83.6385C285.316 83.6385 284.91 83.2327 284.91 82.827C284.91 82.4213 285.316 82.0156 285.722 82.0156C286.128 82.0156 286.533 82.4213 286.533 82.827Z" fill="#C03A2B"/>
<path d="M285.722 83.6385C285.316 83.6385 284.91 83.2327 284.91 82.827C284.91 82.4213 285.316 82.0156 285.722 82.0156C286.128 82.0156 286.533 82.4213 286.533 82.827C286.533 83.2327 286.128 83.6385 285.722 83.6385ZM285.722 82.4213C285.316 82.4213 284.91 82.827 284.91 83.2327C284.91 83.6385 285.316 84.0442 285.722 84.0442C286.128 84.0442 286.533 83.6385 286.533 83.2327C286.128 82.4213 286.128 82.4213 285.722 82.4213Z" fill="#C03A2B"/>
<path d="M278.822 83.6376C278.822 84.0433 278.417 84.449 278.011 84.449C277.605 84.449 277.199 84.0433 277.199 83.6376C277.199 83.2319 277.605 82.8262 278.011 82.8262C278.417 82.8262 278.822 83.2319 278.822 83.6376Z" fill="#C03A2B"/>
<path d="M278.011 84.449C277.605 84.449 277.199 84.0433 277.199 83.6376C277.199 83.2319 277.605 82.8262 278.011 82.8262C278.417 82.8262 278.822 83.2319 278.822 83.6376C278.822 84.0433 278.822 84.449 278.011 84.449ZM278.011 83.2319C277.605 83.2319 277.199 83.6376 277.199 84.0433C277.199 84.449 277.605 84.8547 278.011 84.8547C278.417 84.8547 278.822 84.449 278.822 84.0433C278.822 83.2319 278.417 83.2319 278.011 83.2319Z" fill="#C03A2B"/>
<path d="M278.823 86.4783C278.823 87.2897 278.011 88.1011 277.199 88.1011C276.388 88.1011 275.576 87.2897 275.576 86.4783C275.576 85.6669 276.388 84.8555 277.199 84.8555C278.011 85.2612 278.823 85.6669 278.823 86.4783Z" fill="#C03A2B"/>
<path d="M277.199 88.1011C276.388 88.1011 275.576 87.2897 275.576 86.4783C275.576 85.6669 276.388 84.8555 277.199 84.8555C278.011 84.8555 278.823 85.6669 278.823 86.4783C278.823 87.2897 278.011 88.1011 277.199 88.1011ZM277.199 85.2612C276.388 85.2612 275.982 85.6669 275.982 86.4783C275.982 87.2897 276.388 87.6954 277.199 87.6954C278.011 87.6954 278.417 87.2897 278.417 86.4783C278.417 86.0726 278.011 85.2612 277.199 85.2612Z" fill="#C03A2B"/>
<path d="M286.939 79.5824C286.939 80.3938 286.533 80.7995 285.721 80.7995C284.91 80.7995 284.504 80.3938 284.504 79.5824C284.504 78.7709 284.91 78.3652 285.721 78.3652C286.533 78.3652 286.939 79.1766 286.939 79.5824Z" fill="#C03A2B"/>
<path d="M285.721 81.2046C284.909 81.2046 284.098 80.3932 284.098 79.5818C284.098 78.7704 284.909 77.959 285.721 77.959C286.532 77.959 287.344 78.7704 287.344 79.5818C287.344 80.7989 286.532 81.2046 285.721 81.2046ZM285.721 78.7704C284.909 78.7704 284.503 79.1761 284.503 79.9875C284.503 80.7989 284.909 81.2046 285.721 81.2046C286.532 81.2046 286.938 80.7989 286.938 79.9875C286.938 79.1761 286.532 78.7704 285.721 78.7704Z" fill="#C03A2B"/>
<path d="M286.534 86.4788C286.534 87.2903 285.723 87.696 285.317 87.696C284.505 87.696 284.1 86.8845 284.1 86.4788C284.1 85.6674 284.911 85.2617 285.317 85.2617C286.129 85.2617 286.534 85.6674 286.534 86.4788Z" fill="#C03A2B"/>
<path d="M285.317 88.1011C284.505 88.1011 283.693 87.2897 283.693 86.4783C283.693 85.6669 284.505 84.8555 285.317 84.8555C286.128 84.8555 286.94 85.6669 286.94 86.4783C286.94 87.2897 286.128 88.1011 285.317 88.1011ZM285.317 85.2612C284.505 85.2612 284.099 85.6669 284.099 86.4783C284.099 87.2897 284.505 87.6954 285.317 87.6954C286.128 87.6954 286.534 87.2897 286.534 86.4783C286.534 85.6669 285.722 85.2612 285.317 85.2612Z" fill="#C03A2B"/>
<path d="M279.23 79.5804C279.23 80.3918 278.418 80.7975 278.012 80.7975C277.201 80.7975 276.795 79.9861 276.795 79.5804C276.795 78.769 277.607 78.3633 278.012 78.3633C278.824 78.3633 279.23 79.1747 279.23 79.5804Z" fill="#C03A2B"/>
<path d="M278.012 81.6089C277.2 81.6089 276.389 80.7975 276.389 79.9861C276.389 79.1747 277.2 78.3633 278.012 78.3633C278.823 78.3633 279.635 79.1747 279.635 79.9861C279.635 80.7975 278.823 81.6089 278.012 81.6089ZM278.012 78.769C277.2 78.769 276.794 79.1747 276.794 79.9861C276.794 80.7975 277.2 81.2032 278.012 81.2032C278.823 81.2032 279.229 80.7975 279.229 79.9861C279.229 79.1747 278.418 78.769 278.012 78.769Z" fill="#C03A2B"/>
<path d="M282.476 76.7411C282.476 77.5525 281.664 77.9582 281.258 77.9582C280.447 77.9582 280.041 77.1468 280.041 76.7411C280.041 75.9296 280.853 75.5239 281.258 75.5239C282.07 75.1182 282.476 75.9296 282.476 76.7411Z" fill="#C03A2B"/>
<path d="M281.258 78.3648C280.446 78.3648 279.635 77.5534 279.635 76.742C279.635 75.9306 280.446 75.1191 281.258 75.1191C282.07 75.1191 282.881 75.9306 282.881 76.742C282.881 77.5534 282.07 78.3648 281.258 78.3648ZM281.258 75.5248C280.446 75.5248 280.041 75.9306 280.041 76.742C280.041 77.5534 280.446 77.9591 281.258 77.9591C282.07 77.9591 282.475 77.5534 282.475 76.742C282.475 75.9306 281.664 75.5248 281.258 75.5248Z" fill="#C03A2B"/>
<path d="M286.534 75.93C286.534 76.7414 285.723 77.1471 285.317 77.1471C284.505 77.1471 284.1 76.3357 284.1 75.93C284.1 75.1186 284.911 74.7129 285.317 74.7129C285.723 74.7129 286.534 75.1186 286.534 75.93Z" fill="#C03A2B"/>
<path d="M284.91 77.5523C284.099 77.5523 283.287 76.7409 283.287 75.9295C283.287 75.1181 284.099 74.3066 284.91 74.3066C285.722 74.3066 286.533 75.1181 286.533 75.9295C286.533 76.7409 286.128 77.5523 284.91 77.5523ZM284.91 74.7123C284.099 74.7123 283.693 75.1181 283.693 75.9295C283.693 76.7409 284.099 77.1466 284.91 77.1466C285.722 77.1466 286.128 76.7409 286.128 75.9295C286.128 75.1181 285.722 74.7123 284.91 74.7123Z" fill="#C03A2B"/>
<path d="M284.91 82.0145C284.91 82.4202 284.504 82.826 284.099 82.826C283.693 82.826 283.287 82.4202 283.287 82.0145C283.287 81.6088 283.693 81.2031 284.099 81.2031C284.504 81.2031 284.91 81.6088 284.91 82.0145Z" fill="#C03A2B"/>
<path d="M284.099 82.826C283.693 82.826 283.287 82.4202 283.287 82.0145C283.287 81.6088 283.693 81.2031 284.099 81.2031C284.504 81.2031 284.91 81.6088 284.91 82.0145C284.91 82.4202 284.504 82.826 284.099 82.826ZM284.099 81.2031C283.693 81.2031 283.693 81.6088 283.693 81.6088C283.693 82.4202 283.693 82.4202 284.099 82.4202C284.504 82.4202 284.504 82.0145 284.504 82.0145C284.91 81.6088 284.504 81.2031 284.099 81.2031Z" fill="#C03A2B"/>
<path d="M284.098 79.5809C284.098 79.9867 283.692 80.3924 283.286 80.3924C282.88 80.3924 282.475 79.9867 282.475 79.5809C282.475 79.1752 282.88 78.7695 283.286 78.7695C283.692 78.7695 284.098 79.1752 284.098 79.5809Z" fill="#C03A2B"/>
<path d="M283.286 80.7986C282.88 80.7986 282.475 80.3929 282.475 79.9872C282.475 79.5815 282.88 79.1758 283.286 79.1758C283.692 79.1758 284.098 79.5815 284.098 79.9872C284.098 80.3929 283.692 80.7986 283.286 80.7986ZM283.286 79.1758C282.88 79.1758 282.475 79.5815 282.475 79.9872C282.475 80.3929 282.88 80.7986 283.286 80.7986C283.692 80.7986 284.098 80.3929 284.098 79.9872C284.098 79.1758 283.692 79.1758 283.286 79.1758Z" fill="#C03A2B"/>
<path d="M281.258 79.5809C281.258 79.9867 280.852 80.3924 280.446 80.3924C280.041 80.3924 279.635 79.9867 279.635 79.5809C279.635 79.1752 280.041 78.7695 280.446 78.7695C280.852 78.7695 281.258 79.1752 281.258 79.5809Z" fill="#C03A2B"/>
<path d="M280.446 80.7986C280.041 80.7986 279.635 80.3929 279.635 79.9872C279.635 79.5815 280.041 79.1758 280.446 79.1758C280.852 79.1758 281.258 79.5815 281.258 79.9872C281.664 80.3929 281.258 80.7986 280.446 80.7986ZM280.446 79.1758C280.041 79.1758 279.635 79.5815 279.635 79.9872C279.635 80.3929 280.041 80.7986 280.446 80.7986C280.852 80.7986 281.258 80.3929 281.258 79.9872C281.258 79.5815 280.852 79.1758 280.446 79.1758Z" fill="#C03A2B"/>
<path d="M281.257 65.7874C281.257 66.5988 280.851 67.0046 280.04 67.0046C279.228 67.0046 278.822 66.5988 278.822 65.7874C278.822 64.976 279.228 64.5703 280.04 64.5703C280.851 64.5703 281.257 64.976 281.257 65.7874Z" fill="#C03A2B"/>
<path d="M280.04 67.0046C279.228 67.0046 278.822 66.1931 278.822 65.7874C278.822 64.976 279.634 64.5703 280.04 64.5703C280.851 64.5703 281.257 65.3817 281.257 65.7874C281.663 66.5988 280.851 67.0046 280.04 67.0046ZM280.04 64.5703C279.634 64.5703 278.822 64.976 278.822 65.7874C278.822 66.1931 279.228 67.0046 280.04 67.0046C280.445 67.0046 281.257 66.5988 281.257 65.7874C281.257 65.3817 280.445 64.5703 280.04 64.5703Z" fill="#C03A2B"/>
<path d="M278.824 75.9306C278.824 76.3363 278.419 76.742 278.013 76.742C277.607 76.742 277.201 76.3363 277.201 75.9306C277.201 75.5248 277.607 75.1191 278.013 75.1191C278.419 75.1191 278.824 75.5248 278.824 75.9306Z" fill="#C03A2B"/>
<path d="M277.606 77.1471C277.2 77.1471 276.389 76.7414 276.389 75.93C276.389 75.5243 276.794 74.7129 277.606 74.7129C278.012 74.7129 278.823 75.1186 278.823 75.93C278.823 76.3357 278.418 77.1471 277.606 77.1471ZM277.606 75.1186C277.2 75.1186 276.794 75.5243 276.794 75.93C276.794 76.3357 277.2 76.7414 277.606 76.7414C278.012 76.7414 278.418 76.3357 278.418 75.93C278.418 75.5243 278.012 75.1186 277.606 75.1186Z" fill="#C03A2B"/>
<path d="M280.041 71.872C280.041 72.2777 279.635 72.6834 279.23 72.6834C278.824 72.6834 278.418 72.2777 278.418 71.872C278.418 71.4663 278.824 71.0605 279.23 71.0605C279.635 71.0605 280.041 71.4663 280.041 71.872Z" fill="#C03A2B"/>
<path d="M279.23 73.0891C278.824 73.0891 278.418 72.6834 278.418 72.2777C278.418 71.872 278.824 71.4663 279.23 71.4663C279.635 71.4663 280.041 71.872 280.041 72.2777C280.041 72.2777 279.635 73.0891 279.23 73.0891ZM279.23 71.0605C278.824 71.0605 278.418 71.4663 278.418 71.872C278.418 72.2777 278.824 72.6834 279.23 72.6834C279.635 72.6834 279.635 72.2777 279.635 71.872C279.635 71.4663 279.635 71.0605 279.23 71.0605Z" fill="#C03A2B"/>
<path d="M286.128 64.1629C286.128 64.9743 285.317 65.38 284.911 65.38C284.099 65.38 283.693 64.5686 283.693 64.1629C283.693 63.3515 284.505 62.9458 284.911 62.9458C285.317 62.5401 286.128 63.3515 286.128 64.1629Z" fill="#C03A2B"/>
<path d="M284.504 65.7867C283.692 65.7867 282.881 64.9753 282.881 64.1638C282.881 63.3524 283.692 62.541 284.504 62.541C285.316 62.541 286.127 63.3524 286.127 64.1638C286.127 64.9753 285.316 65.7867 284.504 65.7867ZM284.504 62.9467C283.692 62.9467 283.287 63.3524 283.287 64.1638C283.287 64.9753 283.692 65.381 284.504 65.381C285.316 65.381 285.721 64.9753 285.721 64.1638C285.721 63.3524 285.316 62.9467 284.504 62.9467Z" fill="#C03A2B"/>
<path d="M280.853 56.0511C280.853 56.8625 280.041 57.2682 279.635 57.2682C278.824 57.2682 278.418 56.4568 278.418 56.0511C278.418 55.2397 279.23 54.834 279.635 54.834C280.447 54.834 280.853 55.2397 280.853 56.0511Z" fill="#C03A2B"/>
<path d="M279.635 57.6734C278.823 57.6734 278.012 56.862 278.012 56.0506C278.012 55.2391 278.823 54.4277 279.635 54.4277C280.446 54.4277 281.258 55.2391 281.258 56.0506C281.258 56.862 280.446 57.6734 279.635 57.6734ZM279.635 54.8334C278.823 54.8334 278.418 55.2391 278.418 56.0506C278.418 56.862 278.823 57.2677 279.635 57.2677C280.446 57.2677 280.852 56.862 280.852 56.0506C280.852 55.6449 280.041 54.8334 279.635 54.8334Z" fill="#C03A2B"/>
<path d="M283.693 69.4384C283.693 70.2498 283.288 70.2498 282.882 70.2498C282.476 70.2498 282.07 69.8441 282.07 69.4384C282.07 69.0327 282.476 68.627 282.882 68.627C283.288 68.627 283.693 69.0327 283.693 69.4384Z" fill="#C03A2B"/>
<path d="M282.882 70.656C282.476 70.656 282.07 70.2503 282.07 69.8446C282.07 69.4389 282.476 69.0332 282.882 69.0332C283.288 69.0332 283.693 69.4389 283.693 69.8446C283.693 70.2503 283.288 70.656 282.882 70.656ZM282.882 69.0332C282.476 69.0332 282.07 69.4389 282.07 69.8446C282.07 70.2503 282.476 70.656 282.882 70.656C283.288 70.656 283.693 70.2503 283.693 69.8446C283.288 69.0332 283.288 69.0332 282.882 69.0332Z" fill="#C03A2B"/>
<path d="M478.068 78.3633H489.836V110.82H478.068V78.3633Z" fill="#E64C3C"/>
<path d="M479.285 76.7411C479.285 77.1468 478.879 77.5525 478.474 77.5525C478.068 77.5525 477.662 77.1468 477.662 76.7411C477.662 76.3354 478.068 75.9297 478.474 75.9297C478.879 76.3354 479.285 76.3354 479.285 76.7411Z" fill="#E64C3C"/>
<path d="M478.474 77.9588C478.068 77.9588 477.662 77.5531 477.662 77.1474C477.662 76.7416 478.068 76.3359 478.474 76.3359C478.879 76.3359 479.285 76.7416 479.285 77.1474C479.285 77.5531 478.879 77.9588 478.474 77.9588ZM478.474 76.3359C478.068 76.3359 477.662 76.7416 477.662 77.1474C477.662 77.5531 478.068 77.9588 478.474 77.9588C478.879 77.9588 479.285 77.5531 479.285 77.1474C479.285 76.7416 478.879 76.3359 478.474 76.3359Z" fill="#E64C3C"/>
<path d="M485.778 75.525C485.778 77.1478 484.155 78.7706 482.532 78.7706C480.908 78.7706 479.285 77.1478 479.285 75.525C479.285 73.9021 480.908 72.2793 482.532 72.2793C484.155 72.2793 485.778 73.9021 485.778 75.525Z" fill="#E64C3C"/>
<path d="M482.531 79.582C480.502 79.582 478.879 77.9592 478.879 75.9307C478.879 73.9021 480.502 72.2793 482.531 72.2793C484.56 72.2793 486.183 73.9021 486.183 75.9307C486.183 77.5535 484.56 79.582 482.531 79.582ZM482.531 73.0907C480.908 73.0907 479.691 74.3078 479.691 75.9307C479.691 77.5535 480.908 78.7706 482.531 78.7706C484.154 78.7706 485.372 77.5535 485.372 75.9307C485.372 74.3078 484.154 73.0907 482.531 73.0907Z" fill="#E64C3C"/>
<path d="M489.835 70.6566C489.835 71.0623 489.429 71.8737 488.618 71.8737C488.212 71.8737 487.4 71.468 487.4 70.6566C487.4 70.2509 487.806 69.4395 488.618 69.4395C489.429 69.4395 489.835 69.8452 489.835 70.6566Z" fill="#E64C3C"/>
<path d="M489.024 71.8737C488.212 71.8737 487.807 71.468 487.807 70.6566C487.807 69.8452 488.212 69.4395 489.024 69.4395C489.836 69.4395 490.241 69.8452 490.241 70.6566C490.241 71.0623 489.43 71.8737 489.024 71.8737ZM489.024 69.8452C488.618 69.8452 488.212 70.2509 488.212 70.6566C488.212 71.0623 488.618 71.468 489.024 71.468C489.43 71.468 489.836 71.0623 489.836 70.6566C489.836 70.2509 489.43 69.8452 489.024 69.8452Z" fill="#E64C3C"/>
<path d="M480.098 78.7694C480.098 79.1751 479.692 79.5808 479.286 79.5808C478.88 79.5808 478.475 79.1751 478.475 78.7694C478.475 78.3637 478.88 77.958 479.286 77.958C479.286 77.5523 480.098 77.958 480.098 78.7694Z" fill="#E64C3C"/>
<path d="M478.879 79.5807C478.474 79.5807 477.662 79.175 477.662 78.3636C477.662 77.9579 478.068 77.1465 478.879 77.1465C479.285 77.1465 480.097 77.5522 480.097 78.3636C480.097 79.175 479.691 79.5807 478.879 79.5807ZM478.879 77.9579C478.474 77.9579 478.068 78.3636 478.068 78.7693C478.068 79.175 478.474 79.5807 478.879 79.5807C479.285 79.5807 479.691 79.175 479.691 78.7693C479.691 78.3636 479.285 77.9579 478.879 77.9579Z" fill="#E64C3C"/>
<path d="M489.026 77.5525C489.026 78.3639 488.214 79.1753 487.402 79.1753C486.591 79.1753 485.779 78.3639 485.779 77.5525C485.779 76.7411 486.591 75.9297 487.402 75.9297C488.62 75.9297 489.026 76.7411 489.026 77.5525Z" fill="#E64C3C"/>
<path d="M487.402 79.5805C486.185 79.5805 485.373 78.7691 485.373 77.552C485.373 76.3349 486.185 75.5234 487.402 75.5234C488.619 75.5234 489.431 76.3349 489.431 77.552C489.431 78.7691 488.619 79.5805 487.402 79.5805ZM487.402 76.3349C486.59 76.3349 485.779 77.1463 485.779 77.9577C485.779 78.7691 486.59 79.5805 487.402 79.5805C488.214 79.5805 489.025 78.7691 489.025 77.9577C489.025 76.7406 488.214 76.3349 487.402 76.3349Z" fill="#E64C3C"/>
<path d="M489.431 73.9016C489.431 75.1187 488.619 75.9301 487.402 75.9301C486.185 75.9301 485.373 75.1187 485.373 73.9016C485.373 72.6845 486.185 71.873 487.402 71.873C488.214 71.873 489.431 72.6845 489.431 73.9016Z" fill="#E64C3C"/>
<path d="M486.995 76.3353C485.778 76.3353 484.561 75.1182 484.561 73.901C484.561 72.6839 485.778 71.4668 486.995 71.4668C488.213 71.4668 489.43 72.6839 489.43 73.901C489.836 75.1182 488.618 76.3353 486.995 76.3353ZM486.995 72.2782C486.184 72.2782 485.372 73.0896 485.372 73.901C485.372 74.7125 486.184 75.5239 486.995 75.5239C487.807 75.5239 488.618 74.7125 488.618 73.901C489.024 73.0896 488.213 72.2782 486.995 72.2782Z" fill="#E64C3C"/>
<path d="M486.997 69.4387C486.997 70.6558 486.186 71.4672 484.968 71.4672C483.751 71.4672 482.939 70.6558 482.939 69.4387C482.939 68.2216 483.751 67.4102 484.968 67.4102C485.78 67.4102 486.997 68.2216 486.997 69.4387Z" fill="#E64C3C"/>
<path d="M484.562 71.8724C483.344 71.8724 482.127 70.6553 482.127 69.4382C482.127 68.221 483.344 67.0039 484.562 67.0039C485.779 67.0039 486.996 68.221 486.996 69.4382C486.996 70.6553 486.185 71.8724 484.562 71.8724ZM484.562 67.4096C483.75 67.4096 482.939 68.221 482.939 69.0324C482.939 69.8439 483.75 70.6553 484.562 70.6553C485.779 71.061 486.591 70.2496 486.591 69.4382C486.591 68.221 485.779 67.4096 484.562 67.4096Z" fill="#E64C3C"/>
<path d="M480.097 74.7132C480.097 75.1189 479.691 75.9303 478.879 75.9303C478.474 75.9303 477.662 75.5246 477.662 74.7132C477.662 74.3075 478.068 73.4961 478.879 73.4961C479.691 73.9018 480.097 74.3075 480.097 74.7132Z" fill="#E64C3C"/>
<path d="M478.879 75.9303C478.068 75.9303 477.662 75.5246 477.662 74.7132C477.662 73.9018 478.068 73.4961 478.879 73.4961C479.691 73.4961 480.097 73.9018 480.097 74.7132C480.097 75.5246 479.691 75.9303 478.879 75.9303ZM478.879 73.9018C478.474 73.9018 478.068 74.3075 478.068 74.7132C478.068 75.1189 478.474 75.5246 478.879 75.5246C479.285 75.5246 479.691 75.1189 479.691 74.7132C479.691 74.3075 479.285 73.9018 478.879 73.9018Z" fill="#E64C3C"/>
<path d="M480.098 72.6837C480.098 73.0894 479.692 73.4951 479.286 73.4951C478.88 73.4951 478.475 73.0894 478.475 72.6837C478.475 72.278 478.88 71.8723 479.286 71.8723C479.286 71.4666 480.098 72.278 480.098 72.6837Z" fill="#E64C3C"/>
<path d="M478.879 73.901C478.474 73.901 477.662 73.4953 477.662 72.6839C477.662 72.2782 478.068 71.4668 478.879 71.4668C479.285 71.4668 480.097 71.8725 480.097 72.6839C480.097 73.0896 479.691 73.901 478.879 73.901ZM478.879 71.8725C478.474 71.8725 478.068 72.2782 478.068 72.6839C478.068 73.0896 478.474 73.4953 478.879 73.4953C479.285 73.4953 479.691 73.0896 479.691 72.6839C479.691 72.2782 479.285 71.8725 478.879 71.8725Z" fill="#E64C3C"/>
<path d="M483.345 71.0628C483.345 71.8742 482.939 72.2799 482.128 72.2799C481.316 72.2799 480.91 71.8742 480.91 71.0628C480.91 70.2514 481.316 69.8457 482.128 69.8457C482.533 69.8457 483.345 70.6571 483.345 71.0628Z" fill="#E64C3C"/>
<path d="M481.721 72.6851C480.909 72.6851 480.098 71.8737 480.098 71.0623C480.098 70.2509 480.909 69.4395 481.721 69.4395C482.532 69.4395 483.344 70.2509 483.344 71.0623C483.344 72.2794 482.938 72.6851 481.721 72.6851ZM481.721 70.2509C480.909 70.2509 480.503 70.6566 480.503 71.468C480.503 72.2794 480.909 72.6851 481.721 72.6851C482.532 72.6851 482.938 72.2794 482.938 71.468C482.938 70.6566 482.532 70.2509 481.721 70.2509Z" fill="#E64C3C"/>
<path d="M481.72 69.0332C481.72 69.4389 481.72 69.4389 481.72 69.0332C481.314 69.4389 480.908 69.0332 480.908 69.0332C481.314 69.0332 481.314 69.0332 481.72 69.0332Z" fill="#E64C3C"/>
<path d="M481.313 69.4384C480.907 69.0327 481.313 68.627 481.313 68.627C481.719 68.627 481.719 69.0327 481.313 69.4384C481.719 69.4384 481.719 69.4384 481.313 69.4384ZM481.313 69.0327C480.907 69.4384 481.313 69.4384 481.313 69.4384C481.719 69.4384 481.719 69.4384 481.313 69.0327C481.719 69.0327 481.719 69.0327 481.313 69.0327Z" fill="#E64C3C"/>
<path d="M482.532 67.4088C482.532 67.8145 482.532 67.8145 482.532 67.4088C482.126 67.8145 481.721 67.4088 481.721 67.4088C481.721 67.4088 482.126 67.0031 482.532 67.4088Z" fill="#E64C3C"/>
<path d="M482.126 67.8153C481.72 67.4096 482.126 67.0039 482.126 67.0039C482.126 67.0039 482.531 67.4096 482.126 67.8153C482.531 67.8153 482.531 67.8153 482.126 67.8153ZM482.126 67.4096C481.72 67.8153 482.126 67.8153 482.126 67.8153C482.531 67.8153 482.531 67.8153 482.126 67.4096C482.531 67.4096 482.531 67.4096 482.126 67.4096Z" fill="#E64C3C"/>
<path d="M488.618 68.6265C488.618 69.0322 488.212 69.0322 488.212 69.0322C487.807 69.0322 487.807 68.6265 487.807 68.6265C487.807 68.2208 488.212 68.2208 488.212 68.2208C488.212 67.8151 488.618 68.2208 488.618 68.6265Z" fill="#E64C3C"/>
<path d="M488.212 69.033C487.806 69.033 487.4 68.6273 487.4 68.2216C487.4 67.8159 487.806 67.4102 488.212 67.4102C488.618 67.4102 489.024 67.8159 489.024 68.2216C488.618 69.033 488.618 69.033 488.212 69.033ZM488.212 67.8159C487.806 67.8159 487.806 68.2216 487.806 68.2216C487.806 68.6273 488.212 68.6273 488.212 68.6273C488.618 68.6273 488.618 68.2216 488.618 68.2216L488.212 67.8159Z" fill="#E64C3C"/>
<path d="M482.939 65.7874C482.939 66.5988 482.533 67.0046 481.721 67.0046C480.91 67.0046 480.504 66.5988 480.504 65.7874C480.504 64.976 480.91 64.5703 481.721 64.5703C482.533 64.5703 482.939 65.3817 482.939 65.7874Z" fill="#E64C3C"/>
<path d="M481.721 67.4097C480.909 67.4097 480.098 66.5983 480.098 65.7869C480.098 64.9755 480.909 64.1641 481.721 64.1641C482.532 64.1641 483.344 64.9755 483.344 65.7869C483.344 67.004 482.532 67.4097 481.721 67.4097ZM481.721 64.9755C480.909 64.9755 480.503 65.3812 480.503 66.1926C480.503 67.004 480.909 67.4097 481.721 67.4097C482.532 67.4097 482.938 67.004 482.938 66.1926C482.938 65.3812 482.532 64.9755 481.721 64.9755Z" fill="#E64C3C"/>
<path d="M484.966 66.1937C484.966 66.5994 484.561 67.4108 483.749 67.4108C482.938 67.4108 482.938 66.5994 482.938 66.1937C482.938 65.788 483.343 64.9766 484.155 64.9766C484.966 64.9766 484.966 65.3823 484.966 66.1937Z" fill="#E64C3C"/>
<path d="M484.155 67.4108C483.343 67.4108 482.938 67.0051 482.938 66.1937C482.938 65.3823 483.343 64.9766 484.155 64.9766C484.966 64.9766 485.372 65.3823 485.372 66.1937C485.372 66.5994 484.561 67.4108 484.155 67.4108ZM484.155 65.3823C483.749 65.3823 483.343 65.788 483.343 66.1937C483.343 66.5994 483.749 67.0051 484.155 67.0051C484.561 67.0051 484.966 66.5994 484.966 66.1937C484.966 65.3823 484.561 65.3823 484.155 65.3823Z" fill="#E64C3C"/>
<path d="M488.619 67.0048C488.619 67.4105 488.213 67.8162 487.808 67.8162C487.402 67.8162 486.996 67.4105 486.996 67.0048C486.996 66.5991 487.402 66.1934 487.808 66.1934C488.213 66.1934 488.619 66.5991 488.619 67.0048Z" fill="#E64C3C"/>
<path d="M487.808 67.8162C487.402 67.8162 486.996 67.4105 486.996 67.0048C486.996 66.5991 487.402 66.1934 487.808 66.1934C488.213 66.1934 488.619 66.5991 488.619 67.0048C488.619 67.4105 488.213 67.8162 487.808 67.8162ZM487.808 66.1934C487.402 66.1934 486.996 66.5991 486.996 67.0048C486.996 67.4105 487.402 67.8162 487.808 67.8162C488.213 67.8162 488.619 67.4105 488.619 67.0048C488.619 66.5991 488.213 66.1934 487.808 66.1934Z" fill="#E64C3C"/>
<path d="M480.908 67.8153C480.908 68.221 480.503 68.6267 480.097 68.6267C479.691 68.6267 479.285 68.221 479.285 67.8153C479.285 67.4096 479.691 67.0039 480.097 67.0039C480.503 67.0039 480.908 67.4096 480.908 67.8153Z" fill="#E64C3C"/>
<path d="M480.503 68.6267C480.097 68.6267 479.691 68.221 479.691 67.8153C479.691 67.4096 480.097 67.0039 480.503 67.0039C480.909 67.0039 481.315 67.4096 481.315 67.8153C481.315 68.221 480.909 68.6267 480.503 68.6267ZM480.503 67.0039C480.097 67.0039 479.691 67.4096 479.691 67.8153C479.691 68.221 480.097 68.6267 480.503 68.6267C480.909 68.6267 481.315 68.221 481.315 67.8153C480.909 67.4096 480.503 67.0039 480.503 67.0039Z" fill="#E64C3C"/>
<path d="M480.908 70.656C480.908 71.4674 480.097 72.2789 479.285 72.2789C478.474 72.2789 477.662 71.4674 477.662 70.656C477.662 69.8446 478.474 69.0332 479.285 69.0332C480.097 69.0332 480.908 69.8446 480.908 70.656Z" fill="#E64C3C"/>
<path d="M479.285 72.2789C478.474 72.2789 477.662 71.4674 477.662 70.656C477.662 69.8446 478.474 69.0332 479.285 69.0332C480.097 69.0332 480.908 69.8446 480.908 70.656C481.314 71.4674 480.503 72.2789 479.285 72.2789ZM479.285 69.4389C478.474 69.4389 478.068 69.8446 478.068 70.656C478.068 71.4674 478.474 71.8732 479.285 71.8732C480.097 71.8732 480.503 71.4674 480.503 70.656C480.503 69.8446 480.097 69.4389 479.285 69.4389Z" fill="#E64C3C"/>
<path d="M489.431 63.7601C489.431 64.5715 489.025 64.9772 488.213 64.9772C487.402 64.9772 486.996 64.5715 486.996 63.7601C486.996 62.9487 487.402 62.543 488.213 62.543C488.619 62.543 489.431 62.9487 489.431 63.7601Z" fill="#E64C3C"/>
<path d="M487.807 65.3824C486.995 65.3824 486.184 64.571 486.184 63.7595C486.184 62.9481 486.995 62.1367 487.807 62.1367C488.618 62.1367 489.43 62.9481 489.43 63.7595C489.43 64.571 488.618 65.3824 487.807 65.3824ZM487.807 62.5424C486.995 62.5424 486.589 62.9481 486.589 63.7595C486.589 64.571 486.995 64.9767 487.807 64.9767C488.618 64.9767 489.024 64.571 489.024 63.7595C489.024 62.9481 488.618 62.5424 487.807 62.5424Z" fill="#E64C3C"/>
<path d="M488.618 70.6551C488.618 71.4665 487.807 71.8722 487.401 71.8722C486.589 71.8722 486.184 71.0608 486.184 70.6551C486.184 69.8437 486.995 69.438 487.401 69.438C488.213 69.0323 488.618 69.8437 488.618 70.6551Z" fill="#E64C3C"/>
<path d="M487.4 72.2789C486.589 72.2789 485.777 71.4674 485.777 70.656C485.777 69.8446 486.589 69.0332 487.4 69.0332C488.212 69.0332 489.024 69.8446 489.024 70.656C489.024 71.4674 488.212 72.2789 487.4 72.2789ZM487.4 69.4389C486.589 69.4389 486.183 69.8446 486.183 70.656C486.183 71.4674 486.589 71.8732 487.4 71.8732C488.212 71.8732 488.618 71.4674 488.618 70.656C488.618 69.8446 488.212 69.4389 487.4 69.4389Z" fill="#E64C3C"/>
<path d="M481.316 63.7601C481.316 64.5715 480.504 64.9772 480.098 64.9772C479.287 64.9772 478.881 64.1658 478.881 63.7601C478.881 62.9487 479.692 62.543 480.098 62.543C480.91 62.543 481.316 62.9487 481.316 63.7601Z" fill="#E64C3C"/>
<path d="M480.098 65.3824C479.286 65.3824 478.475 64.571 478.475 63.7595C478.475 62.9481 479.286 62.1367 480.098 62.1367C480.909 62.1367 481.721 62.9481 481.721 63.7595C481.721 64.571 480.909 65.3824 480.098 65.3824ZM480.098 62.5424C479.286 62.5424 478.88 62.9481 478.88 63.7595C478.88 64.571 479.286 64.9767 480.098 64.9767C480.909 64.9767 481.315 64.571 481.315 63.7595C481.315 62.9481 480.909 62.5424 480.098 62.5424Z" fill="#E64C3C"/>
<path d="M485.779 60.514C485.779 61.3254 484.967 61.7311 484.561 61.7311C483.75 61.7311 483.344 60.9197 483.344 60.514C483.344 59.7026 484.155 59.2969 484.561 59.2969C485.373 59.2969 485.779 59.7026 485.779 60.514Z" fill="#E64C3C"/>
<path d="M484.561 62.1363C483.749 62.1363 482.938 61.3249 482.938 60.5135C482.938 59.702 483.749 58.8906 484.561 58.8906C485.372 58.8906 486.184 59.702 486.184 60.5135C486.184 61.3249 485.372 62.1363 484.561 62.1363ZM484.561 59.2963C483.749 59.2963 483.343 59.702 483.343 60.5135C483.343 61.3249 483.749 61.7306 484.561 61.7306C485.372 61.7306 485.778 61.3249 485.778 60.5135C485.778 59.702 484.966 59.2963 484.561 59.2963Z" fill="#E64C3C"/>
<path d="M486.996 65.788C486.996 66.1937 486.59 66.5994 486.185 66.5994C485.779 66.5994 485.373 66.1937 485.373 65.788C485.373 65.3823 485.779 64.9766 486.185 64.9766C486.59 65.3823 486.996 65.3823 486.996 65.788Z" fill="#E64C3C"/>
<path d="M486.185 66.5994C485.779 66.5994 485.373 66.1937 485.373 65.788C485.373 65.3823 485.779 64.9766 486.185 64.9766C486.59 64.9766 486.996 65.3823 486.996 65.788C486.996 66.1937 486.59 66.5994 486.185 66.5994ZM486.185 65.3823C485.779 65.3823 485.779 65.788 485.779 65.788C485.779 66.1937 486.185 66.1937 486.185 66.1937C486.59 66.1937 486.59 65.788 486.59 65.788C486.996 65.788 486.59 65.3823 486.185 65.3823Z" fill="#E64C3C"/>
<path d="M486.184 63.7587C486.184 64.1644 485.778 64.5701 485.372 64.5701C484.966 64.5701 484.561 64.1644 484.561 63.7587C484.561 63.353 484.966 62.9473 485.372 62.9473C485.778 62.9473 486.184 63.353 486.184 63.7587Z" fill="#E64C3C"/>
<path d="M485.372 64.9758C484.966 64.9758 484.561 64.5701 484.561 64.1644C484.561 63.7587 484.966 63.353 485.372 63.353C485.778 63.353 486.184 63.7587 486.184 64.1644C486.184 64.1644 485.778 64.9758 485.372 64.9758ZM485.372 62.9473C484.966 62.9473 484.561 63.353 484.561 63.7587C484.561 64.1644 484.966 64.5701 485.372 64.5701C485.778 64.5701 486.184 64.1644 486.184 63.7587C486.184 63.353 485.778 62.9473 485.372 62.9473Z" fill="#E64C3C"/>
<path d="M483.75 63.7587C483.75 64.1644 483.344 64.5701 482.939 64.5701C482.533 64.5701 482.127 64.1644 482.127 63.7587C482.127 63.353 482.533 62.9473 482.939 62.9473C483.344 62.9473 483.75 63.353 483.75 63.7587Z" fill="#E64C3C"/>
<path d="M482.939 64.5701C482.533 64.5701 482.127 64.1644 482.127 63.7587C482.127 63.353 482.533 62.9473 482.939 62.9473C483.344 62.9473 483.75 63.353 483.75 63.7587C483.75 64.1644 483.344 64.5701 482.939 64.5701ZM482.939 62.9473C482.533 62.9473 482.127 63.353 482.127 63.7587C482.127 64.1644 482.533 64.5701 482.939 64.5701C483.344 64.5701 483.75 64.1644 483.75 63.7587C483.344 63.353 483.344 62.9473 482.939 62.9473Z" fill="#E64C3C"/>
<path d="M480.908 60.1063C480.908 60.512 480.503 60.9177 480.097 60.9177C479.691 60.9177 479.285 60.512 479.285 60.1063C479.285 59.7006 479.691 59.2949 480.097 59.2949C480.503 59.2949 480.908 59.2949 480.908 60.1063Z" fill="#E64C3C"/>
<path d="M480.096 60.9186C479.691 60.9186 478.879 60.5129 478.879 59.7015C478.879 59.2958 479.285 58.4844 480.096 58.4844C480.502 58.4844 481.314 58.8901 481.314 59.7015C480.908 60.5129 480.502 60.9186 480.096 60.9186ZM480.096 59.2958C479.691 59.2958 479.285 59.7015 479.285 60.1072C479.285 60.5129 479.691 60.9186 480.096 60.9186C480.502 60.9186 480.908 60.5129 480.908 60.1072C480.908 59.7015 480.502 59.2958 480.096 59.2958Z" fill="#E64C3C"/>
<path d="M482.125 56.0497C482.125 56.4554 481.719 56.8611 481.314 56.8611C480.908 56.8611 480.502 56.4554 480.502 56.0497C480.502 55.644 480.908 55.2383 481.314 55.2383C481.719 55.2383 482.125 55.644 482.125 56.0497Z" fill="#E64C3C"/>
<path d="M481.314 56.8611C480.908 56.8611 480.502 56.4554 480.502 56.0497C480.502 55.644 480.908 55.2383 481.314 55.2383C481.719 55.2383 482.125 55.644 482.125 56.0497C482.125 56.4554 481.719 56.8611 481.314 56.8611ZM481.314 55.2383C480.908 55.2383 480.502 55.644 480.502 56.0497C480.502 56.4554 480.908 56.8611 481.314 56.8611C481.719 56.8611 482.125 56.4554 482.125 56.0497C482.125 55.644 481.719 55.2383 481.314 55.2383Z" fill="#E64C3C"/>
<path d="M487.402 42.661C487.402 43.4724 486.59 43.8781 486.184 43.8781C485.373 43.8781 484.967 43.0667 484.967 42.661C484.967 41.8496 485.778 41.4439 486.184 41.4439C486.59 41.0381 487.402 41.8496 487.402 42.661Z" fill="#E64C3C"/>
<path d="M485.777 44.2847C484.966 44.2847 484.154 43.4733 484.154 42.6619C484.154 41.8505 484.966 41.0391 485.777 41.0391C486.589 41.0391 487.401 41.8505 487.401 42.6619C487.401 43.4733 486.589 44.2847 485.777 44.2847ZM485.777 41.4448C484.966 41.4448 484.56 41.8505 484.56 42.6619C484.56 43.4733 484.966 43.879 485.777 43.879C486.589 43.879 486.995 43.4733 486.995 42.6619C486.995 41.8505 486.589 41.4448 485.777 41.4448Z" fill="#E64C3C"/>
<path d="M484.155 35.3597C484.155 36.1711 483.344 36.5768 482.938 36.5768C482.126 36.5768 481.721 35.7654 481.721 35.3597C481.721 34.5483 482.532 34.1426 482.938 34.1426C483.344 34.1426 484.155 34.5483 484.155 35.3597Z" fill="#E64C3C"/>
<path d="M482.531 36.982C481.72 36.982 480.908 36.1706 480.908 35.3592C480.908 34.5477 481.72 33.7363 482.531 33.7363C483.343 33.7363 484.155 34.5477 484.155 35.3592C484.155 36.1706 483.343 36.982 482.531 36.982ZM482.531 34.142C481.72 34.142 481.314 34.5477 481.314 35.3592C481.314 36.1706 481.72 36.5763 482.531 36.5763C483.343 36.5763 483.749 36.1706 483.749 35.3592C483.749 34.5477 483.343 34.142 482.531 34.142Z" fill="#E64C3C"/>
<path d="M485.777 53.6161C485.777 54.0218 485.372 54.4275 484.966 54.4275C484.56 54.4275 484.154 54.0218 484.154 53.6161C484.154 53.2104 484.56 52.8047 484.966 52.8047C485.372 52.8047 485.777 53.2104 485.777 53.6161Z" fill="#E64C3C"/>
<path d="M484.966 54.4275C484.56 54.4275 484.154 54.0218 484.154 53.6161C484.154 53.2104 484.56 52.8047 484.966 52.8047C485.372 52.8047 485.777 53.2104 485.777 53.6161C485.777 54.0218 485.372 54.4275 484.966 54.4275ZM484.966 52.8047C484.56 52.8047 484.154 53.2104 484.154 53.6161C484.154 54.0218 484.56 54.4275 484.966 54.4275C485.372 54.4275 485.777 54.0218 485.777 53.6161C485.777 53.2104 485.372 52.8047 484.966 52.8047Z" fill="#E64C3C"/>
<path d="M640.387 86.8848H652.155V110.416H640.387V86.8848Z" fill="#E66558"/>
<path d="M641.604 88.5067C641.604 88.9124 641.198 89.3181 640.792 89.3181C640.386 89.3181 639.98 88.9124 639.98 88.5067C639.98 88.101 640.386 87.6953 640.792 87.6953C641.198 87.6953 641.604 88.101 641.604 88.5067Z" fill="#E66558"/>
<path d="M641.198 89.3181C640.793 89.3181 640.387 88.9124 640.387 88.5067C640.387 88.101 640.793 87.6953 641.198 87.6953C641.604 87.6953 642.01 88.101 642.01 88.5067C642.01 88.9124 641.604 89.3181 641.198 89.3181ZM641.198 88.101C640.793 88.101 640.387 88.5067 640.387 88.9124C640.387 89.3181 640.793 89.7238 641.198 89.7238C641.604 89.7238 642.01 89.3181 642.01 88.9124C641.604 88.101 641.198 88.101 641.198 88.101Z" fill="#E66558"/>
<path d="M648.096 87.2906C648.096 88.9134 646.473 90.5362 644.85 90.5362C643.227 90.5362 641.604 88.9134 641.604 87.2906C641.604 85.6678 643.227 84.0449 644.85 84.0449C646.879 84.0449 648.096 85.6678 648.096 87.2906Z" fill="#E66558"/>
<path d="M644.849 90.9414C642.82 90.9414 641.197 89.3186 641.197 87.29C641.197 85.2615 642.82 83.6387 644.849 83.6387C646.878 83.6387 648.502 85.2615 648.502 87.29C648.907 89.3186 646.878 90.9414 644.849 90.9414ZM644.849 84.4501C643.226 84.4501 642.009 85.6672 642.009 87.29C642.009 88.9129 643.226 90.13 644.849 90.13C646.473 90.13 647.69 88.9129 647.69 87.29C647.69 85.6672 646.473 84.4501 644.849 84.4501Z" fill="#E66558"/>
<path d="M652.56 82.4202C652.56 82.826 652.154 83.6374 651.342 83.6374C650.937 83.6374 650.125 83.2317 650.125 82.4202C650.125 82.0145 650.531 81.2031 651.342 81.2031C652.154 81.2031 652.56 81.6088 652.56 82.4202Z" fill="#E66558"/>
<path d="M651.342 83.6374C650.531 83.6374 650.125 83.2317 650.125 82.4202C650.125 81.6088 650.531 81.2031 651.342 81.2031C652.154 81.2031 652.56 81.6088 652.56 82.4202C652.56 82.826 652.154 83.6374 651.342 83.6374ZM651.342 81.2031C650.937 81.2031 650.531 81.6088 650.531 82.0145C650.531 82.4202 650.937 82.826 651.342 82.826C651.748 82.826 652.154 82.4202 652.154 82.0145C652.154 81.6088 651.748 81.2031 651.342 81.2031Z" fill="#E66558"/>
<path d="M642.416 90.1298C642.416 90.5355 642.01 90.9412 641.605 90.9412C641.199 90.9412 640.793 90.5355 640.793 90.1298C640.793 89.7241 641.199 89.3184 641.605 89.3184C642.01 89.3184 642.416 89.7241 642.416 90.1298Z" fill="#E66558"/>
<path d="M641.604 91.3464C641.198 91.3464 640.387 90.9406 640.387 90.1292C640.387 89.7235 640.792 88.9121 641.604 88.9121C642.01 88.9121 642.821 89.3178 642.821 90.1292C642.416 90.9406 642.01 91.3464 641.604 91.3464ZM641.604 89.3178C641.198 89.3178 640.793 89.7235 640.793 90.1292C640.793 90.5349 641.198 90.9406 641.604 90.9406C642.01 90.9406 642.416 90.5349 642.416 90.1292C642.416 89.7235 642.01 89.3178 641.604 89.3178Z" fill="#E66558"/>
<path d="M651.748 89.3181C651.748 90.1296 650.937 90.941 650.125 90.941C649.314 90.941 648.502 90.1296 648.502 89.3181C648.502 88.5067 649.314 87.6953 650.125 87.6953C650.937 87.6953 651.748 88.5067 651.748 89.3181Z" fill="#E66558"/>
<path d="M650.125 91.3461C648.907 91.3461 648.096 90.5347 648.096 89.3176C648.096 88.1005 648.907 87.2891 650.125 87.2891C651.342 87.2891 652.154 88.1005 652.154 89.3176C652.154 90.5347 650.936 91.3461 650.125 91.3461ZM650.125 87.6948C649.313 87.6948 648.501 88.5062 648.501 89.3176C648.501 90.129 649.313 90.9404 650.125 90.9404C650.936 90.9404 651.748 90.129 651.748 89.3176C651.342 88.5062 650.936 87.6948 650.125 87.6948Z" fill="#E66558"/>
<path d="M651.749 85.6672C651.749 86.8843 650.938 87.6957 649.72 87.6957C648.503 87.6957 647.691 86.8843 647.691 85.6672C647.691 84.4501 648.503 83.6387 649.72 83.6387C650.938 83.6387 651.749 84.4501 651.749 85.6672Z" fill="#E66558"/>
<path d="M649.72 88.1009C648.503 88.1009 647.285 86.8838 647.285 85.6667C647.285 84.4495 648.503 83.2324 649.72 83.2324C650.937 83.2324 652.155 84.4495 652.155 85.6667C652.155 86.8838 650.937 88.1009 649.72 88.1009ZM649.72 83.6381C648.908 83.6381 648.097 84.4495 648.097 85.261C648.097 86.0724 648.908 86.8838 649.72 86.8838C650.532 86.8838 651.343 86.0724 651.343 85.261C651.343 84.4495 650.532 83.6381 649.72 83.6381Z" fill="#E66558"/>
<path d="M649.314 81.2038C649.314 82.4209 648.502 83.2324 647.285 83.2324C646.067 83.2324 645.256 82.4209 645.256 81.2038C645.256 79.9867 646.067 79.1753 647.285 79.1753C648.502 78.7696 649.314 79.9867 649.314 81.2038Z" fill="#E66558"/>
<path d="M647.284 83.638C646.067 83.638 644.85 82.4209 644.85 81.2038C644.85 79.9867 646.067 78.7695 647.284 78.7695C648.502 78.7695 649.719 79.9867 649.719 81.2038C649.719 82.4209 648.502 83.638 647.284 83.638ZM647.284 79.1752C646.473 79.1752 645.661 79.9867 645.661 80.7981C645.661 81.6095 646.473 82.4209 647.284 82.4209C648.096 82.4209 648.908 81.6095 648.908 80.7981C648.908 79.9867 648.096 79.1752 647.284 79.1752Z" fill="#E66558"/>
<path d="M642.415 86.4788C642.415 86.8845 642.009 87.696 641.198 87.696C640.792 87.696 639.98 87.2903 639.98 86.4788C639.98 86.0731 640.386 85.2617 641.198 85.2617C642.009 85.6674 642.415 86.0731 642.415 86.4788Z" fill="#E66558"/>
<path d="M641.604 87.696C640.792 87.696 640.387 87.2903 640.387 86.4788C640.387 85.6674 640.792 85.2617 641.604 85.2617C642.416 85.2617 642.821 85.6674 642.821 86.4788C642.821 87.2903 642.01 87.696 641.604 87.696ZM641.604 85.6674C641.198 85.6674 640.793 86.0731 640.793 86.4788C640.793 86.8845 641.198 87.2903 641.604 87.2903C642.01 87.2903 642.416 86.8845 642.416 86.4788C642.416 86.0731 642.01 85.6674 641.604 85.6674Z" fill="#E66558"/>
<path d="M642.416 84.4491C642.416 84.8548 642.01 85.2605 641.605 85.2605C641.199 85.2605 640.793 84.8548 640.793 84.4491C640.793 84.0434 641.199 83.6377 641.605 83.6377C642.01 83.232 642.416 83.6377 642.416 84.4491Z" fill="#E66558"/>
<path d="M641.604 85.2604C641.198 85.2604 640.387 84.8547 640.387 84.0433C640.387 83.6376 640.792 82.8262 641.604 82.8262C642.01 82.8262 642.821 83.2319 642.821 84.0433C642.416 84.8547 642.01 85.2604 641.604 85.2604ZM641.604 83.6376C641.198 83.6376 640.793 84.0433 640.793 84.449C640.793 84.8547 641.198 85.2604 641.604 85.2604C642.01 85.2604 642.416 84.8547 642.416 84.449C642.416 83.6376 642.01 83.6376 641.604 83.6376Z" fill="#E66558"/>
<path d="M645.661 82.8265C645.661 83.6379 645.256 84.0436 644.444 84.0436C643.632 84.0436 643.227 83.6379 643.227 82.8265C643.227 82.0151 643.632 81.6094 644.444 81.6094C645.256 81.6094 645.661 82.0151 645.661 82.8265Z" fill="#E66558"/>
<path d="M644.443 84.4488C643.632 84.4488 642.82 83.6374 642.82 82.826C642.82 82.0145 643.632 81.2031 644.443 81.2031C645.255 81.2031 646.067 82.0145 646.067 82.826C646.067 83.6374 645.255 84.4488 644.443 84.4488ZM644.443 81.6088C643.632 81.6088 643.226 82.0145 643.226 82.826C643.226 83.6374 643.632 84.0431 644.443 84.0431C645.255 84.0431 645.661 83.6374 645.661 82.826C645.661 82.4202 645.255 81.6088 644.443 81.6088Z" fill="#E66558"/>
<path d="M644.444 80.7975C644.444 81.2032 644.039 81.2032 644.444 80.7975C644.039 81.2032 643.633 80.7975 643.633 80.7975C643.633 80.7975 644.039 80.3918 644.444 80.7975Z" fill="#E66558"/>
<path d="M644.038 81.204C643.632 80.7983 644.038 80.3926 644.038 80.3926C644.444 80.3926 644.444 80.7983 644.038 81.204C644.444 81.204 644.444 81.204 644.038 81.204ZM644.038 80.7983C643.632 81.204 644.038 81.204 644.038 81.204C644.038 81.204 644.444 81.204 644.038 80.7983Z" fill="#E66558"/>
<path d="M645.255 79.1745C644.849 79.5802 644.443 79.1745 644.443 79.1745C644.443 79.1745 644.443 78.7687 645.255 79.1745Z" fill="#E66558"/>
<path d="M644.849 79.5809C644.443 79.5809 644.443 79.1752 644.849 79.5809C644.443 79.1752 644.849 78.7695 644.849 78.7695C644.849 78.7695 645.255 79.1752 644.849 79.5809ZM644.849 78.7695C644.443 79.1752 644.443 78.7695 644.849 78.7695C644.443 79.1752 644.849 79.1752 644.849 79.1752C644.849 79.5809 644.849 79.1752 644.849 78.7695Z" fill="#E66558"/>
<path d="M651.343 79.9877C651.343 80.3934 650.937 80.3934 650.937 80.3934C650.531 80.3934 650.531 79.9877 650.531 79.9877C650.531 79.582 650.937 79.582 650.937 79.582L651.343 79.9877Z" fill="#E66558"/>
<path d="M650.53 80.7986C650.125 80.7986 649.719 80.3929 649.719 79.9872C649.719 79.5815 650.125 79.1758 650.53 79.1758C650.936 79.1758 651.342 79.5815 651.342 79.9872C651.342 80.3929 650.936 80.7986 650.53 80.7986ZM650.53 79.5815C650.125 79.5815 650.125 79.9872 650.125 79.9872C650.125 80.3929 650.53 80.3929 650.53 80.3929C650.936 80.3929 650.936 79.9872 650.936 79.9872C650.936 79.9872 650.936 79.5815 650.53 79.5815Z" fill="#E66558"/>
<path d="M645.661 77.5531C645.661 78.3645 645.256 78.7702 644.444 78.7702C643.632 78.7702 643.227 78.3645 643.227 77.5531C643.227 76.7416 643.632 76.3359 644.444 76.3359C645.256 76.3359 645.661 76.7416 645.661 77.5531Z" fill="#E66558"/>
<path d="M644.443 79.1753C643.632 79.1753 642.82 78.3639 642.82 77.5525C642.82 76.7411 643.632 75.9297 644.443 75.9297C645.255 75.9297 646.067 76.7411 646.067 77.5525C646.067 78.3639 645.255 79.1753 644.443 79.1753ZM644.443 76.3354C643.632 76.3354 643.226 76.7411 643.226 77.5525C643.226 78.3639 643.632 78.7696 644.443 78.7696C645.255 78.7696 645.661 78.3639 645.661 77.5525C645.255 77.1468 644.849 76.3354 644.443 76.3354Z" fill="#E66558"/>
<path d="M647.691 77.5531C647.691 77.9588 647.285 78.7702 646.473 78.7702C645.662 78.7702 645.256 78.3645 645.256 77.5531C645.256 77.1474 645.662 76.3359 646.473 76.3359C647.285 76.3359 647.691 77.1474 647.691 77.5531Z" fill="#E66558"/>
<path d="M646.473 78.7702C645.662 78.7702 645.256 78.3645 645.256 77.5531C645.256 76.7416 645.662 76.3359 646.473 76.3359C647.285 76.3359 647.691 76.7416 647.691 77.5531C647.691 78.3645 647.285 78.7702 646.473 78.7702ZM646.473 76.7416C646.067 76.7416 645.662 77.1474 645.662 77.5531C645.662 77.9588 646.067 78.3645 646.473 78.3645C646.879 78.3645 647.285 77.9588 647.285 77.5531C647.285 77.1474 646.879 76.7416 646.473 76.7416Z" fill="#E66558"/>
<path d="M651.342 78.7704C651.342 79.1761 650.936 79.5818 650.53 79.5818C650.125 79.5818 649.719 79.1761 649.719 78.7704C649.719 78.3647 650.125 77.959 650.53 77.959C650.936 77.959 651.342 78.3647 651.342 78.7704Z" fill="#E66558"/>
<path d="M650.53 79.5818C650.125 79.5818 649.719 79.1761 649.719 78.7704C649.719 78.3647 650.125 77.959 650.53 77.959C650.936 77.959 651.342 78.3647 651.342 78.7704C651.342 79.1761 650.936 79.5818 650.53 79.5818ZM650.53 77.959C650.125 77.959 649.719 78.3647 649.719 78.7704C649.719 79.1761 650.125 79.5818 650.53 79.5818C650.936 79.5818 651.342 79.1761 651.342 78.7704C650.936 78.3647 650.936 77.959 650.53 77.959Z" fill="#E66558"/>
<path d="M643.633 79.5809C643.633 79.9867 643.227 80.3924 642.821 80.3924C642.416 80.3924 642.01 79.9867 642.01 79.5809C642.01 79.1752 642.416 78.7695 642.821 78.7695C643.227 78.7695 643.633 79.1752 643.633 79.5809Z" fill="#E66558"/>
<path d="M642.821 80.3924C642.416 80.3924 642.01 79.9867 642.01 79.5809C642.01 79.1752 642.416 78.7695 642.821 78.7695C643.227 78.7695 643.633 79.1752 643.633 79.5809C643.633 79.9867 643.227 80.3924 642.821 80.3924ZM642.821 78.7695C642.416 78.7695 642.01 79.1752 642.01 79.5809C642.01 79.9867 642.416 80.3924 642.821 80.3924C643.227 80.3924 643.633 79.9867 643.633 79.5809C643.633 79.1752 643.227 78.7695 642.821 78.7695Z" fill="#E66558"/>
<path d="M643.633 82.4217C643.633 83.2331 642.821 84.0445 642.01 84.0445C641.198 84.0445 640.387 83.2331 640.387 82.4217C640.387 81.6102 641.198 80.7988 642.01 80.7988C642.821 80.7988 643.633 81.6102 643.633 82.4217Z" fill="#E66558"/>
<path d="M642.01 84.0445C641.198 84.0445 640.387 83.2331 640.387 82.4217C640.387 81.6102 641.198 80.7988 642.01 80.7988C642.821 80.7988 643.633 81.6102 643.633 82.4217C643.633 83.2331 642.821 84.0445 642.01 84.0445ZM642.01 81.2045C641.198 81.2045 640.793 81.6102 640.793 82.4217C640.793 83.2331 641.198 83.6388 642.01 83.6388C642.821 83.6388 643.227 83.2331 643.227 82.4217C643.227 81.6102 642.821 81.2045 642.01 81.2045Z" fill="#E66558"/>
<path d="M651.749 75.5223C651.749 76.3337 651.343 76.7394 650.532 76.7394C649.72 76.7394 649.314 76.3337 649.314 75.5223C649.314 74.7109 649.72 74.3052 650.532 74.3052C651.343 73.8995 651.749 74.7109 651.749 75.5223Z" fill="#E66558"/>
<path d="M650.531 77.146C649.72 77.146 648.908 76.3346 648.908 75.5232C648.908 74.7118 649.72 73.9004 650.531 73.9004C651.343 73.9004 652.155 74.7118 652.155 75.5232C652.155 76.3346 651.343 77.146 650.531 77.146ZM650.531 74.3061C649.72 74.3061 649.314 74.7118 649.314 75.5232C649.314 76.3346 649.72 76.7403 650.531 76.7403C651.343 76.7403 651.749 76.3346 651.749 75.5232C651.749 74.7118 650.937 74.3061 650.531 74.3061Z" fill="#E66558"/>
<path d="M651.343 82.0159C651.343 82.8274 650.531 83.2331 650.126 83.2331C649.314 83.2331 648.908 82.4217 648.908 82.0159C648.908 81.2045 649.72 80.7988 650.126 80.7988C650.531 80.7988 651.343 81.2045 651.343 82.0159Z" fill="#E66558"/>
<path d="M649.719 83.6382C648.907 83.6382 648.096 82.8268 648.096 82.0154C648.096 81.204 648.907 80.3926 649.719 80.3926C650.53 80.3926 651.342 81.204 651.342 82.0154C651.748 83.2325 650.936 83.6382 649.719 83.6382ZM649.719 80.7983C648.907 80.7983 648.501 81.204 648.501 82.0154C648.501 82.8268 648.907 83.2325 649.719 83.2325C650.53 83.2325 650.936 82.8268 650.936 82.0154C650.936 81.6097 650.53 80.7983 649.719 80.7983Z" fill="#E66558"/>
<path d="M644.038 75.5223C644.038 76.3337 643.227 76.7394 642.821 76.7394C642.009 76.7394 641.604 75.928 641.604 75.5223C641.604 74.7109 642.415 74.3052 642.821 74.3052C643.227 73.8995 644.038 74.7109 644.038 75.5223Z" fill="#E66558"/>
<path d="M642.414 77.146C641.603 77.146 640.791 76.3346 640.791 75.5232C640.791 74.7118 641.603 73.9004 642.414 73.9004C643.226 73.9004 644.037 74.7118 644.037 75.5232C644.037 76.3346 643.632 77.146 642.414 77.146ZM642.414 74.3061C641.603 74.3061 641.197 74.7118 641.197 75.5232C641.197 76.3346 641.603 76.7403 642.414 76.7403C643.226 76.7403 643.632 76.3346 643.632 75.5232C643.632 74.7118 643.226 74.3061 642.414 74.3061Z" fill="#E66558"/>
<path d="M648.503 72.2782C648.503 73.0896 647.692 73.4953 647.286 73.4953C646.474 73.4953 646.068 72.6839 646.068 72.2782C646.068 71.4667 646.88 71.061 647.286 71.061C647.692 70.6553 648.503 71.4667 648.503 72.2782Z" fill="#E66558"/>
<path d="M646.879 73.9019C646.067 73.9019 645.256 73.0905 645.256 72.2791C645.256 71.4677 646.067 70.6562 646.879 70.6562C647.691 70.6562 648.502 71.4677 648.502 72.2791C648.502 73.0905 648.096 73.9019 646.879 73.9019ZM646.879 71.062C646.067 71.062 645.662 71.4677 645.662 72.2791C645.662 73.0905 646.067 73.4962 646.879 73.4962C647.691 73.4962 648.096 73.0905 648.096 72.2791C648.096 71.4677 647.691 71.062 646.879 71.062Z" fill="#E66558"/>
<path d="M649.719 77.5536C649.719 77.9593 649.313 78.365 648.907 78.365C648.501 78.365 648.096 77.9593 648.096 77.5536C648.096 77.1479 648.501 76.7422 648.907 76.7422C649.313 76.7422 649.719 77.1479 649.719 77.5536Z" fill="#E66558"/>
<path d="M648.907 78.365C648.501 78.365 648.096 77.9593 648.096 77.5536C648.096 77.1479 648.501 76.7422 648.907 76.7422C649.313 76.7422 649.719 77.1479 649.719 77.5536C649.719 77.9593 649.313 78.365 648.907 78.365ZM648.907 77.1479C648.501 77.1479 648.501 77.5536 648.501 77.5536C648.501 77.9593 648.907 77.9593 648.907 77.9593C649.313 77.9593 649.313 77.5536 649.313 77.5536C649.313 77.1479 649.313 77.1479 648.907 77.1479Z" fill="#E66558"/>
<path d="M648.908 75.5243C648.908 75.93 648.503 76.3357 648.097 76.3357C647.691 76.3357 647.285 75.93 647.285 75.5243C647.285 75.1186 647.691 74.7129 648.097 74.7129C648.503 74.7129 648.908 75.1186 648.908 75.5243Z" fill="#E66558"/>
<path d="M647.69 76.3357C647.285 76.3357 646.879 75.93 646.879 75.5243C646.879 75.1186 647.285 74.7129 647.69 74.7129C648.096 74.7129 648.502 75.1186 648.502 75.5243C648.908 75.93 648.502 76.3357 647.69 76.3357ZM647.69 74.7129C647.285 74.7129 646.879 75.1186 646.879 75.5243C646.879 75.93 647.285 76.3357 647.69 76.3357C648.096 76.3357 648.502 75.93 648.502 75.5243C648.502 75.1186 648.096 74.7129 647.69 74.7129Z" fill="#E66558"/>
<path d="M646.067 75.5243C646.067 75.93 645.661 76.3357 645.255 76.3357C644.849 76.3357 644.443 75.93 644.443 75.5243C644.443 75.1186 644.849 74.7129 645.255 74.7129C645.661 74.7129 646.067 75.1186 646.067 75.5243Z" fill="#E66558"/>
<path d="M645.255 76.3357C644.849 76.3357 644.443 75.93 644.443 75.5243C644.443 75.1186 644.849 74.7129 645.255 74.7129C645.661 74.7129 646.067 75.1186 646.067 75.5243C646.067 75.93 645.661 76.3357 645.255 76.3357ZM645.255 74.7129C644.849 74.7129 644.443 75.1186 644.443 75.5243C644.443 75.93 644.849 76.3357 645.255 76.3357C645.661 76.3357 646.067 75.93 646.067 75.5243C646.067 75.1186 645.661 74.7129 645.255 74.7129Z" fill="#E66558"/>
<path d="M643.227 71.4677C643.227 71.8734 642.821 72.2791 642.415 72.2791C642.009 72.2791 641.604 71.8734 641.604 71.4677C641.604 71.062 642.009 70.6562 642.415 70.6562C642.821 70.6562 643.227 71.062 643.227 71.4677Z" fill="#E66558"/>
<path d="M642.415 72.6842C642.009 72.6842 641.197 72.2785 641.197 71.4671C641.197 71.0614 641.603 70.25 642.415 70.25C642.82 70.25 643.632 70.6557 643.632 71.4671C643.632 72.2785 643.226 72.6842 642.415 72.6842ZM642.415 70.6557C642.009 70.6557 641.603 71.0614 641.603 71.4671C641.603 71.8728 642.009 72.2785 642.415 72.2785C642.82 72.2785 643.226 71.8728 643.226 71.4671C643.226 71.0614 642.82 70.6557 642.415 70.6557Z" fill="#E66558"/>
<path d="M644.85 67.4091C644.85 67.8148 644.444 68.2205 644.038 68.2205C643.632 68.2205 643.227 67.8148 643.227 67.4091C643.227 67.0034 643.632 66.5977 644.038 66.5977C644.444 66.5977 644.85 67.0034 644.85 67.4091Z" fill="#E66558"/>
<path d="M643.632 68.6267C643.226 68.6267 642.82 68.221 642.82 67.8153C642.82 67.4096 643.226 67.0039 643.632 67.0039C644.038 67.0039 644.443 67.4096 644.443 67.8153C644.849 68.221 644.443 68.6267 643.632 68.6267ZM643.632 67.0039C643.226 67.0039 642.82 67.4096 642.82 67.8153C642.82 68.221 643.226 68.6267 643.632 68.6267C644.038 68.6267 644.443 68.221 644.443 67.8153C644.443 67.4096 644.038 67.0039 643.632 67.0039Z" fill="#E66558"/>
<path d="M646.878 58.8895C646.878 59.7009 646.067 60.1066 645.661 60.1066C644.849 60.1066 644.443 59.2952 644.443 58.8895C644.443 58.0781 645.255 57.6724 645.661 57.6724C646.472 57.2667 646.878 58.0781 646.878 58.8895Z" fill="#E66558"/>
<path d="M645.66 60.5132C644.849 60.5132 644.037 59.7018 644.037 58.8904C644.037 58.079 644.849 57.2676 645.66 57.2676C646.472 57.2676 647.283 58.079 647.283 58.8904C647.283 59.7018 646.472 60.5132 645.66 60.5132ZM645.66 57.6733C644.849 57.6733 644.443 58.079 644.443 58.8904C644.443 59.7018 644.849 60.1075 645.66 60.1075C646.472 60.1075 646.878 59.7018 646.878 58.8904C646.878 58.079 646.472 57.6733 645.66 57.6733Z" fill="#E66558"/>
<path d="M650.125 68.6278C650.125 69.0335 649.719 69.4392 649.314 69.4392C648.908 69.4392 648.502 69.0335 648.502 68.6278C648.502 68.2221 648.908 67.8164 649.314 67.8164C649.719 67.8164 650.125 68.2221 650.125 68.6278Z" fill="#E66558"/>
<path d="M649.314 69.4392C648.908 69.4392 648.502 69.0335 648.502 68.6278C648.502 68.2221 648.908 67.8164 649.314 67.8164C649.719 67.8164 650.125 68.2221 650.125 68.6278C650.531 69.0335 650.125 69.4392 649.314 69.4392ZM649.314 67.8164C648.908 67.8164 648.502 68.2221 648.502 68.6278C648.502 69.0335 648.908 69.4392 649.314 69.4392C649.719 69.4392 650.125 69.0335 650.125 68.6278C650.125 68.2221 649.719 67.8164 649.314 67.8164Z" fill="#E66558"/>
</g>
<defs>
<clipPath id="clip0_20_617">
<rect width="767" height="239" fill="white"/>
</clipPath>
</defs>
</svg>
