<svg width="768" height="236" viewBox="0 0 768 236" fill="none" xmlns="http://www.w3.org/2000/svg">
<g clip-path="url(#clip0_20_1123)">
<mask id="mask0_20_1123" style="mask-type:luminance" maskUnits="userSpaceOnUse" x="7" y="-377" width="149" height="609">
<path d="M52.842 28.5984V29.0041C52.4362 29.0041 52.0304 29.4098 52.0304 29.8155V36.3068C52.0304 36.7125 52.4362 37.1182 52.842 37.1182H59.3347C60.5521 37.1182 61.3636 37.9296 61.3636 39.1468V85.3974C61.3636 86.2088 60.9579 87.0202 59.7405 87.4259C28.4943 97.1629 7.79883 125.562 7.79883 158.019C7.79883 198.995 41.0739 231.858 81.6534 231.858C122.639 231.858 155.508 198.59 155.508 158.019C155.508 125.562 134.407 96.7572 103.566 87.4259C102.755 87.0202 101.943 86.2088 101.943 85.3974V38.7411C101.943 37.5239 102.755 36.7125 103.972 36.7125H110.465C110.871 36.7125 111.276 36.3068 111.276 35.9011V-369.806V-376.703" fill="white"/>
</mask>
<g mask="url(#mask0_20_1123)">
<path d="M77.5956 28.5289C80.3656 28.5289 82.6112 26.2839 82.6112 23.5145C82.6112 20.7451 80.3656 18.5 77.5956 18.5C74.8256 18.5 72.5801 20.7451 72.5801 23.5145C72.5801 26.2839 74.8256 28.5289 77.5956 28.5289Z" fill="#C03A2B" stroke="black" stroke-width="0.016129"/>
<path d="M77.5947 13.2575C80.5066 13.2575 82.8672 10.8975 82.8672 7.98618C82.8672 5.0749 80.5066 2.71484 77.5947 2.71484C74.6828 2.71484 72.3223 5.0749 72.3223 7.98618C72.3223 10.8975 74.6828 13.2575 77.5947 13.2575Z" fill="#C03A2B" stroke="black" stroke-width="0.016129"/>
<path d="M41.1979 138.541C45.5917 138.541 49.1536 134.98 49.1536 130.587C49.1536 126.194 45.5917 122.633 41.1979 122.633C36.8041 122.633 33.2422 126.194 33.2422 130.587C33.2422 134.98 36.8041 138.541 41.1979 138.541Z" fill="#C03A2B" stroke="black" stroke-width="0.016129"/>
<path d="M39.6075 145.319C43.7994 145.319 47.1975 141.922 47.1975 137.731C47.1975 133.54 43.7994 130.143 39.6075 130.143C35.4157 130.143 32.0176 133.54 32.0176 137.731C32.0176 141.922 35.4157 145.319 39.6075 145.319Z" fill="#C03A2B" stroke="black" stroke-width="0.016129"/>
<path d="M22.3016 147.772C23.6127 147.772 24.6755 146.71 24.6755 145.399C24.6755 144.088 23.6127 143.025 22.3016 143.025C20.9906 143.025 19.9277 144.088 19.9277 145.399C19.9277 146.71 20.9906 147.772 22.3016 147.772Z" fill="#C03A2B" stroke="black" stroke-width="0.016129"/>
<path d="M17.5556 138.954C21.2614 138.954 24.2655 135.951 24.2655 132.246C24.2655 128.541 21.2614 125.537 17.5556 125.537C13.8498 125.537 10.8457 128.541 10.8457 132.246C10.8457 135.951 13.8498 138.954 17.5556 138.954Z" fill="#C03A2B" stroke="black" stroke-width="0.016129"/>
<path d="M36.048 135.177C40.1227 135.177 43.426 131.874 43.426 127.8C43.426 123.726 40.1227 120.424 36.048 120.424C31.9732 120.424 28.6699 123.726 28.6699 127.8C28.6699 131.874 31.9732 135.177 36.048 135.177Z" fill="#C03A2B" stroke="black" stroke-width="0.016129"/>
<path d="M42.3345 143.834C43.8956 143.834 45.1611 142.568 45.1611 141.008C45.1611 139.447 43.8956 138.182 42.3345 138.182C40.7734 138.182 39.5078 139.447 39.5078 141.008C39.5078 142.568 40.7734 143.834 42.3345 143.834Z" fill="#C03A2B" stroke="black" stroke-width="0.016129"/>
<path d="M25.8838 161.991C27.2608 161.991 28.377 160.875 28.377 159.499C28.377 158.122 27.2608 157.006 25.8838 157.006C24.5069 157.006 23.3906 158.122 23.3906 159.499C23.3906 160.875 24.5069 161.991 25.8838 161.991Z" fill="#C03A2B" stroke="black" stroke-width="0.016129"/>
<path d="M40.0703 167.819C43.9892 167.819 47.166 164.643 47.166 160.725C47.166 156.807 43.9892 153.631 40.0703 153.631C36.1515 153.631 32.9746 156.807 32.9746 160.725C32.9746 164.643 36.1515 167.819 40.0703 167.819Z" fill="#C03A2B" stroke="black" stroke-width="0.016129"/>
<path d="M77.7339 156.125C78.9342 156.125 79.9073 155.152 79.9073 153.952C79.9073 152.752 78.9342 151.779 77.7339 151.779C76.5336 151.779 75.5605 152.752 75.5605 153.952C75.5605 155.152 76.5336 156.125 77.7339 156.125Z" fill="#E64C3C" stroke="black" stroke-width="0.016129"/>
<path d="M67.7698 151.853C69.6188 151.853 71.1178 150.354 71.1178 148.505C71.1178 146.657 69.6188 145.158 67.7698 145.158C65.9208 145.158 64.4219 146.657 64.4219 148.505C64.4219 150.354 65.9208 151.853 67.7698 151.853Z" fill="#E64C3C" stroke="black" stroke-width="0.016129"/>
<path d="M93.8619 136.527C96.3842 136.527 98.4289 134.482 98.4289 131.961C98.4289 129.439 96.3842 127.395 93.8619 127.395C91.3396 127.395 89.2949 129.439 89.2949 131.961C89.2949 134.482 91.3396 136.527 93.8619 136.527Z" fill="#E64C3C" stroke="black" stroke-width="0.016129"/>
<path d="M89.3615 162.585C93.1176 162.585 96.1626 159.541 96.1626 155.786C96.1626 152.031 93.1176 148.986 89.3615 148.986C85.6055 148.986 82.5605 152.031 82.5605 155.786C82.5605 159.541 85.6055 162.585 89.3615 162.585Z" fill="#E64C3C" stroke="black" stroke-width="0.016129"/>
<path d="M68.5199 146.503C70.5232 146.503 72.1472 144.879 72.1472 142.877C72.1472 140.874 70.5232 139.25 68.5199 139.25C66.5166 139.25 64.8926 140.874 64.8926 142.877C64.8926 144.879 66.5166 146.503 68.5199 146.503Z" fill="#E64C3C" stroke="black" stroke-width="0.016129"/>
<path d="M93.6389 131.296C97.3874 131.296 100.426 128.258 100.426 124.51C100.426 120.763 97.3874 117.725 93.6389 117.725C89.8904 117.725 86.8516 120.763 86.8516 124.51C86.8516 128.258 89.8904 131.296 93.6389 131.296Z" fill="#E64C3C" stroke="black" stroke-width="0.016129"/>
<path d="M72.8421 156.306C76.8431 156.306 80.0865 153.063 80.0865 149.063C80.0865 145.063 76.8431 141.82 72.8421 141.82C68.8411 141.82 65.5977 145.063 65.5977 149.063C65.5977 153.063 68.8411 156.306 72.8421 156.306Z" fill="#E64C3C" stroke="black" stroke-width="0.016129"/>
<path d="M84.4156 129.791C86.2868 129.791 87.8038 128.274 87.8038 126.403C87.8038 124.532 86.2868 123.016 84.4156 123.016C82.5443 123.016 81.0273 124.532 81.0273 126.403C81.0273 128.274 82.5443 129.791 84.4156 129.791Z" fill="#E64C3C" stroke="black" stroke-width="0.016129"/>
<path d="M85.7112 83.7476C89.4598 83.7476 92.4986 80.7095 92.4986 76.9617C92.4986 73.2139 89.4598 70.1758 85.7112 70.1758C81.9626 70.1758 78.9238 73.2139 78.9238 76.9617C78.9238 80.7095 81.9626 83.7476 85.7112 83.7476Z" fill="#E66558" stroke="black" stroke-width="0.016129"/>
<path d="M85.7104 67.2621C88.9537 67.2621 91.583 64.6334 91.583 61.3908C91.583 58.1482 88.9537 55.5195 85.7104 55.5195C82.4671 55.5195 79.8379 58.1482 79.8379 61.3908C79.8379 64.6334 82.4671 67.2621 85.7104 67.2621Z" fill="#E66558" stroke="black" stroke-width="0.016129"/>
<path d="M148.466 140.027C151.521 140.027 153.998 137.551 153.998 134.496C153.998 131.441 151.521 128.965 148.466 128.965C145.41 128.965 142.934 131.441 142.934 134.496C142.934 137.551 145.41 140.027 148.466 140.027Z" fill="#E66558" stroke="black" stroke-width="0.016129"/>
<path d="M127.167 146.649C129.259 146.649 130.955 144.953 130.955 142.861C130.955 140.77 129.259 139.074 127.167 139.074C125.075 139.074 123.379 140.77 123.379 142.861C123.379 144.953 125.075 146.649 127.167 146.649Z" fill="#E66558" stroke="black" stroke-width="0.016129"/>
<path d="M133.176 158.212C136.748 158.212 139.645 155.317 139.645 151.745C139.645 148.173 136.748 145.277 133.176 145.277C129.603 145.277 126.707 148.173 126.707 151.745C126.707 155.317 129.603 158.212 133.176 158.212Z" fill="#E66558" stroke="black" stroke-width="0.016129"/>
<path d="M119.952 163.645C122.499 163.645 124.563 161.581 124.563 159.035C124.563 156.49 122.499 154.426 119.952 154.426C117.406 154.426 115.342 156.49 115.342 159.035C115.342 161.581 117.406 163.645 119.952 163.645Z" fill="#E66558" stroke="black" stroke-width="0.016129"/>
<path d="M142.19 145.297C143.901 145.297 145.288 143.91 145.288 142.199C145.288 140.488 143.901 139.102 142.19 139.102C140.479 139.102 139.092 140.488 139.092 142.199C139.092 143.91 140.479 145.297 142.19 145.297Z" fill="#E66558" stroke="black" stroke-width="0.016129"/>
<path d="M128.918 145.484C130.321 145.484 131.457 144.347 131.457 142.945C131.457 141.543 130.321 140.406 128.918 140.406C127.516 140.406 126.379 141.543 126.379 142.945C126.379 144.347 127.516 145.484 128.918 145.484Z" fill="#E66558" stroke="black" stroke-width="0.016129"/>
<path d="M133.491 123.115C134.76 123.115 135.788 122.087 135.788 120.818C135.788 119.55 134.76 118.521 133.491 118.521C132.222 118.521 131.193 119.55 131.193 120.818C131.193 122.087 132.222 123.115 133.491 123.115Z" fill="#E66558" stroke="black" stroke-width="0.016129"/>
<path d="M140.774 128.285C143.389 128.285 145.51 126.165 145.51 123.55C145.51 120.935 143.389 118.814 140.774 118.814C138.158 118.814 136.037 120.935 136.037 123.55C136.037 126.165 138.158 128.285 140.774 128.285Z" fill="#E66558" stroke="black" stroke-width="0.016129"/>
</g>
<mask id="mask1_20_1123" style="mask-type:luminance" maskUnits="userSpaceOnUse" x="7" y="-377" width="149" height="609">
<path d="M52.842 28.5984V29.0041C52.4362 29.0041 52.0304 29.4098 52.0304 29.8155V36.3068C52.0304 36.7125 52.4362 37.1182 52.842 37.1182H59.3347C60.5521 37.1182 61.3636 37.9296 61.3636 39.1468V85.3974C61.3636 86.2088 60.9579 87.0202 59.7405 87.4259C28.4943 97.1629 7.79883 125.562 7.79883 158.019C7.79883 198.995 41.0739 231.858 81.6534 231.858C122.639 231.858 155.508 198.59 155.508 158.019C155.508 125.562 134.407 96.7572 103.566 87.4259C102.755 87.0202 101.943 86.2088 101.943 85.3974V38.7411C101.943 37.5239 102.755 36.7125 103.972 36.7125H110.465C110.871 36.7125 111.276 36.3068 111.276 35.9011V-369.806V-376.703" fill="white"/>
</mask>
<g mask="url(#mask1_20_1123)">
<path d="M12.6693 191.288C14.9104 191.288 16.7272 189.472 16.7272 187.231C16.7272 184.99 14.9104 183.174 12.6693 183.174C10.4281 183.174 8.61133 184.99 8.61133 187.231C8.61133 189.472 10.4281 191.288 12.6693 191.288Z" fill="#C03A2B"/>
<path d="M16.7266 189.26C23.45 189.26 28.9004 183.811 28.9004 177.089C28.9004 170.367 23.45 164.918 16.7266 164.918C10.0031 164.918 4.55273 170.367 4.55273 177.089C4.55273 183.811 10.0031 189.26 16.7266 189.26Z" fill="#C03A2B"/>
<path d="M20.7845 191.288C23.0256 191.288 24.8424 189.472 24.8424 187.231C24.8424 184.99 23.0256 183.174 20.7845 183.174C18.5434 183.174 16.7266 184.99 16.7266 187.231C16.7266 189.472 18.5434 191.288 20.7845 191.288Z" fill="#C03A2B"/>
<path d="M24.8415 189.26C25.962 189.26 26.8704 188.352 26.8704 187.232C26.8704 186.111 25.962 185.203 24.8415 185.203C23.7209 185.203 22.8125 186.111 22.8125 187.232C22.8125 188.352 23.7209 189.26 24.8415 189.26Z" fill="#C03A2B"/>
<path d="M28.8997 191.288C31.1409 191.288 32.9577 189.472 32.9577 187.231C32.9577 184.99 31.1409 183.174 28.8997 183.174C26.6586 183.174 24.8418 184.99 24.8418 187.231C24.8418 189.472 26.6586 191.288 28.8997 191.288Z" fill="#C03A2B"/>
<path d="M32.9584 188.449C39.0095 188.449 43.9148 183.545 43.9148 177.495C43.9148 171.445 39.0095 166.541 32.9584 166.541C26.9073 166.541 22.002 171.445 22.002 177.495C22.002 183.545 26.9073 188.449 32.9584 188.449Z" fill="#C03A2B"/>
<path d="M37.0166 176.683C40.3783 176.683 43.1035 173.958 43.1035 170.597C43.1035 167.236 40.3783 164.512 37.0166 164.512C33.6549 164.512 30.9297 167.236 30.9297 170.597C30.9297 173.958 33.6549 176.683 37.0166 176.683Z" fill="#C03A2B"/>
<path d="M41.0739 181.145C42.1945 181.145 43.1029 180.237 43.1029 179.116C43.1029 177.996 42.1945 177.088 41.0739 177.088C39.9533 177.088 39.0449 177.996 39.0449 179.116C39.0449 180.237 39.9533 181.145 41.0739 181.145Z" fill="#C03A2B"/>
<path d="M45.944 187.232C50.4263 187.232 54.0599 183.599 54.0599 179.118C54.0599 174.637 50.4263 171.004 45.944 171.004C41.4617 171.004 37.8281 174.637 37.8281 179.118C37.8281 183.599 41.4617 187.232 45.944 187.232Z" fill="#C03A2B"/>
<path d="M53.2474 185.203H12.668V590.91H53.2474V185.203Z" fill="#C03A2B"/>
<path d="M65.4209 211.574C68.7826 211.574 71.5078 208.849 71.5078 205.488C71.5078 202.127 68.7826 199.402 65.4209 199.402C62.0592 199.402 59.334 202.127 59.334 205.488C59.334 208.849 62.0592 211.574 65.4209 211.574Z" fill="#E64C3C"/>
<path d="M69.4784 202.648C72.3919 202.648 74.7538 200.287 74.7538 197.374C74.7538 194.461 72.3919 192.1 69.4784 192.1C66.565 192.1 64.2031 194.461 64.2031 197.374C64.2031 200.287 66.565 202.648 69.4784 202.648Z" fill="#E64C3C"/>
<path d="M73.5365 203.458C75.7776 203.458 77.5944 201.641 77.5944 199.401C77.5944 197.16 75.7776 195.344 73.5365 195.344C71.2953 195.344 69.4785 197.16 69.4785 199.401C69.4785 201.641 71.2953 203.458 73.5365 203.458Z" fill="#E64C3C"/>
<path d="M77.5947 195.345C80.9564 195.345 83.6816 192.62 83.6816 189.259C83.6816 185.898 80.9564 183.174 77.5947 183.174C74.233 183.174 71.5078 185.898 71.5078 189.259C71.5078 192.62 74.233 195.345 77.5947 195.345Z" fill="#E64C3C"/>
<path d="M81.6517 209.544C83.8928 209.544 85.7096 207.727 85.7096 205.487C85.7096 203.246 83.8928 201.43 81.6517 201.43C79.4106 201.43 77.5938 203.246 77.5938 205.487C77.5938 207.727 79.4106 209.544 81.6517 209.544Z" fill="#E64C3C"/>
<path d="M85.7103 206.705C91.7614 206.705 96.6668 201.801 96.6668 195.751C96.6668 189.701 91.7614 184.797 85.7103 184.797C79.6593 184.797 74.7539 189.701 74.7539 195.751C74.7539 201.801 79.6593 206.705 85.7103 206.705Z" fill="#E64C3C"/>
<path d="M89.7686 194.939C93.1303 194.939 95.8555 192.214 95.8555 188.853C95.8555 185.492 93.1303 182.768 89.7686 182.768C86.4068 182.768 83.6816 185.492 83.6816 188.853C83.6816 192.214 86.4068 194.939 89.7686 194.939Z" fill="#E64C3C"/>
<path d="M93.8258 199.401C94.9464 199.401 95.8548 198.493 95.8548 197.372C95.8548 196.252 94.9464 195.344 93.8258 195.344C92.7053 195.344 91.7969 196.252 91.7969 197.372C91.7969 198.493 92.7053 199.401 93.8258 199.401Z" fill="#E64C3C"/>
<path d="M98.696 205.488C103.178 205.488 106.812 201.855 106.812 197.374C106.812 192.893 103.178 189.26 98.696 189.26C94.2137 189.26 90.5801 192.893 90.5801 197.374C90.5801 201.855 94.2137 205.488 98.696 205.488Z" fill="#E64C3C"/>
<path d="M101.943 201.43H61.3633V607.137H101.943V201.43Z" fill="#E64C3C"/>
<path d="M118.174 183.174C123.777 183.174 128.319 178.633 128.319 173.031C128.319 167.43 123.777 162.889 118.174 162.889C112.571 162.889 108.029 167.43 108.029 173.031C108.029 178.633 112.571 183.174 118.174 183.174Z" fill="#E66558"/>
<path d="M122.232 172.22C125.146 172.22 127.508 169.859 127.508 166.946C127.508 164.033 125.146 161.672 122.232 161.672C119.319 161.672 116.957 164.033 116.957 166.946C116.957 169.859 119.319 172.22 122.232 172.22Z" fill="#E66558"/>
<path d="M126.29 171.003C128.532 171.003 130.348 169.186 130.348 166.946C130.348 164.705 128.532 162.889 126.29 162.889C124.049 162.889 122.232 164.705 122.232 166.946C122.232 169.186 124.049 171.003 126.29 171.003Z" fill="#E66558"/>
<path d="M130.349 164.917C133.71 164.917 136.436 162.193 136.436 158.832C136.436 155.471 133.71 152.746 130.349 152.746C126.987 152.746 124.262 155.471 124.262 158.832C124.262 162.193 126.987 164.917 130.349 164.917Z" fill="#E66558"/>
<path d="M134.406 166.946C136.647 166.946 138.464 165.13 138.464 162.889C138.464 160.648 136.647 158.832 134.406 158.832C132.164 158.832 130.348 160.648 130.348 162.889C130.348 165.13 132.164 166.946 134.406 166.946Z" fill="#E66558"/>
<path d="M138.464 174.248C144.515 174.248 149.421 169.344 149.421 163.294C149.421 157.244 144.515 152.34 138.464 152.34C132.413 152.34 127.508 157.244 127.508 163.294C127.508 169.344 132.413 174.248 138.464 174.248Z" fill="#E66558"/>
<path d="M142.522 166.134C145.884 166.134 148.609 163.409 148.609 160.048C148.609 156.688 145.884 153.963 142.522 153.963C139.161 153.963 136.436 156.688 136.436 160.048C136.436 163.409 139.161 166.134 142.522 166.134Z" fill="#E66558"/>
<path d="M146.58 166.946C147.7 166.946 148.609 166.038 148.609 164.917C148.609 163.797 147.7 162.889 146.58 162.889C145.459 162.889 144.551 163.797 144.551 164.917C144.551 166.038 145.459 166.946 146.58 166.946Z" fill="#E66558"/>
<path d="M151.45 173.031C155.932 173.031 159.566 169.398 159.566 164.917C159.566 160.436 155.932 156.803 151.45 156.803C146.968 156.803 143.334 160.436 143.334 164.917C143.334 169.398 146.968 173.031 151.45 173.031Z" fill="#E66558"/>
<path d="M150.638 168.975H110.059V574.682H150.638V168.975Z" fill="#E66558"/>
</g>
<path d="M81.6527 235.914C38.6385 235.914 3.74023 201.024 3.74023 158.019C3.74023 123.939 24.8415 94.3227 57.3051 83.7743V40.7693H52.8413C50.0008 40.7693 47.9718 38.7408 47.9718 35.9008V29.4095C47.9718 26.5696 50.0008 24.541 52.8413 24.541H110.464C113.305 24.541 115.334 26.5696 115.334 29.4095V35.9008C115.334 38.7408 113.305 40.7693 110.464 40.7693H106V83.7743C138.058 94.3227 159.565 123.939 159.565 158.019C159.565 201.024 124.667 235.914 81.6527 235.914ZM52.8413 29.0038C52.4355 29.0038 52.0297 29.4095 52.0297 29.8152V36.3065C52.0297 36.7122 52.4355 37.1179 52.8413 37.1179H59.334C60.5514 37.1179 61.363 37.9294 61.363 39.1465V85.3971C61.363 86.2085 60.9572 87.0199 59.7398 87.4256C28.4937 97.1626 7.79818 125.562 7.79818 158.019C7.79818 198.995 41.0733 231.857 81.6527 231.857C122.638 231.857 155.507 198.589 155.507 158.019C155.507 125.562 134.406 96.7569 103.566 87.4256C102.754 87.0199 101.942 86.2085 101.942 85.3971V38.7408C101.942 37.5236 102.754 36.7122 103.971 36.7122H110.464C110.87 36.7122 111.276 36.3065 111.276 35.9008V29.4095C111.276 29.0038 110.87 28.5981 110.464 28.5981H52.8413V29.0038Z" fill="#2C3E50"/>
<path d="M219.623 61.0547H232.203L244.782 93.917L257.362 61.0547H269.536L251.275 108.117H238.695L219.623 61.0547Z" fill="#C03A2B"/>
<path d="M276.84 91.0781H288.608V108.118H276.84V91.0781Z" fill="#C03A2B"/>
<path d="M326.753 74.0385C324.318 70.7929 321.477 69.17 317.42 69.17C315.796 69.17 314.173 69.5757 312.956 70.3871C311.333 71.1986 310.521 72.4157 310.521 74.0385C310.521 75.6613 311.333 76.4728 312.55 77.2842C313.767 78.0956 315.391 78.5013 317.42 78.907C319.449 79.3127 321.477 79.7184 323.506 80.1241C325.535 80.5298 327.564 81.3412 329.593 82.5584C331.622 83.3698 332.84 84.9926 334.463 86.6154C335.68 88.2383 336.492 90.6725 336.492 93.9182C336.492 96.7581 336.086 99.1924 334.869 100.815C333.651 102.844 332.028 104.467 329.999 105.278C327.97 106.495 325.941 107.307 323.506 107.712C321.072 108.118 318.637 108.524 316.202 108.524C312.55 108.524 309.304 108.118 306.057 106.901C302.811 105.684 300.376 104.061 297.941 101.221L305.652 93.9182C307.275 95.541 308.898 97.1638 310.521 97.9752C312.144 98.7867 314.173 99.5981 316.608 99.5981C317.42 99.5981 318.231 99.5981 319.043 99.1924C319.854 99.1924 320.666 98.7867 321.477 98.3809C322.289 97.9752 322.695 97.1638 323.506 96.7581C323.912 95.9467 324.318 95.1353 324.318 94.3239C324.318 92.701 323.506 91.4839 322.289 90.6725C321.072 89.8611 319.449 89.4554 317.42 88.644C315.391 88.2383 313.362 87.8326 311.333 87.4268C309.304 87.0211 307.275 86.2097 305.246 85.3983C303.217 84.5869 301.999 82.9641 300.376 81.3412C299.159 79.7184 298.347 77.2842 298.347 74.4442C298.347 72.01 298.753 69.5757 299.97 67.5472C301.188 65.5187 302.405 63.8958 304.028 62.6787C305.651 61.4616 307.68 60.6502 310.115 59.8388C312.55 59.4331 314.579 59.0273 317.014 59.0273C320.26 59.0273 323.101 59.4331 326.347 60.6502C329.593 61.8673 332.028 63.4901 333.651 66.3301L326.753 74.0385Z" fill="#C03A2B"/>
<path d="M387.623 108.117H376.666V100.814C375.449 103.248 373.826 105.277 371.797 106.9C369.362 108.522 366.521 109.334 362.463 109.334C359.217 109.334 356.782 108.928 354.347 107.711C351.913 106.494 350.289 105.277 349.072 103.654C347.855 102.031 346.637 100.003 346.232 97.5683C345.826 95.5398 345.42 93.1056 345.42 90.6713V61.0547H357.188V84.5857C357.188 85.8028 357.188 87.4257 357.188 89.0485C357.188 90.6713 357.594 92.2941 358.405 93.5113C358.811 94.7284 359.623 95.9455 360.84 97.1626C362.057 97.974 363.681 98.3798 365.71 98.3798C367.739 98.3798 369.362 97.974 370.579 97.5683C371.797 96.7569 373.014 95.9455 373.826 95.1341C374.637 93.917 375.449 92.6998 375.854 91.4827C376.26 90.2656 376.26 88.6428 376.26 87.0199V61.0547H388.028V108.117H387.623Z" fill="#C03A2B"/>
<path d="M430.23 101.626C428.201 104.466 426.172 106.089 423.331 107.306C420.896 108.523 418.056 108.929 414.809 108.929C412.78 108.929 410.751 108.523 408.723 108.118C406.694 107.712 404.665 106.495 403.447 105.683C401.824 104.466 400.607 103.249 399.795 101.221C398.983 99.5977 398.172 97.5692 398.172 95.135C398.172 92.7007 398.578 90.2665 399.389 88.6436C400.201 87.0208 401.418 85.398 403.041 84.1809C404.665 82.9637 406.288 82.1523 408.317 81.3409C410.346 80.5295 412.375 80.1238 414.404 79.7181C416.433 79.3124 418.867 79.3124 420.896 78.9067C422.925 78.9067 425.36 78.9067 426.983 78.9067H429.824V77.6896C429.824 74.8496 429.012 72.4154 426.983 71.1982C424.954 69.9811 422.52 68.764 419.273 68.764C416.838 68.764 414.404 69.1697 412.375 69.9811C410.346 70.7925 408.317 72.0097 406.694 73.6325L401.012 67.5469C403.447 64.7069 406.694 63.0841 409.94 61.867C413.186 60.6498 416.838 60.2441 420.896 60.2441C424.143 60.2441 426.983 60.6498 429.418 61.4613C431.853 62.2727 433.476 63.0841 435.099 64.3012C436.722 65.5183 437.94 66.7355 438.751 68.3583C439.563 69.9811 439.969 71.6039 440.374 72.8211C440.78 74.4439 440.78 76.0667 441.186 77.2838C441.186 78.9067 441.186 80.1238 441.186 80.9352V108.118H430.635V101.626H430.23ZM429.418 87.0208H426.983C425.36 87.0208 423.737 87.0208 421.708 87.0208C419.679 87.0208 417.65 87.4265 416.027 87.8322C414.404 88.2379 412.78 89.0494 411.563 89.8608C410.346 90.6722 409.534 92.295 409.534 93.9178C409.534 95.135 409.94 95.9464 410.346 96.7578C410.751 97.5692 411.563 97.9749 412.375 98.7863C413.186 99.192 413.998 99.5977 414.809 100.003C415.621 100.409 416.838 100.409 417.65 100.409C421.708 100.409 424.548 99.5977 426.577 97.5692C428.606 95.5407 429.418 93.1064 429.418 89.8608V87.0208Z" fill="#C03A2B"/>
<path d="M453.361 34.2793H465.129V108.118H453.361V34.2793Z" fill="#C03A2B"/>
<path d="M500.838 97.1626L525.997 70.7917H502.055V61.0547H540.2V71.6031L515.041 98.3798H541.417V108.117H501.244V97.1626H500.838Z" fill="#C03A2B"/>
<path d="M579.968 101.626C577.939 104.466 575.91 106.089 573.069 107.306C570.635 108.523 567.794 108.929 564.548 108.929C562.519 108.929 560.49 108.523 558.461 108.118C556.432 107.712 554.403 106.495 553.185 105.683C551.562 104.466 550.345 103.249 549.533 101.221C548.722 99.5977 547.91 97.5692 547.91 95.135C547.91 92.7007 548.316 90.2665 549.128 88.6436C549.939 87.0208 551.156 85.398 552.78 84.1809C554.403 82.9637 556.026 82.1523 558.055 81.3409C560.084 80.5295 562.113 80.1238 564.142 79.7181C566.171 79.3124 568.606 79.3124 570.635 78.9067C572.664 78.9067 575.098 78.9067 576.722 78.9067H579.562V77.6896C579.562 74.8496 578.751 72.4154 576.722 71.1982C574.693 69.9811 572.664 68.764 569.417 68.764C566.982 68.764 564.548 69.1697 562.519 69.9811C560.49 70.7925 558.461 72.0097 556.838 73.6325L550.751 67.5469C553.185 64.7069 556.432 63.0841 559.678 61.867C562.925 60.6498 566.577 60.2441 570.635 60.2441C573.881 60.2441 576.722 60.6498 579.156 61.4613C581.591 62.2727 583.214 63.0841 584.837 64.3012C586.461 65.5183 587.678 66.7355 588.49 68.3583C589.301 69.9811 589.707 71.6039 590.113 72.8211C590.519 74.4439 590.519 76.0667 590.924 77.2838C590.924 78.9067 590.924 80.1238 590.924 80.9352V108.118H580.374V101.626H579.968ZM579.562 87.0208H577.127C575.504 87.0208 573.881 87.0208 571.852 87.0208C569.823 87.0208 567.794 87.4265 566.171 87.8322C564.548 88.2379 562.925 89.0494 561.707 89.8608C560.49 90.6722 559.678 92.295 559.678 93.9178C559.678 95.135 560.084 95.9464 560.49 96.7578C560.896 97.5692 561.707 97.9749 562.519 98.7863C563.33 99.192 564.142 99.5977 564.953 100.003C565.765 100.409 566.982 100.409 567.794 100.409C571.852 100.409 574.693 99.5977 576.722 97.5692C578.751 95.5407 579.562 93.1064 579.562 89.8608V87.0208Z" fill="#C03A2B"/>
<path d="M597.822 71.199V61.0563H607.561V47.668H619.329V61.0563H632.315V70.7933H619.329V91.0786C619.329 93.5129 619.735 95.1357 620.547 96.7585C621.358 97.9757 622.982 98.7871 625.822 98.7871C627.039 98.7871 627.851 98.7871 629.068 98.3814C630.286 97.9757 631.097 97.9757 631.909 97.1642V106.901C630.692 107.307 629.068 107.713 627.445 108.118C625.822 108.524 624.199 108.524 622.576 108.524C619.329 108.524 616.895 108.118 614.866 107.307C612.837 106.496 611.213 105.684 609.996 104.061C608.779 102.844 607.967 100.816 607.561 98.7871C607.156 96.7585 606.75 94.3243 606.75 91.4843V71.199H597.822Z" fill="#C03A2B"/>
<path d="M664.373 84.5866C664.373 80.9352 665.185 77.6896 666.402 74.4439C667.619 71.6039 669.648 68.764 671.677 66.7355C674.112 64.7069 676.547 63.0841 679.793 61.867C683.04 60.6498 686.286 60.2441 689.532 60.2441C693.184 60.2441 696.431 60.6498 699.271 61.867C702.112 63.0841 704.952 64.7069 707.387 66.7355C709.822 68.764 711.445 71.6039 712.663 74.4439C713.88 77.2838 714.692 80.9352 714.692 84.5866C714.692 88.2379 713.88 91.4836 712.663 94.7293C711.445 97.5692 709.416 100.409 707.387 102.438C704.952 104.466 702.518 106.089 699.271 107.306C696.025 108.523 692.779 108.929 689.532 108.929C685.88 108.929 682.634 108.523 679.793 107.306C676.547 106.089 674.112 104.466 671.677 102.438C669.243 100.409 667.619 97.5692 666.402 94.7293C664.779 91.4836 664.373 88.2379 664.373 84.5866ZM675.735 84.5866C675.735 86.2094 676.141 88.2379 676.547 89.8608C676.953 91.4836 678.17 93.1064 679.387 94.3235C680.605 95.5407 682.228 96.7578 683.851 97.5692C685.474 98.3806 687.503 98.7863 689.532 98.7863C691.561 98.7863 693.59 98.3806 695.213 97.5692C696.837 96.7578 698.46 95.9464 699.677 94.3235C700.895 93.1064 701.706 91.4836 702.518 89.8608C703.329 88.2379 703.329 86.6151 703.329 84.5866C703.329 82.558 702.923 80.9352 702.518 79.3124C701.706 77.6896 700.895 76.0667 699.677 74.8496C698.46 73.6325 696.837 72.4154 695.213 71.6039C693.59 70.7925 691.561 70.3868 689.532 70.3868C687.503 70.3868 685.474 70.7925 683.851 71.6039C682.228 72.4154 680.605 73.2268 679.387 74.8496C678.17 76.0667 677.358 77.6896 676.547 79.3124C676.141 80.9352 675.735 82.558 675.735 84.5866Z" fill="#C03A2B"/>
<path d="M726.054 61.055H737.011V68.3577C738.228 65.9235 739.851 63.895 741.88 62.2721C744.315 60.6493 747.156 59.8379 751.213 59.8379C754.46 59.8379 756.895 60.2436 759.329 61.4607C761.764 62.6778 763.387 63.895 764.605 65.5178C765.822 67.1406 767.039 69.1692 767.445 71.1977C767.851 73.2262 768.257 75.6605 768.257 78.0947V108.117H756.489V84.586C756.489 83.3689 756.489 81.7461 756.489 80.1233C756.489 78.5004 756.083 76.8776 755.271 75.6605C754.866 74.4434 754.054 73.2262 752.837 72.0091C751.619 71.1977 749.996 70.792 747.967 70.792C745.938 70.792 744.315 71.1977 743.098 71.6034C741.88 72.4148 740.663 73.2262 739.851 74.0376C739.04 75.2548 738.228 76.4719 737.822 77.689C737.416 79.3118 737.416 80.529 737.416 82.1518V108.117H725.648V61.055H726.054Z" fill="#C03A2B"/>
<path d="M263.044 201.431C261.015 204.27 258.986 206.299 256.145 207.516C252.899 209.139 250.058 209.545 246.812 209.545C243.16 209.545 239.913 208.733 237.073 207.516C234.232 206.299 231.798 204.676 229.769 202.242C227.74 199.808 226.116 197.373 225.305 194.533C224.493 191.694 223.682 188.448 223.682 185.202C223.682 181.957 224.087 178.711 225.305 175.465C226.522 172.625 228.145 169.785 229.769 167.757C231.798 165.728 234.232 163.7 237.073 162.483C239.913 161.266 242.754 160.454 246.406 160.454C248.435 160.454 250.464 160.86 252.087 161.265C253.71 161.671 255.334 162.483 256.551 162.888C257.768 163.7 258.986 164.511 259.797 165.323C260.609 166.134 261.42 166.945 262.232 167.757H262.638V134.895H274.406V208.328H263.449V201.431H263.044ZM235.45 185.202C235.45 186.825 235.855 188.854 236.261 190.476C237.073 192.099 237.884 193.722 239.102 194.939C240.319 196.156 241.942 197.373 243.566 198.185C245.189 198.996 247.218 199.402 249.247 199.402C251.276 199.402 253.305 198.996 254.928 198.185C256.551 197.373 258.174 196.562 259.392 194.939C260.609 193.722 261.42 192.099 262.232 190.476C263.044 188.854 263.044 187.231 263.044 185.202C263.044 183.174 262.638 181.551 262.232 179.928C261.42 178.305 260.609 176.682 259.392 175.465C258.174 174.248 256.551 173.031 254.928 172.22C253.305 171.408 251.276 171.002 249.247 171.002C247.218 171.002 245.189 171.408 243.566 172.22C241.942 173.031 240.319 173.842 239.102 175.465C237.884 176.682 237.073 178.305 236.261 179.928C235.45 181.551 235.45 183.174 235.45 185.202Z" fill="#2C3E50"/>
<path d="M296.724 189.259C297.129 192.911 298.347 195.345 300.782 197.374C303.216 199.402 306.057 200.214 309.303 200.214C312.144 200.214 314.579 199.808 316.607 198.591C318.636 197.374 320.26 195.751 321.883 194.128L330.404 200.619C327.564 203.865 324.723 206.299 321.071 207.922C317.825 209.545 314.173 209.95 310.521 209.95C306.868 209.95 303.622 209.545 300.782 208.328C297.535 207.111 295.1 205.488 292.666 203.459C290.231 201.431 288.608 198.591 287.39 195.751C286.173 192.911 285.361 189.259 285.361 185.608C285.361 181.957 286.173 178.711 287.39 175.465C288.608 172.625 290.637 169.785 292.666 167.757C295.1 165.728 297.535 164.106 300.782 162.888C304.028 161.671 307.274 161.266 310.521 161.266C313.767 161.266 316.607 161.671 319.448 162.888C322.289 164.106 324.318 165.728 326.347 167.757C328.376 169.785 329.593 172.625 330.81 175.871C332.028 179.117 332.433 182.768 332.433 186.825V189.259H296.724ZM320.665 180.334C320.665 177.088 319.448 174.248 317.419 172.22C315.39 170.191 312.55 169.38 308.897 169.38C305.245 169.38 302.81 170.191 300.376 172.22C297.941 174.248 297.129 177.088 296.724 180.334H320.665Z" fill="#2C3E50"/>
<path d="M368.143 174.654C365.708 171.409 362.868 169.786 358.81 169.786C357.187 169.786 355.563 170.192 354.346 171.003C352.723 171.814 351.911 173.031 351.911 174.654C351.911 176.277 352.723 177.089 353.94 177.9C355.158 178.711 356.781 179.117 358.81 179.523C360.839 179.928 362.868 180.334 364.897 180.74C366.926 181.146 368.955 181.957 370.984 183.174C373.012 183.986 374.23 185.608 375.853 187.231C377.07 188.854 377.882 191.288 377.882 194.534C377.882 197.374 377.476 199.808 376.259 201.431C375.041 203.46 373.418 205.082 371.389 205.894C369.36 207.111 367.331 207.922 364.897 208.328C362.056 209.545 359.621 209.545 357.187 209.545C353.534 209.545 350.288 209.139 347.042 207.922C343.795 206.705 341.361 205.082 338.926 202.242L346.636 194.94C348.259 196.562 349.882 198.185 351.505 198.997C353.129 200.214 355.158 200.62 357.592 200.62C358.404 200.62 359.215 200.62 360.027 200.214C360.839 200.214 361.65 199.808 362.462 199.402C363.273 198.997 363.679 198.185 364.491 197.78C365.302 197.374 365.302 196.157 365.302 195.345C365.302 193.723 364.491 192.505 363.273 191.694C362.056 190.883 360.433 190.477 358.404 189.665C356.375 189.26 354.346 188.854 352.317 188.448C350.288 188.043 348.259 187.231 346.23 186.42C344.201 185.608 342.984 183.986 341.361 182.363C340.143 180.74 339.332 178.306 339.332 175.466C339.332 173.031 339.737 170.597 340.955 168.569C342.172 166.54 343.39 164.917 345.013 163.7C346.636 162.483 348.665 161.672 351.1 160.86C353.534 160.455 355.563 160.049 357.998 160.049C361.244 160.049 364.085 160.455 367.331 161.672C370.578 162.889 373.012 164.512 374.636 167.352L368.143 174.654Z" fill="#2C3E50"/>
<path d="M385.188 145.848C385.188 143.82 385.999 142.197 387.216 140.98C388.434 139.763 390.463 138.951 392.492 138.951C394.521 138.951 396.55 139.763 397.767 140.98C399.39 142.197 399.796 143.82 399.796 145.848C399.796 147.877 398.985 149.5 397.767 150.717C396.144 151.934 394.521 152.745 392.492 152.745C390.463 152.745 388.434 151.934 387.216 150.717C385.593 149.5 385.188 147.877 385.188 145.848ZM386.811 161.671H398.173V208.327H386.405V161.671H386.811Z" fill="#2C3E50"/>
<path d="M459.853 161.671V204.27C459.853 208.327 459.447 212.385 458.23 215.63C457.013 218.876 455.389 222.121 453.36 224.15C451.331 226.179 448.491 228.207 445.245 229.83C441.998 231.047 437.94 231.858 433.477 231.858C429.013 231.858 424.955 231.453 421.303 230.236C417.245 229.019 413.998 226.99 410.346 224.15L417.245 214.413C419.68 216.442 422.114 218.064 424.549 219.282C426.984 220.499 429.824 220.904 433.477 220.904C436.317 220.904 438.752 220.499 440.375 219.687C442.404 218.876 443.621 217.659 444.839 216.442C446.056 215.224 446.868 213.602 447.274 211.573C447.679 209.545 448.085 207.516 448.085 205.082V201.836C446.462 204.27 444.027 205.893 441.187 207.11C438.346 208.327 435.506 208.733 432.665 208.733C429.013 208.733 426.172 207.922 422.926 206.705C420.085 205.487 417.651 203.865 415.622 201.43C413.593 198.996 411.969 196.562 410.752 193.722C409.535 190.882 409.129 187.636 409.129 184.391C409.129 181.145 409.535 177.899 410.752 174.654C411.969 171.814 413.187 168.974 415.216 166.945C417.245 164.917 419.68 162.888 422.52 161.671C425.361 160.454 428.607 159.643 432.259 159.643C435.506 159.643 438.752 160.454 441.592 161.671C444.433 162.888 446.868 164.917 448.491 167.757V160.86H459.853V161.671ZM435.1 171.002C433.071 171.002 431.042 171.408 429.419 172.219C427.795 173.031 426.172 173.842 424.955 175.059C423.737 176.277 422.926 177.899 422.114 179.522C421.303 181.145 420.897 183.174 420.897 185.202C420.897 187.231 421.303 188.853 422.114 190.476C422.926 192.099 423.737 193.722 424.955 194.939C426.172 196.156 427.795 196.968 429.419 197.779C431.042 198.59 433.071 198.996 434.694 198.996C436.723 198.996 438.752 198.59 440.375 197.779C441.998 196.968 443.621 196.156 444.839 194.939C446.056 193.722 446.868 192.099 447.679 190.476C448.491 188.853 448.491 186.825 448.491 185.202C448.491 181.145 447.274 177.899 444.839 175.465C442.404 173.031 439.158 171.002 435.1 171.002Z" fill="#2C3E50"/>
<path d="M473.244 161.67H484.2V168.973C485.417 166.539 487.041 164.51 489.07 162.887C491.504 161.265 494.345 160.453 498.403 160.453C501.649 160.453 504.084 160.859 506.519 162.076C508.954 163.293 510.577 164.51 511.794 166.133C513.012 167.756 514.229 169.784 514.635 171.813C515.04 173.841 515.446 176.276 515.446 178.71V208.327H503.678V184.796C503.678 183.578 503.678 181.956 503.678 180.333C503.678 178.71 503.272 177.087 502.461 175.87C502.055 174.653 501.243 173.436 500.026 172.219C498.809 171.407 497.186 171.002 495.157 171.002C493.128 171.002 491.504 171.407 490.287 171.813C489.07 172.624 487.852 173.436 487.041 174.247C486.229 175.464 485.418 176.681 485.012 177.899C484.606 179.521 484.606 180.738 484.606 182.361V207.921H472.838V161.67H473.244Z" fill="#2C3E50"/>
<path d="M558.055 134.895H569.823V208.328H558.055V134.895Z" fill="#2C3E50"/>
<path d="M612.433 202.242C610.404 205.082 608.375 206.705 605.534 207.922C603.099 209.139 600.259 209.545 597.013 209.545C594.984 209.545 592.955 209.139 590.926 208.733C588.897 208.328 586.868 207.111 585.65 206.299C584.027 205.082 582.81 203.865 581.998 201.836C581.187 200.214 580.375 198.185 580.375 195.751C580.375 193.316 580.781 190.882 581.592 189.259C582.404 187.637 583.621 186.014 585.245 184.797C586.868 183.58 588.491 182.768 590.52 181.957C592.549 181.145 594.578 180.74 596.607 180.334C598.636 179.928 601.07 179.928 603.099 179.522C605.128 179.522 607.563 179.522 609.186 179.522H612.027V178.305C612.027 175.465 611.215 173.031 609.186 171.814C607.157 170.597 604.723 169.785 601.476 169.785C599.042 169.785 596.607 170.191 594.578 171.003C592.549 171.814 590.52 173.031 588.897 174.654L582.81 168.568C585.245 165.728 588.491 164.106 591.737 162.888C594.984 161.671 598.636 161.266 602.694 161.266C605.94 161.266 608.781 161.671 611.215 162.483C613.65 163.294 615.273 164.106 616.896 165.323C618.52 166.54 619.737 167.757 620.549 169.38C621.36 171.003 621.766 172.625 622.172 173.843C622.578 175.06 622.578 177.088 622.983 178.305C622.983 179.928 622.983 181.145 622.983 181.957V208.733H612.433V202.242ZM611.621 187.637H609.186C607.563 187.637 605.94 187.637 603.911 187.637C601.882 187.637 599.853 188.042 598.23 188.448C596.607 188.854 594.984 189.665 593.766 190.477C592.549 191.288 591.737 192.911 591.737 194.534C591.737 195.751 592.143 196.562 592.549 197.374C592.955 198.185 593.766 198.591 594.578 199.402C595.389 199.808 596.201 200.214 597.013 200.619C597.824 201.025 599.042 201.025 599.853 201.025C603.911 201.025 606.752 200.214 608.781 198.185C610.81 196.156 611.621 193.722 611.621 190.477V187.637Z" fill="#2C3E50"/>
<path d="M635.562 134.895H647.331V167.757H647.736C648.142 166.945 648.954 166.134 650.171 165.323C650.983 164.511 652.2 163.7 653.417 162.888C654.635 162.077 656.258 161.671 657.881 161.265C659.504 160.86 661.533 160.454 663.562 160.454C666.809 160.454 670.055 161.266 672.896 162.483C675.736 163.7 678.171 165.323 680.2 167.757C682.229 169.785 683.852 172.625 684.664 175.465C685.881 178.305 686.287 181.551 686.287 185.202C686.287 188.854 685.881 191.694 684.664 194.939C683.446 197.779 682.229 200.619 680.2 202.648C678.171 204.676 675.736 206.705 672.896 207.922C670.055 209.139 666.809 209.95 663.157 209.95C659.91 209.95 656.664 209.139 653.823 207.922C650.983 206.705 648.548 204.676 646.925 201.836V208.733H635.968V134.895H635.562ZM674.113 185.202C674.113 183.579 673.707 181.551 673.301 179.928C672.49 178.305 671.678 176.682 670.461 175.465C669.243 174.248 667.62 173.031 665.997 172.22C664.374 171.408 662.345 171.002 660.316 171.002C658.287 171.002 656.258 171.408 654.635 172.22C653.012 173.031 651.388 173.842 650.171 175.465C648.954 176.682 648.142 178.305 647.331 179.928C646.519 181.551 646.519 183.174 646.519 185.202C646.519 187.231 646.925 188.854 647.331 190.476C647.736 192.099 648.954 193.722 650.171 194.939C651.388 196.156 653.012 197.373 654.635 198.185C656.258 198.996 658.287 199.402 660.316 199.402C662.345 199.402 664.374 198.996 665.997 198.185C667.62 197.373 669.243 196.562 670.461 194.939C671.678 193.722 672.49 192.099 673.301 190.476C674.113 188.854 674.113 186.825 674.113 185.202Z" fill="#2C3E50"/>
<path d="M278.057 90.2665C278.057 90.6722 277.651 91.0779 277.245 91.0779C276.839 91.0779 276.434 90.6722 276.434 90.2665C276.434 89.8608 276.839 89.4551 277.245 89.4551C277.651 89.4551 278.057 89.8608 278.057 90.2665Z" fill="#C03A2B"/>
<path d="M277.245 91.0779C276.839 91.0779 276.434 90.6722 276.434 90.2665C276.434 89.8608 276.839 89.4551 277.245 89.4551C277.651 89.4551 278.057 89.8608 278.057 90.2665C278.057 90.6722 277.651 91.0779 277.245 91.0779ZM277.245 89.4551C276.839 89.4551 276.434 89.8608 276.434 90.2665C276.434 90.6722 276.839 91.0779 277.245 91.0779C277.651 91.0779 278.057 90.6722 278.057 90.2665C277.651 89.8608 277.651 89.4551 277.245 89.4551Z" fill="#C03A2B"/>
<path d="M284.551 89.0503C284.551 90.6732 282.928 92.296 281.305 92.296C279.682 92.296 278.059 90.6732 278.059 89.0503C278.059 87.4275 279.682 85.8047 281.305 85.8047C282.928 85.8047 284.551 87.0218 284.551 89.0503Z" fill="#C03A2B"/>
<path d="M281.304 92.7012C279.276 92.7012 277.652 91.0783 277.652 89.0498C277.652 87.0213 279.276 85.3984 281.304 85.3984C283.333 85.3984 284.957 87.0213 284.957 89.0498C284.957 91.0783 283.333 92.7012 281.304 92.7012ZM281.304 86.2099C279.681 86.2099 278.464 87.427 278.464 89.0498C278.464 90.6726 279.681 91.8898 281.304 91.8898C282.928 91.8898 284.145 90.6726 284.145 89.0498C283.739 87.427 282.522 86.2099 281.304 86.2099Z" fill="#C03A2B"/>
<path d="M288.609 83.7757C288.609 84.1814 288.203 84.9928 287.391 84.9928C286.985 84.9928 286.174 84.5871 286.174 83.7757C286.174 83.37 286.58 82.5586 287.391 82.5586C288.203 82.9643 288.609 83.37 288.609 83.7757Z" fill="#C03A2B"/>
<path d="M287.797 84.9928C286.986 84.9928 286.58 84.5871 286.58 83.7757C286.58 82.9643 286.986 82.5586 287.797 82.5586C288.609 82.5586 289.015 82.9643 289.015 83.7757C288.609 84.5871 288.203 84.9928 287.797 84.9928ZM287.797 82.9643C287.392 82.9643 286.986 83.37 286.986 83.7757C286.986 84.1814 287.392 84.5871 287.797 84.5871C288.203 84.5871 288.609 84.1814 288.609 83.7757C288.609 83.37 288.203 82.9643 287.797 82.9643Z" fill="#C03A2B"/>
<path d="M278.463 91.8895C278.463 92.2952 278.057 92.701 277.651 92.701C277.246 92.701 276.84 92.2952 276.84 91.8895C276.84 91.4838 277.246 91.0781 277.651 91.0781C278.057 91.0781 278.463 91.4838 278.463 91.8895Z" fill="#C03A2B"/>
<path d="M277.651 93.1061C277.245 93.1061 276.434 92.7004 276.434 91.889C276.434 91.4833 276.839 90.6719 277.651 90.6719C278.057 90.6719 278.868 91.0776 278.868 91.889C278.868 92.7004 278.057 93.1061 277.651 93.1061ZM277.651 91.0776C277.245 91.0776 276.839 91.4833 276.839 91.889C276.839 92.2947 277.245 92.7004 277.651 92.7004C278.057 92.7004 278.463 92.2947 278.463 91.889C278.463 91.4833 278.057 91.0776 277.651 91.0776Z" fill="#C03A2B"/>
<path d="M287.797 91.078C287.797 91.8894 286.986 92.7008 286.174 92.7008C285.362 92.7008 284.551 91.8894 284.551 91.078C284.551 90.2666 285.362 89.4551 286.174 89.4551C286.986 89.0494 287.797 89.8609 287.797 91.078Z" fill="#C03A2B"/>
<path d="M286.174 93.1059C284.956 93.1059 284.145 92.2945 284.145 91.0774C284.145 89.8602 284.956 89.0488 286.174 89.0488C287.391 89.0488 288.202 89.8602 288.202 91.0774C288.202 91.8888 287.391 93.1059 286.174 93.1059ZM286.174 89.4545C285.362 89.4545 284.55 90.2659 284.55 91.0774C284.55 91.8888 285.362 92.7002 286.174 92.7002C286.985 92.7002 287.797 91.8888 287.797 91.0774C287.797 90.2659 286.985 89.4545 286.174 89.4545Z" fill="#C03A2B"/>
<path d="M287.796 87.0207C287.796 88.2378 286.985 89.0493 285.767 89.0493C284.55 89.0493 283.738 88.2378 283.738 87.0207C283.738 85.8036 284.55 84.9922 285.767 84.9922C286.985 84.9922 287.796 86.2093 287.796 87.0207Z" fill="#C03A2B"/>
<path d="M285.767 89.4544C284.549 89.4544 283.332 88.2373 283.332 87.0202C283.332 85.8031 284.549 84.5859 285.767 84.5859C286.984 84.5859 288.202 85.8031 288.202 87.0202C288.202 88.643 287.39 89.4544 285.767 89.4544ZM285.767 85.3974C284.955 85.3974 284.144 86.2088 284.144 87.0202C284.144 87.8316 284.955 88.643 285.767 88.643C286.578 88.643 287.39 87.8316 287.39 87.0202C287.796 86.2088 286.984 85.3974 285.767 85.3974Z" fill="#C03A2B"/>
<path d="M285.363 82.5578C285.363 83.775 284.551 84.5864 283.334 84.5864C282.116 84.5864 281.305 83.775 281.305 82.5578C281.305 81.3407 282.116 80.5293 283.334 80.5293C284.551 80.5293 285.363 81.3407 285.363 82.5578Z" fill="#C03A2B"/>
<path d="M283.333 84.9915C282.116 84.9915 280.898 83.7744 280.898 82.5573C280.898 81.3402 282.116 80.123 283.333 80.123C284.551 80.123 285.768 81.3402 285.768 82.5573C285.768 84.1801 284.956 84.9915 283.333 84.9915ZM283.333 80.9345C282.522 80.9345 281.71 81.7459 281.71 82.5573C281.71 83.3687 282.522 84.1801 283.333 84.1801C284.145 84.1801 284.956 83.3687 284.956 82.5573C285.362 81.7459 284.551 80.9345 283.333 80.9345Z" fill="#C03A2B"/>
<path d="M278.868 88.2386C278.868 88.6443 278.463 89.4557 277.651 89.4557C277.245 89.4557 276.434 89.05 276.434 88.2386C276.434 87.8329 276.839 87.0215 277.651 87.0215C278.057 87.0215 278.868 87.4272 278.868 88.2386Z" fill="#C03A2B"/>
<path d="M277.651 89.4557C276.839 89.4557 276.434 89.05 276.434 88.2386C276.434 87.4272 276.839 87.0215 277.651 87.0215C278.463 87.0215 278.868 87.4272 278.868 88.2386C278.868 88.6443 278.463 89.4557 277.651 89.4557ZM277.651 87.4272C277.245 87.4272 276.839 87.8329 276.839 88.2386C276.839 88.6443 277.245 89.05 277.651 89.05C278.057 89.05 278.463 88.6443 278.463 88.2386C278.463 87.8329 278.057 87.4272 277.651 87.4272Z" fill="#C03A2B"/>
<path d="M278.463 85.8036C278.463 86.2093 278.057 86.615 277.651 86.615C277.246 86.615 276.84 86.2093 276.84 85.8036C276.84 85.3979 277.246 84.9922 277.651 84.9922C278.057 84.9922 278.463 85.3979 278.463 85.8036Z" fill="#C03A2B"/>
<path d="M277.651 87.0202C277.245 87.0202 276.434 86.6145 276.434 85.8031C276.434 85.3974 276.839 84.5859 277.651 84.5859C278.057 84.5859 278.868 84.9916 278.868 85.8031C278.868 86.6145 278.057 87.0202 277.651 87.0202ZM277.651 84.9916C277.245 84.9916 276.839 85.3974 276.839 85.8031C276.839 86.2088 277.245 86.6145 277.651 86.6145C278.057 86.6145 278.463 86.2088 278.463 85.8031C278.463 85.3974 278.057 84.9916 277.651 84.9916Z" fill="#C03A2B"/>
<path d="M282.116 84.5863C282.116 85.3977 281.711 85.8034 280.899 85.8034C280.087 85.8034 279.682 85.3977 279.682 84.5863C279.682 83.7748 280.087 83.3691 280.899 83.3691C281.305 83.3691 282.116 83.7748 282.116 84.5863Z" fill="#C03A2B"/>
<path d="M280.492 86.2085C279.681 86.2085 278.869 85.3971 278.869 84.5857C278.869 83.7743 279.681 82.9629 280.492 82.9629C281.304 82.9629 282.115 83.7743 282.115 84.5857C282.115 85.3971 281.304 86.2085 280.492 86.2085ZM280.492 83.3686C279.681 83.3686 279.275 83.7743 279.275 84.5857C279.275 85.3971 279.681 85.8028 280.492 85.8028C281.304 85.8028 281.71 85.3971 281.71 84.5857C281.71 83.7743 281.304 83.3686 280.492 83.3686Z" fill="#C03A2B"/>
<path d="M280.491 82.5582C280.085 82.9639 279.68 82.5582 279.68 82.5582C279.68 82.1525 280.085 82.1525 280.491 82.5582C280.491 82.1525 280.491 82.1525 280.491 82.5582Z" fill="#C03A2B"/>
<path d="M280.085 82.9638C279.679 82.5581 280.085 82.1523 280.085 82.1523C280.49 82.1523 280.49 82.1523 280.085 82.9638C280.49 82.9638 280.49 82.5581 280.085 82.9638ZM280.085 82.1523C279.679 82.5581 280.085 82.558 280.085 82.558C280.49 82.558 280.49 82.5581 280.085 82.1523C280.49 82.1523 280.49 82.1523 280.085 82.1523Z" fill="#C03A2B"/>
<path d="M281.304 80.9351C280.898 81.3408 280.492 80.9351 280.492 80.9351C280.492 80.5294 280.898 80.5294 281.304 80.9351C281.304 80.5294 280.898 80.5294 281.304 80.9351Z" fill="#C03A2B"/>
<path d="M280.897 81.3407C280.491 80.935 280.897 80.5293 280.897 80.5293C281.303 80.5293 281.303 80.5293 280.897 81.3407C281.303 81.3407 281.303 80.935 280.897 81.3407ZM280.897 80.5293C280.491 80.935 280.897 80.935 280.897 80.935C280.897 80.935 281.303 80.935 280.897 80.5293Z" fill="#C03A2B"/>
<path d="M287.392 81.7475C287.392 82.1532 286.986 82.1532 286.986 82.1532C286.58 82.1532 286.58 81.7475 286.58 81.7475C286.58 81.3418 286.986 81.3418 286.986 81.3418C286.986 81.3418 287.392 81.3418 287.392 81.7475Z" fill="#C03A2B"/>
<path d="M286.579 82.5584C286.173 82.5584 285.768 82.1527 285.768 81.747C285.768 81.3413 286.173 80.9355 286.579 80.9355C286.985 80.9355 287.391 81.3413 287.391 81.747C287.391 82.1527 286.985 82.5584 286.579 82.5584ZM286.579 81.3413C286.173 81.3413 286.173 81.747 286.173 81.747C286.173 82.1527 286.579 82.1527 286.579 82.1527C286.985 82.1527 286.985 81.747 286.985 81.747C287.391 81.3413 286.985 81.3413 286.579 81.3413Z" fill="#C03A2B"/>
<path d="M281.71 79.3114C281.71 80.1228 281.304 80.5285 280.493 80.5285C279.681 80.5285 279.275 80.1228 279.275 79.3114C279.275 78.4999 279.681 78.0942 280.493 78.0942C281.304 77.6885 281.71 78.4999 281.71 79.3114Z" fill="#C03A2B"/>
<path d="M280.492 80.9351C279.681 80.9351 278.869 80.1237 278.869 79.3123C278.869 78.5009 279.681 77.6895 280.492 77.6895C281.304 77.6895 282.115 78.5009 282.115 79.3123C282.115 80.1237 281.304 80.9351 280.492 80.9351ZM280.492 78.0952C279.681 78.0952 279.275 78.5009 279.275 79.3123C279.275 80.1237 279.681 80.5294 280.492 80.5294C281.304 80.5294 281.71 80.1237 281.71 79.3123C281.71 78.5009 280.898 78.0952 280.492 78.0952Z" fill="#C03A2B"/>
<path d="M283.739 79.3128C283.739 79.7185 283.334 80.5299 282.522 80.5299C282.116 80.5299 281.305 80.1242 281.305 79.3128C281.305 78.9071 281.71 78.0957 282.522 78.0957C283.334 78.5014 283.739 78.9071 283.739 79.3128Z" fill="#C03A2B"/>
<path d="M282.522 80.5299C281.71 80.5299 281.305 80.1242 281.305 79.3128C281.305 78.5014 281.71 78.0957 282.522 78.0957C283.334 78.0957 283.739 78.5014 283.739 79.3128C283.739 80.1242 283.334 80.5299 282.522 80.5299ZM282.522 78.5014C282.116 78.5014 281.71 78.9071 281.71 79.3128C281.71 79.7185 282.116 80.1242 282.522 80.1242C282.928 80.1242 283.334 79.7185 283.334 79.3128C283.739 78.9071 283.334 78.5014 282.522 78.5014Z" fill="#C03A2B"/>
<path d="M287.391 80.1239C287.391 80.5296 286.985 80.9353 286.579 80.9353C286.173 80.9353 285.768 80.5296 285.768 80.1239C285.768 79.7182 286.173 79.3125 286.579 79.3125C286.985 79.3125 287.391 79.7182 287.391 80.1239Z" fill="#C03A2B"/>
<path d="M286.579 80.9353C286.173 80.9353 285.768 80.5296 285.768 80.1239C285.768 79.7182 286.173 79.3125 286.579 79.3125C286.985 79.3125 287.391 79.7182 287.391 80.1239C287.391 80.5296 286.985 80.9353 286.579 80.9353ZM286.579 79.7182C286.173 79.7182 285.768 80.1239 285.768 80.5296C285.768 80.9353 286.173 81.341 286.579 81.341C286.985 81.341 287.391 80.9353 287.391 80.5296C286.985 79.7182 286.985 79.7182 286.579 79.7182Z" fill="#C03A2B"/>
<path d="M279.68 80.9345C279.68 81.3402 279.274 81.7459 278.868 81.7459C278.462 81.7459 278.057 81.3402 278.057 80.9345C278.057 80.5288 278.462 80.123 278.868 80.123C279.274 80.123 279.68 80.5288 279.68 80.9345Z" fill="#C03A2B"/>
<path d="M278.868 81.7459C278.462 81.7459 278.057 81.3402 278.057 80.9345C278.057 80.5288 278.462 80.123 278.868 80.123C279.274 80.123 279.68 80.5288 279.68 80.9345C279.68 81.3402 279.68 81.7459 278.868 81.7459ZM278.868 80.5288C278.462 80.5288 278.057 80.9345 278.057 81.3402C278.057 81.7459 278.462 82.1516 278.868 82.1516C279.274 82.1516 279.68 81.7459 279.68 81.3402C279.68 80.5288 279.274 80.5288 278.868 80.5288Z" fill="#C03A2B"/>
<path d="M279.68 83.7752C279.68 84.5866 278.868 85.398 278.057 85.398C277.245 85.398 276.434 84.5866 276.434 83.7752C276.434 82.9638 277.245 82.1523 278.057 82.1523C278.868 82.5581 279.68 82.9638 279.68 83.7752Z" fill="#C03A2B"/>
<path d="M278.057 85.398C277.245 85.398 276.434 84.5866 276.434 83.7752C276.434 82.9638 277.245 82.1523 278.057 82.1523C278.868 82.1523 279.68 82.9638 279.68 83.7752C279.68 84.5866 278.868 85.398 278.057 85.398ZM278.057 82.558C277.245 82.558 276.839 82.9638 276.839 83.7752C276.839 84.5866 277.245 84.9923 278.057 84.9923C278.868 84.9923 279.274 84.5866 279.274 83.7752C279.274 83.3695 278.868 82.558 278.057 82.558Z" fill="#C03A2B"/>
<path d="M287.796 76.8792C287.796 77.6906 287.39 78.0964 286.579 78.0964C285.767 78.0964 285.361 77.6906 285.361 76.8792C285.361 76.0678 285.767 75.6621 286.579 75.6621C287.39 75.6621 287.796 76.4735 287.796 76.8792Z" fill="#C03A2B"/>
<path d="M286.578 78.5015C285.767 78.5015 284.955 77.6901 284.955 76.8787C284.955 76.0673 285.767 75.2559 286.578 75.2559C287.39 75.2559 288.201 76.0673 288.201 76.8787C288.201 78.0958 287.39 78.5015 286.578 78.5015ZM286.578 76.0673C285.767 76.0673 285.361 76.473 285.361 77.2844C285.361 78.0958 285.767 78.5015 286.578 78.5015C287.39 78.5015 287.796 78.0958 287.796 77.2844C287.796 76.473 287.39 76.0673 286.578 76.0673Z" fill="#C03A2B"/>
<path d="M287.392 83.7757C287.392 84.5871 286.58 84.9928 286.174 84.9928C285.363 84.9928 284.957 84.1814 284.957 83.7757C284.957 82.9643 285.769 82.5586 286.174 82.5586C286.986 82.5586 287.392 82.9643 287.392 83.7757Z" fill="#C03A2B"/>
<path d="M286.174 85.398C285.362 85.398 284.551 84.5866 284.551 83.7752C284.551 82.9638 285.362 82.1523 286.174 82.1523C286.986 82.1523 287.797 82.9638 287.797 83.7752C287.797 84.5866 286.986 85.398 286.174 85.398ZM286.174 82.558C285.362 82.558 284.957 82.9638 284.957 83.7752C284.957 84.5866 285.362 84.9923 286.174 84.9923C286.986 84.9923 287.391 84.5866 287.391 83.7752C287.391 82.9638 286.58 82.558 286.174 82.558Z" fill="#C03A2B"/>
<path d="M280.087 76.8773C280.087 77.6887 279.276 78.0944 278.87 78.0944C278.058 78.0944 277.652 77.283 277.652 76.8773C277.652 76.0659 278.464 75.6602 278.87 75.6602C279.681 75.6602 280.087 76.4716 280.087 76.8773Z" fill="#C03A2B"/>
<path d="M278.869 78.9058C278.058 78.9058 277.246 78.0944 277.246 77.283C277.246 76.4716 278.058 75.6602 278.869 75.6602C279.681 75.6602 280.492 76.4716 280.492 77.283C280.492 78.0944 279.681 78.9058 278.869 78.9058ZM278.869 76.0659C278.058 76.0659 277.652 76.4716 277.652 77.283C277.652 78.0944 278.058 78.5001 278.869 78.5001C279.681 78.5001 280.087 78.0944 280.087 77.283C280.087 76.4716 279.275 76.0659 278.869 76.0659Z" fill="#C03A2B"/>
<path d="M283.333 74.0379C283.333 74.8493 282.522 75.255 282.116 75.255C281.304 75.255 280.898 74.4436 280.898 74.0379C280.898 73.2265 281.71 72.8208 282.116 72.8208C282.927 72.4151 283.333 73.2265 283.333 74.0379Z" fill="#C03A2B"/>
<path d="M282.115 75.6617C281.304 75.6617 280.492 74.8503 280.492 74.0388C280.492 73.2274 281.304 72.416 282.115 72.416C282.927 72.416 283.739 73.2274 283.739 74.0388C283.739 74.8503 282.927 75.6617 282.115 75.6617ZM282.115 72.8217C281.304 72.8217 280.898 73.2274 280.898 74.0388C280.898 74.8503 281.304 75.256 282.115 75.256C282.927 75.256 283.333 74.8503 283.333 74.0388C283.333 73.2274 282.521 72.8217 282.115 72.8217Z" fill="#C03A2B"/>
<path d="M287.392 73.2269C287.392 74.0383 286.58 74.444 286.174 74.444C285.363 74.444 284.957 73.6326 284.957 73.2269C284.957 72.4155 285.769 72.0098 286.174 72.0098C286.58 72.0098 287.392 72.4155 287.392 73.2269Z" fill="#C03A2B"/>
<path d="M285.768 74.8492C284.956 74.8492 284.145 74.0378 284.145 73.2263C284.145 72.4149 284.956 71.6035 285.768 71.6035C286.579 71.6035 287.391 72.4149 287.391 73.2263C287.391 74.0378 286.985 74.8492 285.768 74.8492ZM285.768 72.0092C284.956 72.0092 284.55 72.4149 284.55 73.2263C284.55 74.0378 284.956 74.4435 285.768 74.4435C286.579 74.4435 286.985 74.0378 286.985 73.2263C286.985 72.4149 286.579 72.0092 285.768 72.0092Z" fill="#C03A2B"/>
<path d="M285.768 79.3114C285.768 79.7171 285.362 80.1228 284.956 80.1228C284.55 80.1228 284.145 79.7171 284.145 79.3114C284.145 78.9057 284.55 78.5 284.956 78.5C285.362 78.5 285.768 78.9057 285.768 79.3114Z" fill="#C03A2B"/>
<path d="M284.956 80.1228C284.55 80.1228 284.145 79.7171 284.145 79.3114C284.145 78.9057 284.55 78.5 284.956 78.5C285.362 78.5 285.768 78.9057 285.768 79.3114C285.768 79.7171 285.362 80.1228 284.956 80.1228ZM284.956 78.5C284.55 78.5 284.55 78.9057 284.55 78.9057C284.55 79.7171 284.55 79.7171 284.956 79.7171C285.362 79.7171 285.362 79.3114 285.362 79.3114C285.768 78.9057 285.362 78.5 284.956 78.5Z" fill="#C03A2B"/>
<path d="M284.955 76.8778C284.955 77.2835 284.549 77.6892 284.144 77.6892C283.738 77.6892 283.332 77.2835 283.332 76.8778C283.332 76.4721 283.738 76.0664 284.144 76.0664C284.549 76.0664 284.955 76.4721 284.955 76.8778Z" fill="#C03A2B"/>
<path d="M284.144 78.0955C283.738 78.0955 283.332 77.6898 283.332 77.2841C283.332 76.8784 283.738 76.4727 284.144 76.4727C284.549 76.4727 284.955 76.8784 284.955 77.2841C284.955 77.6898 284.549 78.0955 284.144 78.0955ZM284.144 76.4727C283.738 76.4727 283.332 76.8784 283.332 77.2841C283.332 77.6898 283.738 78.0955 284.144 78.0955C284.549 78.0955 284.955 77.6898 284.955 77.2841C284.955 76.4727 284.549 76.4727 284.144 76.4727Z" fill="#C03A2B"/>
<path d="M282.115 76.8778C282.115 77.2835 281.71 77.6892 281.304 77.6892C280.898 77.6892 280.492 77.2835 280.492 76.8778C280.492 76.4721 280.898 76.0664 281.304 76.0664C281.71 76.0664 282.115 76.4721 282.115 76.8778Z" fill="#C03A2B"/>
<path d="M281.304 78.0955C280.898 78.0955 280.492 77.6898 280.492 77.2841C280.492 76.8784 280.898 76.4727 281.304 76.4727C281.71 76.4727 282.115 76.8784 282.115 77.2841C282.521 77.6898 282.115 78.0955 281.304 78.0955ZM281.304 76.4727C280.898 76.4727 280.492 76.8784 280.492 77.2841C280.492 77.6898 280.898 78.0955 281.304 78.0955C281.71 78.0955 282.115 77.6898 282.115 77.2841C282.115 76.8784 281.71 76.4727 281.304 76.4727Z" fill="#C03A2B"/>
<path d="M282.114 63.0843C282.114 63.8957 281.709 64.3014 280.897 64.3014C280.085 64.3014 279.68 63.8957 279.68 63.0843C279.68 62.2729 280.085 61.8672 280.897 61.8672C281.709 61.8672 282.114 62.2729 282.114 63.0843Z" fill="#C03A2B"/>
<path d="M280.897 64.3014C280.085 64.3014 279.68 63.49 279.68 63.0843C279.68 62.2729 280.491 61.8672 280.897 61.8672C281.709 61.8672 282.114 62.6786 282.114 63.0843C282.52 63.8957 281.709 64.3014 280.897 64.3014ZM280.897 61.8672C280.491 61.8672 279.68 62.2729 279.68 63.0843C279.68 63.49 280.085 64.3014 280.897 64.3014C281.303 64.3014 282.114 63.8957 282.114 63.0843C282.114 62.6786 281.303 61.8672 280.897 61.8672Z" fill="#C03A2B"/>
<path d="M279.682 73.2274C279.682 73.6331 279.276 74.0388 278.87 74.0388C278.464 74.0388 278.059 73.6331 278.059 73.2274C278.059 72.8217 278.464 72.416 278.87 72.416C279.276 72.416 279.682 72.8217 279.682 73.2274Z" fill="#C03A2B"/>
<path d="M278.463 74.444C278.058 74.444 277.246 74.0383 277.246 73.2269C277.246 72.8212 277.652 72.0098 278.463 72.0098C278.869 72.0098 279.681 72.4155 279.681 73.2269C279.681 73.6326 279.275 74.444 278.463 74.444ZM278.463 72.4155C278.058 72.4155 277.652 72.8212 277.652 73.2269C277.652 73.6326 278.058 74.0383 278.463 74.0383C278.869 74.0383 279.275 73.6326 279.275 73.2269C279.275 72.8212 278.869 72.4155 278.463 72.4155Z" fill="#C03A2B"/>
<path d="M280.899 69.1688C280.899 69.5745 280.493 69.9803 280.087 69.9803C279.681 69.9803 279.275 69.5745 279.275 69.1688C279.275 68.7631 279.681 68.3574 280.087 68.3574C280.493 68.3574 280.899 68.7631 280.899 69.1688Z" fill="#C03A2B"/>
<path d="M280.087 70.386C279.681 70.386 279.275 69.9803 279.275 69.5745C279.275 69.1688 279.681 68.7631 280.087 68.7631C280.493 68.7631 280.899 69.1688 280.899 69.5745C280.899 69.5745 280.493 70.386 280.087 70.386ZM280.087 68.3574C279.681 68.3574 279.275 68.7631 279.275 69.1688C279.275 69.5745 279.681 69.9803 280.087 69.9803C280.493 69.9803 280.493 69.5745 280.493 69.1688C280.493 68.7631 280.493 68.3574 280.087 68.3574Z" fill="#C03A2B"/>
<path d="M286.986 61.4598C286.986 62.2712 286.174 62.6769 285.768 62.6769C284.957 62.6769 284.551 61.8655 284.551 61.4598C284.551 60.6484 285.362 60.2427 285.768 60.2427C286.174 59.837 286.986 60.6484 286.986 61.4598Z" fill="#C03A2B"/>
<path d="M285.361 63.0835C284.55 63.0835 283.738 62.2721 283.738 61.4607C283.738 60.6493 284.55 59.8379 285.361 59.8379C286.173 59.8379 286.985 60.6493 286.985 61.4607C286.985 62.2721 286.173 63.0835 285.361 63.0835ZM285.361 60.2436C284.55 60.2436 284.144 60.6493 284.144 61.4607C284.144 62.2721 284.55 62.6778 285.361 62.6778C286.173 62.6778 286.579 62.2721 286.579 61.4607C286.579 60.6493 286.173 60.2436 285.361 60.2436Z" fill="#C03A2B"/>
<path d="M281.71 53.348C281.71 54.1594 280.899 54.5651 280.493 54.5651C279.681 54.5651 279.275 53.7537 279.275 53.348C279.275 52.5366 280.087 52.1309 280.493 52.1309C281.304 52.1309 281.71 52.5366 281.71 53.348Z" fill="#C03A2B"/>
<path d="M280.492 54.9703C279.681 54.9703 278.869 54.1589 278.869 53.3474C278.869 52.536 279.681 51.7246 280.492 51.7246C281.304 51.7246 282.115 52.536 282.115 53.3474C282.115 54.1589 281.304 54.9703 280.492 54.9703ZM280.492 52.1303C279.681 52.1303 279.275 52.536 279.275 53.3474C279.275 54.1589 279.681 54.5646 280.492 54.5646C281.304 54.5646 281.71 54.1589 281.71 53.3474C281.71 52.9417 280.898 52.1303 280.492 52.1303Z" fill="#C03A2B"/>
<path d="M284.551 66.7352C284.551 67.5467 284.145 67.5467 283.739 67.5467C283.334 67.5467 282.928 67.1409 282.928 66.7352C282.928 66.3295 283.334 65.9238 283.739 65.9238C284.145 65.9238 284.551 66.3295 284.551 66.7352Z" fill="#C03A2B"/>
<path d="M283.739 67.9529C283.334 67.9529 282.928 67.5472 282.928 67.1415C282.928 66.7358 283.334 66.3301 283.739 66.3301C284.145 66.3301 284.551 66.7358 284.551 67.1415C284.551 67.5472 284.145 67.9529 283.739 67.9529ZM283.739 66.3301C283.334 66.3301 282.928 66.7358 282.928 67.1415C282.928 67.5472 283.334 67.9529 283.739 67.9529C284.145 67.9529 284.551 67.5472 284.551 67.1415C284.145 66.3301 284.145 66.3301 283.739 66.3301Z" fill="#C03A2B"/>
<path d="M478.926 75.6602H490.694V108.117H478.926V75.6602Z" fill="#E64C3C"/>
<path d="M480.143 74.038C480.143 74.4437 479.737 74.8494 479.331 74.8494C478.925 74.8494 478.52 74.4437 478.52 74.038C478.52 73.6323 478.925 73.2266 479.331 73.2266C479.737 73.6323 480.143 73.6323 480.143 74.038Z" fill="#E64C3C"/>
<path d="M479.331 75.2556C478.925 75.2556 478.52 74.8499 478.52 74.4442C478.52 74.0385 478.925 73.6328 479.331 73.6328C479.737 73.6328 480.143 74.0385 480.143 74.4442C480.143 74.8499 479.737 75.2556 479.331 75.2556ZM479.331 73.6328C478.925 73.6328 478.52 74.0385 478.52 74.4442C478.52 74.8499 478.925 75.2556 479.331 75.2556C479.737 75.2556 480.143 74.8499 480.143 74.4442C480.143 74.0385 479.737 73.6328 479.331 73.6328Z" fill="#E64C3C"/>
<path d="M486.635 72.8218C486.635 74.4447 485.012 76.0675 483.389 76.0675C481.766 76.0675 480.143 74.4447 480.143 72.8218C480.143 71.199 481.766 69.5762 483.389 69.5762C485.012 69.5762 486.635 71.199 486.635 72.8218Z" fill="#E64C3C"/>
<path d="M483.388 76.8789C481.36 76.8789 479.736 75.2561 479.736 73.2275C479.736 71.199 481.36 69.5762 483.388 69.5762C485.417 69.5762 487.041 71.199 487.041 73.2275C487.041 74.8504 485.417 76.8789 483.388 76.8789ZM483.388 70.3876C481.765 70.3876 480.548 71.6047 480.548 73.2275C480.548 74.8504 481.765 76.0675 483.388 76.0675C485.012 76.0675 486.229 74.8504 486.229 73.2275C486.229 71.6047 485.012 70.3876 483.388 70.3876Z" fill="#E64C3C"/>
<path d="M490.693 67.9535C490.693 68.3592 490.287 69.1706 489.475 69.1706C489.069 69.1706 488.258 68.7649 488.258 67.9535C488.258 67.5477 488.664 66.7363 489.475 66.7363C490.287 66.7363 490.693 67.142 490.693 67.9535Z" fill="#E64C3C"/>
<path d="M489.881 69.1706C489.07 69.1706 488.664 68.7649 488.664 67.9535C488.664 67.142 489.07 66.7363 489.881 66.7363C490.693 66.7363 491.099 67.142 491.099 67.9535C491.099 68.3592 490.287 69.1706 489.881 69.1706ZM489.881 67.142C489.476 67.142 489.07 67.5477 489.07 67.9535C489.07 68.3592 489.476 68.7649 489.881 68.7649C490.287 68.7649 490.693 68.3592 490.693 67.9535C490.693 67.5477 490.287 67.142 489.881 67.142Z" fill="#E64C3C"/>
<path d="M480.955 76.0663C480.955 76.472 480.549 76.8777 480.144 76.8777C479.738 76.8777 479.332 76.472 479.332 76.0663C479.332 75.6606 479.738 75.2549 480.144 75.2549C480.144 74.8492 480.955 75.2549 480.955 76.0663Z" fill="#E64C3C"/>
<path d="M479.737 76.8776C479.331 76.8776 478.52 76.4719 478.52 75.6605C478.52 75.2548 478.925 74.4434 479.737 74.4434C480.143 74.4434 480.954 74.8491 480.954 75.6605C480.954 76.4719 480.548 76.8776 479.737 76.8776ZM479.737 75.2548C479.331 75.2548 478.925 75.6605 478.925 76.0662C478.925 76.4719 479.331 76.8776 479.737 76.8776C480.143 76.8776 480.549 76.4719 480.549 76.0662C480.549 75.6605 480.143 75.2548 479.737 75.2548Z" fill="#E64C3C"/>
<path d="M489.883 74.8494C489.883 75.6608 489.071 76.4722 488.26 76.4722C487.448 76.4722 486.637 75.6608 486.637 74.8494C486.637 74.038 487.448 73.2266 488.26 73.2266C489.477 73.2266 489.883 74.038 489.883 74.8494Z" fill="#E64C3C"/>
<path d="M488.259 76.8774C487.042 76.8774 486.23 76.066 486.23 74.8488C486.23 73.6317 487.042 72.8203 488.259 72.8203C489.477 72.8203 490.288 73.6317 490.288 74.8488C490.288 76.066 489.477 76.8774 488.259 76.8774ZM488.259 73.6317C487.448 73.6317 486.636 74.4431 486.636 75.2546C486.636 76.066 487.448 76.8774 488.259 76.8774C489.071 76.8774 489.883 76.066 489.883 75.2546C489.883 74.0374 489.071 73.6317 488.259 73.6317Z" fill="#E64C3C"/>
<path d="M490.288 71.1985C490.288 72.4156 489.477 73.227 488.259 73.227C487.042 73.227 486.23 72.4156 486.23 71.1985C486.23 69.9813 487.042 69.1699 488.259 69.1699C489.071 69.1699 490.288 69.9813 490.288 71.1985Z" fill="#E64C3C"/>
<path d="M487.853 73.6322C486.635 73.6322 485.418 72.415 485.418 71.1979C485.418 69.9808 486.635 68.7637 487.853 68.7637C489.07 68.7637 490.287 69.9808 490.287 71.1979C490.693 72.415 489.476 73.6322 487.853 73.6322ZM487.853 69.5751C487.041 69.5751 486.23 70.3865 486.23 71.1979C486.23 72.0093 487.041 72.8207 487.853 72.8207C488.664 72.8207 489.476 72.0093 489.476 71.1979C489.882 70.3865 489.07 69.5751 487.853 69.5751Z" fill="#E64C3C"/>
<path d="M487.855 66.7356C487.855 67.9527 487.043 68.7641 485.826 68.7641C484.608 68.7641 483.797 67.9527 483.797 66.7356C483.797 65.5184 484.608 64.707 485.826 64.707C486.637 64.707 487.855 65.5184 487.855 66.7356Z" fill="#E64C3C"/>
<path d="M485.419 69.1693C484.202 69.1693 482.984 67.9521 482.984 66.735C482.984 65.5179 484.202 64.3008 485.419 64.3008C486.637 64.3008 487.854 65.5179 487.854 66.735C487.854 67.9521 487.042 69.1693 485.419 69.1693ZM485.419 64.7065C484.608 64.7065 483.796 65.5179 483.796 66.3293C483.796 67.1407 484.608 67.9521 485.419 67.9521C486.637 68.3579 487.448 67.5464 487.448 66.735C487.448 65.5179 486.637 64.7065 485.419 64.7065Z" fill="#E64C3C"/>
<path d="M480.954 72.0101C480.954 72.4158 480.548 73.2272 479.737 73.2272C479.331 73.2272 478.52 72.8215 478.52 72.0101C478.52 71.6044 478.925 70.793 479.737 70.793C480.548 71.1987 480.954 71.6044 480.954 72.0101Z" fill="#E64C3C"/>
<path d="M479.737 73.2272C478.925 73.2272 478.52 72.8215 478.52 72.0101C478.52 71.1987 478.925 70.793 479.737 70.793C480.548 70.793 480.954 71.1987 480.954 72.0101C480.954 72.8215 480.548 73.2272 479.737 73.2272ZM479.737 71.1987C479.331 71.1987 478.925 71.6044 478.925 72.0101C478.925 72.4158 479.331 72.8215 479.737 72.8215C480.143 72.8215 480.549 72.4158 480.549 72.0101C480.549 71.6044 480.143 71.1987 479.737 71.1987Z" fill="#E64C3C"/>
<path d="M480.955 69.9806C480.955 70.3863 480.549 70.792 480.144 70.792C479.738 70.792 479.332 70.3863 479.332 69.9806C479.332 69.5749 479.738 69.1692 480.144 69.1692C480.144 68.7635 480.955 69.5749 480.955 69.9806Z" fill="#E64C3C"/>
<path d="M479.737 71.1979C479.331 71.1979 478.52 70.7922 478.52 69.9808C478.52 69.5751 478.925 68.7637 479.737 68.7637C480.143 68.7637 480.954 69.1694 480.954 69.9808C480.954 70.3865 480.548 71.1979 479.737 71.1979ZM479.737 69.1694C479.331 69.1694 478.925 69.5751 478.925 69.9808C478.925 70.3865 479.331 70.7922 479.737 70.7922C480.143 70.7922 480.549 70.3865 480.549 69.9808C480.549 69.5751 480.143 69.1694 479.737 69.1694Z" fill="#E64C3C"/>
<path d="M484.202 68.3597C484.202 69.1711 483.797 69.5768 482.985 69.5768C482.173 69.5768 481.768 69.1711 481.768 68.3597C481.768 67.5483 482.173 67.1426 482.985 67.1426C483.391 67.1426 484.202 67.954 484.202 68.3597Z" fill="#E64C3C"/>
<path d="M482.578 69.982C481.767 69.982 480.955 69.1706 480.955 68.3592C480.955 67.5477 481.767 66.7363 482.578 66.7363C483.39 66.7363 484.201 67.5477 484.201 68.3592C484.201 69.5763 483.796 69.982 482.578 69.982ZM482.578 67.5477C481.767 67.5477 481.361 67.9534 481.361 68.7649C481.361 69.5763 481.767 69.982 482.578 69.982C483.39 69.982 483.796 69.5763 483.796 68.7649C483.796 67.9534 483.39 67.5477 482.578 67.5477Z" fill="#E64C3C"/>
<path d="M482.577 66.3301C482.577 66.7358 482.577 66.7358 482.577 66.3301C482.171 66.7358 481.766 66.3301 481.766 66.3301C482.171 66.3301 482.171 66.3301 482.577 66.3301Z" fill="#E64C3C"/>
<path d="M482.171 66.7352C481.765 66.3295 482.171 65.9238 482.171 65.9238C482.576 65.9238 482.576 66.3295 482.171 66.7352C482.576 66.7352 482.576 66.7352 482.171 66.7352ZM482.171 66.3295C481.765 66.7352 482.171 66.7352 482.171 66.7352C482.576 66.7352 482.576 66.7352 482.171 66.3295C482.576 66.3295 482.576 66.3295 482.171 66.3295Z" fill="#E64C3C"/>
<path d="M483.39 64.7057C483.39 65.1114 483.39 65.1114 483.39 64.7057C482.984 65.1114 482.578 64.7057 482.578 64.7057C482.578 64.7057 482.984 64.3 483.39 64.7057Z" fill="#E64C3C"/>
<path d="M482.983 65.1122C482.577 64.7065 482.983 64.3008 482.983 64.3008C482.983 64.3008 483.389 64.7065 482.983 65.1122C483.389 65.1122 483.389 65.1122 482.983 65.1122ZM482.983 64.7065C482.577 65.1122 482.983 65.1122 482.983 65.1122C483.389 65.1122 483.389 65.1122 482.983 64.7065C483.389 64.7065 483.389 64.7065 482.983 64.7065Z" fill="#E64C3C"/>
<path d="M489.476 65.9234C489.476 66.3291 489.07 66.3291 489.07 66.3291C488.664 66.3291 488.664 65.9234 488.664 65.9234C488.664 65.5177 489.07 65.5177 489.07 65.5177C489.07 65.112 489.476 65.5177 489.476 65.9234Z" fill="#E64C3C"/>
<path d="M489.069 66.3299C488.664 66.3299 488.258 65.9242 488.258 65.5184C488.258 65.1127 488.664 64.707 489.069 64.707C489.475 64.707 489.881 65.1127 489.881 65.5184C489.475 66.3299 489.475 66.3299 489.069 66.3299ZM489.069 65.1127C488.664 65.1127 488.664 65.5184 488.664 65.5184C488.664 65.9242 489.069 65.9242 489.069 65.9242C489.475 65.9242 489.475 65.5184 489.475 65.5184L489.069 65.1127Z" fill="#E64C3C"/>
<path d="M483.796 63.0843C483.796 63.8957 483.39 64.3014 482.579 64.3014C481.767 64.3014 481.361 63.8957 481.361 63.0843C481.361 62.2729 481.767 61.8672 482.579 61.8672C483.39 61.8672 483.796 62.6786 483.796 63.0843Z" fill="#E64C3C"/>
<path d="M482.578 64.7066C481.767 64.7066 480.955 63.8952 480.955 63.0838C480.955 62.2724 481.767 61.4609 482.578 61.4609C483.39 61.4609 484.201 62.2724 484.201 63.0838C484.201 64.3009 483.39 64.7066 482.578 64.7066ZM482.578 62.2724C481.767 62.2724 481.361 62.6781 481.361 63.4895C481.361 64.3009 481.767 64.7066 482.578 64.7066C483.39 64.7066 483.796 64.3009 483.796 63.4895C483.796 62.6781 483.39 62.2724 482.578 62.2724Z" fill="#E64C3C"/>
<path d="M485.824 63.4906C485.824 63.8963 485.418 64.7077 484.607 64.7077C483.795 64.7077 483.795 63.8963 483.795 63.4906C483.795 63.0849 484.201 62.2734 485.012 62.2734C485.824 62.2734 485.824 62.6791 485.824 63.4906Z" fill="#E64C3C"/>
<path d="M485.012 64.7077C484.201 64.7077 483.795 64.302 483.795 63.4906C483.795 62.6791 484.201 62.2734 485.012 62.2734C485.824 62.2734 486.23 62.6791 486.23 63.4906C486.23 63.8963 485.418 64.7077 485.012 64.7077ZM485.012 62.6791C484.607 62.6791 484.201 63.0849 484.201 63.4906C484.201 63.8963 484.607 64.302 485.012 64.302C485.418 64.302 485.824 63.8963 485.824 63.4906C485.824 62.6791 485.418 62.6791 485.012 62.6791Z" fill="#E64C3C"/>
<path d="M489.477 64.3016C489.477 64.7074 489.071 65.1131 488.665 65.1131C488.259 65.1131 487.854 64.7074 487.854 64.3016C487.854 63.8959 488.259 63.4902 488.665 63.4902C489.071 63.4902 489.477 63.8959 489.477 64.3016Z" fill="#E64C3C"/>
<path d="M488.665 65.1131C488.259 65.1131 487.854 64.7074 487.854 64.3016C487.854 63.8959 488.259 63.4902 488.665 63.4902C489.071 63.4902 489.477 63.8959 489.477 64.3016C489.477 64.7074 489.071 65.1131 488.665 65.1131ZM488.665 63.4902C488.259 63.4902 487.854 63.8959 487.854 64.3016C487.854 64.7074 488.259 65.1131 488.665 65.1131C489.071 65.1131 489.477 64.7074 489.477 64.3016C489.477 63.8959 489.071 63.4902 488.665 63.4902Z" fill="#E64C3C"/>
<path d="M481.766 65.1122C481.766 65.5179 481.36 65.9236 480.954 65.9236C480.548 65.9236 480.143 65.5179 480.143 65.1122C480.143 64.7065 480.548 64.3008 480.954 64.3008C481.36 64.3008 481.766 64.7065 481.766 65.1122Z" fill="#E64C3C"/>
<path d="M481.36 65.9236C480.955 65.9236 480.549 65.5179 480.549 65.1122C480.549 64.7065 480.955 64.3008 481.36 64.3008C481.766 64.3008 482.172 64.7065 482.172 65.1122C482.172 65.5179 481.766 65.9236 481.36 65.9236ZM481.36 64.3008C480.955 64.3008 480.549 64.7065 480.549 65.1122C480.549 65.5179 480.955 65.9236 481.36 65.9236C481.766 65.9236 482.172 65.5179 482.172 65.1122C481.766 64.7065 481.36 64.3008 481.36 64.3008Z" fill="#E64C3C"/>
<path d="M481.766 67.9529C481.766 68.7643 480.954 69.5757 480.143 69.5757C479.331 69.5757 478.52 68.7643 478.52 67.9529C478.52 67.1415 479.331 66.3301 480.143 66.3301C480.954 66.3301 481.766 67.1415 481.766 67.9529Z" fill="#E64C3C"/>
<path d="M480.143 69.5757C479.331 69.5757 478.52 68.7643 478.52 67.9529C478.52 67.1415 479.331 66.3301 480.143 66.3301C480.954 66.3301 481.766 67.1415 481.766 67.9529C482.172 68.7643 481.36 69.5757 480.143 69.5757ZM480.143 66.7358C479.331 66.7358 478.925 67.1415 478.925 67.9529C478.925 68.7643 479.331 69.17 480.143 69.17C480.954 69.17 481.36 68.7643 481.36 67.9529C481.36 67.1415 480.954 66.7358 480.143 66.7358Z" fill="#E64C3C"/>
<path d="M490.288 61.057C490.288 61.8684 489.882 62.2741 489.071 62.2741C488.259 62.2741 487.854 61.8684 487.854 61.057C487.854 60.2456 488.259 59.8398 489.071 59.8398C489.477 59.8398 490.288 60.2456 490.288 61.057Z" fill="#E64C3C"/>
<path d="M488.664 62.6793C487.853 62.6793 487.041 61.8678 487.041 61.0564C487.041 60.245 487.853 59.4336 488.664 59.4336C489.476 59.4336 490.287 60.245 490.287 61.0564C490.287 61.8678 489.476 62.6793 488.664 62.6793ZM488.664 59.8393C487.853 59.8393 487.447 60.245 487.447 61.0564C487.447 61.8678 487.853 62.2735 488.664 62.2735C489.476 62.2735 489.882 61.8678 489.882 61.0564C489.882 60.245 489.476 59.8393 488.664 59.8393Z" fill="#E64C3C"/>
<path d="M489.476 67.952C489.476 68.7634 488.664 69.1691 488.258 69.1691C487.447 69.1691 487.041 68.3577 487.041 67.952C487.041 67.1406 487.853 66.7349 488.258 66.7349C489.07 66.3292 489.476 67.1406 489.476 67.952Z" fill="#E64C3C"/>
<path d="M488.258 69.5757C487.446 69.5757 486.635 68.7643 486.635 67.9529C486.635 67.1415 487.446 66.3301 488.258 66.3301C489.07 66.3301 489.881 67.1415 489.881 67.9529C489.881 68.7643 489.07 69.5757 488.258 69.5757ZM488.258 66.7358C487.446 66.7358 487.041 67.1415 487.041 67.9529C487.041 68.7643 487.446 69.17 488.258 69.17C489.07 69.17 489.475 68.7643 489.475 67.9529C489.475 67.1415 489.07 66.7358 488.258 66.7358Z" fill="#E64C3C"/>
<path d="M482.173 61.057C482.173 61.8684 481.361 62.2741 480.956 62.2741C480.144 62.2741 479.738 61.4627 479.738 61.057C479.738 60.2456 480.55 59.8398 480.956 59.8398C481.767 59.8398 482.173 60.2456 482.173 61.057Z" fill="#E64C3C"/>
<path d="M480.955 62.6793C480.144 62.6793 479.332 61.8678 479.332 61.0564C479.332 60.245 480.144 59.4336 480.955 59.4336C481.767 59.4336 482.578 60.245 482.578 61.0564C482.578 61.8678 481.767 62.6793 480.955 62.6793ZM480.955 59.8393C480.144 59.8393 479.738 60.245 479.738 61.0564C479.738 61.8678 480.144 62.2735 480.955 62.2735C481.767 62.2735 482.173 61.8678 482.173 61.0564C482.173 60.245 481.767 59.8393 480.955 59.8393Z" fill="#E64C3C"/>
<path d="M486.636 57.8109C486.636 58.6223 485.824 59.028 485.419 59.028C484.607 59.028 484.201 58.2166 484.201 57.8109C484.201 56.9995 485.013 56.5938 485.419 56.5938C486.23 56.5938 486.636 56.9995 486.636 57.8109Z" fill="#E64C3C"/>
<path d="M485.418 59.4332C484.607 59.4332 483.795 58.6217 483.795 57.8103C483.795 56.9989 484.607 56.1875 485.418 56.1875C486.23 56.1875 487.041 56.9989 487.041 57.8103C487.041 58.6217 486.23 59.4332 485.418 59.4332ZM485.418 56.5932C484.607 56.5932 484.201 56.9989 484.201 57.8103C484.201 58.6217 484.607 59.0275 485.418 59.0275C486.23 59.0275 486.635 58.6217 486.635 57.8103C486.635 56.9989 485.824 56.5932 485.418 56.5932Z" fill="#E64C3C"/>
<path d="M487.854 63.0849C487.854 63.4906 487.448 63.8963 487.042 63.8963C486.636 63.8963 486.23 63.4906 486.23 63.0849C486.23 62.6791 486.636 62.2734 487.042 62.2734C487.448 62.6791 487.854 62.6791 487.854 63.0849Z" fill="#E64C3C"/>
<path d="M487.042 63.8963C486.636 63.8963 486.23 63.4906 486.23 63.0849C486.23 62.6791 486.636 62.2734 487.042 62.2734C487.448 62.2734 487.854 62.6791 487.854 63.0849C487.854 63.4906 487.448 63.8963 487.042 63.8963ZM487.042 62.6791C486.636 62.6791 486.636 63.0849 486.636 63.0849C486.636 63.4906 487.042 63.4906 487.042 63.4906C487.448 63.4906 487.448 63.0849 487.448 63.0849C487.854 63.0849 487.448 62.6791 487.042 62.6791Z" fill="#E64C3C"/>
<path d="M487.041 61.0556C487.041 61.4613 486.635 61.867 486.23 61.867C485.824 61.867 485.418 61.4613 485.418 61.0556C485.418 60.6498 485.824 60.2441 486.23 60.2441C486.635 60.2441 487.041 60.6498 487.041 61.0556Z" fill="#E64C3C"/>
<path d="M486.23 62.2727C485.824 62.2727 485.418 61.867 485.418 61.4613C485.418 61.0556 485.824 60.6498 486.23 60.6498C486.635 60.6498 487.041 61.0556 487.041 61.4613C487.041 61.4613 486.635 62.2727 486.23 62.2727ZM486.23 60.2441C485.824 60.2441 485.418 60.6498 485.418 61.0556C485.418 61.4613 485.824 61.867 486.23 61.867C486.635 61.867 487.041 61.4613 487.041 61.0556C487.041 60.6498 486.635 60.2441 486.23 60.2441Z" fill="#E64C3C"/>
<path d="M484.608 61.0556C484.608 61.4613 484.202 61.867 483.796 61.867C483.39 61.867 482.984 61.4613 482.984 61.0556C482.984 60.6498 483.39 60.2441 483.796 60.2441C484.202 60.2441 484.608 60.6498 484.608 61.0556Z" fill="#E64C3C"/>
<path d="M483.796 61.867C483.39 61.867 482.984 61.4613 482.984 61.0556C482.984 60.6498 483.39 60.2441 483.796 60.2441C484.202 60.2441 484.608 60.6498 484.608 61.0556C484.608 61.4613 484.202 61.867 483.796 61.867ZM483.796 60.2441C483.39 60.2441 482.984 60.6498 482.984 61.0556C482.984 61.4613 483.39 61.867 483.796 61.867C484.202 61.867 484.608 61.4613 484.608 61.0556C484.202 60.6498 484.202 60.2441 483.796 60.2441Z" fill="#E64C3C"/>
<path d="M481.766 57.4032C481.766 57.8089 481.36 58.2146 480.954 58.2146C480.548 58.2146 480.143 57.8089 480.143 57.4032C480.143 56.9975 480.548 56.5918 480.954 56.5918C481.36 56.5918 481.766 56.5918 481.766 57.4032Z" fill="#E64C3C"/>
<path d="M480.954 58.2155C480.548 58.2155 479.736 57.8098 479.736 56.9984C479.736 56.5927 480.142 55.7812 480.954 55.7812C481.36 55.7812 482.171 56.187 482.171 56.9984C481.765 57.8098 481.36 58.2155 480.954 58.2155ZM480.954 56.5927C480.548 56.5927 480.142 56.9984 480.142 57.4041C480.142 57.8098 480.548 58.2155 480.954 58.2155C481.36 58.2155 481.765 57.8098 481.765 57.4041C481.765 56.9984 481.36 56.5927 480.954 56.5927Z" fill="#E64C3C"/>
<path d="M482.983 53.3466C482.983 53.7523 482.577 54.158 482.171 54.158C481.765 54.158 481.359 53.7523 481.359 53.3466C481.359 52.9409 481.765 52.5352 482.171 52.5352C482.577 52.5352 482.983 52.9409 482.983 53.3466Z" fill="#E64C3C"/>
<path d="M482.171 54.158C481.765 54.158 481.359 53.7523 481.359 53.3466C481.359 52.9409 481.765 52.5352 482.171 52.5352C482.577 52.5352 482.983 52.9409 482.983 53.3466C482.983 53.7523 482.577 54.158 482.171 54.158ZM482.171 52.5352C481.765 52.5352 481.359 52.9409 481.359 53.3466C481.359 53.7523 481.765 54.158 482.171 54.158C482.577 54.158 482.983 53.7523 482.983 53.3466C482.983 52.9409 482.577 52.5352 482.171 52.5352Z" fill="#E64C3C"/>
<path d="M488.259 39.9578C488.259 40.7693 487.447 41.175 487.042 41.175C486.23 41.175 485.824 40.3636 485.824 39.9578C485.824 39.1464 486.636 38.7407 487.042 38.7407C487.447 38.335 488.259 39.1464 488.259 39.9578Z" fill="#E64C3C"/>
<path d="M486.635 41.5816C485.823 41.5816 485.012 40.7702 485.012 39.9588C485.012 39.1474 485.823 38.3359 486.635 38.3359C487.446 38.3359 488.258 39.1474 488.258 39.9588C488.258 40.7702 487.446 41.5816 486.635 41.5816ZM486.635 38.7416C485.823 38.7416 485.418 39.1474 485.418 39.9588C485.418 40.7702 485.823 41.1759 486.635 41.1759C487.446 41.1759 487.852 40.7702 487.852 39.9588C487.852 39.1474 487.446 38.7416 486.635 38.7416Z" fill="#E64C3C"/>
<path d="M485.013 32.6566C485.013 33.468 484.201 33.8737 483.795 33.8737C482.984 33.8737 482.578 33.0623 482.578 32.6566C482.578 31.8452 483.39 31.4395 483.795 31.4395C484.201 31.4395 485.013 31.8452 485.013 32.6566Z" fill="#E64C3C"/>
<path d="M483.389 34.2789C482.577 34.2789 481.766 33.4674 481.766 32.656C481.766 31.8446 482.577 31.0332 483.389 31.0332C484.2 31.0332 485.012 31.8446 485.012 32.656C485.012 33.4674 484.2 34.2789 483.389 34.2789ZM483.389 31.4389C482.577 31.4389 482.171 31.8446 482.171 32.656C482.171 33.4674 482.577 33.8732 483.389 33.8732C484.2 33.8732 484.606 33.4674 484.606 32.656C484.606 31.8446 484.2 31.4389 483.389 31.4389Z" fill="#E64C3C"/>
<path d="M486.635 50.913C486.635 51.3187 486.229 51.7244 485.823 51.7244C485.418 51.7244 485.012 51.3187 485.012 50.913C485.012 50.5073 485.418 50.1016 485.823 50.1016C486.229 50.1016 486.635 50.5073 486.635 50.913Z" fill="#E64C3C"/>
<path d="M485.823 51.7244C485.418 51.7244 485.012 51.3187 485.012 50.913C485.012 50.5073 485.418 50.1016 485.823 50.1016C486.229 50.1016 486.635 50.5073 486.635 50.913C486.635 51.3187 486.229 51.7244 485.823 51.7244ZM485.823 50.1016C485.418 50.1016 485.012 50.5073 485.012 50.913C485.012 51.3187 485.418 51.7244 485.823 51.7244C486.229 51.7244 486.635 51.3187 486.635 50.913C486.635 50.5073 486.229 50.1016 485.823 50.1016Z" fill="#E64C3C"/>
<path d="M641.242 84.1816H653.01V107.713H641.242V84.1816Z" fill="#E66558"/>
<path d="M642.461 85.8036C642.461 86.2093 642.055 86.615 641.649 86.615C641.244 86.615 640.838 86.2093 640.838 85.8036C640.838 85.3979 641.244 84.9922 641.649 84.9922C642.055 84.9922 642.461 85.3979 642.461 85.8036Z" fill="#E66558"/>
<path d="M642.056 86.615C641.65 86.615 641.244 86.2093 641.244 85.8036C641.244 85.3979 641.65 84.9922 642.056 84.9922C642.462 84.9922 642.867 85.3979 642.867 85.8036C642.867 86.2093 642.462 86.615 642.056 86.615ZM642.056 85.3979C641.65 85.3979 641.244 85.8036 641.244 86.2093C641.244 86.615 641.65 87.0207 642.056 87.0207C642.462 87.0207 642.867 86.615 642.867 86.2093C642.462 85.3979 642.056 85.3979 642.056 85.3979Z" fill="#E66558"/>
<path d="M648.954 84.5875C648.954 86.2103 647.33 87.8331 645.707 87.8331C644.084 87.8331 642.461 86.2103 642.461 84.5875C642.461 82.9646 644.084 81.3418 645.707 81.3418C647.736 81.3418 648.954 82.9646 648.954 84.5875Z" fill="#E66558"/>
<path d="M645.707 88.2383C643.678 88.2383 642.055 86.6154 642.055 84.5869C642.055 82.5584 643.678 80.9355 645.707 80.9355C647.736 80.9355 649.359 82.5584 649.359 84.5869C649.765 86.6154 647.736 88.2383 645.707 88.2383ZM645.707 81.747C644.084 81.747 642.866 82.9641 642.866 84.5869C642.866 86.2097 644.084 87.4269 645.707 87.4269C647.33 87.4269 648.547 86.2097 648.547 84.5869C648.547 82.9641 647.33 81.747 645.707 81.747Z" fill="#E66558"/>
<path d="M653.417 79.7171C653.417 80.1228 653.011 80.9342 652.2 80.9342C651.794 80.9342 650.982 80.5285 650.982 79.7171C650.982 79.3114 651.388 78.5 652.2 78.5C653.011 78.5 653.417 78.9057 653.417 79.7171Z" fill="#E66558"/>
<path d="M652.2 80.9342C651.388 80.9342 650.982 80.5285 650.982 79.7171C650.982 78.9057 651.388 78.5 652.2 78.5C653.011 78.5 653.417 78.9057 653.417 79.7171C653.417 80.1228 653.011 80.9342 652.2 80.9342ZM652.2 78.5C651.794 78.5 651.388 78.9057 651.388 79.3114C651.388 79.7171 651.794 80.1228 652.2 80.1228C652.606 80.1228 653.011 79.7171 653.011 79.3114C653.011 78.9057 652.606 78.5 652.2 78.5Z" fill="#E66558"/>
<path d="M643.272 87.4266C643.272 87.8324 642.866 88.2381 642.46 88.2381C642.054 88.2381 641.648 87.8324 641.648 87.4266C641.648 87.0209 642.054 86.6152 642.46 86.6152C642.866 86.6152 643.272 87.0209 643.272 87.4266Z" fill="#E66558"/>
<path d="M642.46 88.6432C642.054 88.6432 641.242 88.2375 641.242 87.4261C641.242 87.0204 641.648 86.209 642.46 86.209C642.865 86.209 643.677 86.6147 643.677 87.4261C643.271 88.2375 642.865 88.6432 642.46 88.6432ZM642.46 86.6147C642.054 86.6147 641.648 87.0204 641.648 87.4261C641.648 87.8318 642.054 88.2375 642.46 88.2375C642.865 88.2375 643.271 87.8318 643.271 87.4261C643.271 87.0204 642.865 86.6147 642.46 86.6147Z" fill="#E66558"/>
<path d="M652.606 86.615C652.606 87.4264 651.794 88.2378 650.983 88.2378C650.171 88.2378 649.359 87.4264 649.359 86.615C649.359 85.8036 650.171 84.9922 650.983 84.9922C651.794 84.9922 652.606 85.8036 652.606 86.615Z" fill="#E66558"/>
<path d="M650.982 88.643C649.765 88.643 648.953 87.8316 648.953 86.6145C648.953 85.3974 649.765 84.5859 650.982 84.5859C652.199 84.5859 653.011 85.3974 653.011 86.6145C653.011 87.8316 651.794 88.643 650.982 88.643ZM650.982 84.9916C650.171 84.9916 649.359 85.8031 649.359 86.6145C649.359 87.4259 650.171 88.2373 650.982 88.2373C651.794 88.2373 652.605 87.4259 652.605 86.6145C652.199 85.8031 651.794 84.9916 650.982 84.9916Z" fill="#E66558"/>
<path d="M652.607 82.9641C652.607 84.1812 651.795 84.9926 650.578 84.9926C649.36 84.9926 648.549 84.1812 648.549 82.9641C648.549 81.747 649.36 80.9355 650.578 80.9355C651.795 80.9355 652.607 81.747 652.607 82.9641Z" fill="#E66558"/>
<path d="M650.577 85.3978C649.36 85.3978 648.143 84.1807 648.143 82.9635C648.143 81.7464 649.36 80.5293 650.577 80.5293C651.795 80.5293 653.012 81.7464 653.012 82.9635C653.012 84.1807 651.795 85.3978 650.577 85.3978ZM650.577 80.935C649.766 80.935 648.954 81.7464 648.954 82.5578C648.954 83.3692 649.766 84.1807 650.577 84.1807C651.389 84.1807 652.201 83.3692 652.201 82.5578C652.201 81.7464 651.389 80.935 650.577 80.935Z" fill="#E66558"/>
<path d="M650.171 78.5007C650.171 79.7178 649.36 80.5292 648.142 80.5292C646.925 80.5292 646.113 79.7178 646.113 78.5007C646.113 77.2836 646.925 76.4722 648.142 76.4722C649.36 76.0665 650.171 77.2836 650.171 78.5007Z" fill="#E66558"/>
<path d="M648.142 80.9349C646.924 80.9349 645.707 79.7178 645.707 78.5006C645.707 77.2835 646.924 76.0664 648.142 76.0664C649.359 76.0664 650.577 77.2835 650.577 78.5006C650.577 79.7178 649.359 80.9349 648.142 80.9349ZM648.142 76.4721C647.33 76.4721 646.519 77.2835 646.519 78.0949C646.519 78.9064 647.33 79.7178 648.142 79.7178C648.953 79.7178 649.765 78.9064 649.765 78.0949C649.765 77.2835 648.953 76.4721 648.142 76.4721Z" fill="#E66558"/>
<path d="M643.273 83.7757C643.273 84.1814 642.867 84.9928 642.055 84.9928C641.649 84.9928 640.838 84.5871 640.838 83.7757C640.838 83.37 641.244 82.5586 642.055 82.5586C642.867 82.9643 643.273 83.37 643.273 83.7757Z" fill="#E66558"/>
<path d="M642.462 84.9928C641.65 84.9928 641.244 84.5871 641.244 83.7757C641.244 82.9643 641.65 82.5586 642.462 82.5586C643.273 82.5586 643.679 82.9643 643.679 83.7757C643.679 84.5871 642.867 84.9928 642.462 84.9928ZM642.462 82.9643C642.056 82.9643 641.65 83.37 641.65 83.7757C641.65 84.1814 642.056 84.5871 642.462 84.5871C642.867 84.5871 643.273 84.1814 643.273 83.7757C643.273 83.37 642.867 82.9643 642.462 82.9643Z" fill="#E66558"/>
<path d="M643.272 81.746C643.272 82.1517 642.866 82.5574 642.46 82.5574C642.054 82.5574 641.648 82.1517 641.648 81.746C641.648 81.3403 642.054 80.9346 642.46 80.9346C642.866 80.5288 643.272 80.9346 643.272 81.746Z" fill="#E66558"/>
<path d="M642.46 82.5573C642.054 82.5573 641.242 82.1516 641.242 81.3402C641.242 80.9345 641.648 80.123 642.46 80.123C642.865 80.123 643.677 80.5288 643.677 81.3402C643.271 82.1516 642.865 82.5573 642.46 82.5573ZM642.46 80.9345C642.054 80.9345 641.648 81.3402 641.648 81.7459C641.648 82.1516 642.054 82.5573 642.46 82.5573C642.865 82.5573 643.271 82.1516 643.271 81.7459C643.271 80.9345 642.865 80.9345 642.46 80.9345Z" fill="#E66558"/>
<path d="M646.519 80.1234C646.519 80.9348 646.113 81.3405 645.301 81.3405C644.49 81.3405 644.084 80.9348 644.084 80.1234C644.084 79.312 644.49 78.9062 645.301 78.9062C646.113 78.9063 646.519 79.312 646.519 80.1234Z" fill="#E66558"/>
<path d="M645.301 81.7457C644.489 81.7457 643.678 80.9342 643.678 80.1228C643.678 79.3114 644.489 78.5 645.301 78.5C646.113 78.5 646.924 79.3114 646.924 80.1228C646.924 80.9342 646.113 81.7457 645.301 81.7457ZM645.301 78.9057C644.489 78.9057 644.084 79.3114 644.084 80.1228C644.084 80.9342 644.489 81.3399 645.301 81.3399C646.113 81.3399 646.518 80.9342 646.518 80.1228C646.518 79.7171 646.113 78.9057 645.301 78.9057Z" fill="#E66558"/>
<path d="M645.302 78.0944C645.302 78.5001 644.896 78.5001 645.302 78.0944C644.896 78.5001 644.49 78.0944 644.49 78.0944C644.49 78.0944 644.896 77.6887 645.302 78.0944Z" fill="#E66558"/>
<path d="M644.895 78.5009C644.489 78.0952 644.895 77.6895 644.895 77.6895C645.301 77.6895 645.301 78.0952 644.895 78.5009C645.301 78.5009 645.301 78.5009 644.895 78.5009ZM644.895 78.0952C644.489 78.5009 644.895 78.5009 644.895 78.5009C644.895 78.5009 645.301 78.5009 644.895 78.0952Z" fill="#E66558"/>
<path d="M646.112 76.4713C645.707 76.877 645.301 76.4713 645.301 76.4713C645.301 76.4713 645.301 76.0656 646.112 76.4713Z" fill="#E66558"/>
<path d="M645.707 76.8778C645.301 76.8778 645.301 76.4721 645.707 76.8778C645.301 76.4721 645.707 76.0664 645.707 76.0664C645.707 76.0664 646.112 76.4721 645.707 76.8778ZM645.707 76.0664C645.301 76.4721 645.301 76.0664 645.707 76.0664C645.301 76.4721 645.707 76.4721 645.707 76.4721C645.707 76.8778 645.707 76.4721 645.707 76.0664Z" fill="#E66558"/>
<path d="M652.2 77.2846C652.2 77.6903 651.794 77.6903 651.794 77.6903C651.389 77.6903 651.389 77.2846 651.389 77.2846C651.389 76.8789 651.794 76.8789 651.794 76.8789L652.2 77.2846Z" fill="#E66558"/>
<path d="M651.388 78.0955C650.982 78.0955 650.576 77.6898 650.576 77.2841C650.576 76.8784 650.982 76.4727 651.388 76.4727C651.794 76.4727 652.199 76.8784 652.199 77.2841C652.199 77.6898 651.794 78.0955 651.388 78.0955ZM651.388 76.8784C650.982 76.8784 650.982 77.2841 650.982 77.2841C650.982 77.6898 651.388 77.6898 651.388 77.6898C651.794 77.6898 651.794 77.2841 651.794 77.2841C651.794 77.2841 651.794 76.8784 651.388 76.8784Z" fill="#E66558"/>
<path d="M646.519 74.8499C646.519 75.6613 646.113 76.0671 645.301 76.0671C644.49 76.0671 644.084 75.6613 644.084 74.8499C644.084 74.0385 644.49 73.6328 645.301 73.6328C646.113 73.6328 646.519 74.0385 646.519 74.8499Z" fill="#E66558"/>
<path d="M645.301 76.4722C644.489 76.4722 643.678 75.6608 643.678 74.8494C643.678 74.038 644.489 73.2266 645.301 73.2266C646.113 73.2266 646.924 74.038 646.924 74.8494C646.924 75.6608 646.113 76.4722 645.301 76.4722ZM645.301 73.6323C644.489 73.6323 644.084 74.038 644.084 74.8494C644.084 75.6608 644.489 76.0665 645.301 76.0665C646.113 76.0665 646.518 75.6608 646.518 74.8494C646.112 74.4437 645.707 73.6323 645.301 73.6323Z" fill="#E66558"/>
<path d="M648.548 74.8499C648.548 75.2556 648.142 76.0671 647.331 76.0671C646.519 76.0671 646.113 75.6613 646.113 74.8499C646.113 74.4442 646.519 73.6328 647.331 73.6328C648.142 73.6328 648.548 74.4442 648.548 74.8499Z" fill="#E66558"/>
<path d="M647.331 76.0671C646.519 76.0671 646.113 75.6613 646.113 74.8499C646.113 74.0385 646.519 73.6328 647.331 73.6328C648.142 73.6328 648.548 74.0385 648.548 74.8499C648.548 75.6613 648.142 76.0671 647.331 76.0671ZM647.331 74.0385C646.925 74.0385 646.519 74.4442 646.519 74.8499C646.519 75.2556 646.925 75.6613 647.331 75.6613C647.736 75.6613 648.142 75.2556 648.142 74.8499C648.142 74.4442 647.736 74.0385 647.331 74.0385Z" fill="#E66558"/>
<path d="M652.199 76.0673C652.199 76.473 651.794 76.8787 651.388 76.8787C650.982 76.8787 650.576 76.473 650.576 76.0673C650.576 75.6616 650.982 75.2559 651.388 75.2559C651.794 75.2559 652.199 75.6616 652.199 76.0673Z" fill="#E66558"/>
<path d="M651.388 76.8787C650.982 76.8787 650.576 76.473 650.576 76.0673C650.576 75.6616 650.982 75.2559 651.388 75.2559C651.794 75.2559 652.199 75.6616 652.199 76.0673C652.199 76.473 651.794 76.8787 651.388 76.8787ZM651.388 75.2559C650.982 75.2559 650.576 75.6616 650.576 76.0673C650.576 76.473 650.982 76.8787 651.388 76.8787C651.794 76.8787 652.199 76.473 652.199 76.0673C651.794 75.6616 651.794 75.2559 651.388 75.2559Z" fill="#E66558"/>
<path d="M644.49 76.8778C644.49 77.2835 644.085 77.6892 643.679 77.6892C643.273 77.6892 642.867 77.2835 642.867 76.8778C642.867 76.4721 643.273 76.0664 643.679 76.0664C644.085 76.0664 644.49 76.4721 644.49 76.8778Z" fill="#E66558"/>
<path d="M643.679 77.6892C643.273 77.6892 642.867 77.2835 642.867 76.8778C642.867 76.4721 643.273 76.0664 643.679 76.0664C644.085 76.0664 644.49 76.4721 644.49 76.8778C644.49 77.2835 644.085 77.6892 643.679 77.6892ZM643.679 76.0664C643.273 76.0664 642.867 76.4721 642.867 76.8778C642.867 77.2835 643.273 77.6892 643.679 77.6892C644.085 77.6892 644.49 77.2835 644.49 76.8778C644.49 76.4721 644.085 76.0664 643.679 76.0664Z" fill="#E66558"/>
<path d="M644.489 79.7185C644.489 80.5299 643.677 81.3414 642.865 81.3414C642.054 81.3414 641.242 80.5299 641.242 79.7185C641.242 78.9071 642.054 78.0957 642.865 78.0957C643.677 78.0957 644.489 78.9071 644.489 79.7185Z" fill="#E66558"/>
<path d="M642.865 81.3414C642.054 81.3414 641.242 80.5299 641.242 79.7185C641.242 78.9071 642.054 78.0957 642.865 78.0957C643.677 78.0957 644.489 78.9071 644.489 79.7185C644.489 80.5299 643.677 81.3414 642.865 81.3414ZM642.865 78.5014C642.054 78.5014 641.648 78.9071 641.648 79.7185C641.648 80.5299 642.054 80.9357 642.865 80.9357C643.677 80.9357 644.083 80.5299 644.083 79.7185C644.083 78.9071 643.677 78.5014 642.865 78.5014Z" fill="#E66558"/>
<path d="M652.607 72.8192C652.607 73.6306 652.201 74.0363 651.389 74.0363C650.578 74.0363 650.172 73.6306 650.172 72.8192C650.172 72.0078 650.578 71.6021 651.389 71.6021C652.201 71.1963 652.607 72.0078 652.607 72.8192Z" fill="#E66558"/>
<path d="M651.389 74.4429C650.577 74.4429 649.766 73.6315 649.766 72.8201C649.766 72.0087 650.577 71.1973 651.389 71.1973C652.2 71.1973 653.012 72.0087 653.012 72.8201C653.012 73.6315 652.2 74.4429 651.389 74.4429ZM651.389 71.603C650.577 71.603 650.171 72.0087 650.171 72.8201C650.171 73.6315 650.577 74.0372 651.389 74.0372C652.2 74.0372 652.606 73.6315 652.606 72.8201C652.606 72.0087 651.795 71.603 651.389 71.603Z" fill="#E66558"/>
<path d="M652.2 79.3128C652.2 80.1242 651.389 80.5299 650.983 80.5299C650.171 80.5299 649.766 79.7185 649.766 79.3128C649.766 78.5014 650.577 78.0957 650.983 78.0957C651.389 78.0957 652.2 78.5014 652.2 79.3128Z" fill="#E66558"/>
<path d="M650.576 80.9351C649.765 80.9351 648.953 80.1237 648.953 79.3123C648.953 78.5009 649.765 77.6895 650.576 77.6895C651.388 77.6895 652.199 78.5009 652.199 79.3123C652.605 80.5294 651.794 80.9351 650.576 80.9351ZM650.576 78.0952C649.765 78.0952 649.359 78.5009 649.359 79.3123C649.359 80.1237 649.765 80.5294 650.576 80.5294C651.388 80.5294 651.794 80.1237 651.794 79.3123C651.794 78.9066 651.388 78.0952 650.576 78.0952Z" fill="#E66558"/>
<path d="M644.896 72.8192C644.896 73.6306 644.084 74.0363 643.678 74.0363C642.867 74.0363 642.461 73.2249 642.461 72.8192C642.461 72.0078 643.273 71.6021 643.678 71.6021C644.084 71.1963 644.896 72.0078 644.896 72.8192Z" fill="#E66558"/>
<path d="M643.272 74.4429C642.46 74.4429 641.648 73.6315 641.648 72.8201C641.648 72.0087 642.46 71.1973 643.272 71.1973C644.083 71.1973 644.895 72.0087 644.895 72.8201C644.895 73.6315 644.489 74.4429 643.272 74.4429ZM643.272 71.603C642.46 71.603 642.054 72.0087 642.054 72.8201C642.054 73.6315 642.46 74.0372 643.272 74.0372C644.083 74.0372 644.489 73.6315 644.489 72.8201C644.489 72.0087 644.083 71.603 643.272 71.603Z" fill="#E66558"/>
<path d="M649.361 69.575C649.361 70.3864 648.549 70.7922 648.143 70.7922C647.332 70.7922 646.926 69.9807 646.926 69.575C646.926 68.7636 647.737 68.3579 648.143 68.3579C648.549 67.9522 649.361 68.7636 649.361 69.575Z" fill="#E66558"/>
<path d="M647.736 71.1988C646.925 71.1988 646.113 70.3874 646.113 69.576C646.113 68.7645 646.925 67.9531 647.736 67.9531C648.548 67.9531 649.36 68.7645 649.36 69.576C649.36 70.3874 648.954 71.1988 647.736 71.1988ZM647.736 68.3588C646.925 68.3588 646.519 68.7645 646.519 69.576C646.519 70.3874 646.925 70.7931 647.736 70.7931C648.548 70.7931 648.954 70.3874 648.954 69.576C648.954 68.7645 648.548 68.3588 647.736 68.3588Z" fill="#E66558"/>
<path d="M650.576 74.8505C650.576 75.2562 650.17 75.6619 649.765 75.6619C649.359 75.6619 648.953 75.2562 648.953 74.8505C648.953 74.4448 649.359 74.0391 649.765 74.0391C650.17 74.0391 650.576 74.4448 650.576 74.8505Z" fill="#E66558"/>
<path d="M649.765 75.6619C649.359 75.6619 648.953 75.2562 648.953 74.8505C648.953 74.4448 649.359 74.0391 649.765 74.0391C650.17 74.0391 650.576 74.4448 650.576 74.8505C650.576 75.2562 650.17 75.6619 649.765 75.6619ZM649.765 74.4448C649.359 74.4448 649.359 74.8505 649.359 74.8505C649.359 75.2562 649.765 75.2562 649.765 75.2562C650.17 75.2562 650.17 74.8505 650.17 74.8505C650.17 74.4448 650.17 74.4448 649.765 74.4448Z" fill="#E66558"/>
<path d="M649.766 72.8212C649.766 73.2269 649.36 73.6326 648.954 73.6326C648.548 73.6326 648.143 73.2269 648.143 72.8212C648.143 72.4155 648.548 72.0098 648.954 72.0098C649.36 72.0098 649.766 72.4155 649.766 72.8212Z" fill="#E66558"/>
<path d="M648.548 73.6326C648.142 73.6326 647.736 73.2269 647.736 72.8212C647.736 72.4155 648.142 72.0098 648.548 72.0098C648.954 72.0098 649.36 72.4155 649.36 72.8212C649.765 73.2269 649.359 73.6326 648.548 73.6326ZM648.548 72.0098C648.142 72.0098 647.736 72.4155 647.736 72.8212C647.736 73.2269 648.142 73.6326 648.548 73.6326C648.954 73.6326 649.36 73.2269 649.36 72.8212C649.36 72.4155 648.954 72.0098 648.548 72.0098Z" fill="#E66558"/>
<path d="M646.924 72.8212C646.924 73.2269 646.518 73.6326 646.112 73.6326C645.707 73.6326 645.301 73.2269 645.301 72.8212C645.301 72.4155 645.707 72.0098 646.112 72.0098C646.518 72.0098 646.924 72.4155 646.924 72.8212Z" fill="#E66558"/>
<path d="M646.112 73.6326C645.707 73.6326 645.301 73.2269 645.301 72.8212C645.301 72.4155 645.707 72.0098 646.112 72.0098C646.518 72.0098 646.924 72.4155 646.924 72.8212C646.924 73.2269 646.518 73.6326 646.112 73.6326ZM646.112 72.0098C645.707 72.0098 645.301 72.4155 645.301 72.8212C645.301 73.2269 645.707 73.6326 646.112 73.6326C646.518 73.6326 646.924 73.2269 646.924 72.8212C646.924 72.4155 646.518 72.0098 646.112 72.0098Z" fill="#E66558"/>
<path d="M644.084 68.7645C644.084 69.1702 643.678 69.576 643.273 69.576C642.867 69.576 642.461 69.1702 642.461 68.7645C642.461 68.3588 642.867 67.9531 643.273 67.9531C643.678 67.9531 644.084 68.3588 644.084 68.7645Z" fill="#E66558"/>
<path d="M643.272 69.9811C642.866 69.9811 642.055 69.5754 642.055 68.764C642.055 68.3583 642.46 67.5469 643.272 67.5469C643.678 67.5469 644.489 67.9526 644.489 68.764C644.489 69.5754 644.084 69.9811 643.272 69.9811ZM643.272 67.9526C642.866 67.9526 642.46 68.3583 642.46 68.764C642.46 69.1697 642.866 69.5754 643.272 69.5754C643.678 69.5754 644.084 69.1697 644.084 68.764C644.084 68.3583 643.678 67.9526 643.272 67.9526Z" fill="#E66558"/>
<path d="M645.707 64.7059C645.707 65.1117 645.301 65.5174 644.896 65.5174C644.49 65.5174 644.084 65.1117 644.084 64.7059C644.084 64.3002 644.49 63.8945 644.896 63.8945C645.301 63.8945 645.707 64.3002 645.707 64.7059Z" fill="#E66558"/>
<path d="M644.489 65.9236C644.084 65.9236 643.678 65.5179 643.678 65.1122C643.678 64.7065 644.084 64.3008 644.489 64.3008C644.895 64.3008 645.301 64.7065 645.301 65.1122C645.707 65.5179 645.301 65.9236 644.489 65.9236ZM644.489 64.3008C644.084 64.3008 643.678 64.7065 643.678 65.1122C643.678 65.5179 644.084 65.9236 644.489 65.9236C644.895 65.9236 645.301 65.5179 645.301 65.1122C645.301 64.7065 644.895 64.3008 644.489 64.3008Z" fill="#E66558"/>
<path d="M647.736 56.1864C647.736 56.9978 646.924 57.4035 646.518 57.4035C645.707 57.4035 645.301 56.5921 645.301 56.1864C645.301 55.3749 646.112 54.9692 646.518 54.9692C647.33 54.5635 647.736 55.3749 647.736 56.1864Z" fill="#E66558"/>
<path d="M646.518 57.8101C645.706 57.8101 644.895 56.9987 644.895 56.1873C644.895 55.3759 645.706 54.5645 646.518 54.5645C647.329 54.5645 648.141 55.3759 648.141 56.1873C648.141 56.9987 647.329 57.8101 646.518 57.8101ZM646.518 54.9702C645.706 54.9702 645.3 55.3759 645.3 56.1873C645.3 56.9987 645.706 57.4044 646.518 57.4044C647.329 57.4044 647.735 56.9987 647.735 56.1873C647.735 55.3759 647.329 54.9702 646.518 54.9702Z" fill="#E66558"/>
<path d="M650.983 65.9247C650.983 66.3304 650.577 66.7361 650.171 66.7361C649.765 66.7361 649.359 66.3304 649.359 65.9247C649.359 65.519 649.765 65.1133 650.171 65.1133C650.577 65.1133 650.983 65.519 650.983 65.9247Z" fill="#E66558"/>
<path d="M650.171 66.7361C649.765 66.7361 649.359 66.3304 649.359 65.9247C649.359 65.519 649.765 65.1133 650.171 65.1133C650.577 65.1133 650.983 65.519 650.983 65.9247C651.388 66.3304 650.983 66.7361 650.171 66.7361ZM650.171 65.1133C649.765 65.1133 649.359 65.519 649.359 65.9247C649.359 66.3304 649.765 66.7361 650.171 66.7361C650.577 66.7361 650.983 66.3304 650.983 65.9247C650.983 65.519 650.577 65.1133 650.171 65.1133Z" fill="#E66558"/>
</g>
<defs>
<clipPath id="clip0_20_1123">
<rect width="768" height="236" fill="white"/>
</clipPath>
</defs>
</svg>
