<svg id="Layer_1" data-name="Layer 1" xmlns="http://www.w3.org/2000/svg"
    xmlns:xlink="http://www.w3.org/1999/xlink" viewBox="0 10 215.67 60.17">
    <defs>
        <style>
            .cls-1{fill:none;}.cls-2{fill:#c03a2b;}.cls-3{fill:#2c3e50;}.cls-4{fill:#e64c3c;}.cls-5{fill:#e66558;}.cls-6{clip-path:url(#clip-path);}</style>
        <clipPath id="clip-path">
            <path class="cls-1"
                d="M25.87,21.84h1a1,1,0,0,1,1,1V33.12a1,1,0,0,1-.71,1,15.83,15.83,0,1,0,9.34,0,1,1,0,0,1-.7-1V22.85a1,1,0,0,1,1-1h1v-.63h-12Z" />
        </clipPath>
    </defs>
    <path class="cls-2" d="M69.65,26.27h3.14l3.08,8.06h0L79,26.27H82L77.43,37.79H74.35Z" />
    <path class="cls-2" d="M83.71,33.68h2.88v4.11H83.71Z" />
    <path class="cls-2"
        d="M96.05,29.46a2.64,2.64,0,0,0-2.26-1.17,2.38,2.38,0,0,0-1.12.28,1,1,0,0,0-.56.94.81.81,0,0,0,.46.77,5.41,5.41,0,0,0,1.15.41l1.5.34a5.73,5.73,0,0,1,1.5.56,3.05,3.05,0,0,1,1.15,1,3,3,0,0,1,.46,1.77,3.17,3.17,0,0,1-.45,1.74,3.39,3.39,0,0,1-1.15,1.14,5.09,5.09,0,0,1-1.59.63,9,9,0,0,1-1.78.19,7.48,7.48,0,0,1-2.47-.39,4.67,4.67,0,0,1-2-1.39l1.92-1.8a5.34,5.34,0,0,0,1.19,1,2.82,2.82,0,0,0,1.55.4,3.79,3.79,0,0,0,.65-.07,2.22,2.22,0,0,0,.62-.24,1.74,1.74,0,0,0,.47-.42,1,1,0,0,0,.18-.59,1,1,0,0,0-.46-.89,4.11,4.11,0,0,0-1.15-.47q-.69-.18-1.5-.33a6,6,0,0,1-1.5-.51,3.08,3.08,0,0,1-1.15-1,2.84,2.84,0,0,1-.46-1.73,3.34,3.34,0,0,1,1.44-2.83,4.59,4.59,0,0,1,1.49-.67A6.58,6.58,0,0,1,93.87,26a6.67,6.67,0,0,1,2.27.4A3.65,3.65,0,0,1,98,27.73Z" />
    <path class="cls-2"
        d="M111.07,37.79h-2.73V35.94h0a4,4,0,0,1-1.25,1.5,3.65,3.65,0,0,1-2.28.64,4.79,4.79,0,0,1-2-.37,3.56,3.56,0,0,1-1.3-1,3.87,3.87,0,0,1-.72-1.45,6.47,6.47,0,0,1-.22-1.71V26.27h2.88V32.1c0,.32,0,.68,0,1.07a3.61,3.61,0,0,0,.25,1.1,2,2,0,0,0,.63.87,1.79,1.79,0,0,0,1.18.35,2.72,2.72,0,0,0,1.21-.24,2.3,2.3,0,0,0,.82-.65,2.6,2.6,0,0,0,.47-.94,4.42,4.42,0,0,0,.14-1.1V26.27h2.88Z" />
    <path class="cls-2"
        d="M121.54,36.21h-.08a3.65,3.65,0,0,1-1.58,1.42,4.9,4.9,0,0,1-2.11.45,5.38,5.38,0,0,1-1.55-.22,4.07,4.07,0,0,1-1.34-.65,3.1,3.1,0,0,1-.95-1.08,3,3,0,0,1-.36-1.51,3.23,3.23,0,0,1,1.23-2.7,5,5,0,0,1,1.31-.71,10,10,0,0,1,1.55-.39,12.72,12.72,0,0,1,1.62-.17c.54,0,1.06,0,1.54,0h.72V30.3a1.87,1.87,0,0,0-.75-1.62,3.13,3.13,0,0,0-1.89-.54,4.42,4.42,0,0,0-1.71.33,4.22,4.22,0,0,0-1.37.87l-1.51-1.51a5.56,5.56,0,0,1,2.25-1.42,8.45,8.45,0,0,1,2.65-.43,6.49,6.49,0,0,1,2.06.28,4.32,4.32,0,0,1,1.39.71,3.09,3.09,0,0,1,.86,1A4.82,4.82,0,0,1,124,29.1a5.66,5.66,0,0,1,.15,1.12c0,.36,0,.67,0,1v6.62h-2.59Zm-.17-3.58h-.6c-.4,0-.85,0-1.35,0a6.94,6.94,0,0,0-1.4.23,3.31,3.31,0,0,0-1.12.52,1.18,1.18,0,0,0-.45,1,1.21,1.21,0,0,0,.18.68,1.62,1.62,0,0,0,.47.47,1.74,1.74,0,0,0,.64.27,3,3,0,0,0,.72.09,3,3,0,0,0,2.2-.71,2.62,2.62,0,0,0,.71-1.93Z" />
    <path class="cls-2" d="M127.27,19.65h2.88V37.79h-2.88Z" />
    <path class="cls-2"
        d="M138.91,35.13l6.17-6.51v-.05H139.2v-2.3h9.36v2.62l-6.24,6.6h6.53v2.3h-9.94Z" />
    <path class="cls-2"
        d="M158.5,36.21h-.08a3.65,3.65,0,0,1-1.58,1.42,4.9,4.9,0,0,1-2.11.45,5.38,5.38,0,0,1-1.55-.22,4.07,4.07,0,0,1-1.34-.65,3.1,3.1,0,0,1-1-1.08,3,3,0,0,1-.36-1.51,3.23,3.23,0,0,1,1.23-2.7,5,5,0,0,1,1.31-.71,9.76,9.76,0,0,1,1.55-.39,12.72,12.72,0,0,1,1.62-.17c.54,0,1.06,0,1.54,0h.72V30.3a1.87,1.87,0,0,0-.75-1.62,3.13,3.13,0,0,0-1.89-.54,4.42,4.42,0,0,0-1.71.33,4.22,4.22,0,0,0-1.37.87l-1.51-1.51a5.56,5.56,0,0,1,2.25-1.42,8.45,8.45,0,0,1,2.65-.43,6.49,6.49,0,0,1,2.06.28,4.32,4.32,0,0,1,1.39.71,3.09,3.09,0,0,1,.86,1,4.82,4.82,0,0,1,.43,1.14,5.66,5.66,0,0,1,.15,1.12c0,.36,0,.67,0,1v6.62H158.5Zm-.17-3.58h-.6c-.4,0-.85,0-1.35,0a6.94,6.94,0,0,0-1.4.23,3.31,3.31,0,0,0-1.12.52,1.18,1.18,0,0,0-.45,1,1.21,1.21,0,0,0,.18.68,1.62,1.62,0,0,0,.47.47,1.74,1.74,0,0,0,.64.27,3,3,0,0,0,.72.09,3,3,0,0,0,2.2-.71,2.62,2.62,0,0,0,.71-1.93Z" />
    <path class="cls-2"
        d="M162.84,28.72V26.27h2.37V22.93h2.89v3.34h3.16v2.45H168.1v5a2.5,2.5,0,0,0,.32,1.37,1.42,1.42,0,0,0,1.28.5,5.16,5.16,0,0,0,.84-.08,1.72,1.72,0,0,0,.72-.28v2.42a3.32,3.32,0,0,1-1.11.3,8.77,8.77,0,0,1-1.17.09,6.11,6.11,0,0,1-1.88-.25,2.52,2.52,0,0,1-1.15-.77,2.89,2.89,0,0,1-.58-1.29,9.22,9.22,0,0,1-.16-1.77V28.72Z" />
    <path class="cls-2"
        d="M179.21,32a6,6,0,0,1,.49-2.48A5.8,5.8,0,0,1,181,27.64a6,6,0,0,1,2-1.23,7.19,7.19,0,0,1,4.9,0,5.75,5.75,0,0,1,3.32,3.14,6.52,6.52,0,0,1,0,5,5.75,5.75,0,0,1-3.32,3.14,7.19,7.19,0,0,1-4.9,0,6,6,0,0,1-2-1.23,5.8,5.8,0,0,1-1.33-1.91A6,6,0,0,1,179.21,32Zm2.88,0a3.82,3.82,0,0,0,.22,1.3,3.38,3.38,0,0,0,.68,1.1,3.29,3.29,0,0,0,1.06.77,3.62,3.62,0,0,0,2.84,0,3.44,3.44,0,0,0,1.07-.77,3.53,3.53,0,0,0,.67-1.1,3.79,3.79,0,0,0,0-2.6,3.53,3.53,0,0,0-.67-1.1,3.44,3.44,0,0,0-1.07-.77,3.62,3.62,0,0,0-2.84,0,3.29,3.29,0,0,0-1.06.77,3.38,3.38,0,0,0-.68,1.1A3.82,3.82,0,0,0,182.09,32Z" />
    <path class="cls-2"
        d="M194.42,26.27h2.74v1.85h.05a3.88,3.88,0,0,1,1.25-1.5,3.6,3.6,0,0,1,2.27-.64,4.48,4.48,0,0,1,2,.39,3.69,3.69,0,0,1,1.31,1,4.06,4.06,0,0,1,.72,1.44,6.91,6.91,0,0,1,.21,1.71v7.27h-2.88V32c0-.32,0-.68,0-1.07a3.93,3.93,0,0,0-.26-1.1,2,2,0,0,0-.63-.87,1.84,1.84,0,0,0-1.18-.35,2.75,2.75,0,0,0-1.21.24,2.39,2.39,0,0,0-.82.65,2.58,2.58,0,0,0-.46.94,4,4,0,0,0-.15,1.1v6.29h-2.88Z" />
    <path class="cls-3"
        d="M80.33,60.86h0A3.67,3.67,0,0,1,78.6,62.4a5.42,5.42,0,0,1-2.28.48,5.82,5.82,0,0,1-2.39-.47,5.48,5.48,0,0,1-1.79-1.28A5.58,5.58,0,0,1,71,59.21a7.12,7.12,0,0,1-.39-2.38A6.88,6.88,0,0,1,71,54.45a6,6,0,0,1,1.14-1.92A5.3,5.3,0,0,1,74,51.25a5.36,5.36,0,0,1,2.25-.47,5.63,5.63,0,0,1,1.44.17,5.35,5.35,0,0,1,1.11.43,4.8,4.8,0,0,1,.81.57,3.64,3.64,0,0,1,.55.58h.08V44.45h2.87V62.59H80.33Zm-6.82-4a3.83,3.83,0,0,0,.23,1.3A3.28,3.28,0,0,0,75.48,60a3.4,3.4,0,0,0,1.42.28A3.32,3.32,0,0,0,78.31,60a3.28,3.28,0,0,0,1.74-1.87,3.79,3.79,0,0,0,0-2.6,3.28,3.28,0,0,0-1.74-1.87,3.32,3.32,0,0,0-1.41-.29,3.4,3.4,0,0,0-1.42.29,3.28,3.28,0,0,0-1.74,1.87A3.83,3.83,0,0,0,73.51,56.83Z" />
    <path class="cls-3"
        d="M88.63,57.84a2.92,2.92,0,0,0,1,2,3.16,3.16,0,0,0,2.09.72,3.4,3.4,0,0,0,1.81-.44A4.9,4.9,0,0,0,94.82,59l2.07,1.56a5.78,5.78,0,0,1-2.26,1.78,6.65,6.65,0,0,1-2.61.53,7.09,7.09,0,0,1-2.45-.43,5.8,5.8,0,0,1-3.33-3.14,6.52,6.52,0,0,1,0-5,5.8,5.8,0,0,1,3.33-3.14A7.09,7.09,0,0,1,92,50.78a5.55,5.55,0,0,1,2.19.42,4.75,4.75,0,0,1,1.71,1.21,5.56,5.56,0,0,1,1.1,2,8.17,8.17,0,0,1,.4,2.68v.79Zm5.91-2.16a2.72,2.72,0,0,0-.8-2,3,3,0,0,0-2.13-.73,2.76,2.76,0,0,0-2,.75,3.26,3.26,0,0,0-.93,2Z" />
    <path class="cls-3"
        d="M106.25,54.26A2.64,2.64,0,0,0,104,53.09a2.38,2.38,0,0,0-1.12.28,1,1,0,0,0-.56.94.81.81,0,0,0,.46.77,5.41,5.41,0,0,0,1.15.41l1.5.34a5.73,5.73,0,0,1,1.5.56,3.13,3.13,0,0,1,1.15,1,3,3,0,0,1,.46,1.77,3.17,3.17,0,0,1-.45,1.74,3.48,3.48,0,0,1-1.15,1.14,5.09,5.09,0,0,1-1.59.63,9.05,9.05,0,0,1-1.78.19,7.48,7.48,0,0,1-2.47-.39,4.67,4.67,0,0,1-2-1.39L101,59.3a5.34,5.34,0,0,0,1.19,1,2.82,2.82,0,0,0,1.55.4,3.79,3.79,0,0,0,.65-.07,2.22,2.22,0,0,0,.62-.24,1.74,1.74,0,0,0,.47-.42,1,1,0,0,0,.18-.59,1,1,0,0,0-.46-.89A4.11,4.11,0,0,0,104,58q-.69-.18-1.5-.33a6,6,0,0,1-1.5-.51,3.08,3.08,0,0,1-1.15-1,2.84,2.84,0,0,1-.46-1.73,3.33,3.33,0,0,1,.4-1.67,3.42,3.42,0,0,1,1-1.16,4.5,4.5,0,0,1,1.49-.67,6.56,6.56,0,0,1,1.7-.22,6.68,6.68,0,0,1,2.28.4,3.65,3.65,0,0,1,1.83,1.35Z" />
    <path class="cls-3"
        d="M110.4,47.16a1.62,1.62,0,0,1,.52-1.21,1.74,1.74,0,0,1,1.3-.52,1.91,1.91,0,0,1,1.34.49,1.61,1.61,0,0,1,.54,1.24,1.59,1.59,0,0,1-.54,1.23,1.92,1.92,0,0,1-1.34.5,1.78,1.78,0,0,1-1.3-.52A1.64,1.64,0,0,1,110.4,47.16Zm.41,3.91h2.88V62.59h-2.88Z" />
    <path class="cls-3"
        d="M128.86,51.07V61.56a9.52,9.52,0,0,1-.39,2.82,5.25,5.25,0,0,1-3.21,3.49,8,8,0,0,1-2.91.48,11.23,11.23,0,0,1-3-.41,6.8,6.8,0,0,1-2.66-1.49l1.73-2.35a6.87,6.87,0,0,0,1.8,1.23,5.2,5.2,0,0,0,2.16.43,4.65,4.65,0,0,0,1.74-.29,2.87,2.87,0,0,0,1.13-.79,3.06,3.06,0,0,0,.6-1.21,6.47,6.47,0,0,0,.18-1.58v-.84h0a3.82,3.82,0,0,1-1.66,1.26A5.73,5.73,0,0,1,118,61a5.43,5.43,0,0,1-1.17-1.88,6.47,6.47,0,0,1-.41-2.3,7.12,7.12,0,0,1,.39-2.38,5.45,5.45,0,0,1,1.13-1.92,5.34,5.34,0,0,1,1.78-1.28,5.86,5.86,0,0,1,2.39-.47,5.42,5.42,0,0,1,2.28.48,3.62,3.62,0,0,1,1.68,1.54h.05V51.07Zm-6.15,2.3a3.66,3.66,0,0,0-1.39.26,3.13,3.13,0,0,0-1.07.69,3.18,3.18,0,0,0-.69,1.08,3.77,3.77,0,0,0-.26,1.41,3.38,3.38,0,0,0,1,2.35,3.64,3.64,0,0,0,1.08.72,3.57,3.57,0,0,0,1.35.26,3.83,3.83,0,0,0,1.43-.26,3.38,3.38,0,0,0,1.08-.71,3.11,3.11,0,0,0,.68-1.07,3.67,3.67,0,0,0,.24-1.34,3.18,3.18,0,0,0-3.41-3.39Z" />
    <path class="cls-3"
        d="M132.12,51.07h2.74v1.85h0a4.06,4.06,0,0,1,1.25-1.5,3.65,3.65,0,0,1,2.28-.64,4.48,4.48,0,0,1,2,.39,3.78,3.78,0,0,1,1.31,1,4.06,4.06,0,0,1,.72,1.44,6.91,6.91,0,0,1,.21,1.71v7.27h-2.88V56.76a10.41,10.41,0,0,0-.05-1.07,3.61,3.61,0,0,0-.25-1.1,2,2,0,0,0-.63-.87,1.84,1.84,0,0,0-1.18-.35,2.75,2.75,0,0,0-1.21.24,2.39,2.39,0,0,0-.82.65,2.77,2.77,0,0,0-.47.94,4.42,4.42,0,0,0-.14,1.1v6.29h-2.88Z" />
    <path class="cls-3" d="M153.05,44.45h2.88V62.59h-2.88Z" />
    <path class="cls-3"
        d="M166.44,61h-.07a3.73,3.73,0,0,1-1.59,1.42,4.9,4.9,0,0,1-2.11.45,5.43,5.43,0,0,1-1.55-.22,4.07,4.07,0,0,1-1.34-.65,3.2,3.2,0,0,1-.95-1.08,3,3,0,0,1-.36-1.51,3.39,3.39,0,0,1,.34-1.59,3.24,3.24,0,0,1,.9-1.11A4.69,4.69,0,0,1,161,56a9.64,9.64,0,0,1,1.54-.39,12.72,12.72,0,0,1,1.62-.17c.55,0,1.06,0,1.54,0h.72V55.1a1.88,1.88,0,0,0-.74-1.62,3.16,3.16,0,0,0-1.9-.54,4.51,4.51,0,0,0-1.7.32,4.3,4.3,0,0,0-1.37.88l-1.52-1.51a5.63,5.63,0,0,1,2.25-1.42,8.45,8.45,0,0,1,2.65-.43,6.52,6.52,0,0,1,2.07.28,4.64,4.64,0,0,1,1.39.7,3.2,3.2,0,0,1,.85,1,4.82,4.82,0,0,1,.43,1.14A6.43,6.43,0,0,1,169,55c0,.36,0,.67,0,.95v6.62h-2.59Zm-.17-3.58h-.6c-.4,0-.85,0-1.34,0a6.92,6.92,0,0,0-1.41.23,3.17,3.17,0,0,0-1.11.52,1.16,1.16,0,0,0-.46,1,1.21,1.21,0,0,0,.18.68,1.75,1.75,0,0,0,.47.47,1.79,1.79,0,0,0,.65.27,3.51,3.51,0,0,0,2.91-.62,2.58,2.58,0,0,0,.71-1.93Z" />
    <path class="cls-3"
        d="M172.13,44.45H175v8.08h.07a4.16,4.16,0,0,1,.55-.58,4.91,4.91,0,0,1,.82-.57,5,5,0,0,1,1.1-.43,5.69,5.69,0,0,1,1.44-.17,5.44,5.44,0,0,1,2.26.47A5.26,5.26,0,0,1,183,52.53a6,6,0,0,1,1.14,1.92,6.88,6.88,0,0,1,.41,2.38,7.37,7.37,0,0,1-.38,2.38,5.77,5.77,0,0,1-1.13,1.92,5.42,5.42,0,0,1-1.8,1.28,5.88,5.88,0,0,1-2.38.47,5.45,5.45,0,0,1-2.28-.48,3.72,3.72,0,0,1-1.68-1.54h0v1.73h-2.73Zm9.55,12.38a3.83,3.83,0,0,0-.23-1.3,3.19,3.19,0,0,0-.67-1.1,3.3,3.3,0,0,0-2.48-1.06,3.4,3.4,0,0,0-1.42.29,3.33,3.33,0,0,0-1.07.77,3.19,3.19,0,0,0-.67,1.1,3.79,3.79,0,0,0,0,2.6,3.19,3.19,0,0,0,.67,1.1,3.33,3.33,0,0,0,1.07.77,3.4,3.4,0,0,0,1.42.28,3.25,3.25,0,0,0,2.48-1.05,3.19,3.19,0,0,0,.67-1.1A3.83,3.83,0,0,0,181.68,56.83Z" />
    <path class="cls-2" d="M84,33.42a.18.18,0,0,1-.19.18.18.18,0,0,1-.18-.18.19.19,0,1,1,.37,0Z" />
    <path class="cls-2"
        d="M83.82,33.63a.21.21,0,1,1,0-.42.21.21,0,1,1,0,.42Zm0-.37a.16.16,0,0,0,0,.32.16.16,0,1,0,0-.32Z" />
    <path class="cls-2"
        d="M85.61,33.12a.8.8,0,0,1-.8.8.79.79,0,0,1-.79-.8.79.79,0,0,1,.79-.79A.79.79,0,0,1,85.61,33.12Z" />
    <path class="cls-2"
        d="M84.81,34a.92.92,0,1,1,.92-.92A.92.92,0,0,1,84.81,34Zm0-1.59a.67.67,0,1,0,.67.67A.67.67,0,0,0,84.81,32.45Z" />
    <path class="cls-2"
        d="M86.66,31.86a.26.26,0,0,1-.26.26.26.26,0,0,1,0-.52A.26.26,0,0,1,86.66,31.86Z" />
    <path class="cls-2"
        d="M86.4,32.16a.3.3,0,0,1,0-.6.3.3,0,1,1,0,.6Zm0-.52a.22.22,0,1,0,.22.22A.22.22,0,0,0,86.4,31.64Z" />
    <path class="cls-2"
        d="M84.18,33.84a.23.23,0,0,1-.23.24.24.24,0,0,1-.24-.24.23.23,0,0,1,.24-.23A.23.23,0,0,1,84.18,33.84Z" />
    <path class="cls-2"
        d="M84,34.11a.27.27,0,1,1,.27-.27A.27.27,0,0,1,84,34.11Zm0-.47a.2.2,0,0,0,0,.4.2.2,0,0,0,0-.4Z" />
    <path class="cls-2" d="M86.47,33.61a.43.43,0,1,1-.85,0,.43.43,0,0,1,.85,0Z" />
    <path class="cls-2"
        d="M86,34.1a.49.49,0,1,1,.49-.49A.49.49,0,0,1,86,34.1Zm0-.85a.36.36,0,1,0,.36.36A.36.36,0,0,0,86,33.25Z" />
    <path class="cls-2"
        d="M86.5,32.68a.53.53,0,0,1-.53.53.52.52,0,0,1-.52-.53.52.52,0,0,1,.52-.52A.52.52,0,0,1,86.5,32.68Z" />
    <path class="cls-2"
        d="M86,33.29a.6.6,0,0,1-.6-.61.61.61,0,1,1,.6.61Zm0-1a.45.45,0,1,0,.45.44A.44.44,0,0,0,86,32.24Z" />
    <path class="cls-2"
        d="M85.89,31.57a.52.52,0,0,1-.52.52.53.53,0,1,1,0-1.05A.52.52,0,0,1,85.89,31.57Z" />
    <path class="cls-2"
        d="M85.37,32.17a.61.61,0,1,1,.6-.6A.6.6,0,0,1,85.37,32.17Zm0-1.05a.45.45,0,1,0,.44.45A.45.45,0,0,0,85.37,31.12Z" />
    <path class="cls-2" d="M84.21,32.92a.27.27,0,0,1-.53,0,.27.27,0,0,1,.53,0Z" />
    <path class="cls-2"
        d="M84,33.22a.3.3,0,1,1,.3-.3A.3.3,0,0,1,84,33.22Zm0-.52a.22.22,0,1,0,0,.44.22.22,0,0,0,0-.44Z" />
    <path class="cls-2"
        d="M84.18,32.36a.23.23,0,0,1-.23.24.24.24,0,0,1-.24-.24.23.23,0,0,1,.24-.23A.23.23,0,0,1,84.18,32.36Z" />
    <path class="cls-2"
        d="M84,32.63a.27.27,0,1,1,.27-.27A.27.27,0,0,1,84,32.63Zm0-.47a.2.2,0,0,0,0,.4.2.2,0,0,0,0-.4Z" />
    <path class="cls-2" d="M85,32a.34.34,0,0,1-.67,0A.34.34,0,0,1,85,32Z" />
    <path class="cls-2"
        d="M84.67,32.41a.38.38,0,0,1-.38-.38.39.39,0,1,1,.77,0A.38.38,0,0,1,84.67,32.41Zm0-.66A.28.28,0,1,0,85,32,.28.28,0,0,0,84.67,31.75Z" />
    <path class="cls-2"
        d="M84.65,31.52a.09.09,0,0,1-.08.08.08.08,0,0,1,0-.16A.09.09,0,0,1,84.65,31.52Z" />
    <path class="cls-2"
        d="M84.57,31.61a.09.09,0,1,1,.09-.09A.09.09,0,0,1,84.57,31.61Zm0-.15a.06.06,0,1,0,0,.12s.07,0,.07-.06S84.61,31.46,84.57,31.46Z" />
    <path class="cls-2" d="M84.83,31.11a.08.08,0,0,1-.16,0,.08.08,0,1,1,.16,0Z" />
    <path class="cls-2"
        d="M84.75,31.19a.09.09,0,0,1-.09-.08.09.09,0,0,1,.18,0A.09.09,0,0,1,84.75,31.19Zm0-.15a.07.07,0,0,0-.06.07.06.06,0,0,0,.06.06.06.06,0,0,0,.06-.06S84.79,31,84.75,31Z" />
    <path class="cls-2"
        d="M86.33,31.35a.15.15,0,1,1-.29,0,.14.14,0,0,1,.14-.14A.15.15,0,0,1,86.33,31.35Z" />
    <path class="cls-2"
        d="M86.18,31.52a.16.16,0,0,1-.16-.17.16.16,0,0,1,.16-.16.16.16,0,0,1,.17.16A.16.16,0,0,1,86.18,31.52Zm0-.29a.13.13,0,0,0-.12.12.13.13,0,0,0,.12.13.13.13,0,0,0,.13-.13A.13.13,0,0,0,86.18,31.23Z" />
    <path class="cls-2" d="M85,30.72a.34.34,0,1,1-.33-.33A.33.33,0,0,1,85,30.72Z" />
    <path class="cls-2"
        d="M84.64,31.11a.39.39,0,0,1-.39-.39.39.39,0,0,1,.77,0A.39.39,0,0,1,84.64,31.11Zm0-.67a.28.28,0,1,0,.28.28A.28.28,0,0,0,84.64,30.44Z" />
    <path class="cls-2" d="M85.45,30.75a.26.26,0,1,1-.25-.25A.25.25,0,0,1,85.45,30.75Z" />
    <path class="cls-2"
        d="M85.2,31a.29.29,0,1,1,.29-.29A.29.29,0,0,1,85.2,31Zm0-.5a.21.21,0,1,0,0,.42.21.21,0,0,0,0-.42Z" />
    <path class="cls-2" d="M86.33,31a.18.18,0,0,1-.18.18.18.18,0,1,1,0-.36A.18.18,0,0,1,86.33,31Z" />
    <path class="cls-2"
        d="M86.15,31.17a.21.21,0,0,1-.21-.21.21.21,0,0,1,.21-.21.2.2,0,0,1,.2.21A.21.21,0,0,1,86.15,31.17Zm0-.37A.16.16,0,0,0,86,31a.16.16,0,0,0,.16.15A.15.15,0,0,0,86.3,31,.16.16,0,0,0,86.15,30.8Z" />
    <path class="cls-2" d="M84.47,31.17a.18.18,0,1,1-.18-.18A.18.18,0,0,1,84.47,31.17Z" />
    <path class="cls-2"
        d="M84.29,31.38a.21.21,0,0,1-.21-.21.21.21,0,0,1,.21-.21.21.21,0,0,1,.21.21A.22.22,0,0,1,84.29,31.38Zm0-.36a.15.15,0,0,0,0,.3.15.15,0,1,0,0-.3Z" />
    <path class="cls-2" d="M84.43,31.86a.36.36,0,1,1-.36-.36A.36.36,0,0,1,84.43,31.86Z" />
    <path class="cls-2"
        d="M84.07,32.27a.41.41,0,1,1,0-.82.41.41,0,1,1,0,.82Zm0-.71a.3.3,0,1,0,.3.3A.3.3,0,0,0,84.07,31.56Z" />
    <path class="cls-2" d="M86.48,30.19a.34.34,0,0,1-.67,0,.34.34,0,1,1,.67,0Z" />
    <path class="cls-2"
        d="M86.15,30.57a.39.39,0,1,1,.38-.38A.38.38,0,0,1,86.15,30.57Zm0-.67a.29.29,0,1,0,0,.57.29.29,0,0,0,0-.57Z" />
    <path class="cls-2" d="M86.37,31.84a.35.35,0,1,1-.35-.35A.35.35,0,0,1,86.37,31.84Z" />
    <path class="cls-2"
        d="M86,32.24a.4.4,0,1,1,.4-.4A.4.4,0,0,1,86,32.24Zm0-.7a.3.3,0,0,0-.29.3.29.29,0,0,0,.29.29.3.3,0,0,0,.3-.29A.31.31,0,0,0,86,31.54Z" />
    <path class="cls-2"
        d="M84.57,30.19a.35.35,0,0,1-.35.35.35.35,0,0,1-.35-.35.34.34,0,0,1,.35-.35A.35.35,0,0,1,84.57,30.19Z" />
    <path class="cls-2"
        d="M84.22,30.59a.41.41,0,1,1,.4-.4A.4.4,0,0,1,84.22,30.59Zm0-.7a.3.3,0,1,0,0,.59.3.3,0,0,0,0-.59Z" />
    <path class="cls-2" d="M85.36,29.39A.35.35,0,1,1,85,29,.35.35,0,0,1,85.36,29.39Z" />
    <path class="cls-2"
        d="M85,29.79a.4.4,0,1,1,.4-.4A.4.4,0,0,1,85,29.79Zm0-.69a.3.3,0,0,0-.3.29.31.31,0,0,0,.3.3.3.3,0,0,0,.29-.3A.29.29,0,0,0,85,29.1Z" />
    <path class="cls-2" d="M86.33,29.24a.35.35,0,1,1-.35-.35A.35.35,0,0,1,86.33,29.24Z" />
    <path class="cls-2"
        d="M86,29.64a.4.4,0,1,1,.4-.4A.4.4,0,0,1,86,29.64ZM86,29a.3.3,0,0,0-.3.29.31.31,0,0,0,.3.3.3.3,0,0,0,.29-.3A.29.29,0,0,0,86,29Z" />
    <path class="cls-2"
        d="M85.93,30.72a.16.16,0,0,1-.17.17.17.17,0,0,1-.17-.17.18.18,0,0,1,.17-.17A.17.17,0,0,1,85.93,30.72Z" />
    <path class="cls-2"
        d="M85.76,30.92a.2.2,0,1,1,.2-.2A.2.2,0,0,1,85.76,30.92Zm0-.34a.14.14,0,0,0-.14.14.15.15,0,0,0,.14.15.15.15,0,0,0,.15-.15A.15.15,0,0,0,85.76,30.58Z" />
    <path class="cls-2"
        d="M85.73,30.19a.21.21,0,0,1-.21.21.21.21,0,0,1-.22-.21.22.22,0,0,1,.22-.22A.21.21,0,0,1,85.73,30.19Z" />
    <path class="cls-2"
        d="M85.52,30.44a.25.25,0,0,1-.25-.25.25.25,0,0,1,.25-.25.25.25,0,0,1,.25.25A.26.26,0,0,1,85.52,30.44Zm0-.43a.18.18,0,1,0,.18.18A.18.18,0,0,0,85.52,30Z" />
    <path class="cls-2" d="M85.09,30.19a.2.2,0,1,1-.2-.2A.2.2,0,0,1,85.09,30.19Z" />
    <path class="cls-2"
        d="M84.89,30.42a.23.23,0,0,1-.23-.23.23.23,0,0,1,.23-.23.23.23,0,0,1,.23.23A.24.24,0,0,1,84.89,30.42Zm0-.4a.17.17,0,0,0-.17.17.17.17,0,0,0,.34,0A.17.17,0,0,0,84.89,30Z" />
    <path class="cls-2" d="M85.05,26.73a.3.3,0,1,1-.3-.3A.3.3,0,0,1,85.05,26.73Z" />
    <path class="cls-2"
        d="M84.75,27.08a.35.35,0,0,1-.35-.35.35.35,0,1,1,.7,0A.35.35,0,0,1,84.75,27.08Zm0-.6a.26.26,0,0,0-.26.25.26.26,0,1,0,.52,0A.26.26,0,0,0,84.75,26.48Z" />
    <path class="cls-2" d="M84.41,29.24a.23.23,0,1,1-.23-.23A.23.23,0,0,1,84.41,29.24Z" />
    <path class="cls-2"
        d="M84.18,29.51a.27.27,0,1,1,.27-.27A.27.27,0,0,1,84.18,29.51Zm0-.46a.18.18,0,0,0-.19.19.19.19,0,0,0,.19.2.2.2,0,0,0,.2-.2A.19.19,0,0,0,84.18,29.05Z" />
    <path class="cls-2"
        d="M84.72,28.25a.21.21,0,0,1-.21.21.21.21,0,0,1-.21-.21.22.22,0,0,1,.21-.21A.21.21,0,0,1,84.72,28.25Z" />
    <path class="cls-2"
        d="M84.51,28.5a.25.25,0,1,1,.25-.25A.25.25,0,0,1,84.51,28.5Zm0-.42a.18.18,0,0,0-.18.17.18.18,0,0,0,.36,0A.18.18,0,0,0,84.51,28.08Z" />
    <path class="cls-2"
        d="M86.21,26.33a.35.35,0,0,1-.35.35.35.35,0,1,1,0-.7A.35.35,0,0,1,86.21,26.33Z" />
    <path class="cls-2"
        d="M85.86,26.73a.4.4,0,1,1,.41-.4A.4.4,0,0,1,85.86,26.73Zm0-.69a.29.29,0,0,0-.29.29.3.3,0,1,0,.59,0A.29.29,0,0,0,85.86,26Z" />
    <path class="cls-2" d="M85,24.36a.35.35,0,1,1-.7,0,.35.35,0,0,1,.7,0Z" />
    <path class="cls-2"
        d="M84.62,24.76a.41.41,0,1,1,.4-.4A.4.4,0,0,1,84.62,24.76Zm0-.7a.3.3,0,1,0,.3.3A.3.3,0,0,0,84.62,24.06Z" />
    <path class="cls-2"
        d="M85.62,27.68a.22.22,0,0,1-.21.21.21.21,0,0,1-.21-.21.21.21,0,0,1,.21-.21A.21.21,0,0,1,85.62,27.68Z" />
    <path class="cls-2"
        d="M85.41,27.92a.24.24,0,0,1-.24-.24.24.24,0,0,1,.24-.25.25.25,0,0,1,0,.49Zm0-.42a.18.18,0,0,0-.18.18.18.18,0,0,0,.36,0A.18.18,0,0,0,85.41,27.5Z" />
    <path class="cls-4" d="M133.54,29.8h2.88v8.05h-2.88Z" />
    <path class="cls-4"
        d="M133.83,29.48a.18.18,0,0,1-.18.18.18.18,0,0,1-.19-.18.18.18,0,0,1,.19-.19A.18.18,0,0,1,133.83,29.48Z" />
    <path class="cls-4"
        d="M133.65,29.69a.22.22,0,1,1,.21-.21A.22.22,0,0,1,133.65,29.69Zm0-.37a.16.16,0,0,0-.16.16.16.16,0,0,0,.16.15.15.15,0,0,0,.15-.15A.16.16,0,0,0,133.65,29.32Z" />
    <path class="cls-4" d="M135.43,29.18a.8.8,0,1,1-.8-.79A.79.79,0,0,1,135.43,29.18Z" />
    <path class="cls-4"
        d="M134.63,30.1a.92.92,0,1,1,.92-.92A.92.92,0,0,1,134.63,30.1Zm0-1.59a.67.67,0,1,0,.68.67A.67.67,0,0,0,134.63,28.51Z" />
    <path class="cls-4" d="M136.48,27.92a.26.26,0,0,1-.51,0,.26.26,0,1,1,.51,0Z" />
    <path class="cls-4"
        d="M136.22,28.21a.3.3,0,0,1,0-.59.3.3,0,1,1,0,.59Zm0-.51a.22.22,0,0,0-.21.22.21.21,0,0,0,.21.21.21.21,0,0,0,.22-.21A.22.22,0,0,0,136.22,27.7Z" />
    <path class="cls-4"
        d="M134,29.9a.23.23,0,0,1-.23.23.23.23,0,0,1-.24-.23.24.24,0,0,1,.24-.24A.23.23,0,0,1,134,29.9Z" />
    <path class="cls-4"
        d="M133.77,30.17a.27.27,0,1,1,.27-.27A.27.27,0,0,1,133.77,30.17Zm0-.47a.2.2,0,1,0,.2.2A.2.2,0,0,0,133.77,29.7Z" />
    <path class="cls-4" d="M136.29,29.67a.43.43,0,0,1-.85,0,.43.43,0,1,1,.85,0Z" />
    <path class="cls-4"
        d="M135.87,30.16a.49.49,0,1,1,0-1,.49.49,0,0,1,0,1Zm0-.85a.36.36,0,1,0,.35.36A.36.36,0,0,0,135.87,29.31Z" />
    <path class="cls-4"
        d="M136.32,28.74a.52.52,0,0,1-.52.52.52.52,0,0,1-.53-.52.53.53,0,0,1,.53-.53A.52.52,0,0,1,136.32,28.74Z" />
    <path class="cls-4"
        d="M135.8,29.34a.61.61,0,1,1,.6-.6A.6.6,0,0,1,135.8,29.34Zm0-1.05a.45.45,0,1,0,.44.45A.45.45,0,0,0,135.8,28.29Z" />
    <path class="cls-4"
        d="M135.71,27.62a.52.52,0,0,1-.52.53.53.53,0,0,1-.53-.53.52.52,0,0,1,.53-.52A.52.52,0,0,1,135.71,27.62Z" />
    <path class="cls-4"
        d="M135.19,28.23a.61.61,0,0,1-.61-.61.61.61,0,0,1,.61-.61.62.62,0,0,1,.61.61A.61.61,0,0,1,135.19,28.23Zm0-1.05a.45.45,0,1,0,.44.44A.45.45,0,0,0,135.19,27.18Z" />
    <path class="cls-4" d="M134,29a.26.26,0,0,1-.26.26.27.27,0,0,1,0-.53A.27.27,0,0,1,134,29Z" />
    <path class="cls-4"
        d="M133.77,29.28a.31.31,0,1,1,.3-.3A.3.3,0,0,1,133.77,29.28Zm0-.53a.22.22,0,0,0-.22.23.22.22,0,1,0,.44,0A.22.22,0,0,0,133.77,28.75Z" />
    <path class="cls-4"
        d="M134,28.42a.23.23,0,0,1-.23.23.23.23,0,0,1-.24-.23.24.24,0,0,1,.24-.24A.23.23,0,0,1,134,28.42Z" />
    <path class="cls-4"
        d="M133.77,28.69a.27.27,0,1,1,.27-.27A.27.27,0,0,1,133.77,28.69Zm0-.47a.2.2,0,1,0,.2.2A.2.2,0,0,0,133.77,28.22Z" />
    <path class="cls-4" d="M134.83,28.09a.34.34,0,0,1-.67,0,.34.34,0,1,1,.67,0Z" />
    <path class="cls-4"
        d="M134.5,28.47a.39.39,0,1,1,.38-.38A.38.38,0,0,1,134.5,28.47Zm0-.67a.29.29,0,1,0,0,.57.29.29,0,0,0,0-.57Z" />
    <path class="cls-4"
        d="M134.47,27.58a.07.07,0,0,1-.07.07.07.07,0,0,1-.08-.07.07.07,0,0,1,.08-.08A.07.07,0,0,1,134.47,27.58Z" />
    <path class="cls-4"
        d="M134.4,27.66a.09.09,0,0,1-.09-.08.09.09,0,0,1,.09-.09.09.09,0,0,1,.08.09A.09.09,0,0,1,134.4,27.66Zm0-.15a.07.07,0,0,0-.07.07.07.07,0,0,0,.07.06.06.06,0,0,0,.06-.06A.07.07,0,0,0,134.4,27.51Z" />
    <path class="cls-4"
        d="M134.65,27.16a.08.08,0,0,1-.08.08.08.08,0,0,1-.07-.08.07.07,0,0,1,.07-.07A.07.07,0,0,1,134.65,27.16Z" />
    <path class="cls-4"
        d="M134.57,27.25a.09.09,0,0,1,0-.18.09.09,0,1,1,0,.18Zm0-.15a.06.06,0,0,0-.06.06.07.07,0,0,0,.06.07.07.07,0,0,0,.07-.07A.07.07,0,0,0,134.57,27.1Z" />
    <path class="cls-4"
        d="M136.15,27.41a.14.14,0,0,1-.14.14.15.15,0,0,1-.15-.14.15.15,0,0,1,.15-.15A.15.15,0,0,1,136.15,27.41Z" />
    <path class="cls-4"
        d="M136,27.58a.17.17,0,1,1,0-.34.17.17,0,0,1,0,.34Zm0-.29a.12.12,0,1,0,.12.12A.12.12,0,0,0,136,27.29Z" />
    <path class="cls-4" d="M134.79,26.78a.33.33,0,1,1-.33-.34A.33.33,0,0,1,134.79,26.78Z" />
    <path class="cls-4"
        d="M134.46,27.16a.39.39,0,1,1,.39-.38A.39.39,0,0,1,134.46,27.16Zm0-.67a.29.29,0,1,0,.28.29A.28.28,0,0,0,134.46,26.49Z" />
    <path class="cls-4" d="M135.27,26.81a.25.25,0,1,1-.25-.26A.25.25,0,0,1,135.27,26.81Z" />
    <path class="cls-4"
        d="M135,27.1a.29.29,0,1,1,.29-.29A.29.29,0,0,1,135,27.1Zm0-.51a.21.21,0,0,0-.21.22.21.21,0,1,0,.42,0A.21.21,0,0,0,135,26.59Z" />
    <path class="cls-4" d="M136.15,27a.18.18,0,1,1-.18-.18A.18.18,0,0,1,136.15,27Z" />
    <path class="cls-4"
        d="M136,27.22a.21.21,0,0,1-.21-.21.2.2,0,0,1,.21-.2.21.21,0,1,1,0,.41Zm0-.36a.15.15,0,0,0-.15.15.15.15,0,0,0,.15.16.16.16,0,0,0,.15-.16A.15.15,0,0,0,136,26.86Z" />
    <path class="cls-4" d="M134.29,27.23a.18.18,0,1,1-.18-.18A.18.18,0,0,1,134.29,27.23Z" />
    <path class="cls-4"
        d="M134.11,27.43a.21.21,0,1,1,0-.41.21.21,0,0,1,.21.21A.2.2,0,0,1,134.11,27.43Zm0-.36a.16.16,0,0,0-.15.16.15.15,0,0,0,.15.15.16.16,0,0,0,.16-.15A.16.16,0,0,0,134.11,27.07Z" />
    <path class="cls-4" d="M134.25,27.92a.36.36,0,1,1-.36-.36A.36.36,0,0,1,134.25,27.92Z" />
    <path class="cls-4"
        d="M133.89,28.33a.41.41,0,0,1-.41-.41.41.41,0,0,1,.41-.42.42.42,0,0,1,.42.42A.41.41,0,0,1,133.89,28.33Zm0-.72a.31.31,0,1,0,.3.31A.3.3,0,0,0,133.89,27.61Z" />
    <path class="cls-4" d="M136.3,26.24a.34.34,0,1,1-.33-.33A.34.34,0,0,1,136.3,26.24Z" />
    <path class="cls-4"
        d="M136,26.63a.39.39,0,1,1,0-.77.39.39,0,0,1,0,.77Zm0-.67a.29.29,0,0,0,0,.57.29.29,0,0,0,0-.57Z" />
    <path class="cls-4"
        d="M136.19,27.9a.35.35,0,0,1-.35.35.35.35,0,0,1-.35-.35.35.35,0,0,1,.35-.35A.34.34,0,0,1,136.19,27.9Z" />
    <path class="cls-4"
        d="M135.84,28.3a.41.41,0,0,1,0-.81.41.41,0,1,1,0,.81Zm0-.7a.3.3,0,1,0,.3.3A.29.29,0,0,0,135.84,27.6Z" />
    <path class="cls-4" d="M134.39,26.24a.35.35,0,1,1-.7,0,.35.35,0,1,1,.7,0Z" />
    <path class="cls-4"
        d="M134,26.65a.41.41,0,1,1,.4-.41A.4.4,0,0,1,134,26.65Zm0-.7a.3.3,0,1,0,.3.29A.3.3,0,0,0,134,26Z" />
    <path class="cls-4"
        d="M135.48,25.45a.35.35,0,0,1-.35.35.35.35,0,0,1-.35-.35.34.34,0,0,1,.35-.35A.35.35,0,0,1,135.48,25.45Z" />
    <path class="cls-4"
        d="M135.13,25.85a.41.41,0,1,1,.4-.4A.4.4,0,0,1,135.13,25.85Zm0-.7a.3.3,0,1,0,0,.59.3.3,0,0,0,0-.59Z" />
    <path class="cls-4"
        d="M135.75,26.78a.17.17,0,0,1-.17.17.18.18,0,0,1-.17-.17.17.17,0,0,1,.17-.17A.16.16,0,0,1,135.75,26.78Z" />
    <path class="cls-4"
        d="M135.58,27a.18.18,0,0,1-.19-.19.19.19,0,0,1,.19-.2.2.2,0,0,1,.2.2A.19.19,0,0,1,135.58,27Zm0-.34a.15.15,0,0,0-.14.15.14.14,0,0,0,.14.14.15.15,0,0,0,.15-.14A.15.15,0,0,0,135.58,26.63Z" />
    <path class="cls-4"
        d="M135.56,26.24a.22.22,0,0,1-.22.22.21.21,0,0,1-.21-.22.21.21,0,0,1,.21-.21A.21.21,0,0,1,135.56,26.24Z" />
    <path class="cls-4"
        d="M135.34,26.49a.25.25,0,1,1,.25-.25A.25.25,0,0,1,135.34,26.49Zm0-.43a.18.18,0,0,0-.18.18.18.18,0,1,0,.36,0A.18.18,0,0,0,135.34,26.06Z" />
    <path class="cls-4" d="M134.91,26.24a.2.2,0,1,1-.4,0,.2.2,0,0,1,.4,0Z" />
    <path class="cls-4"
        d="M134.71,26.47a.23.23,0,1,1,.23-.23A.23.23,0,0,1,134.71,26.47Zm0-.39a.17.17,0,0,0-.17.16.17.17,0,0,0,.34,0A.17.17,0,0,0,134.71,26.08Z" />
    <path class="cls-4"
        d="M134.23,25.3a.23.23,0,0,1-.23.23.23.23,0,0,1,0-.46A.23.23,0,0,1,134.23,25.3Z" />
    <path class="cls-4"
        d="M134,25.56a.26.26,0,0,1-.26-.26.27.27,0,1,1,.53,0A.26.26,0,0,1,134,25.56Zm0-.46a.2.2,0,0,0-.19.2.19.19,0,0,0,.19.19.19.19,0,0,0,.2-.19A.2.2,0,0,0,134,25.1Z" />
    <path class="cls-4"
        d="M134.55,24.31a.21.21,0,0,1-.21.21.21.21,0,1,1,0-.42A.21.21,0,0,1,134.55,24.31Z" />
    <path class="cls-4"
        d="M134.34,24.55a.24.24,0,1,1,.24-.24A.25.25,0,0,1,134.34,24.55Zm0-.42a.18.18,0,0,0,0,.36.18.18,0,0,0,0-.36Z" />
    <path class="cls-4" d="M135.82,21a.35.35,0,1,1-.69,0,.35.35,0,1,1,.69,0Z" />
    <path class="cls-4"
        d="M135.47,21.44a.41.41,0,0,1-.4-.41.41.41,0,0,1,.81,0A.41.41,0,0,1,135.47,21.44Zm0-.7a.3.3,0,0,0,0,.59.3.3,0,1,0,0-.59Z" />
    <path class="cls-4"
        d="M135,19.24a.34.34,0,0,1-.35.35.35.35,0,0,1-.35-.35.35.35,0,0,1,.35-.35A.35.35,0,0,1,135,19.24Z" />
    <path class="cls-4"
        d="M134.66,19.65a.41.41,0,0,1-.4-.41.41.41,0,0,1,.81,0A.41.41,0,0,1,134.66,19.65Zm0-.7a.3.3,0,0,0,0,.59.3.3,0,1,0,0-.59Z" />
    <path class="cls-4" d="M135.44,23.73a.21.21,0,1,1-.42,0,.21.21,0,0,1,.42,0Z" />
    <path class="cls-4"
        d="M135.23,24a.25.25,0,0,1,0-.49.24.24,0,0,1,.24.24A.24.24,0,0,1,135.23,24Zm0-.43a.18.18,0,1,0,.18.18A.18.18,0,0,0,135.23,23.55Z" />
    <path class="cls-5" d="M173.59,31.89h2.88v5.83h-2.88Z" />
    <path class="cls-5"
        d="M173.89,32.35a.19.19,0,0,1-.19.19.18.18,0,0,1-.18-.19.18.18,0,0,1,.18-.18A.19.19,0,0,1,173.89,32.35Z" />
    <path class="cls-5"
        d="M173.7,32.57a.21.21,0,0,1-.21-.22.21.21,0,1,1,.42,0A.21.21,0,0,1,173.7,32.57Zm0-.37a.16.16,0,0,0-.16.15.16.16,0,0,0,.32,0A.16.16,0,0,0,173.7,32.2Z" />
    <path class="cls-5" d="M175.48,32.06a.79.79,0,1,1-1.58,0,.79.79,0,1,1,1.58,0Z" />
    <path class="cls-5"
        d="M174.69,33a.92.92,0,1,1,.92-.91A.92.92,0,0,1,174.69,33Zm0-1.58a.67.67,0,1,0,.67.67A.67.67,0,0,0,174.69,31.39Z" />
    <path class="cls-5"
        d="M176.53,30.79a.25.25,0,0,1-.25.26.26.26,0,1,1,0-.51A.25.25,0,0,1,176.53,30.79Z" />
    <path class="cls-5"
        d="M176.28,31.09a.3.3,0,1,1,0-.59.3.3,0,0,1,0,.59Zm0-.51a.22.22,0,1,0,.22.21A.22.22,0,0,0,176.28,30.58Z" />
    <path class="cls-5"
        d="M174.06,32.78a.23.23,0,0,1-.24.23.23.23,0,0,1-.23-.23.23.23,0,0,1,.23-.24A.24.24,0,0,1,174.06,32.78Z" />
    <path class="cls-5"
        d="M173.82,33.05a.27.27,0,1,1,.27-.27A.27.27,0,0,1,173.82,33.05Zm0-.47a.2.2,0,0,0,0,.4.2.2,0,0,0,0-.4Z" />
    <path class="cls-5" d="M176.34,32.55a.42.42,0,1,1-.42-.43A.42.42,0,0,1,176.34,32.55Z" />
    <path class="cls-5"
        d="M175.92,33a.49.49,0,1,1,.49-.49A.49.49,0,0,1,175.92,33Zm0-.85a.36.36,0,1,0,.36.36A.36.36,0,0,0,175.92,32.19Z" />
    <path class="cls-5" d="M176.38,31.62a.53.53,0,0,1-1.06,0,.53.53,0,0,1,1.06,0Z" />
    <path class="cls-5"
        d="M175.85,32.22a.61.61,0,1,1,.61-.6A.61.61,0,0,1,175.85,32.22Zm0-1a.45.45,0,1,0,.45.45A.45.45,0,0,0,175.85,31.17Z" />
    <path class="cls-5"
        d="M175.77,30.5a.53.53,0,0,1-.53.53.53.53,0,0,1,0-1.06A.53.53,0,0,1,175.77,30.5Z" />
    <path class="cls-5"
        d="M175.24,31.11a.61.61,0,1,1,.61-.61A.61.61,0,0,1,175.24,31.11Zm0-1.05a.44.44,0,1,0,.45.44A.44.44,0,0,0,175.24,30.06Z" />
    <path class="cls-5" d="M174.09,31.85a.27.27,0,1,1-.53,0,.27.27,0,0,1,.53,0Z" />
    <path class="cls-5"
        d="M173.82,32.16a.31.31,0,1,1,.31-.31A.31.31,0,0,1,173.82,32.16Zm0-.53a.22.22,0,0,0-.22.22.23.23,0,1,0,.22-.22Z" />
    <path class="cls-5"
        d="M174.06,31.3a.23.23,0,0,1-.24.23.23.23,0,0,1-.23-.23.23.23,0,0,1,.23-.24A.24.24,0,0,1,174.06,31.3Z" />
    <path class="cls-5"
        d="M173.82,31.57a.27.27,0,1,1,.27-.27A.27.27,0,0,1,173.82,31.57Zm0-.47a.2.2,0,0,0,0,.4.2.2,0,1,0,0-.4Z" />
    <path class="cls-5" d="M174.89,31a.34.34,0,1,1-.67,0,.34.34,0,0,1,.67,0Z" />
    <path class="cls-5"
        d="M174.55,31.35a.39.39,0,0,1,0-.77.39.39,0,1,1,0,.77Zm0-.67a.29.29,0,0,0,0,.57.29.29,0,0,0,0-.57Z" />
    <path class="cls-5" d="M174.53,30.45a.08.08,0,1,1-.16,0,.08.08,0,0,1,.16,0Z" />
    <path class="cls-5"
        d="M174.45,30.54a.09.09,0,0,1-.09-.09.09.09,0,0,1,.18,0A.09.09,0,0,1,174.45,30.54Zm0-.15a.06.06,0,0,0-.06.06s0,.07.06.07.06,0,.06-.07A.06.06,0,0,0,174.45,30.39Z" />
    <path class="cls-5" d="M174.7,30a.08.08,0,0,1-.07.08.08.08,0,1,1,0-.16A.08.08,0,0,1,174.7,30Z" />
    <path class="cls-5"
        d="M174.63,30.13a.09.09,0,1,1,.09-.09A.09.09,0,0,1,174.63,30.13Zm0-.15s-.07,0-.07.06,0,.06.07.06a.06.06,0,1,0,0-.12Z" />
    <path class="cls-5"
        d="M176.21,30.29a.15.15,0,0,1-.15.14.14.14,0,0,1-.14-.14.15.15,0,0,1,.14-.15A.15.15,0,0,1,176.21,30.29Z" />
    <path class="cls-5"
        d="M176.06,30.45a.16.16,0,0,1-.16-.16.17.17,0,0,1,.16-.17.18.18,0,0,1,.17.17A.17.17,0,0,1,176.06,30.45Zm0-.28a.12.12,0,0,0,0,.24.12.12,0,1,0,0-.24Z" />
    <path class="cls-5" d="M174.85,29.66a.34.34,0,1,1-.34-.34A.34.34,0,0,1,174.85,29.66Z" />
    <path class="cls-5"
        d="M174.51,30a.39.39,0,0,1,0-.77.39.39,0,1,1,0,.77Zm0-.67a.29.29,0,1,0,.29.29A.29.29,0,0,0,174.51,29.37Z" />
    <path class="cls-5"
        d="M175.32,29.68a.25.25,0,0,1-.25.25.25.25,0,0,1-.25-.25.26.26,0,0,1,.25-.25A.25.25,0,0,1,175.32,29.68Z" />
    <path class="cls-5"
        d="M175.07,30a.29.29,0,1,1,.29-.29A.29.29,0,0,1,175.07,30Zm0-.5a.22.22,0,0,0,0,.43.22.22,0,1,0,0-.43Z" />
    <path class="cls-5" d="M176.2,29.89a.18.18,0,1,1-.18-.18A.18.18,0,0,1,176.2,29.89Z" />
    <path class="cls-5"
        d="M176,30.1a.21.21,0,0,1-.21-.21.22.22,0,0,1,.21-.21.21.21,0,0,1,.21.21A.21.21,0,0,1,176,30.1Zm0-.36a.15.15,0,0,0-.15.15.16.16,0,0,0,.15.16.16.16,0,0,0,.16-.16A.16.16,0,0,0,176,29.74Z" />
    <path class="cls-5" d="M174.35,30.1a.18.18,0,1,1-.36,0,.18.18,0,0,1,.36,0Z" />
    <path class="cls-5"
        d="M174.17,30.31a.21.21,0,0,1-.21-.21.2.2,0,0,1,.21-.2.21.21,0,1,1,0,.41Zm0-.36a.16.16,0,0,0-.16.15.16.16,0,0,0,.16.16.16.16,0,0,0,.15-.16A.15.15,0,0,0,174.17,30Z" />
    <path class="cls-5" d="M174.3,30.8a.36.36,0,1,1-.36-.36A.36.36,0,0,1,174.3,30.8Z" />
    <path class="cls-5"
        d="M173.94,31.21a.42.42,0,1,1,.42-.41A.42.42,0,0,1,173.94,31.21Zm0-.72a.31.31,0,1,0,.31.31A.31.31,0,0,0,173.94,30.49Z" />
    <path class="cls-5" d="M176.36,29.12a.34.34,0,1,1-.67,0,.34.34,0,0,1,.67,0Z" />
    <path class="cls-5"
        d="M176,29.51a.39.39,0,0,1-.38-.39.39.39,0,0,1,.77,0A.39.39,0,0,1,176,29.51Zm0-.67a.29.29,0,0,0-.28.28.29.29,0,0,0,.57,0A.29.29,0,0,0,176,28.84Z" />
    <path class="cls-5" d="M176.25,30.77a.35.35,0,1,1-.7,0,.35.35,0,1,1,.7,0Z" />
    <path class="cls-5"
        d="M175.9,31.18a.41.41,0,1,1,.4-.41A.4.4,0,0,1,175.9,31.18Zm0-.7a.3.3,0,1,0,0,.59.3.3,0,0,0,0-.59Z" />
    <path class="cls-5" d="M174.44,29.12a.35.35,0,1,1-.35-.35A.35.35,0,0,1,174.44,29.12Z" />
    <path class="cls-5"
        d="M174.09,29.52a.4.4,0,1,1,.41-.4A.4.4,0,0,1,174.09,29.52Zm0-.69a.29.29,0,0,0-.29.29.3.3,0,1,0,.59,0A.29.29,0,0,0,174.09,28.83Z" />
    <path class="cls-5" d="M175.53,28.33a.35.35,0,1,1-.35-.35A.35.35,0,0,1,175.53,28.33Z" />
    <path class="cls-5"
        d="M175.18,28.73a.41.41,0,1,1,.4-.4A.4.4,0,0,1,175.18,28.73Zm0-.7a.3.3,0,0,0,0,.59.3.3,0,1,0,0-.59Z" />
    <path class="cls-5"
        d="M175.81,29.66a.18.18,0,0,1-.17.17.17.17,0,0,1-.17-.17.17.17,0,0,1,.17-.18A.18.18,0,0,1,175.81,29.66Z" />
    <path class="cls-5"
        d="M175.64,29.85a.2.2,0,1,1,.2-.19A.2.2,0,0,1,175.64,29.85Zm0-.34a.15.15,0,0,0-.15.15.15.15,0,0,0,.15.14.14.14,0,0,0,.14-.14A.15.15,0,0,0,175.64,29.51Z" />
    <path class="cls-5"
        d="M175.61,29.12a.22.22,0,1,1-.43,0,.21.21,0,0,1,.21-.21A.21.21,0,0,1,175.61,29.12Z" />
    <path class="cls-5"
        d="M175.39,29.37a.25.25,0,0,1-.24-.25.25.25,0,1,1,.49,0A.25.25,0,0,1,175.39,29.37Zm0-.43a.18.18,0,1,0,0,.36.18.18,0,1,0,0-.36Z" />
    <path class="cls-5" d="M175,29.12a.2.2,0,1,1-.19-.2A.2.2,0,0,1,175,29.12Z" />
    <path class="cls-5"
        d="M174.77,29.35a.23.23,0,0,1-.23-.23.23.23,0,1,1,.45,0A.22.22,0,0,1,174.77,29.35Zm0-.4a.17.17,0,1,0,0,.34.17.17,0,0,0,0-.34Z" />
    <path class="cls-5" d="M174.29,28.18a.23.23,0,1,1-.46,0,.23.23,0,0,1,.46,0Z" />
    <path class="cls-5"
        d="M174.06,28.44a.27.27,0,1,1,0-.53.27.27,0,0,1,0,.53Zm0-.46a.2.2,0,1,0,0,.39.19.19,0,0,0,.19-.19A.19.19,0,0,0,174.06,28Z" />
    <path class="cls-5" d="M174.6,27.19a.21.21,0,1,1-.21-.21A.21.21,0,0,1,174.6,27.19Z" />
    <path class="cls-5"
        d="M174.39,27.43a.24.24,0,0,1-.24-.24.24.24,0,0,1,.48,0A.24.24,0,0,1,174.39,27.43Zm0-.42a.18.18,0,1,0,.18.18A.18.18,0,0,0,174.39,27Z" />
    <path class="cls-5" d="M175.2,25a.35.35,0,0,1-.7,0,.35.35,0,1,1,.7,0Z" />
    <path class="cls-5"
        d="M174.85,25.44a.41.41,0,0,1-.4-.41.4.4,0,0,1,.8,0A.41.41,0,0,1,174.85,25.44Zm0-.7a.3.3,0,1,0,0,.59.3.3,0,0,0,0-.59Z" />
    <path class="cls-5" d="M176,27.41a.21.21,0,1,1-.21-.21A.21.21,0,0,1,176,27.41Z" />
    <path class="cls-5"
        d="M175.77,27.65a.24.24,0,1,1,.24-.24A.24.24,0,0,1,175.77,27.65Zm0-.42a.18.18,0,1,0,.18.18A.18.18,0,0,0,175.77,27.23Z" />
    <path class="cls-2" d="M32.81,25.39a1.25,1.25,0,1,1-1.25-1.25A1.25,1.25,0,0,1,32.81,25.39Z" />
    <path class="cls-2"
        d="M31.56,26.83A1.44,1.44,0,1,1,33,25.39,1.44,1.44,0,0,1,31.56,26.83Zm0-2.49a1.06,1.06,0,0,0,0,2.11,1.06,1.06,0,1,0,0-2.11Z" />
    <g class="cls-6">
        <path class="cls-2" d="M19.59,56.34a.53.53,0,1,1-.53-.53A.53.53,0,0,1,19.59,56.34Z" />
        <path class="cls-2"
            d="M19.06,57a.61.61,0,1,1,.62-.61A.61.61,0,0,1,19.06,57Zm0-1.06a.45.45,0,1,0,.45.45A.45.45,0,0,0,19.06,55.89Z" />
        <path class="cls-2" d="M24.08,57.18a2.27,2.27,0,1,1-2.27-2.27A2.26,2.26,0,0,1,24.08,57.18Z" />
        <path class="cls-2"
            d="M21.81,59.8a2.62,2.62,0,1,1,2.62-2.62A2.62,2.62,0,0,1,21.81,59.8Zm0-4.54a1.92,1.92,0,1,0,1.92,1.92A1.92,1.92,0,0,0,21.81,55.26Z" />
        <path class="cls-2" d="M27.1,53.56a.74.74,0,1,1-.74-.73A.73.73,0,0,1,27.1,53.56Z" />
        <path class="cls-2"
            d="M26.36,54.41a.85.85,0,1,1,.85-.85A.85.85,0,0,1,26.36,54.41Zm0-1.47a.62.62,0,0,0,0,1.24.62.62,0,0,0,0-1.24Z" />
        <path class="cls-2" d="M20,59.24a.67.67,0,1,1-.67-.67A.67.67,0,0,1,20,59.24Z" />
        <path class="cls-2"
            d="M19.33,60a.78.78,0,0,1-.78-.78.78.78,0,0,1,1.56,0A.78.78,0,0,1,19.33,60Zm0-1.35a.57.57,0,1,0,.57.57A.58.58,0,0,0,19.33,58.67Z" />
        <path class="cls-2" d="M26.55,58.58a1.22,1.22,0,1,1-1.21-1.21A1.22,1.22,0,0,1,26.55,58.58Z" />
        <path class="cls-2"
            d="M25.34,60a1.4,1.4,0,1,1,1.4-1.4A1.4,1.4,0,0,1,25.34,60Zm0-2.43a1,1,0,1,0,1,1A1,1,0,0,0,25.34,57.55Z" />
        <path class="cls-2" d="M26.64,55.91a1.51,1.51,0,1,1-1.5-1.5A1.51,1.51,0,0,1,26.64,55.91Z" />
        <path class="cls-2"
            d="M25.14,57.65a1.74,1.74,0,1,1,1.73-1.74A1.74,1.74,0,0,1,25.14,57.65Zm0-3a1.28,1.28,0,1,0,1.27,1.27A1.27,1.27,0,0,0,25.14,54.64Z" />
        <path class="cls-2" d="M19.9,53.72a1.51,1.51,0,1,1-1.5-1.51A1.5,1.5,0,0,1,19.9,53.72Z" />
        <path class="cls-2"
            d="M18.4,55.45a1.74,1.74,0,1,1,1.74-1.73A1.74,1.74,0,0,1,18.4,55.45Zm0-3a1.28,1.28,0,1,0,1.27,1.28A1.28,1.28,0,0,0,18.4,52.44Z" />
        <path class="cls-2" d="M20,54.45a.76.76,0,1,1-.75-.75A.76.76,0,0,1,20,54.45Z" />
        <path class="cls-2"
            d="M19.24,55.32a.87.87,0,1,1,.87-.87A.87.87,0,0,1,19.24,55.32Zm0-1.5a.64.64,0,1,0,.63.63A.63.63,0,0,0,19.24,53.82Z" />
        <path class="cls-2" d="M21.74,54.29a.68.68,0,1,1-.67-.67A.67.67,0,0,1,21.74,54.29Z" />
        <path class="cls-2"
            d="M21.07,55.07a.78.78,0,1,1,.77-.78A.78.78,0,0,1,21.07,55.07Zm0-1.34a.57.57,0,1,0,.56.56A.56.56,0,0,0,21.07,53.73Z" />
        <path class="cls-2" d="M21,53.64a1,1,0,1,1-1-1A1,1,0,0,1,21,53.64Z" />
        <path class="cls-2"
            d="M20,54.75a1.11,1.11,0,1,1,1.1-1.11A1.11,1.11,0,0,1,20,54.75Zm0-1.91a.81.81,0,1,0,.81.8A.8.8,0,0,0,20,52.84Z" />
        <path class="cls-2" d="M19,53.16a.22.22,0,0,1-.44,0,.22.22,0,0,1,.44,0Z" />
        <path class="cls-2"
            d="M18.76,53.42a.26.26,0,1,1,.25-.26A.26.26,0,0,1,18.76,53.42Zm0-.44a.18.18,0,0,0-.18.18.18.18,0,1,0,.36,0A.18.18,0,0,0,18.76,53Z" />
        <path class="cls-2" d="M21.43,52.56a.22.22,0,1,1-.22-.22A.22.22,0,0,1,21.43,52.56Z" />
        <path class="cls-2"
            d="M21.21,52.81a.25.25,0,1,1,.25-.25A.25.25,0,0,1,21.21,52.81Zm0-.43a.19.19,0,0,0-.19.18.2.2,0,0,0,.19.19.19.19,0,0,0,.18-.19A.18.18,0,0,0,21.21,52.38Z" />
        <path class="cls-2" d="M26.16,52.11a.42.42,0,0,1-.83,0,.42.42,0,1,1,.83,0Z" />
        <path class="cls-2"
            d="M25.74,52.59a.48.48,0,0,1-.47-.48.48.48,0,1,1,.95,0A.48.48,0,0,1,25.74,52.59Zm0-.83a.35.35,0,0,0-.35.35.36.36,0,0,0,.71,0A.35.35,0,0,0,25.74,51.76Z" />
        <path class="cls-2" d="M21.68,48.54a1,1,0,0,1-1.91,0,1,1,0,1,1,1.91,0Z" />
        <path class="cls-2"
            d="M20.73,49.64a1.11,1.11,0,1,1,1.1-1.1A1.11,1.11,0,0,1,20.73,49.64Zm0-1.91a.81.81,0,1,0,0,1.62.81.81,0,0,0,0-1.62Z" />
        <path class="cls-2"
            d="M18.52,48.8a.69.69,0,0,1-.69.69.69.69,0,0,1,0-1.38A.69.69,0,0,1,18.52,48.8Z" />
        <path class="cls-2"
            d="M17.83,49.59a.79.79,0,1,1,.8-.79A.79.79,0,0,1,17.83,49.59Zm0-1.37a.58.58,0,0,0,0,1.16.58.58,0,1,0,0-1.16Z" />
        <path class="cls-2" d="M28.26,39.62a1,1,0,1,1-1-1A1,1,0,0,1,28.26,39.62Z" />
        <path class="cls-2"
            d="M27.28,40.75a1.13,1.13,0,1,1,1.13-1.13A1.13,1.13,0,0,1,27.28,40.75Zm0-2a.83.83,0,1,0,.83.83A.83.83,0,0,0,27.28,38.79Z" />
        <path class="cls-2" d="M26.58,50.78a.52.52,0,1,1-.52-.52A.52.52,0,0,1,26.58,50.78Z" />
        <path class="cls-2"
            d="M26.06,51.38a.6.6,0,1,1,.6-.6A.6.6,0,0,1,26.06,51.38Zm0-1a.44.44,0,1,0,.44.44A.44.44,0,0,0,26.06,50.34Z" />
        <path class="cls-2" d="M22.23,51.25a.52.52,0,1,1-.52-.52A.51.51,0,0,1,22.23,51.25Z" />
        <path class="cls-2"
            d="M21.71,51.84a.6.6,0,1,1,.6-.59A.6.6,0,0,1,21.71,51.84Zm0-1a.44.44,0,1,0,.44.44A.44.44,0,0,0,21.71,50.81Z" />
        <path class="cls-4"
            d="M30.27,59.17a.53.53,0,0,1-.53.53.53.53,0,0,1-.53-.53.53.53,0,0,1,.53-.53A.52.52,0,0,1,30.27,59.17Z" />
        <path class="cls-4"
            d="M29.74,59.78a.62.62,0,1,1,.61-.61A.61.61,0,0,1,29.74,59.78Zm0-1.06a.45.45,0,1,0,0,.89.45.45,0,1,0,0-.89Z" />
        <path class="cls-4" d="M32.94,55.34a.74.74,0,1,1-.73-.73A.74.74,0,0,1,32.94,55.34Z" />
        <path class="cls-4"
            d="M32.21,56.19a.85.85,0,1,1,.84-.85A.85.85,0,0,1,32.21,56.19Zm0-1.47a.62.62,0,0,0-.62.62.61.61,0,0,0,.62.62.62.62,0,0,0,.62-.62A.62.62,0,0,0,32.21,54.72Z" />
        <path class="cls-4" d="M36.29,51.85a.67.67,0,1,1-.67-.68A.67.67,0,0,1,36.29,51.85Z" />
        <path class="cls-4"
            d="M35.62,52.62a.78.78,0,0,1,0-1.55.78.78,0,1,1,0,1.55Zm0-1.34a.57.57,0,1,0,.57.57A.57.57,0,0,0,35.62,51.28Z" />
        <path class="cls-4" d="M35.9,59.67a1.22,1.22,0,1,1-2.43,0,1.22,1.22,0,0,1,2.43,0Z" />
        <path class="cls-4"
            d="M34.68,61.07a1.4,1.4,0,1,1,1.4-1.4A1.4,1.4,0,0,1,34.68,61.07Zm0-2.43a1,1,0,1,0,0,2.06,1,1,0,0,0,0-2.06Z" />
        <path class="cls-4" d="M33.37,59.47A1.51,1.51,0,1,1,31.86,58,1.5,1.5,0,0,1,33.37,59.47Z" />
        <path class="cls-4"
            d="M31.86,61.2a1.74,1.74,0,1,1,1.74-1.73A1.74,1.74,0,0,1,31.86,61.2Zm0-3a1.28,1.28,0,1,0,1.28,1.28A1.27,1.27,0,0,0,31.86,58.19Z" />
        <path class="cls-4" d="M30.48,58.7a.75.75,0,1,1-.75-.75A.75.75,0,0,1,30.48,58.7Z" />
        <path class="cls-4"
            d="M29.73,59.57a.87.87,0,1,1,.87-.87A.87.87,0,0,1,29.73,59.57Zm0-1.5a.64.64,0,0,0-.64.63.64.64,0,0,0,1.28,0A.64.64,0,0,0,29.73,58.07Z" />
        <path class="cls-4" d="M36.07,57.78a.67.67,0,1,1-.67-.68A.67.67,0,0,1,36.07,57.78Z" />
        <path class="cls-4"
            d="M35.4,58.55a.78.78,0,0,1,0-1.55.78.78,0,1,1,0,1.55Zm0-1.34a.57.57,0,0,0-.57.57.58.58,0,0,0,.57.57.57.57,0,0,0,.57-.57A.56.56,0,0,0,35.4,57.21Z" />
        <path class="cls-4" d="M33.74,58.27a.22.22,0,1,1-.21-.22A.21.21,0,0,1,33.74,58.27Z" />
        <path class="cls-4"
            d="M33.53,58.52a.25.25,0,1,1,.25-.25A.26.26,0,0,1,33.53,58.52Zm0-.43a.18.18,0,1,0,0,.36.18.18,0,1,0,0-.36Z" />
        <path class="cls-4"
            d="M31.66,58.37a.21.21,0,0,1-.21.21.21.21,0,0,1-.22-.21.22.22,0,0,1,.22-.22A.21.21,0,0,1,31.66,58.37Z" />
        <path class="cls-4"
            d="M31.45,58.62a.25.25,0,1,1,.25-.25A.26.26,0,0,1,31.45,58.62Zm0-.44a.19.19,0,0,0-.19.19.18.18,0,0,0,.19.18.18.18,0,0,0,.18-.18A.19.19,0,0,0,31.45,58.18Z" />
        <path class="cls-4" d="M37,59.5a.42.42,0,0,1-.42.42.42.42,0,0,1,0-.83A.42.42,0,0,1,37,59.5Z" />
        <path class="cls-4"
            d="M36.59,60a.48.48,0,1,1,.48-.48A.47.47,0,0,1,36.59,60Zm0-.83a.36.36,0,0,0,0,.71.36.36,0,0,0,0-.71Z" />
        <path class="cls-4" d="M33.29,47.16a1.43,1.43,0,1,1-1.43-1.43A1.43,1.43,0,0,1,33.29,47.16Z" />
        <path class="cls-4"
            d="M31.86,48.81a1.65,1.65,0,1,1,1.65-1.65A1.65,1.65,0,0,1,31.86,48.81Zm0-2.86a1.21,1.21,0,1,0,1.21,1.21A1.21,1.21,0,0,0,31.86,46Z" />
        <path class="cls-4" d="M31.34,51.36a.32.32,0,0,1-.63,0,.32.32,0,1,1,.63,0Z" />
        <path class="cls-4"
            d="M31,51.72a.37.37,0,0,1-.37-.36A.38.38,0,0,1,31,51a.37.37,0,0,1,.36.37A.36.36,0,0,1,31,51.72Zm0-.63a.27.27,0,1,0,0,.53.27.27,0,0,0,0-.53Z" />
        <path class="cls-4" d="M34.81,57.78a.52.52,0,1,1-.52-.52A.51.51,0,0,1,34.81,57.78Z" />
        <path class="cls-4"
            d="M34.29,58.37a.59.59,0,0,1-.6-.59.6.6,0,0,1,1.2,0A.59.59,0,0,1,34.29,58.37Zm0-1a.44.44,0,1,0,.44.44A.44.44,0,0,0,34.29,57.34Z" />
        <path class="cls-4" d="M30.75,54.38a.52.52,0,1,1-1,0,.52.52,0,1,1,1,0Z" />
        <path class="cls-4"
            d="M30.23,55a.6.6,0,1,1,.6-.6A.6.6,0,0,1,30.23,55Zm0-1a.44.44,0,1,0,.44.44A.44.44,0,0,0,30.23,53.94Z" />
        <path class="cls-5"
            d="M40.56,55a.53.53,0,0,1-.53.53.53.53,0,0,1,0-1.06A.53.53,0,0,1,40.56,55Z" />
        <path class="cls-5"
            d="M40,55.62a.61.61,0,1,1,.62-.61A.61.61,0,0,1,40,55.62Zm0-1.06a.45.45,0,1,0,.45.45A.45.45,0,0,0,40,54.56Z" />
        <path class="cls-5" d="M45.07,52.07a.74.74,0,1,1-.74-.73A.74.74,0,0,1,45.07,52.07Z" />
        <path class="cls-5"
            d="M44.33,52.92a.85.85,0,1,1,.85-.85A.85.85,0,0,1,44.33,52.92Zm0-1.47a.62.62,0,1,0,.62.62A.62.62,0,0,0,44.33,51.45Z" />
        <path class="cls-5"
            d="M43.18,44.45a.68.68,0,0,1-.68.67.68.68,0,0,1,0-1.35A.68.68,0,0,1,43.18,44.45Z" />
        <path class="cls-5"
            d="M42.5,45.22a.78.78,0,1,1,.78-.77A.78.78,0,0,1,42.5,45.22Zm0-1.34a.57.57,0,1,0,0,1.13.57.57,0,1,0,0-1.13Z" />
        <path class="cls-5" d="M42.67,49.69a1.22,1.22,0,0,1-2.43,0,1.22,1.22,0,1,1,2.43,0Z" />
        <path class="cls-5"
            d="M41.46,51.09a1.4,1.4,0,1,1,1.4-1.4A1.4,1.4,0,0,1,41.46,51.09Zm0-2.43a1,1,0,1,0,1,1A1,1,0,0,0,41.46,48.66Z" />
        <path class="cls-5" d="M42.1,56a.94.94,0,1,1-.94-.94A.94.94,0,0,1,42.1,56Z" />
        <path class="cls-5"
            d="M41.16,57.05A1.09,1.09,0,1,1,42.25,56,1.09,1.09,0,0,1,41.16,57.05Zm0-1.89a.8.8,0,1,0,.8.8A.8.8,0,0,0,41.16,55.16Z" />
        <path class="cls-5" d="M41.28,53.72a.76.76,0,1,1-.76-.76A.76.76,0,0,1,41.28,53.72Z" />
        <path class="cls-5"
            d="M40.52,54.58a.87.87,0,1,1,.87-.86A.87.87,0,0,1,40.52,54.58Zm0-1.5a.64.64,0,1,0,.64.64A.64.64,0,0,0,40.52,53.08Z" />
        <path class="cls-5" d="M46.86,54.87a.68.68,0,1,1-.68-.67A.67.67,0,0,1,46.86,54.87Z" />
        <path class="cls-5"
            d="M46.18,55.65a.78.78,0,1,1,.78-.78A.78.78,0,0,1,46.18,55.65Zm0-1.34a.57.57,0,1,0,.57.56A.56.56,0,0,0,46.18,54.31Z" />
        <path class="cls-5" d="M45,54.87a.22.22,0,1,1-.22-.21A.22.22,0,0,1,45,54.87Z" />
        <path class="cls-5"
            d="M44.82,55.13a.26.26,0,1,1,.25-.26A.26.26,0,0,1,44.82,55.13Zm0-.44a.19.19,0,1,0,0,.37.18.18,0,0,0,.18-.19A.18.18,0,0,0,44.82,54.69Z" />
        <path class="cls-5"
            d="M39.59,49a.22.22,0,0,1-.22.22.22.22,0,0,1,0-.44A.22.22,0,0,1,39.59,49Z" />
        <path class="cls-5"
            d="M39.37,49.25a.25.25,0,1,1,.25-.25A.25.25,0,0,1,39.37,49.25Zm0-.43a.18.18,0,0,0,0,.36.18.18,0,1,0,0-.36Z" />
        <path class="cls-5" d="M47,56.59a.42.42,0,1,1-.83,0,.42.42,0,0,1,.83,0Z" />
        <path class="cls-5"
            d="M46.53,57.07a.47.47,0,0,1-.47-.48.48.48,0,1,1,.47.48Zm0-.83a.35.35,0,0,0-.35.35.36.36,0,0,0,.71,0A.36.36,0,0,0,46.53,56.24Z" />
        <path class="cls-5" d="M45.93,56.12a.74.74,0,1,1-.74-.74A.74.74,0,0,1,45.93,56.12Z" />
        <path class="cls-5"
            d="M45.19,57a.86.86,0,0,1-.85-.86.85.85,0,0,1,.85-.85.86.86,0,1,1,0,1.71Zm0-1.48a.63.63,0,1,0,.63.62A.62.62,0,0,0,45.19,55.5Z" />
        <path class="cls-5" d="M43.42,40.9a.71.71,0,1,1-.71-.71A.71.71,0,0,1,43.42,40.9Z" />
        <path class="cls-5"
            d="M42.71,41.73a.83.83,0,1,1,.82-.83A.83.83,0,0,1,42.71,41.73Zm0-1.43a.61.61,0,1,0,.6.6A.6.6,0,0,0,42.71,40.3Z" />
        <path class="cls-4" d="M35.84,54.87a.49.49,0,1,1-.49-.49A.49.49,0,0,1,35.84,54.87Z" />
        <path class="cls-4"
            d="M35.35,55.43a.56.56,0,1,1,.56-.56A.56.56,0,0,1,35.35,55.43Zm0-1a.41.41,0,0,0-.41.41.42.42,0,0,0,.41.41.41.41,0,0,0,.41-.41A.41.41,0,0,0,35.35,54.46Z" />
        <path class="cls-2" d="M24.67,54a1.35,1.35,0,1,1-1.35-1.35A1.35,1.35,0,0,1,24.67,54Z" />
        <path class="cls-2"
            d="M23.32,55.5A1.55,1.55,0,1,1,24.87,54,1.56,1.56,0,0,1,23.32,55.5Zm0-2.69A1.14,1.14,0,1,0,24.46,54,1.14,1.14,0,0,0,23.32,52.81Z" />
        <path class="cls-4" d="M32.89,56.78a1,1,0,1,1-1-1A1,1,0,0,1,32.89,56.78Z" />
        <path class="cls-4"
            d="M31.86,58a1.19,1.19,0,0,1,0-2.38,1.19,1.19,0,0,1,0,2.38Zm0-2.07a.88.88,0,1,0,.87.88A.88.88,0,0,0,31.86,55.9Z" />
        <path class="cls-4" d="M38,58.32a1.21,1.21,0,1,1-1.21-1.21A1.22,1.22,0,0,1,38,58.32Z" />
        <path class="cls-4"
            d="M36.81,59.72a1.4,1.4,0,1,1,1.4-1.4A1.4,1.4,0,0,1,36.81,59.72Zm0-2.42a1,1,0,1,0,1,1A1,1,0,0,0,36.81,57.3Z" />
        <path class="cls-5"
            d="M42.14,52.55a.68.68,0,0,1-.69.68.67.67,0,0,1-.68-.68.68.68,0,0,1,.68-.69A.69.69,0,0,1,42.14,52.55Z" />
        <path class="cls-5"
            d="M41.45,53.34a.8.8,0,1,1,.8-.79A.8.8,0,0,1,41.45,53.34Zm0-1.38a.59.59,0,1,0,.59.59A.58.58,0,0,0,41.45,52Z" />
        <path class="cls-5" d="M43.62,50.7a.69.69,0,0,1-1.38,0,.69.69,0,0,1,1.38,0Z" />
        <path class="cls-5"
            d="M42.93,51.5a.8.8,0,1,1,.79-.8A.79.79,0,0,1,42.93,51.5Zm0-1.38a.59.59,0,1,0,.58.58A.58.58,0,0,0,42.93,50.12Z" />
        <path class="cls-5" d="M43.08,51.68a.69.69,0,1,1-.69-.69A.69.69,0,0,1,43.08,51.68Z" />
        <path class="cls-5"
            d="M42.39,52.47a.79.79,0,1,1,.79-.79A.79.79,0,0,1,42.39,52.47Zm0-1.37a.58.58,0,1,0,.58.58A.58.58,0,0,0,42.39,51.1Z" />
        <path class="cls-5"
            d="M41.34,52.48a.67.67,0,0,1-.68.68.68.68,0,0,1-.69-.68.69.69,0,0,1,.69-.69A.68.68,0,0,1,41.34,52.48Z" />
        <path class="cls-5"
            d="M40.66,53.27a.8.8,0,1,1,.79-.79A.8.8,0,0,1,40.66,53.27Zm0-1.37a.58.58,0,1,0,0,1.16.58.58,0,0,0,0-1.16Z" />
        <path class="cls-5"
            d="M41.44,50.27a.57.57,0,0,1-.57.56.56.56,0,0,1,0-1.12A.57.57,0,0,1,41.44,50.27Z" />
        <path class="cls-5"
            d="M40.87,50.92a.65.65,0,1,1,.65-.65A.65.65,0,0,1,40.87,50.92Zm0-1.13a.48.48,0,1,0,.48.48A.48.48,0,0,0,40.87,49.79Z" />
        <path class="cls-5" d="M44,46.84a.57.57,0,1,1-.57-.56A.56.56,0,0,1,44,46.84Z" />
        <path class="cls-5"
            d="M43.43,47.49a.65.65,0,1,1,.65-.65A.66.66,0,0,1,43.43,47.49Zm0-1.13a.48.48,0,1,0,.48.48A.48.48,0,0,0,43.43,46.36Z" />
        <path class="cls-2" d="M27.58,53.9a1.51,1.51,0,1,1-1.51-1.51A1.51,1.51,0,0,1,27.58,53.9Z" />
        <path class="cls-2"
            d="M26.07,55.64a1.74,1.74,0,1,1,1.74-1.74A1.74,1.74,0,0,1,26.07,55.64Zm0-3a1.28,1.28,0,1,0,1.28,1.28A1.28,1.28,0,0,0,26.07,52.62Z" />
        <path class="cls-2" d="M24.38,51.07a1,1,0,1,1-1-1A1,1,0,0,1,24.38,51.07Z" />
        <path class="cls-2"
            d="M23.35,52.26a1.19,1.19,0,0,1,0-2.38,1.19,1.19,0,0,1,0,2.38Zm0-2.06a.87.87,0,1,0,.87.87A.87.87,0,0,0,23.35,50.2Z" />
        <path class="cls-2" d="M20.93,51.55A1.51,1.51,0,1,1,19.43,50,1.51,1.51,0,0,1,20.93,51.55Z" />
        <path class="cls-2"
            d="M19.43,53.29a1.74,1.74,0,1,1,1.73-1.74A1.74,1.74,0,0,1,19.43,53.29Zm0-3a1.28,1.28,0,1,0,1.27,1.27A1.27,1.27,0,0,0,19.43,50.28Z" />
        <path class="cls-2"
            d="M19.19,46.06a.69.69,0,0,1-.69.69.68.68,0,0,1-.68-.69.67.67,0,0,1,.68-.68A.68.68,0,0,1,19.19,46.06Z" />
        <path class="cls-2"
            d="M18.5,46.86a.8.8,0,1,1,.8-.8A.8.8,0,0,1,18.5,46.86Zm0-1.38a.58.58,0,0,0-.58.58.58.58,0,1,0,1.16,0A.58.58,0,0,0,18.5,45.48Z" />
        <path class="cls-2" d="M23.9,46.5a.69.69,0,0,1-1.38,0,.69.69,0,1,1,1.38,0Z" />
        <path class="cls-2"
            d="M23.21,47.29A.8.8,0,1,1,24,46.5.79.79,0,0,1,23.21,47.29Zm0-1.38a.59.59,0,0,0-.58.59.58.58,0,1,0,1.16,0A.59.59,0,0,0,23.21,45.91Z" />
        <path class="cls-2"
            d="M21.27,44.19a.69.69,0,0,1-.69.69.69.69,0,0,1,0-1.38A.69.69,0,0,1,21.27,44.19Z" />
        <path class="cls-2"
            d="M20.58,45a.8.8,0,0,1-.79-.8.8.8,0,0,1,1.59,0A.8.8,0,0,1,20.58,45Zm0-1.38a.58.58,0,0,0,0,1.16.58.58,0,1,0,0-1.16Z" />
        <path class="cls-2"
            d="M26.52,35.09a.69.69,0,0,1-.69.69.68.68,0,0,1-.68-.69.67.67,0,0,1,.68-.68A.68.68,0,0,1,26.52,35.09Z" />
        <path class="cls-2"
            d="M25.83,35.89a.8.8,0,1,1,.8-.8A.8.8,0,0,1,25.83,35.89Zm0-1.38a.58.58,0,0,0-.58.58.59.59,0,0,0,.58.59.6.6,0,0,0,.59-.59A.59.59,0,0,0,25.83,34.51Z" />
        <path class="cls-2" d="M32,35.93a1,1,0,1,1-1-1A1,1,0,0,1,32,35.93Z" />
        <path class="cls-2"
            d="M31,37.08a1.15,1.15,0,1,1,1.15-1.15A1.15,1.15,0,0,1,31,37.08Zm0-2a.84.84,0,0,0-.85.84.85.85,0,1,0,1.69,0A.84.84,0,0,0,31,35.09Z" />
        <path class="cls-2" d="M31.19,29.5a.69.69,0,0,1-1.37,0,.69.69,0,1,1,1.37,0Z" />
        <path class="cls-2"
            d="M30.51,30.29a.8.8,0,1,1,.79-.79A.8.8,0,0,1,30.51,30.29Zm0-1.38a.59.59,0,1,0,.58.59A.58.58,0,0,0,30.51,28.91Z" />
        <path class="cls-2" d="M26.91,44.45a1,1,0,1,1-1-1A1,1,0,0,1,26.91,44.45Z" />
        <path class="cls-2"
            d="M25.93,45.57a1.13,1.13,0,1,1,1.13-1.12A1.12,1.12,0,0,1,25.93,45.57Zm0-2a.83.83,0,1,0,.83.83A.83.83,0,0,0,25.93,43.62Z" />
        <path class="cls-2" d="M18.94,42a1.73,1.73,0,1,1-1.73-1.73A1.74,1.74,0,0,1,18.94,42Z" />
        <path class="cls-2"
            d="M17.21,44a2,2,0,1,1,2-2A2,2,0,0,1,17.21,44Zm0-3.47a1.47,1.47,0,1,0,0,2.93,1.47,1.47,0,0,0,0-2.93Z" />
        <path class="cls-4" d="M34.82,57.39a1.3,1.3,0,1,1-1.29-1.29A1.3,1.3,0,0,1,34.82,57.39Z" />
        <path class="cls-4"
            d="M33.53,58.89A1.5,1.5,0,1,1,35,57.39,1.5,1.5,0,0,1,33.53,58.89Zm0-2.59a1.1,1.1,0,1,0,1.09,1.09A1.09,1.09,0,0,0,33.53,56.3Z" />
        <path class="cls-4" d="M34.4,43.12a.78.78,0,1,1-.78-.78A.78.78,0,0,1,34.4,43.12Z" />
        <path class="cls-4"
            d="M33.62,44a.9.9,0,1,1,.9-.9A.9.9,0,0,1,33.62,44Zm0-1.56a.66.66,0,1,0,.66.66A.66.66,0,0,0,33.62,42.46Z" />
        <path class="cls-4"
            d="M34.94,33.12a.56.56,0,0,1-.57.57.57.57,0,0,1-.57-.57.58.58,0,0,1,.57-.57A.57.57,0,0,1,34.94,33.12Z" />
        <path class="cls-4"
            d="M34.37,33.78a.66.66,0,1,1,.66-.66A.66.66,0,0,1,34.37,33.78Zm0-1.14a.49.49,0,1,0,.48.48A.48.48,0,0,0,34.37,32.64Z" />
        <path class="cls-4"
            d="M34.18,52.5a.57.57,0,0,1-.57.56.57.57,0,1,1,0-1.13A.57.57,0,0,1,34.18,52.5Z" />
        <path class="cls-4"
            d="M33.61,53.15a.66.66,0,1,1,.66-.65A.66.66,0,0,1,33.61,53.15Zm0-1.14a.49.49,0,1,0,.48.49A.49.49,0,0,0,33.61,52Z" />
        <path class="cls-4" d="M37.76,45.57a.78.78,0,1,1-.78-.79A.78.78,0,0,1,37.76,45.57Z" />
        <path class="cls-4"
            d="M37,46.47a.91.91,0,1,1,.9-.9A.9.9,0,0,1,37,46.47Zm0-1.57a.67.67,0,1,0,.66.67A.66.66,0,0,0,37,44.9Z" />
        <path class="cls-5" d="M45.25,49A1.25,1.25,0,1,1,44,47.72,1.25,1.25,0,0,1,45.25,49Z" />
        <path class="cls-5"
            d="M44,50.41A1.44,1.44,0,1,1,45.44,49,1.44,1.44,0,0,1,44,50.41Zm0-2.49a1,1,0,1,0,1.05,1A1.05,1.05,0,0,0,44,47.92Z" />
        <path class="cls-5"
            d="M87,7a.57.57,0,0,1-.57.56A.56.56,0,0,1,85.86,7a.57.57,0,0,1,.56-.57A.58.58,0,0,1,87,7Z" />
        <path class="cls-5"
            d="M86.42,7.61A.65.65,0,1,1,87.07,7,.66.66,0,0,1,86.42,7.61Zm0-1.13A.48.48,0,1,0,86.9,7,.47.47,0,0,0,86.42,6.48Z" />
        <path class="cls-5" d="M41.71,50.89a1.25,1.25,0,1,1-1.24-1.25A1.25,1.25,0,0,1,41.71,50.89Z" />
        <path class="cls-5"
            d="M40.47,52.33a1.44,1.44,0,1,1,1.43-1.44A1.44,1.44,0,0,1,40.47,52.33Zm0-2.49a1,1,0,1,0,1.05,1A1.06,1.06,0,0,0,40.47,49.84Z" />
        <path class="cls-5" d="M47.49,46.26A1.25,1.25,0,1,1,46.25,45,1.24,1.24,0,0,1,47.49,46.26Z" />
        <path class="cls-5"
            d="M46.25,47.69a1.44,1.44,0,1,1,1.44-1.43A1.44,1.44,0,0,1,46.25,47.69Zm0-2.49a1.06,1.06,0,1,0,0,2.11,1.06,1.06,0,0,0,0-2.11Z" />
        <path class="cls-5" d="M42.18,46.88a1.25,1.25,0,1,1-1.25-1.25A1.25,1.25,0,0,1,42.18,46.88Z" />
        <path class="cls-5"
            d="M40.93,48.31a1.44,1.44,0,1,1,1.44-1.43A1.43,1.43,0,0,1,40.93,48.31Zm0-2.49A1.06,1.06,0,1,0,42,46.88,1.05,1.05,0,0,0,40.93,45.82Z" />
        <path class="cls-5" d="M48.35,50.43a1.25,1.25,0,1,1-1.24-1.24A1.24,1.24,0,0,1,48.35,50.43Z" />
        <path class="cls-5"
            d="M47.11,51.87a1.44,1.44,0,1,1,1.43-1.44A1.43,1.43,0,0,1,47.11,51.87Zm0-2.49a1.06,1.06,0,1,0,1,1A1.06,1.06,0,0,0,47.11,49.38Z" />
        <path class="cls-5" d="M46,50.43a1.25,1.25,0,1,1-1.25-1.24A1.25,1.25,0,0,1,46,50.43Z" />
        <path class="cls-5"
            d="M44.76,51.87a1.44,1.44,0,1,1,1.44-1.44A1.43,1.43,0,0,1,44.76,51.87Zm0-2.49a1.06,1.06,0,0,0,0,2.11,1.06,1.06,0,1,0,0-2.11Z" />
        <path class="cls-2" d="M17.2,46.06A1.16,1.16,0,1,1,16,44.9,1.16,1.16,0,0,1,17.2,46.06Z" />
        <path class="cls-2"
            d="M16,47.41a1.35,1.35,0,1,1,1.34-1.35A1.35,1.35,0,0,1,16,47.41Zm0-2.33a1,1,0,1,0,1,1A1,1,0,0,0,16,45.08Z" />
        <path class="cls-2" d="M22.4,37.12a.69.69,0,1,1-.69-.69A.69.69,0,0,1,22.4,37.12Z" />
        <path class="cls-2"
            d="M21.71,37.91a.79.79,0,1,1,.79-.79A.79.79,0,0,1,21.71,37.91Zm0-1.37a.58.58,0,1,0,.58.58A.58.58,0,0,0,21.71,36.54Z" />
        <path class="cls-2" d="M25.5,48.89a.69.69,0,1,1-.69-.69A.69.69,0,0,1,25.5,48.89Z" />
        <path class="cls-2"
            d="M24.81,49.68a.8.8,0,1,1,.79-.79A.79.79,0,0,1,24.81,49.68Zm0-1.38a.59.59,0,1,0,.58.59A.58.58,0,0,0,24.81,48.3Z" />
        <path class="cls-5" d="M41.55,42.3a.72.72,0,1,1-.72-.71A.71.71,0,0,1,41.55,42.3Z" />
        <path class="cls-5"
            d="M40.83,43.12a.82.82,0,1,1,.83-.82A.82.82,0,0,1,40.83,43.12Zm0-1.42a.6.6,0,1,0,.61.6A.6.6,0,0,0,40.83,41.7Z" />
        <path class="cls-5" d="M38.3,38a.72.72,0,1,1-.72-.71A.71.71,0,0,1,38.3,38Z" />
        <path class="cls-5"
            d="M37.58,38.84a.82.82,0,0,1,0-1.64.82.82,0,1,1,0,1.64Zm0-1.42a.6.6,0,1,0,.61.6A.6.6,0,0,0,37.58,37.42Z" />
        <rect class="cls-2" x="16.81" y="54.97" width="9.62" height="13.38" />
        <rect class="cls-4" x="27.81" y="58.71" width="9.62" height="13.47" />
        <rect class="cls-5" x="39.03" y="50.79" width="9.62" height="13.47" />
    </g>
    <path class="cls-3"
        d="M31.86,68.21a19.25,19.25,0,0,1-6-37.52V20.12H24.75a1.18,1.18,0,0,1-1.18-1.18V17.36a1.18,1.18,0,0,1,1.18-1.19H39a1.19,1.19,0,0,1,1.19,1.19v1.58A1.18,1.18,0,0,1,39,20.12H37.9V30.69a19.25,19.25,0,0,1-6,37.52Zm-7.11-51a.17.17,0,0,0-.17.17v1.58a.18.18,0,0,0,.17.17h1.58a.51.51,0,0,1,.51.51V31.06a.5.5,0,0,1-.36.48,18.23,18.23,0,1,0,10.76,0,.5.5,0,0,1-.35-.48V19.62a.5.5,0,0,1,.5-.51H39a.17.17,0,0,0,.17-.17V17.36a.16.16,0,0,0-.17-.17Z" />
    <path class="cls-2" d="M35.35,11.24A1.73,1.73,0,1,1,33.62,9.5,1.73,1.73,0,0,1,35.35,11.24Z" />
    <path class="cls-2"
        d="M33.62,13.24a2,2,0,1,1,2-2A2,2,0,0,1,33.62,13.24Zm0-3.47a1.47,1.47,0,1,0,1.47,1.47A1.47,1.47,0,0,0,33.62,9.77Z" />
</svg>