<?xml version="1.0" encoding="utf-8"?>
<!-- Generator: Adobe Illustrator 17.1.0, SVG Export Plug-In . SVG Version: 6.00 Build 0)  -->
<!DOCTYPE svg PUBLIC "-//W3C//DTD SVG 1.1//EN" "http://www.w3.org/Graphics/SVG/1.1/DTD/svg11.dtd">
<svg version="1.1" xmlns="http://www.w3.org/2000/svg" xmlns:xlink="http://www.w3.org/1999/xlink" x="0px" y="0px"
	 viewBox="0 0 62 62" enable-background="new 0 0 62 62" xml:space="preserve">
<g id="Layer_1">
	<g>
		<g>
			<circle fill="#C03A2B" cx="30.7" cy="17.7" r="1.2"/>
			<path fill="#C03A2B" d="M30.7,19.1c-0.8,0-1.4-0.6-1.4-1.4c0-0.8,0.6-1.4,1.4-1.4c0.8,0,1.4,0.6,1.4,1.4
				C32.1,18.5,31.5,19.1,30.7,19.1z M30.7,16.6c-0.6,0-1.1,0.5-1.1,1.1c0,0.6,0.5,1.1,1.1,1.1c0.6,0,1.1-0.5,1.1-1.1
				C31.8,17.1,31.3,16.6,30.7,16.6z"/>
		</g>
		<g>
			<defs>
				<path id="SVGID_3_" d="M25,14.1h1c0.6,0,1,0.5,1,1v10.3c0,0.4-0.3,0.8-0.7,1c-6.7,2.1-11.2,8.1-11.2,15.1
					c0,8.7,7.1,15.8,15.8,15.8s15.8-7.1,15.8-15.8c0-7-4.5-13.1-11.2-15.1c-0.4-0.1-0.7-0.5-0.7-1V15.1c0-0.6,0.5-1,1-1h1v-0.6H25
					V14.1z"/>
			</defs>
			<clipPath id="SVGID_2_">
				<use xlink:href="#SVGID_3_"  overflow="visible"/>
			</clipPath>
			<g clip-path="url(#SVGID_2_)">
				<circle fill="#C03A2B" cx="18.2" cy="48.6" r="0.5"/>
				<path fill="#C03A2B" d="M18.2,49.2c-0.3,0-0.6-0.3-0.6-0.6c0-0.3,0.3-0.6,0.6-0.6c0.3,0,0.6,0.3,0.6,0.6
					C18.8,49,18.5,49.2,18.2,49.2z M18.2,48.2c-0.2,0-0.4,0.2-0.4,0.4c0,0.2,0.2,0.4,0.4,0.4c0.2,0,0.4-0.2,0.4-0.4
					C18.7,48.4,18.4,48.2,18.2,48.2z"/>
			</g>
			<g clip-path="url(#SVGID_2_)">
				<circle fill="#C03A2B" cx="20.9" cy="49.5" r="2.3"/>
				<path fill="#C03A2B" d="M20.9,52.1c-1.4,0-2.6-1.2-2.6-2.6c0-1.4,1.2-2.6,2.6-2.6c1.4,0,2.6,1.2,2.6,2.6
					C23.6,50.9,22.4,52.1,20.9,52.1z M20.9,47.5c-1.1,0-1.9,0.9-1.9,1.9c0,1.1,0.9,1.9,1.9,1.9c1.1,0,1.9-0.9,1.9-1.9
					C22.9,48.4,22,47.5,20.9,47.5z"/>
			</g>
			<g clip-path="url(#SVGID_2_)">
				<circle fill="#C03A2B" cx="25.5" cy="45.8" r="0.7"/>
				<path fill="#C03A2B" d="M25.5,46.7c-0.5,0-0.8-0.4-0.8-0.8c0-0.5,0.4-0.8,0.8-0.8c0.5,0,0.8,0.4,0.8,0.8
					C26.3,46.3,26,46.7,25.5,46.7z M25.5,45.2c-0.3,0-0.6,0.3-0.6,0.6c0,0.3,0.3,0.6,0.6,0.6c0.3,0,0.6-0.3,0.6-0.6
					C26.1,45.5,25.8,45.2,25.5,45.2z"/>
			</g>
			<g clip-path="url(#SVGID_2_)">
				<circle fill="#C03A2B" cx="18.5" cy="51.5" r="0.7"/>
				<path fill="#C03A2B" d="M18.5,52.3c-0.4,0-0.8-0.3-0.8-0.8c0-0.4,0.3-0.8,0.8-0.8c0.4,0,0.8,0.3,0.8,0.8
					C19.2,51.9,18.9,52.3,18.5,52.3z M18.5,50.9c-0.3,0-0.6,0.3-0.6,0.6c0,0.3,0.3,0.6,0.6,0.6c0.3,0,0.6-0.3,0.6-0.6
					C19,51.2,18.8,50.9,18.5,50.9z"/>
			</g>
			<g clip-path="url(#SVGID_2_)">
				<circle fill="#C03A2B" cx="24.5" cy="50.9" r="1.2"/>
				<path fill="#C03A2B" d="M24.5,52.3c-0.8,0-1.4-0.6-1.4-1.4c0-0.8,0.6-1.4,1.4-1.4c0.8,0,1.4,0.6,1.4,1.4
					C25.9,51.6,25.2,52.3,24.5,52.3z M24.5,49.8c-0.6,0-1,0.5-1,1c0,0.6,0.5,1,1,1c0.6,0,1-0.5,1-1C25.5,50.3,25,49.8,24.5,49.8z"/>
			</g>
			<g clip-path="url(#SVGID_2_)">
				<circle fill="#C03A2B" cx="24.3" cy="48.2" r="1.5"/>
				<path fill="#C03A2B" d="M24.3,49.9c-1,0-1.7-0.8-1.7-1.7c0-1,0.8-1.7,1.7-1.7c1,0,1.7,0.8,1.7,1.7C26,49.1,25.2,49.9,24.3,49.9z
					 M24.3,46.9c-0.7,0-1.3,0.6-1.3,1.3c0,0.7,0.6,1.3,1.3,1.3c0.7,0,1.3-0.6,1.3-1.3C25.5,47.5,25,46.9,24.3,46.9z"/>
			</g>
			<g clip-path="url(#SVGID_2_)">
				<circle fill="#C03A2B" cx="17.5" cy="46" r="1.5"/>
				<path fill="#C03A2B" d="M17.5,47.7c-1,0-1.7-0.8-1.7-1.7c0-1,0.8-1.7,1.7-1.7c1,0,1.7,0.8,1.7,1.7
					C19.3,46.9,18.5,47.7,17.5,47.7z M17.5,44.7c-0.7,0-1.3,0.6-1.3,1.3c0,0.7,0.6,1.3,1.3,1.3c0.7,0,1.3-0.6,1.3-1.3
					C18.8,45.3,18.2,44.7,17.5,44.7z"/>
			</g>
			<g clip-path="url(#SVGID_2_)">
				<circle fill="#C03A2B" cx="18.4" cy="46.7" r="0.8"/>
				<path fill="#C03A2B" d="M18.4,47.6c-0.5,0-0.9-0.4-0.9-0.9c0-0.5,0.4-0.9,0.9-0.9c0.5,0,0.9,0.4,0.9,0.9
					C19.2,47.2,18.9,47.6,18.4,47.6z M18.4,46.1c-0.4,0-0.6,0.3-0.6,0.6c0,0.4,0.3,0.6,0.6,0.6c0.4,0,0.6-0.3,0.6-0.6
					C19,46.4,18.7,46.1,18.4,46.1z"/>
			</g>
			<g clip-path="url(#SVGID_2_)">
				<circle fill="#C03A2B" cx="20.2" cy="46.6" r="0.7"/>
				<path fill="#C03A2B" d="M20.2,47.3c-0.4,0-0.8-0.3-0.8-0.8c0-0.4,0.3-0.8,0.8-0.8c0.4,0,0.8,0.3,0.8,0.8
					C21,47,20.6,47.3,20.2,47.3z M20.2,46c-0.3,0-0.6,0.3-0.6,0.6c0,0.3,0.3,0.6,0.6,0.6c0.3,0,0.6-0.3,0.6-0.6
					C20.8,46.3,20.5,46,20.2,46z"/>
			</g>
			<g clip-path="url(#SVGID_2_)">
				<circle fill="#C03A2B" cx="19.1" cy="45.9" r="1"/>
				<path fill="#C03A2B" d="M19.1,47c-0.6,0-1.1-0.5-1.1-1.1c0-0.6,0.5-1.1,1.1-1.1c0.6,0,1.1,0.5,1.1,1.1
					C20.2,46.5,19.7,47,19.1,47z M19.1,45.1c-0.4,0-0.8,0.4-0.8,0.8c0,0.4,0.4,0.8,0.8,0.8c0.4,0,0.8-0.4,0.8-0.8
					C19.9,45.5,19.6,45.1,19.1,45.1z"/>
			</g>
			<g clip-path="url(#SVGID_2_)">
				<circle fill="#C03A2B" cx="17.9" cy="45.4" r="0.2"/>
				<path fill="#C03A2B" d="M17.9,45.7c-0.1,0-0.3-0.1-0.3-0.3c0-0.1,0.1-0.3,0.3-0.3c0.1,0,0.3,0.1,0.3,0.3
					C18.1,45.6,18,45.7,17.9,45.7z M17.9,45.3c-0.1,0-0.2,0.1-0.2,0.2c0,0.1,0.1,0.2,0.2,0.2c0.1,0,0.2-0.1,0.2-0.2
					C18.1,45.3,18,45.3,17.9,45.3z"/>
			</g>
			<g clip-path="url(#SVGID_2_)">
				<circle fill="#C03A2B" cx="20.3" cy="44.8" r="0.2"/>
				<path fill="#C03A2B" d="M20.3,45.1c-0.1,0-0.3-0.1-0.3-0.3c0-0.1,0.1-0.3,0.3-0.3c0.1,0,0.3,0.1,0.3,0.3
					C20.6,45,20.5,45.1,20.3,45.1z M20.3,44.7c-0.1,0-0.2,0.1-0.2,0.2c0,0.1,0.1,0.2,0.2,0.2c0.1,0,0.2-0.1,0.2-0.2
					C20.5,44.7,20.4,44.7,20.3,44.7z"/>
			</g>
			<g clip-path="url(#SVGID_2_)">
				<circle fill="#C03A2B" cx="24.9" cy="44.4" r="0.4"/>
				<path fill="#C03A2B" d="M24.9,44.9c-0.3,0-0.5-0.2-0.5-0.5c0-0.3,0.2-0.5,0.5-0.5c0.3,0,0.5,0.2,0.5,0.5
					C25.4,44.6,25.1,44.9,24.9,44.9z M24.9,44c-0.2,0-0.4,0.2-0.4,0.4c0,0.2,0.2,0.4,0.4,0.4c0.2,0,0.4-0.2,0.4-0.4
					C25.2,44.2,25.1,44,24.9,44z"/>
			</g>
			<g clip-path="url(#SVGID_2_)">
				<circle fill="#C03A2B" cx="19.9" cy="40.8" r="1"/>
				<path fill="#C03A2B" d="M19.9,41.9c-0.6,0-1.1-0.5-1.1-1.1c0-0.6,0.5-1.1,1.1-1.1c0.6,0,1.1,0.5,1.1,1.1
					C21,41.4,20.5,41.9,19.9,41.9z M19.9,40c-0.4,0-0.8,0.4-0.8,0.8c0,0.4,0.4,0.8,0.8,0.8c0.4,0,0.8-0.4,0.8-0.8
					C20.7,40.4,20.3,40,19.9,40z"/>
			</g>
			<g clip-path="url(#SVGID_2_)">
				<circle fill="#C03A2B" cx="17" cy="41.1" r="0.7"/>
				<path fill="#C03A2B" d="M17,41.9c-0.4,0-0.8-0.4-0.8-0.8c0-0.4,0.4-0.8,0.8-0.8c0.4,0,0.8,0.4,0.8,0.8
					C17.8,41.5,17.4,41.9,17,41.9z M17,40.5c-0.3,0-0.6,0.3-0.6,0.6c0,0.3,0.3,0.6,0.6,0.6c0.3,0,0.6-0.3,0.6-0.6
					C17.6,40.8,17.3,40.5,17,40.5z"/>
			</g>
			<g clip-path="url(#SVGID_2_)">
				<circle fill="#C03A2B" cx="26.4" cy="31.9" r="1"/>
				<path fill="#C03A2B" d="M26.4,33c-0.6,0-1.1-0.5-1.1-1.1c0-0.6,0.5-1.1,1.1-1.1c0.6,0,1.1,0.5,1.1,1.1C27.5,32.5,27,33,26.4,33z
					 M26.4,31.1c-0.5,0-0.8,0.4-0.8,0.8c0,0.5,0.4,0.8,0.8,0.8c0.5,0,0.8-0.4,0.8-0.8C27.2,31.4,26.9,31.1,26.4,31.1z"/>
			</g>
			<g clip-path="url(#SVGID_2_)">
				<circle fill="#C03A2B" cx="25.2" cy="43.1" r="0.5"/>
				<path fill="#C03A2B" d="M25.2,43.7c-0.3,0-0.6-0.3-0.6-0.6c0-0.3,0.3-0.6,0.6-0.6c0.3,0,0.6,0.3,0.6,0.6
					C25.8,43.4,25.5,43.7,25.2,43.7z M25.2,42.6c-0.2,0-0.4,0.2-0.4,0.4c0,0.2,0.2,0.4,0.4,0.4c0.2,0,0.4-0.2,0.4-0.4
					C25.6,42.8,25.4,42.6,25.2,42.6z"/>
			</g>
			<g clip-path="url(#SVGID_2_)">
				<circle fill="#C03A2B" cx="20.8" cy="43.5" r="0.5"/>
				<path fill="#C03A2B" d="M20.8,44.1c-0.3,0-0.6-0.3-0.6-0.6c0-0.3,0.3-0.6,0.6-0.6c0.3,0,0.6,0.3,0.6,0.6
					C21.4,43.9,21.2,44.1,20.8,44.1z M20.8,43.1c-0.2,0-0.4,0.2-0.4,0.4c0,0.2,0.2,0.4,0.4,0.4c0.2,0,0.4-0.2,0.4-0.4
					C21.3,43.3,21.1,43.1,20.8,43.1z"/>
			</g>
			<g clip-path="url(#SVGID_2_)">
				<circle fill="#E64C3C" cx="28.9" cy="51.4" r="0.5"/>
				<path fill="#E64C3C" d="M28.9,52.1c-0.3,0-0.6-0.3-0.6-0.6c0-0.3,0.3-0.6,0.6-0.6c0.3,0,0.6,0.3,0.6,0.6
					C29.5,51.8,29.2,52.1,28.9,52.1z M28.9,51c-0.2,0-0.4,0.2-0.4,0.4c0,0.2,0.2,0.4,0.4,0.4c0.2,0,0.4-0.2,0.4-0.4
					C29.3,51.2,29.1,51,28.9,51z"/>
			</g>
			<g clip-path="url(#SVGID_2_)">
				<circle fill="#E64C3C" cx="31.3" cy="47.6" r="0.7"/>
				<path fill="#E64C3C" d="M31.3,48.5c-0.5,0-0.8-0.4-0.8-0.8c0-0.5,0.4-0.8,0.8-0.8c0.5,0,0.8,0.4,0.8,0.8
					C32.2,48.1,31.8,48.5,31.3,48.5z M31.3,47c-0.3,0-0.6,0.3-0.6,0.6c0,0.3,0.3,0.6,0.6,0.6c0.3,0,0.6-0.3,0.6-0.6
					C32,47.3,31.7,47,31.3,47z"/>
			</g>
			<g clip-path="url(#SVGID_2_)">
				<circle fill="#E64C3C" cx="34.8" cy="44.1" r="0.7"/>
				<path fill="#E64C3C" d="M34.8,44.9c-0.4,0-0.8-0.3-0.8-0.8c0-0.4,0.3-0.8,0.8-0.8c0.4,0,0.8,0.3,0.8,0.8
					C35.5,44.5,35.2,44.9,34.8,44.9z M34.8,43.6c-0.3,0-0.6,0.3-0.6,0.6c0,0.3,0.3,0.6,0.6,0.6c0.3,0,0.6-0.3,0.6-0.6
					C35.3,43.8,35.1,43.6,34.8,43.6z"/>
			</g>
			<g clip-path="url(#SVGID_2_)">
				<circle fill="#E64C3C" cx="33.8" cy="51.9" r="1.2"/>
				<path fill="#E64C3C" d="M33.8,53.3c-0.8,0-1.4-0.6-1.4-1.4c0-0.8,0.6-1.4,1.4-1.4c0.8,0,1.4,0.6,1.4,1.4
					C35.2,52.7,34.6,53.3,33.8,53.3z M33.8,50.9c-0.6,0-1,0.5-1,1c0,0.6,0.5,1,1,1c0.6,0,1-0.5,1-1C34.8,51.4,34.4,50.9,33.8,50.9z"
					/>
			</g>
			<g clip-path="url(#SVGID_2_)">
				<circle fill="#E64C3C" cx="31" cy="51.7" r="1.5"/>
				<path fill="#E64C3C" d="M31,53.5c-1,0-1.7-0.8-1.7-1.7c0-1,0.8-1.7,1.7-1.7c1,0,1.7,0.8,1.7,1.7C32.7,52.7,32,53.5,31,53.5z
					 M31,50.5c-0.7,0-1.3,0.6-1.3,1.3c0,0.7,0.6,1.3,1.3,1.3c0.7,0,1.3-0.6,1.3-1.3C32.3,51,31.7,50.5,31,50.5z"/>
			</g>
			<g clip-path="url(#SVGID_2_)">
				<circle fill="#E64C3C" cx="28.9" cy="51" r="0.8"/>
				<path fill="#E64C3C" d="M28.9,51.8c-0.5,0-0.9-0.4-0.9-0.9c0-0.5,0.4-0.9,0.9-0.9c0.5,0,0.9,0.4,0.9,0.9
					C29.7,51.5,29.3,51.8,28.9,51.8z M28.9,50.3c-0.4,0-0.6,0.3-0.6,0.6c0,0.4,0.3,0.6,0.6,0.6c0.4,0,0.6-0.3,0.6-0.6
					C29.5,50.6,29.2,50.3,28.9,50.3z"/>
			</g>
			<g clip-path="url(#SVGID_2_)">
				<circle fill="#E64C3C" cx="34.5" cy="50.1" r="0.7"/>
				<path fill="#E64C3C" d="M34.5,50.8c-0.4,0-0.8-0.3-0.8-0.8c0-0.4,0.3-0.8,0.8-0.8c0.4,0,0.8,0.3,0.8,0.8
					C35.3,50.5,35,50.8,34.5,50.8z M34.5,49.5c-0.3,0-0.6,0.3-0.6,0.6c0,0.3,0.3,0.6,0.6,0.6c0.3,0,0.6-0.3,0.6-0.6
					C35.1,49.7,34.9,49.5,34.5,49.5z"/>
			</g>
			<g clip-path="url(#SVGID_2_)">
				<circle fill="#E64C3C" cx="32.7" cy="50.5" r="0.2"/>
				<path fill="#E64C3C" d="M32.7,50.8c-0.1,0-0.3-0.1-0.3-0.3c0-0.1,0.1-0.3,0.3-0.3c0.1,0,0.3,0.1,0.3,0.3
					C32.9,50.7,32.8,50.8,32.7,50.8z M32.7,50.4c-0.1,0-0.2,0.1-0.2,0.2c0,0.1,0.1,0.2,0.2,0.2c0.1,0,0.2-0.1,0.2-0.2
					C32.8,50.4,32.8,50.4,32.7,50.4z"/>
			</g>
			<g clip-path="url(#SVGID_2_)">
				<circle fill="#E64C3C" cx="30.6" cy="50.6" r="0.2"/>
				<path fill="#E64C3C" d="M30.6,50.9c-0.1,0-0.3-0.1-0.3-0.3c0-0.1,0.1-0.3,0.3-0.3c0.1,0,0.3,0.1,0.3,0.3
					C30.8,50.8,30.7,50.9,30.6,50.9z M30.6,50.5c-0.1,0-0.2,0.1-0.2,0.2c0,0.1,0.1,0.2,0.2,0.2c0.1,0,0.2-0.1,0.2-0.2
					C30.8,50.5,30.7,50.5,30.6,50.5z"/>
			</g>
			<g clip-path="url(#SVGID_2_)">
				<circle fill="#E64C3C" cx="35.7" cy="51.8" r="0.4"/>
				<path fill="#E64C3C" d="M35.7,52.3c-0.3,0-0.5-0.2-0.5-0.5c0-0.3,0.2-0.5,0.5-0.5c0.3,0,0.5,0.2,0.5,0.5
					C36.2,52,36,52.3,35.7,52.3z M35.7,51.4c-0.2,0-0.4,0.2-0.4,0.4c0,0.2,0.2,0.4,0.4,0.4c0.2,0,0.4-0.2,0.4-0.4
					C36.1,51.6,35.9,51.4,35.7,51.4z"/>
			</g>
			<g clip-path="url(#SVGID_2_)">
				<circle fill="#E64C3C" cx="31" cy="39.4" r="1.4"/>
				<path fill="#E64C3C" d="M31,41.1c-0.9,0-1.6-0.7-1.6-1.6c0-0.9,0.7-1.6,1.6-1.6c0.9,0,1.6,0.7,1.6,1.6
					C32.6,40.3,31.9,41.1,31,41.1z M31,38.2c-0.7,0-1.2,0.5-1.2,1.2c0,0.7,0.5,1.2,1.2,1.2c0.7,0,1.2-0.5,1.2-1.2
					C32.2,38.8,31.7,38.2,31,38.2z"/>
			</g>
			<g clip-path="url(#SVGID_2_)">
				<circle fill="#E64C3C" cx="30.2" cy="43.6" r="0.3"/>
				<path fill="#E64C3C" d="M30.2,44c-0.2,0-0.4-0.2-0.4-0.4c0-0.2,0.2-0.4,0.4-0.4c0.2,0,0.4,0.2,0.4,0.4
					C30.5,43.8,30.4,44,30.2,44z M30.2,43.4c-0.1,0-0.3,0.1-0.3,0.3c0,0.1,0.1,0.3,0.3,0.3c0.1,0,0.3-0.1,0.3-0.3
					C30.4,43.5,30.3,43.4,30.2,43.4z"/>
			</g>
			<g clip-path="url(#SVGID_2_)">
				<circle fill="#E64C3C" cx="33.4" cy="50.1" r="0.5"/>
				<path fill="#E64C3C" d="M33.4,50.6c-0.3,0-0.6-0.3-0.6-0.6c0-0.3,0.3-0.6,0.6-0.6c0.3,0,0.6,0.3,0.6,0.6
					C34,50.4,33.8,50.6,33.4,50.6z M33.4,49.6c-0.2,0-0.4,0.2-0.4,0.4c0,0.2,0.2,0.4,0.4,0.4c0.2,0,0.4-0.2,0.4-0.4
					C33.9,49.8,33.7,49.6,33.4,49.6z"/>
			</g>
			<g clip-path="url(#SVGID_2_)">
				<circle fill="#E64C3C" cx="29.4" cy="46.7" r="0.5"/>
				<path fill="#E64C3C" d="M29.4,47.3c-0.3,0-0.6-0.3-0.6-0.6c0-0.3,0.3-0.6,0.6-0.6c0.3,0,0.6,0.3,0.6,0.6
					C30,47,29.7,47.3,29.4,47.3z M29.4,46.2c-0.2,0-0.4,0.2-0.4,0.4c0,0.2,0.2,0.4,0.4,0.4c0.2,0,0.4-0.2,0.4-0.4
					C29.8,46.4,29.6,46.2,29.4,46.2z"/>
			</g>
			<g clip-path="url(#SVGID_2_)">
				<circle fill="#E66558" cx="39.2" cy="47.3" r="0.5"/>
				<path fill="#E66558" d="M39.2,47.9c-0.3,0-0.6-0.3-0.6-0.6c0-0.3,0.3-0.6,0.6-0.6c0.3,0,0.6,0.3,0.6,0.6
					C39.8,47.6,39.5,47.9,39.2,47.9z M39.2,46.8c-0.2,0-0.4,0.2-0.4,0.4c0,0.2,0.2,0.4,0.4,0.4c0.2,0,0.4-0.2,0.4-0.4
					C39.6,47,39.4,46.8,39.2,46.8z"/>
			</g>
			<g clip-path="url(#SVGID_2_)">
				<circle fill="#E66558" cx="43.5" cy="44.3" r="0.7"/>
				<path fill="#E66558" d="M43.5,45.2c-0.5,0-0.8-0.4-0.8-0.8c0-0.5,0.4-0.8,0.8-0.8c0.5,0,0.8,0.4,0.8,0.8
					C44.3,44.8,43.9,45.2,43.5,45.2z M43.5,43.7c-0.3,0-0.6,0.3-0.6,0.6c0,0.3,0.3,0.6,0.6,0.6c0.3,0,0.6-0.3,0.6-0.6
					C44.1,44,43.8,43.7,43.5,43.7z"/>
			</g>
			<g clip-path="url(#SVGID_2_)">
				<circle fill="#E66558" cx="41.6" cy="36.7" r="0.7"/>
				<path fill="#E66558" d="M41.6,37.5c-0.4,0-0.8-0.3-0.8-0.8c0-0.4,0.3-0.8,0.8-0.8c0.4,0,0.8,0.3,0.8,0.8
					C42.4,37.1,42.1,37.5,41.6,37.5z M41.6,36.2c-0.3,0-0.6,0.3-0.6,0.6c0,0.3,0.3,0.6,0.6,0.6c0.3,0,0.6-0.3,0.6-0.6
					C42.2,36.4,42,36.2,41.6,36.2z"/>
			</g>
			<g clip-path="url(#SVGID_2_)">
				<circle fill="#E66558" cx="40.6" cy="42" r="1.2"/>
				<path fill="#E66558" d="M40.6,43.4c-0.8,0-1.4-0.6-1.4-1.4c0-0.8,0.6-1.4,1.4-1.4c0.8,0,1.4,0.6,1.4,1.4
					C42,42.7,41.4,43.4,40.6,43.4z M40.6,40.9c-0.6,0-1,0.5-1,1c0,0.6,0.5,1,1,1c0.6,0,1-0.5,1-1C41.6,41.4,41.2,40.9,40.6,40.9z"/>
			</g>
			<g clip-path="url(#SVGID_2_)">
				<circle fill="#E66558" cx="40.3" cy="48.2" r="0.9"/>
				<path fill="#E66558" d="M40.3,49.3c-0.6,0-1.1-0.5-1.1-1.1c0-0.6,0.5-1.1,1.1-1.1c0.6,0,1.1,0.5,1.1,1.1
					C41.4,48.8,40.9,49.3,40.3,49.3z M40.3,47.4c-0.4,0-0.8,0.4-0.8,0.8c0,0.4,0.4,0.8,0.8,0.8c0.4,0,0.8-0.4,0.8-0.8
					C41.1,47.8,40.7,47.4,40.3,47.4z"/>
			</g>
			<g clip-path="url(#SVGID_2_)">
				<circle fill="#E66558" cx="39.7" cy="46" r="0.8"/>
				<path fill="#E66558" d="M39.7,46.9c-0.5,0-0.9-0.4-0.9-0.9c0-0.5,0.4-0.9,0.9-0.9c0.5,0,0.9,0.4,0.9,0.9
					C40.5,46.5,40.1,46.9,39.7,46.9z M39.7,45.4c-0.4,0-0.6,0.3-0.6,0.6c0,0.4,0.3,0.6,0.6,0.6c0.4,0,0.6-0.3,0.6-0.6
					C40.3,45.6,40,45.4,39.7,45.4z"/>
			</g>
			<g clip-path="url(#SVGID_2_)">
				<circle fill="#E66558" cx="45.3" cy="47.2" r="0.7"/>
				<path fill="#E66558" d="M45.3,47.9c-0.4,0-0.8-0.3-0.8-0.8c0-0.4,0.3-0.8,0.8-0.8c0.4,0,0.8,0.3,0.8,0.8
					C46.1,47.6,45.7,47.9,45.3,47.9z M45.3,46.6c-0.3,0-0.6,0.3-0.6,0.6c0,0.3,0.3,0.6,0.6,0.6c0.3,0,0.6-0.3,0.6-0.6
					C45.9,46.8,45.6,46.6,45.3,46.6z"/>
			</g>
			<g clip-path="url(#SVGID_2_)">
				<circle fill="#E66558" cx="44" cy="47.2" r="0.2"/>
				<path fill="#E66558" d="M44,47.4c-0.1,0-0.3-0.1-0.3-0.3c0-0.1,0.1-0.3,0.3-0.3c0.1,0,0.3,0.1,0.3,0.3
					C44.2,47.3,44.1,47.4,44,47.4z M44,47c-0.1,0-0.2,0.1-0.2,0.2c0,0.1,0.1,0.2,0.2,0.2c0.1,0,0.2-0.1,0.2-0.2
					C44.1,47,44.1,47,44,47z"/>
			</g>
			<g clip-path="url(#SVGID_2_)">
				<circle fill="#E66558" cx="38.5" cy="41.3" r="0.2"/>
				<path fill="#E66558" d="M38.5,41.5c-0.1,0-0.3-0.1-0.3-0.3c0-0.1,0.1-0.3,0.3-0.3c0.1,0,0.3,0.1,0.3,0.3
					C38.8,41.4,38.6,41.5,38.5,41.5z M38.5,41.1c-0.1,0-0.2,0.1-0.2,0.2c0,0.1,0.1,0.2,0.2,0.2c0.1,0,0.2-0.1,0.2-0.2
					C38.7,41.2,38.6,41.1,38.5,41.1z"/>
			</g>
			<g clip-path="url(#SVGID_2_)">
				<circle fill="#E66558" cx="45.7" cy="48.9" r="0.4"/>
				<path fill="#E66558" d="M45.7,49.3c-0.3,0-0.5-0.2-0.5-0.5c0-0.3,0.2-0.5,0.5-0.5c0.3,0,0.5,0.2,0.5,0.5
					C46.2,49.1,45.9,49.3,45.7,49.3z M45.7,48.5c-0.2,0-0.4,0.2-0.4,0.4c0,0.2,0.2,0.4,0.4,0.4c0.2,0,0.4-0.2,0.4-0.4
					C46,48.7,45.9,48.5,45.7,48.5z"/>
			</g>
			<g clip-path="url(#SVGID_2_)">
				<circle fill="#E66558" cx="44.3" cy="48.4" r="0.7"/>
				<path fill="#E66558" d="M44.3,49.3c-0.5,0-0.9-0.4-0.9-0.9c0-0.5,0.4-0.9,0.9-0.9c0.5,0,0.9,0.4,0.9,0.9
					C45.2,48.9,44.8,49.3,44.3,49.3z M44.3,47.8c-0.3,0-0.6,0.3-0.6,0.6c0,0.3,0.3,0.6,0.6,0.6c0.3,0,0.6-0.3,0.6-0.6
					C45,48.1,44.7,47.8,44.3,47.8z"/>
			</g>
			<g clip-path="url(#SVGID_2_)">
				<circle fill="#E66558" cx="41.8" cy="33.2" r="0.7"/>
				<path fill="#E66558" d="M41.8,34c-0.5,0-0.8-0.4-0.8-0.8c0-0.5,0.4-0.8,0.8-0.8c0.5,0,0.8,0.4,0.8,0.8
					C42.7,33.6,42.3,34,41.8,34z M41.8,32.6c-0.3,0-0.6,0.3-0.6,0.6c0,0.3,0.3,0.6,0.6,0.6c0.3,0,0.6-0.3,0.6-0.6
					C42.4,32.8,42.2,32.6,41.8,32.6z"/>
			</g>
			<g clip-path="url(#SVGID_2_)">
				<circle fill="#E64C3C" cx="34.5" cy="47.1" r="0.5"/>
				<path fill="#E64C3C" d="M34.5,47.7c-0.3,0-0.6-0.3-0.6-0.6c0-0.3,0.3-0.6,0.6-0.6c0.3,0,0.6,0.3,0.6,0.6
					C35,47.5,34.8,47.7,34.5,47.7z M34.5,46.7c-0.2,0-0.4,0.2-0.4,0.4c0,0.2,0.2,0.4,0.4,0.4c0.2,0,0.4-0.2,0.4-0.4
					C34.9,46.9,34.7,46.7,34.5,46.7z"/>
			</g>
			<g clip-path="url(#SVGID_2_)">
				<circle fill="#C03A2B" cx="22.5" cy="46.2" r="1.3"/>
				<path fill="#C03A2B" d="M22.5,47.8c-0.9,0-1.6-0.7-1.6-1.6c0-0.9,0.7-1.6,1.6-1.6c0.9,0,1.6,0.7,1.6,1.6
					C24,47.1,23.3,47.8,22.5,47.8z M22.5,45.1c-0.6,0-1.1,0.5-1.1,1.1c0,0.6,0.5,1.1,1.1,1.1c0.6,0,1.1-0.5,1.1-1.1
					C23.6,45.6,23.1,45.1,22.5,45.1z"/>
			</g>
			<g clip-path="url(#SVGID_2_)">
				<circle fill="#E64C3C" cx="31" cy="49.1" r="1"/>
				<path fill="#E64C3C" d="M31,50.2c-0.7,0-1.2-0.5-1.2-1.2c0-0.7,0.5-1.2,1.2-1.2c0.7,0,1.2,0.5,1.2,1.2
					C32.2,49.7,31.7,50.2,31,50.2z M31,48.2c-0.5,0-0.9,0.4-0.9,0.9c0,0.5,0.4,0.9,0.9,0.9c0.5,0,0.9-0.4,0.9-0.9
					C31.9,48.6,31.5,48.2,31,48.2z"/>
			</g>
			<g clip-path="url(#SVGID_2_)">
				<circle fill="#E64C3C" cx="35.9" cy="50.6" r="1.2"/>
				<path fill="#E64C3C" d="M35.9,52c-0.8,0-1.4-0.6-1.4-1.4c0-0.8,0.6-1.4,1.4-1.4c0.8,0,1.4,0.6,1.4,1.4
					C37.3,51.4,36.7,52,35.9,52z M35.9,49.6c-0.6,0-1,0.5-1,1c0,0.6,0.5,1,1,1c0.6,0,1-0.5,1-1C37,50,36.5,49.6,35.9,49.6z"/>
			</g>
			<g clip-path="url(#SVGID_2_)">
				<circle fill="#E66558" cx="40.6" cy="44.8" r="0.7"/>
				<path fill="#E66558" d="M40.6,45.6c-0.4,0-0.8-0.4-0.8-0.8c0-0.4,0.4-0.8,0.8-0.8c0.4,0,0.8,0.4,0.8,0.8
					C41.4,45.3,41,45.6,40.6,45.6z M40.6,44.2c-0.3,0-0.6,0.3-0.6,0.6c0,0.3,0.3,0.6,0.6,0.6c0.3,0,0.6-0.3,0.6-0.6
					C41.2,44.5,40.9,44.2,40.6,44.2z"/>
			</g>
			<g clip-path="url(#SVGID_2_)">
				<circle fill="#E66558" cx="42.1" cy="43" r="0.7"/>
				<path fill="#E66558" d="M42.1,43.8c-0.4,0-0.8-0.4-0.8-0.8c0-0.4,0.4-0.8,0.8-0.8c0.4,0,0.8,0.4,0.8,0.8
					C42.9,43.4,42.5,43.8,42.1,43.8z M42.1,42.4c-0.3,0-0.6,0.3-0.6,0.6c0,0.3,0.3,0.6,0.6,0.6c0.3,0,0.6-0.3,0.6-0.6
					C42.6,42.7,42.4,42.4,42.1,42.4z"/>
			</g>
			<g clip-path="url(#SVGID_2_)">
				<circle fill="#E66558" cx="41.5" cy="44" r="0.7"/>
				<path fill="#E66558" d="M41.5,44.7c-0.4,0-0.8-0.4-0.8-0.8c0-0.4,0.4-0.8,0.8-0.8c0.4,0,0.8,0.4,0.8,0.8
					C42.3,44.4,42,44.7,41.5,44.7z M41.5,43.4c-0.3,0-0.6,0.3-0.6,0.6c0,0.3,0.3,0.6,0.6,0.6c0.3,0,0.6-0.3,0.6-0.6
					C42.1,43.6,41.8,43.4,41.5,43.4z"/>
			</g>
			<g clip-path="url(#SVGID_2_)">
				<circle fill="#E66558" cx="39.8" cy="44.8" r="0.7"/>
				<path fill="#E66558" d="M39.8,45.5c-0.4,0-0.8-0.4-0.8-0.8c0-0.4,0.4-0.8,0.8-0.8c0.4,0,0.8,0.4,0.8,0.8
					C40.6,45.2,40.2,45.5,39.8,45.5z M39.8,44.2c-0.3,0-0.6,0.3-0.6,0.6c0,0.3,0.3,0.6,0.6,0.6c0.3,0,0.6-0.3,0.6-0.6
					C40.4,44.4,40.1,44.2,39.8,44.2z"/>
			</g>
			<g clip-path="url(#SVGID_2_)">
				<circle fill="#E66558" cx="40" cy="42.5" r="0.6"/>
				<path fill="#E66558" d="M40,43.2c-0.4,0-0.6-0.3-0.6-0.6c0-0.4,0.3-0.6,0.6-0.6c0.4,0,0.6,0.3,0.6,0.6
					C40.7,42.9,40.4,43.2,40,43.2z M40,42.1c-0.3,0-0.5,0.2-0.5,0.5c0,0.3,0.2,0.5,0.5,0.5c0.3,0,0.5-0.2,0.5-0.5
					C40.5,42.3,40.3,42.1,40,42.1z"/>
			</g>
			<g clip-path="url(#SVGID_2_)">
				<circle fill="#E66558" cx="42.6" cy="39.1" r="0.6"/>
				<path fill="#E66558" d="M42.6,39.8c-0.4,0-0.6-0.3-0.6-0.6c0-0.4,0.3-0.6,0.6-0.6c0.4,0,0.6,0.3,0.6,0.6
					C43.2,39.5,42.9,39.8,42.6,39.8z M42.6,38.6c-0.3,0-0.5,0.2-0.5,0.5c0,0.3,0.2,0.5,0.5,0.5c0.3,0,0.5-0.2,0.5-0.5
					C43,38.9,42.8,38.6,42.6,38.6z"/>
			</g>
			<g clip-path="url(#SVGID_2_)">
				<circle fill="#C03A2B" cx="25.2" cy="46.2" r="1.5"/>
				<path fill="#C03A2B" d="M25.2,47.9c-1,0-1.7-0.8-1.7-1.7c0-1,0.8-1.7,1.7-1.7c1,0,1.7,0.8,1.7,1.7
					C26.9,47.1,26.2,47.9,25.2,47.9z M25.2,44.9c-0.7,0-1.3,0.6-1.3,1.3c0,0.7,0.6,1.3,1.3,1.3c0.7,0,1.3-0.6,1.3-1.3
					C26.5,45.5,25.9,44.9,25.2,44.9z"/>
			</g>
			<g clip-path="url(#SVGID_2_)">
				<circle fill="#C03A2B" cx="22.5" cy="43.3" r="1"/>
				<path fill="#C03A2B" d="M22.5,44.5c-0.7,0-1.2-0.5-1.2-1.2c0-0.7,0.5-1.2,1.2-1.2c0.7,0,1.2,0.5,1.2,1.2
					C23.7,44,23.1,44.5,22.5,44.5z M22.5,42.5c-0.5,0-0.9,0.4-0.9,0.9c0,0.5,0.4,0.9,0.9,0.9c0.5,0,0.9-0.4,0.9-0.9
					C23.4,42.9,23,42.5,22.5,42.5z"/>
			</g>
			<g clip-path="url(#SVGID_2_)">
				<circle fill="#C03A2B" cx="18.6" cy="43.8" r="1.5"/>
				<path fill="#C03A2B" d="M18.6,45.6c-1,0-1.7-0.8-1.7-1.7c0-1,0.8-1.7,1.7-1.7c1,0,1.7,0.8,1.7,1.7
					C20.3,44.8,19.5,45.6,18.6,45.6z M18.6,42.6c-0.7,0-1.3,0.6-1.3,1.3c0,0.7,0.6,1.3,1.3,1.3c0.7,0,1.3-0.6,1.3-1.3
					C19.8,43.1,19.3,42.6,18.6,42.6z"/>
			</g>
			<g clip-path="url(#SVGID_2_)">
				<circle fill="#C03A2B" cx="17.6" cy="38.3" r="0.7"/>
				<path fill="#C03A2B" d="M17.6,39.1c-0.4,0-0.8-0.4-0.8-0.8c0-0.4,0.4-0.8,0.8-0.8c0.4,0,0.8,0.4,0.8,0.8
					C18.4,38.8,18.1,39.1,17.6,39.1z M17.6,37.8c-0.3,0-0.6,0.3-0.6,0.6c0,0.3,0.3,0.6,0.6,0.6c0.3,0,0.6-0.3,0.6-0.6
					C18.2,38,18,37.8,17.6,37.8z"/>
			</g>
			<g clip-path="url(#SVGID_2_)">
				<circle fill="#C03A2B" cx="22.3" cy="38.8" r="0.7"/>
				<path fill="#C03A2B" d="M22.3,39.6c-0.4,0-0.8-0.4-0.8-0.8c0-0.4,0.4-0.8,0.8-0.8c0.4,0,0.8,0.4,0.8,0.8
					C23.1,39.2,22.8,39.6,22.3,39.6z M22.3,38.2c-0.3,0-0.6,0.3-0.6,0.6c0,0.3,0.3,0.6,0.6,0.6c0.3,0,0.6-0.3,0.6-0.6
					C22.9,38.5,22.7,38.2,22.3,38.2z"/>
			</g>
			<g clip-path="url(#SVGID_2_)">
				<circle fill="#C03A2B" cx="19.7" cy="36.5" r="0.7"/>
				<path fill="#C03A2B" d="M19.7,37.3c-0.4,0-0.8-0.4-0.8-0.8c0-0.4,0.4-0.8,0.8-0.8c0.4,0,0.8,0.4,0.8,0.8
					C20.5,36.9,20.2,37.3,19.7,37.3z M19.7,35.9c-0.3,0-0.6,0.3-0.6,0.6c0,0.3,0.3,0.6,0.6,0.6c0.3,0,0.6-0.3,0.6-0.6
					C20.3,36.1,20,35.9,19.7,35.9z"/>
			</g>
			<g clip-path="url(#SVGID_2_)">
				<circle fill="#C03A2B" cx="25" cy="27.4" r="0.7"/>
				<path fill="#C03A2B" d="M25,28.2c-0.4,0-0.8-0.4-0.8-0.8c0-0.4,0.4-0.8,0.8-0.8c0.4,0,0.8,0.4,0.8,0.8
					C25.8,27.8,25.4,28.2,25,28.2z M25,26.8c-0.3,0-0.6,0.3-0.6,0.6c0,0.3,0.3,0.6,0.6,0.6c0.3,0,0.6-0.3,0.6-0.6
					C25.6,27,25.3,26.8,25,26.8z"/>
			</g>
			<g clip-path="url(#SVGID_2_)">
				<circle fill="#C03A2B" cx="30.1" cy="28.2" r="1"/>
				<path fill="#C03A2B" d="M30.1,29.4c-0.6,0-1.2-0.5-1.2-1.2c0-0.6,0.5-1.2,1.2-1.2c0.6,0,1.2,0.5,1.2,1.2
					C31.2,28.8,30.7,29.4,30.1,29.4z M30.1,27.4c-0.5,0-0.8,0.4-0.8,0.8c0,0.5,0.4,0.8,0.8,0.8c0.5,0,0.8-0.4,0.8-0.8
					C30.9,27.7,30.6,27.4,30.1,27.4z"/>
			</g>
			<g clip-path="url(#SVGID_2_)">
				<circle fill="#C03A2B" cx="29.6" cy="21.8" r="0.7"/>
				<path fill="#C03A2B" d="M29.6,22.6c-0.4,0-0.8-0.4-0.8-0.8c0-0.4,0.4-0.8,0.8-0.8c0.4,0,0.8,0.4,0.8,0.8
					C30.4,22.2,30.1,22.6,29.6,22.6z M29.6,21.2c-0.3,0-0.6,0.3-0.6,0.6c0,0.3,0.3,0.6,0.6,0.6c0.3,0,0.6-0.3,0.6-0.6
					C30.2,21.5,30,21.2,29.6,21.2z"/>
			</g>
			<g clip-path="url(#SVGID_2_)">
				<circle fill="#C03A2B" cx="25.1" cy="36.7" r="1"/>
				<path fill="#C03A2B" d="M25.1,37.8c-0.6,0-1.1-0.5-1.1-1.1c0-0.6,0.5-1.1,1.1-1.1c0.6,0,1.1,0.5,1.1,1.1
					C26.2,37.3,25.7,37.8,25.1,37.8z M25.1,35.9c-0.5,0-0.8,0.4-0.8,0.8c0,0.5,0.4,0.8,0.8,0.8c0.5,0,0.8-0.4,0.8-0.8
					C25.9,36.3,25.5,35.9,25.1,35.9z"/>
			</g>
			<g clip-path="url(#SVGID_2_)">
				<circle fill="#C03A2B" cx="16.3" cy="34.3" r="1.7"/>
				<path fill="#C03A2B" d="M16.3,36.3c-1.1,0-2-0.9-2-2c0-1.1,0.9-2,2-2c1.1,0,2,0.9,2,2C18.3,35.4,17.4,36.3,16.3,36.3z
					 M16.3,32.8c-0.8,0-1.5,0.7-1.5,1.5c0,0.8,0.7,1.5,1.5,1.5c0.8,0,1.5-0.7,1.5-1.5C17.8,33.5,17.2,32.8,16.3,32.8z"/>
			</g>
			<g clip-path="url(#SVGID_2_)">
				<circle fill="#E64C3C" cx="32.7" cy="49.7" r="1.3"/>
				<path fill="#E64C3C" d="M32.7,51.2c-0.8,0-1.5-0.7-1.5-1.5c0-0.8,0.7-1.5,1.5-1.5c0.8,0,1.5,0.7,1.5,1.5
					C34.2,50.5,33.5,51.2,32.7,51.2z M32.7,48.6c-0.6,0-1.1,0.5-1.1,1.1c0,0.6,0.5,1.1,1.1,1.1c0.6,0,1.1-0.5,1.1-1.1
					C33.8,49.1,33.3,48.6,32.7,48.6z"/>
			</g>
			<g clip-path="url(#SVGID_2_)">
				<circle fill="#E64C3C" cx="32.8" cy="35.4" r="0.8"/>
				<path fill="#E64C3C" d="M32.8,36.3c-0.5,0-0.9-0.4-0.9-0.9c0-0.5,0.4-0.9,0.9-0.9c0.5,0,0.9,0.4,0.9,0.9
					C33.7,35.9,33.3,36.3,32.8,36.3z M32.8,34.7c-0.4,0-0.7,0.3-0.7,0.7c0,0.4,0.3,0.7,0.7,0.7c0.4,0,0.7-0.3,0.7-0.7
					C33.4,35,33.1,34.7,32.8,34.7z"/>
			</g>
			<g clip-path="url(#SVGID_2_)">
				<circle fill="#E64C3C" cx="33.5" cy="25.4" r="0.6"/>
				<path fill="#E64C3C" d="M33.5,26.1c-0.4,0-0.7-0.3-0.7-0.7c0-0.4,0.3-0.7,0.7-0.7c0.4,0,0.7,0.3,0.7,0.7
					C34.2,25.8,33.9,26.1,33.5,26.1z M33.5,24.9c-0.3,0-0.5,0.2-0.5,0.5c0,0.3,0.2,0.5,0.5,0.5c0.3,0,0.5-0.2,0.5-0.5
					C34,25.1,33.8,24.9,33.5,24.9z"/>
			</g>
			<g clip-path="url(#SVGID_2_)">
				<circle fill="#E64C3C" cx="32.7" cy="44.8" r="0.6"/>
				<path fill="#E64C3C" d="M32.7,45.4c-0.4,0-0.7-0.3-0.7-0.7c0-0.4,0.3-0.7,0.7-0.7c0.4,0,0.7,0.3,0.7,0.7
					C33.4,45.1,33.1,45.4,32.7,45.4z M32.7,44.3c-0.3,0-0.5,0.2-0.5,0.5c0,0.3,0.2,0.5,0.5,0.5c0.3,0,0.5-0.2,0.5-0.5
					C33.2,44.5,33,44.3,32.7,44.3z"/>
			</g>
			<g clip-path="url(#SVGID_2_)">
				<circle fill="#E64C3C" cx="36.1" cy="37.8" r="0.8"/>
				<path fill="#E64C3C" d="M36.1,38.7c-0.5,0-0.9-0.4-0.9-0.9c0-0.5,0.4-0.9,0.9-0.9c0.5,0,0.9,0.4,0.9,0.9
					C37,38.3,36.6,38.7,36.1,38.7z M36.1,37.2c-0.4,0-0.7,0.3-0.7,0.7c0,0.4,0.3,0.7,0.7,0.7c0.4,0,0.7-0.3,0.7-0.7
					C36.8,37.5,36.5,37.2,36.1,37.2z"/>
			</g>
			<g clip-path="url(#SVGID_2_)">
				<circle fill="#E66558" cx="43.1" cy="41.2" r="1.2"/>
				<path fill="#E66558" d="M43.1,42.7c-0.8,0-1.4-0.6-1.4-1.4c0-0.8,0.6-1.4,1.4-1.4c0.8,0,1.4,0.6,1.4,1.4
					C44.6,42,43.9,42.7,43.1,42.7z M43.1,40.2c-0.6,0-1.1,0.5-1.1,1.1c0,0.6,0.5,1.1,1.1,1.1c0.6,0,1.1-0.5,1.1-1.1
					C44.2,40.7,43.7,40.2,43.1,40.2z"/>
			</g>
			<g clip-path="url(#SVGID_2_)">
				<circle fill="#E66558" cx="39.6" cy="43.2" r="1.2"/>
				<path fill="#E66558" d="M39.6,44.6c-0.8,0-1.4-0.6-1.4-1.4c0-0.8,0.6-1.4,1.4-1.4c0.8,0,1.4,0.6,1.4,1.4
					C41,44,40.4,44.6,39.6,44.6z M39.6,42.1c-0.6,0-1.1,0.5-1.1,1.1c0,0.6,0.5,1.1,1.1,1.1c0.6,0,1.1-0.5,1.1-1.1
					C40.7,42.6,40.2,42.1,39.6,42.1z"/>
			</g>
			<g clip-path="url(#SVGID_2_)">
				<circle fill="#E66558" cx="45.4" cy="38.5" r="1.2"/>
				<path fill="#E66558" d="M45.4,40c-0.8,0-1.4-0.6-1.4-1.4c0-0.8,0.6-1.4,1.4-1.4c0.8,0,1.4,0.6,1.4,1.4
					C46.8,39.3,46.2,40,45.4,40z M45.4,37.5c-0.6,0-1.1,0.5-1.1,1.1c0,0.6,0.5,1.1,1.1,1.1c0.6,0,1.1-0.5,1.1-1.1
					C46.4,37.9,46,37.5,45.4,37.5z"/>
			</g>
			<g clip-path="url(#SVGID_2_)">
				<circle fill="#E66558" cx="40.1" cy="39.2" r="1.2"/>
				<path fill="#E66558" d="M40.1,40.6c-0.8,0-1.4-0.6-1.4-1.4c0-0.8,0.6-1.4,1.4-1.4c0.8,0,1.4,0.6,1.4,1.4
					C41.5,39.9,40.9,40.6,40.1,40.6z M40.1,38.1c-0.6,0-1.1,0.5-1.1,1.1c0,0.6,0.5,1.1,1.1,1.1c0.6,0,1.1-0.5,1.1-1.1
					C41.1,38.6,40.7,38.1,40.1,38.1z"/>
			</g>
			<g clip-path="url(#SVGID_2_)">
				<circle fill="#E66558" cx="46.2" cy="42.7" r="1.2"/>
				<path fill="#E66558" d="M46.2,44.1c-0.8,0-1.4-0.6-1.4-1.4c0-0.8,0.6-1.4,1.4-1.4c0.8,0,1.4,0.6,1.4,1.4
					C47.7,43.5,47,44.1,46.2,44.1z M46.2,41.7c-0.6,0-1.1,0.5-1.1,1.1c0,0.6,0.5,1.1,1.1,1.1c0.6,0,1.1-0.5,1.1-1.1
					C47.3,42.1,46.8,41.7,46.2,41.7z"/>
			</g>
			<g clip-path="url(#SVGID_2_)">
				<circle fill="#E66558" cx="43.9" cy="42.7" r="1.2"/>
				<path fill="#E66558" d="M43.9,44.1c-0.8,0-1.4-0.6-1.4-1.4c0-0.8,0.6-1.4,1.4-1.4c0.8,0,1.4,0.6,1.4,1.4
					C45.3,43.5,44.7,44.1,43.9,44.1z M43.9,41.7c-0.6,0-1.1,0.5-1.1,1.1c0,0.6,0.5,1.1,1.1,1.1c0.6,0,1.1-0.5,1.1-1.1
					C45,42.1,44.5,41.7,43.9,41.7z"/>
			</g>
			<g clip-path="url(#SVGID_2_)">
				<circle fill="#C03A2B" cx="15.2" cy="38.3" r="1.2"/>
				<path fill="#C03A2B" d="M15.2,39.7c-0.7,0-1.3-0.6-1.3-1.3c0-0.7,0.6-1.3,1.3-1.3c0.7,0,1.3,0.6,1.3,1.3
					C16.5,39.1,15.9,39.7,15.2,39.7z M15.2,37.4c-0.5,0-1,0.4-1,1c0,0.5,0.4,1,1,1c0.5,0,1-0.4,1-1C16.2,37.8,15.7,37.4,15.2,37.4z"
					/>
			</g>
			<g clip-path="url(#SVGID_2_)">
				<circle fill="#C03A2B" cx="20.8" cy="29.4" r="0.7"/>
				<path fill="#C03A2B" d="M20.8,30.2c-0.4,0-0.8-0.4-0.8-0.8c0-0.4,0.4-0.8,0.8-0.8c0.4,0,0.8,0.4,0.8,0.8
					C21.6,29.8,21.3,30.2,20.8,30.2z M20.8,28.8c-0.3,0-0.6,0.3-0.6,0.6c0,0.3,0.3,0.6,0.6,0.6c0.3,0,0.6-0.3,0.6-0.6
					C21.4,29.1,21.2,28.8,20.8,28.8z"/>
			</g>
			<g clip-path="url(#SVGID_2_)">
				<circle fill="#C03A2B" cx="23.9" cy="41.2" r="0.7"/>
				<path fill="#C03A2B" d="M23.9,42c-0.4,0-0.8-0.4-0.8-0.8c0-0.4,0.4-0.8,0.8-0.8c0.4,0,0.8,0.4,0.8,0.8
					C24.7,41.6,24.4,42,23.9,42z M23.9,40.6c-0.3,0-0.6,0.3-0.6,0.6c0,0.3,0.3,0.6,0.6,0.6c0.3,0,0.6-0.3,0.6-0.6
					C24.5,40.8,24.3,40.6,23.9,40.6z"/>
			</g>
			<g clip-path="url(#SVGID_2_)">
				<circle fill="#E66558" cx="40" cy="34.6" r="0.7"/>
				<path fill="#E66558" d="M40,35.4c-0.5,0-0.8-0.4-0.8-0.8c0-0.5,0.4-0.8,0.8-0.8c0.5,0,0.8,0.4,0.8,0.8
					C40.8,35,40.4,35.4,40,35.4z M40,34c-0.3,0-0.6,0.3-0.6,0.6c0,0.3,0.3,0.6,0.6,0.6c0.3,0,0.6-0.3,0.6-0.6
					C40.6,34.2,40.3,34,40,34z"/>
			</g>
			<g clip-path="url(#SVGID_2_)">
				<circle fill="#E66558" cx="36.7" cy="30.3" r="0.7"/>
				<path fill="#E66558" d="M36.7,31.1c-0.5,0-0.8-0.4-0.8-0.8c0-0.5,0.4-0.8,0.8-0.8c0.5,0,0.8,0.4,0.8,0.8
					C37.5,30.8,37.2,31.1,36.7,31.1z M36.7,29.7c-0.3,0-0.6,0.3-0.6,0.6c0,0.3,0.3,0.6,0.6,0.6c0.3,0,0.6-0.3,0.6-0.6
					C37.3,30,37.1,29.7,36.7,29.7z"/>
			</g>
			<rect x="15.9" y="47.2" clip-path="url(#SVGID_2_)" fill="#C03A2B" width="9.6" height="13.4"/>
			<rect x="26.9" y="51" clip-path="url(#SVGID_2_)" fill="#E64C3C" width="9.6" height="13.5"/>
			<rect x="38.2" y="43.1" clip-path="url(#SVGID_2_)" fill="#E66558" width="9.6" height="13.5"/>
		</g>
		<g>
			<path fill="#2C3E50" d="M31,60.5c-10.6,0-19.2-8.6-19.2-19.2C11.8,32.9,17,25.6,25,23V12.4h-1.1c-0.7,0-1.2-0.5-1.2-1.2V9.6
				c0-0.7,0.5-1.2,1.2-1.2h14.2c0.7,0,1.2,0.5,1.2,1.2v1.6c0,0.7-0.5,1.2-1.2,1.2H37V23c7.9,2.6,13.2,9.9,13.2,18.3
				C50.2,51.9,41.6,60.5,31,60.5z M23.9,9.5c-0.1,0-0.2,0.1-0.2,0.2v1.6c0,0.1,0.1,0.2,0.2,0.2h1.6c0.3,0,0.5,0.2,0.5,0.5v11.4
				c0,0.2-0.1,0.4-0.4,0.5c-7.7,2.4-12.8,9.4-12.8,17.4c0,10.1,8.2,18.2,18.2,18.2c10.1,0,18.2-8.2,18.2-18.2
				c0-8-5.2-15.1-12.8-17.4c-0.2-0.1-0.4-0.3-0.4-0.5V11.9c0-0.3,0.2-0.5,0.5-0.5h1.6c0.1,0,0.2-0.1,0.2-0.2V9.6
				c0-0.1-0.1-0.2-0.2-0.2H23.9z"/>
		</g>
		<g>
			<circle fill="#C03A2B" cx="32.8" cy="3.5" r="1.7"/>
			<path fill="#C03A2B" d="M32.8,5.5c-1.1,0-2-0.9-2-2c0-1.1,0.9-2,2-2c1.1,0,2,0.9,2,2C34.8,4.6,33.9,5.5,32.8,5.5z M32.8,2
				c-0.8,0-1.5,0.7-1.5,1.5c0,0.8,0.7,1.5,1.5,1.5c0.8,0,1.5-0.7,1.5-1.5C34.2,2.7,33.6,2,32.8,2z"/>
		</g>
	</g>
</g>
</svg>
