<svg id="Layer_1" data-name="Layer 1" xmlns="http://www.w3.org/2000/svg" viewBox="0 0 177.45 44.2"><defs><style>.cls-1{fill:#a81933;}.cls-2{fill:#272525;}</style></defs><title>ULogoH</title><polygon class="cls-1" points="0 0.2 0 13.38 4.39 13.38 4.39 35.3 13.19 44.03 35.05 44.03 43.84 35.3 43.84 13.38 48.23 13.38 48.23 0.2 26.31 0.2 26.31 13.38 30.71 13.38 30.71 30.85 17.52 30.85 17.52 13.38 21.92 13.38 21.92 0.2 0 0.2 0 0.2"/><path class="cls-2" d="M272.57,277.75l-1.53,0a1.11,1.11,0,0,0-1,.3,1.22,1.22,0,0,0-.17.36,0.12,0.12,0,0,1-.11.12c-0.07,0-.09-0.05-0.09-0.16s0.2-1.1.22-1.18,0.06-.2.12-0.2a2.38,2.38,0,0,0,.44.12c0.3,0,.69.05,1,0.05h4.08a4.48,4.48,0,0,0,1-.1c0.07,0,.08.06,0.08,0.22s0,0.93,0,1.19c0,0.1,0,.16-0.09.16s-0.1-.05-0.11-0.21v-0.11c0-.27-0.3-0.56-1.21-0.58l-1.3,0V282c0,0.95,0,1.76.05,2.2a0.49,0.49,0,0,0,.4.56,4.36,4.36,0,0,0,.52,0c0.11,0,.16,0,0.16.08s-0.08.1-.2,0.1c-0.68,0-1.33,0-1.62,0l-1.3,0c-0.13,0-.21,0-0.21-0.1s0-.08.16-0.08a1.69,1.69,0,0,0,.37,0,0.54,0.54,0,0,0,.3-0.57c0.05-.43.05-1.25,0.05-2.19v-4.22Z" transform="translate(-215.16 -277.03)"/><path class="cls-2" d="M284.3,280.44a0.06,0.06,0,0,0,.06-0.07v-0.22c0-1.56,0-1.85,0-2.18a0.51,0.51,0,0,0-.44-0.59,2.12,2.12,0,0,0-.4,0c-0.11,0-.17,0-0.17-0.09s0.07-.09.22-0.09c0.56,0,1.2,0,1.48,0l1.3,0c0.14,0,.22,0,0.22.09s-0.06.09-.19,0.09l-0.3,0a0.49,0.49,0,0,0-.38.59c0,0.33,0,.62,0,2.18V282c0,0.95,0,1.76.05,2.2a0.49,0.49,0,0,0,.4.56,4.35,4.35,0,0,0,.52,0c0.11,0,.17,0,0.17.08s-0.08.1-.21,0.1c-0.67,0-1.32,0-1.61,0l-1.29,0c-0.14,0-.22,0-0.22-0.1s0-.08.16-0.08a1.69,1.69,0,0,0,.37,0,0.55,0.55,0,0,0,.3-0.57c0.05-.43.05-1.25,0.05-2.19v-0.91a0.06,0.06,0,0,0-.06-0.06h-3.93a0.05,0.05,0,0,0-.06.06V282c0,0.95,0,1.76.05,2.2a0.49,0.49,0,0,0,.4.56,4.36,4.36,0,0,0,.52,0c0.11,0,.16,0,0.16.08s-0.08.1-.21,0.1c-0.67,0-1.32,0-1.6,0l-1.3,0c-0.13,0-.21,0-0.21-0.1s0-.08.17-0.08a1.68,1.68,0,0,0,.37,0,0.55,0.55,0,0,0,.3-0.57c0.05-.43.05-1.25,0.05-2.19v-1.81c0-1.56,0-1.85,0-2.18a0.51,0.51,0,0,0-.44-0.59,2.13,2.13,0,0,0-.4,0c-0.11,0-.18,0-0.18-0.09s0.07-.09.22-0.09c0.56,0,1.2,0,1.48,0l1.3,0c0.14,0,.22,0,0.22.09s-0.06.09-.19,0.09l-0.3,0a0.49,0.49,0,0,0-.38.59c0,0.33,0,.62,0,2.18v0.22a0.06,0.06,0,0,0,.06.07h3.93Z" transform="translate(-215.16 -277.03)"/><path class="cls-2" d="M289.53,280.16c0-1.56,0-1.85,0-2.18a0.51,0.51,0,0,0-.44-0.59,2.13,2.13,0,0,0-.4,0c-0.11,0-.17,0-0.17-0.09s0.07-.09.23-0.09c0.55,0,1.19,0,1.48,0h2.57l0.44-.06a1,1,0,0,1,.16,0c0.05,0,.06,0,0.06.09a6.57,6.57,0,0,0-.08.67c0,0.1,0,.56-0.05.68a0.11,0.11,0,0,1-.1.11c-0.07,0-.09-0.05-0.09-0.14a1.1,1.1,0,0,0-.06-0.37,0.65,0.65,0,0,0-.69-0.37c-0.17,0-1.26,0-1.46,0-0.05,0-.07,0-0.07.1v2.6c0,0.07,0,.11.07,0.11,0.23,0,1.41,0,1.65,0a0.72,0.72,0,0,0,.49-0.15,0.29,0.29,0,0,1,.17-0.13,0.07,0.07,0,0,1,.07.08c0,0.06-.05.23-0.08,0.75,0,0.21,0,.62,0,0.69s0,0.2-.09.2a0.08,0.08,0,0,1-.09-0.09,2.67,2.67,0,0,0,0-.37,0.55,0.55,0,0,0-.58-0.4c-0.2,0-1.21,0-1.46,0-0.05,0-.06,0-0.06.1V282c0,0.35,0,1.3,0,1.6,0,0.71.19,0.86,1.23,0.86a2.61,2.61,0,0,0,1-.12,0.87,0.87,0,0,0,.46-0.76c0-.11,0-0.15.11-0.15s0.08,0.08.08,0.19a8,8,0,0,1-.13,1.14c-0.07.27-.16,0.27-0.56,0.27-1.55,0-2.24-.06-2.85-0.06l-1.3,0c-0.13,0-.21,0-0.21-0.1s0-.08.16-0.08a1.69,1.69,0,0,0,.37,0,0.55,0.55,0,0,0,.3-0.57c0.05-.43.05-1.25,0.05-2.19v-1.81Z" transform="translate(-215.16 -277.03)"/><path class="cls-2" d="M271.57,295c0-2.68,0-3.16,0-3.7a0.84,0.84,0,0,0-.74-1,3.17,3.17,0,0,0-.58-0.05,0.12,0.12,0,0,1-.14-0.1c0-.1.09-0.14,0.27-0.14,0.77,0,1.82.05,2,.05s1.18-.05,1.7-0.05c0.19,0,.27,0,0.27.14a0.12,0.12,0,0,1-.14.1,2.52,2.52,0,0,0-.43.05c-0.46.07-.6,0.38-0.63,1s0,1,0,3.7v2.4c0,2.47.55,3.53,1.29,4.24a3.36,3.36,0,0,0,2.59.94,3.6,3.6,0,0,0,2.69-1.23,6.66,6.66,0,0,0,1-4.2V295c0-2.68,0-3.16,0-3.7a0.84,0.84,0,0,0-.74-1,3.18,3.18,0,0,0-.58-0.05,0.12,0.12,0,0,1-.14-0.1c0-.1.09-0.14,0.27-0.14,0.77,0,1.72.05,1.82,0.05s0.93-.05,1.44-0.05c0.19,0,.27,0,0.27.14a0.12,0.12,0,0,1-.14.1,1.48,1.48,0,0,0-.43.05,0.82,0.82,0,0,0-.63,1c0,0.55,0,1,0,3.7v1.84c0,1.85-.21,3.91-1.58,5.13a5,5,0,0,1-3.53,1.27,5.27,5.27,0,0,1-3.53-1.22c-0.84-.81-1.49-2-1.49-4.51V295Z" transform="translate(-215.16 -277.03)"/><path class="cls-2" d="M288.12,300.65c0,1.41.21,1.85,0.67,2a3.75,3.75,0,0,0,.86.1,0.11,0.11,0,0,1,.14.1c0,0.1-.1.14-0.31,0.14-1,0-1.66-.05-1.82-0.05S286.78,303,286,303c-0.17,0-.27,0-0.27-0.14a0.11,0.11,0,0,1,.14-0.1,2.46,2.46,0,0,0,.7-0.1c0.43-.12.51-0.62,0.51-2.18l0-9.83c0-.67.05-0.86,0.19-0.86a2.11,2.11,0,0,1,.6.55c0.26,0.29,2.81,3.05,5.45,5.88,1.7,1.82,3.57,3.91,4.12,4.48L297.28,292c0-1.11-.14-1.49-0.67-1.63a4.56,4.56,0,0,0-.84-0.09c-0.12,0-.14-0.05-0.14-0.12s0.14-.12.34-0.12c0.77,0,1.6.05,1.78,0.05s0.75-.05,1.46-0.05c0.19,0,.31,0,0.31.12a0.15,0.15,0,0,1-.19.12,1.5,1.5,0,0,0-.41.05c-0.57.12-.63,0.5-0.63,1.53l0,10.05c0,1.13,0,1.22-.15,1.22a3.85,3.85,0,0,1-1.25-1.1c-0.19-.17-2.66-2.69-4.48-4.65-2-2.14-3.93-4.31-4.48-4.92Z" transform="translate(-215.16 -277.03)"/><path class="cls-2" d="M306.2,298c0,1.65,0,3,.09,3.72a0.83,0.83,0,0,0,.67.94,7.51,7.51,0,0,0,.77.07,0.11,0.11,0,0,1,.14.1c0,0.09-.09.14-0.27,0.14-0.94,0-2-.05-2.11-0.05s-1.17.05-1.68,0.05c-0.19,0-.27,0-0.27-0.14a0.11,0.11,0,0,1,.14-0.1,2.65,2.65,0,0,0,.51-0.07,0.92,0.92,0,0,0,.5-0.94c0.09-.72.09-2.08,0.09-3.72v-3c0-2.68,0-3.16,0-3.7a0.85,0.85,0,0,0-.58-1,2.23,2.23,0,0,0-.53-0.07,0.12,0.12,0,0,1-.14-0.1c0-.1.09-0.14,0.27-0.14,0.57,0,1.65.05,1.73,0.05s1.17-.05,1.68-0.05c0.19,0,.27,0,0.27.14a0.12,0.12,0,0,1-.14.1,2.52,2.52,0,0,0-.43.05,0.82,0.82,0,0,0-.63,1c0,0.55,0,1,0,3.7v3Z" transform="translate(-215.16 -277.03)"/><path class="cls-2" d="M316.88,300.89c1-2.3,3.29-8.28,3.67-9.52a2.46,2.46,0,0,0,.15-0.65,0.42,0.42,0,0,0-.22-0.39,2.16,2.16,0,0,0-.65-0.07c-0.1,0-.19,0-0.19-0.1s0.1-.14.38-0.14c0.69,0,1.48.05,1.68,0.05S322.54,290,323,290c0.19,0,.29,0,0.29.12s-0.07.12-.21,0.12a1.56,1.56,0,0,0-.82.21,3.3,3.3,0,0,0-.94,1.61c-0.19.48-1,2.54-1.92,4.65-1,2.5-1.82,4.36-2.21,5.2-0.48,1-.55,1.3-0.72,1.3s-0.29-.24-0.62-1.06l-4.2-10.51a1.64,1.64,0,0,0-1.24-1.32,2.65,2.65,0,0,0-.65-0.07,0.11,0.11,0,0,1-.14-0.12c0-.1.17-0.12,0.45-0.12,0.82,0,1.8.05,2,.05s0.94-.05,1.59-0.05c0.31,0,.46,0,0.46.12s-0.05.12-.17,0.12a2,2,0,0,0-.65.09,0.34,0.34,0,0,0-.22.34,6.6,6.6,0,0,0,.46,1.42Z" transform="translate(-215.16 -277.03)"/><path class="cls-2" d="M326.74,295c0-2.68,0-3.16,0-3.7a0.84,0.84,0,0,0-.74-1,3.17,3.17,0,0,0-.58-0.05,0.12,0.12,0,0,1-.14-0.1c0-.1.09-0.14,0.27-0.14,0.77,0,1.85.05,1.94,0.05s3.53,0,3.93,0a4.58,4.58,0,0,0,.74-0.09,1.35,1.35,0,0,1,.24-0.09c0.05,0,.07.07,0.07,0.15s-0.09.33-.14,0.81c0,0.17-.05.93-0.09,1.13a0.2,0.2,0,0,1-.12.19c-0.1,0-.14-0.09-0.14-0.22a1.84,1.84,0,0,0-.1-0.62c-0.12-.27-0.29-0.48-1.22-0.58-0.29,0-2.16-.05-2.35-0.05s-0.1.05-.1,0.17v4.73c0,0.12,0,.17.1,0.17s2.33,0,2.73,0a1.16,1.16,0,0,0,.81-0.24,0.52,0.52,0,0,1,.26-0.22c0.05,0,.09,0,0.09.14s-0.09.39-.14,1c0,0.34-.07,1-0.07,1.1s0,0.33-.12.33a0.13,0.13,0,0,1-.12-0.15,1.75,1.75,0,0,0-.07-0.57,0.85,0.85,0,0,0-.89-0.6c-0.46-.05-2.16-0.09-2.45-0.09a0.11,0.11,0,0,0-.12.12V298c0,0.58,0,2.57,0,2.93,0.05,1.18.31,1.41,2,1.41a4.91,4.91,0,0,0,1.65-.19,1.37,1.37,0,0,0,.77-1.23c0-.19.07-0.26,0.15-0.26s0.1,0.14.1,0.26a16.76,16.76,0,0,1-.22,1.66c-0.12.45-.26,0.45-0.93,0.45-2.59,0-3.74-.1-4.24-0.1l-0.69,0-1,0c-0.19,0-.28,0-0.28-0.14a0.11,0.11,0,0,1,.14-0.1,2.66,2.66,0,0,0,.51-0.07,0.92,0.92,0,0,0,.5-0.94c0.09-.72.09-2.08,0.09-3.72v-3Z" transform="translate(-215.16 -277.03)"/><path class="cls-2" d="M338.06,295c0-2.68,0-3.16,0-3.7a0.84,0.84,0,0,0-.74-1,3.17,3.17,0,0,0-.58-0.05,0.12,0.12,0,0,1-.14-0.1c0-.1.09-0.14,0.27-0.14,0.77,0,1.85.05,1.94,0.05s1.49-.05,2-0.05a5.28,5.28,0,0,1,3.14.75,3,3,0,0,1,1.18,2.33,5.3,5.3,0,0,1-2.08,4c1.41,1.8,2.57,3.33,3.57,4.39a3.54,3.54,0,0,0,2.09,1.23,4.09,4.09,0,0,0,.67.05,0.14,0.14,0,0,1,.15.1c0,0.1-.1.14-0.41,0.14h-1.22a3.49,3.49,0,0,1-1.83-.33,9,9,0,0,1-2.32-2.52c-0.72-.94-1.53-2.09-1.87-2.54a0.28,0.28,0,0,0-.22-0.1l-2.11,0a0.11,0.11,0,0,0-.12.14V298c0,1.65,0,3,.09,3.72a0.83,0.83,0,0,0,.67.94,7.53,7.53,0,0,0,.77.07,0.11,0.11,0,0,1,.14.1c0,0.09-.08.14-0.27,0.14-0.94,0-2-.05-2.11-0.05s-1.1.05-1.61,0.05c-0.19,0-.27,0-0.27-0.14a0.11,0.11,0,0,1,.14-0.1,2.65,2.65,0,0,0,.51-0.07,0.92,0.92,0,0,0,.5-0.94c0.09-.72.09-2.08,0.09-3.72v-3Zm1.37,1.49a0.22,0.22,0,0,0,.12.21,4.72,4.72,0,0,0,1.8.27,2.22,2.22,0,0,0,1.29-.33,3.13,3.13,0,0,0,1-2.64c0-2.14-1.13-3.43-3-3.43a5.2,5.2,0,0,0-1.15.1,0.21,0.21,0,0,0-.14.21v5.61Z" transform="translate(-215.16 -277.03)"/><path class="cls-2" d="M350.59,302.76c-0.24-.12-0.26-0.19-0.26-0.65,0-.86.07-1.54,0.09-1.82s0.05-.27.14-0.27,0.12,0.05.12,0.19a3.06,3.06,0,0,0,.05.63,2.33,2.33,0,0,0,2.54,1.75,2.29,2.29,0,0,0,2.45-2.28c0-1.18-.5-1.87-2-3.09l-0.77-.63c-1.82-1.49-2.23-2.56-2.23-3.72,0-1.84,1.37-3.09,3.55-3.09a6.64,6.64,0,0,1,1.59.17,2.82,2.82,0,0,0,.6.09c0.14,0,.17,0,0.17.12s-0.07.65-.07,1.82c0,0.27,0,.39-0.12.39s-0.12-.09-0.14-0.22a3,3,0,0,0-.22-0.86c-0.1-.19-0.57-0.91-2.14-0.91a2,2,0,0,0-2.11,2c0,1,.48,1.56,2.09,2.88l0.48,0.38c2,1.6,2.5,2.66,2.5,4a3.55,3.55,0,0,1-1.46,2.85,4.51,4.51,0,0,1-2.59.72A5.21,5.21,0,0,1,350.59,302.76Z" transform="translate(-215.16 -277.03)"/><path class="cls-2" d="M363.76,298c0,1.65,0,3,.09,3.72a0.83,0.83,0,0,0,.67.94,7.53,7.53,0,0,0,.77.07,0.11,0.11,0,0,1,.14.1c0,0.09-.09.14-0.27,0.14-0.94,0-2-.05-2.11-0.05s-1.17.05-1.68,0.05c-0.19,0-.27,0-0.27-0.14a0.11,0.11,0,0,1,.14-0.1,2.66,2.66,0,0,0,.51-0.07,0.92,0.92,0,0,0,.5-0.94c0.09-.72.09-2.08,0.09-3.72v-3c0-2.68,0-3.16,0-3.7a0.85,0.85,0,0,0-.58-1,2.24,2.24,0,0,0-.53-0.07,0.12,0.12,0,0,1-.14-0.1c0-.1.09-0.14,0.27-0.14,0.57,0,1.65.05,1.73,0.05s1.17-.05,1.68-0.05c0.19,0,.27,0,0.27.14a0.12,0.12,0,0,1-.14.1,2.53,2.53,0,0,0-.43.05,0.82,0.82,0,0,0-.63,1c0,0.55,0,1,0,3.7v3Z" transform="translate(-215.16 -277.03)"/><path class="cls-2" d="M374.38,298c0,1.65,0,3,.09,3.72a0.83,0.83,0,0,0,.67.94,7.52,7.52,0,0,0,.77.07,0.11,0.11,0,0,1,.14.1c0,0.09-.09.14-0.27,0.14-0.94,0-2-.05-2.11-0.05S372.49,303,372,303c-0.19,0-.27,0-0.27-0.14a0.11,0.11,0,0,1,.14-0.1,2.65,2.65,0,0,0,.51-0.07,0.92,0.92,0,0,0,.5-0.94c0.09-.72.09-2.08,0.09-3.72v-7.26l-2.54,0c-1.06,0-1.47.14-1.75,0.55a3.07,3.07,0,0,0-.29.53,0.19,0.19,0,0,1-.17.17c-0.05,0-.09-0.05-0.09-0.15s0.34-1.65.38-1.78a0.57,0.57,0,0,1,.17-0.33,3.2,3.2,0,0,0,.75.21c0.5,0.05,1.15.09,1.35,0.09h6.43a9,9,0,0,0,1.22-.09,4.17,4.17,0,0,1,.48-0.09c0.09,0,.09.1,0.09,0.21,0,0.51-.05,1.7-0.05,1.89s-0.05.22-.12,0.22-0.12-.05-0.14-0.29l0-.19c-0.07-.51-0.46-0.91-2.11-0.94l-2.16,0V298Z" transform="translate(-215.16 -277.03)"/><path class="cls-2" d="M385.71,298.54a3.64,3.64,0,0,0-.39-1.8c-0.12-.27-2.42-4-3-4.94a4.83,4.83,0,0,0-1.17-1.27,1.64,1.64,0,0,0-.74-0.27,0.14,0.14,0,0,1-.17-0.12c0-.07.07-0.12,0.22-0.12l1.7,0.05c0.12,0,.77-0.05,1.44-0.05,0.19,0,.22.05,0.22,0.12a0.35,0.35,0,0,1-.26.15,0.35,0.35,0,0,0-.22.31,1.46,1.46,0,0,0,.22.67c0.27,0.5,2.85,4.92,3.16,5.42,0.33-.72,2.5-4.48,2.85-5a1.68,1.68,0,0,0,.29-0.87,0.42,0.42,0,0,0-.28-0.48,0.28,0.28,0,0,1-.26-0.17c0-.07.1-0.1,0.27-0.1,0.45,0,1,.05,1.13.05s1.34-.05,1.66-0.05c0.12,0,.22,0,0.22.1s-0.09.14-.22,0.14a1.64,1.64,0,0,0-.79.24,3.28,3.28,0,0,0-.91.87,54.77,54.77,0,0,0-3.28,5.45,4.1,4.1,0,0,0-.26,1.72V300c0,0.27,0,1,.05,1.72a0.84,0.84,0,0,0,.7.94,7.51,7.51,0,0,0,.77.07,0.11,0.11,0,0,1,.14.1c0,0.09-.09.14-0.27,0.14-0.94,0-2-.05-2.11-0.05s-1.17.05-1.68,0.05c-0.19,0-.27,0-0.27-0.14a0.11,0.11,0,0,1,.14-0.1,2.67,2.67,0,0,0,.51-0.07,0.89,0.89,0,0,0,.53-0.94c0.05-.72.05-1.44,0.05-1.72v-1.47Z" transform="translate(-215.16 -277.03)"/><path class="cls-2" d="M277.36,307.78c3.86,0,6.74,2.44,6.74,6.43a6.73,6.73,0,0,1-6.84,7c-4.7,0-6.65-3.65-6.65-6.74A6.64,6.64,0,0,1,277.36,307.78Zm0.36,12.79c1.54,0,4.73-.89,4.73-5.88,0-4.12-2.5-6.33-5.21-6.33-2.86,0-5,1.89-5,5.64C272.24,318,274.64,320.58,277.72,320.58Z" transform="translate(-215.16 -277.03)"/><path class="cls-2" d="M288.6,313c0-2.68,0-3.16,0-3.7a0.84,0.84,0,0,0-.74-1,3.19,3.19,0,0,0-.58-0.05,0.12,0.12,0,0,1-.14-0.1c0-.1.09-0.14,0.27-0.14,0.77,0,1.85.05,1.94,0.05,0.34,0,3.82,0,4.22,0a3.73,3.73,0,0,0,.75-0.07,1.27,1.27,0,0,1,.24-0.1,0.13,0.13,0,0,1,.1.15c0,0.12-.09.33-0.14,0.81,0,0.17-.05.93-0.09,1.13a0.19,0.19,0,0,1-.14.19c-0.09,0-.12-0.09-0.12-0.21a1.85,1.85,0,0,0-.15-0.65,1.31,1.31,0,0,0-1.17-.55l-2.64-.05c-0.1,0-.15.05-0.15,0.19v4.73c0,0.1,0,.15.12,0.15l2.2,0c0.29,0,.53,0,0.77,0a0.92,0.92,0,0,0,.79-0.31,0.34,0.34,0,0,1,.19-0.17c0.07,0,.09.05,0.09,0.14s-0.09.39-.14,1c0,0.34-.07,1-0.07,1.15s0,0.33-.12.33a0.13,0.13,0,0,1-.12-0.15,2.9,2.9,0,0,0-.1-0.62,1,1,0,0,0-.89-0.62c-0.43-.05-2.3-0.05-2.59-0.05-0.09,0-.12,0-0.12.15V316c0,1.65,0,3,.09,3.72a0.83,0.83,0,0,0,.67.94,7.53,7.53,0,0,0,.77.07,0.11,0.11,0,0,1,.14.1c0,0.09-.09.14-0.27,0.14-0.94,0-2-.05-2.11-0.05s-1.17.05-1.68,0.05c-0.19,0-.27,0-0.27-0.14a0.11,0.11,0,0,1,.14-0.1,2.66,2.66,0,0,0,.51-0.07,0.92,0.92,0,0,0,.5-0.94c0.09-.72.09-2.08,0.09-3.72v-3Z" transform="translate(-215.16 -277.03)"/><path class="cls-2" d="M305.05,313c0-2.68,0-3.16,0-3.7a0.84,0.84,0,0,0-.74-1,3.18,3.18,0,0,0-.58-0.05,0.12,0.12,0,0,1-.14-0.1c0-.1.09-0.14,0.27-0.14,0.77,0,1.82.05,2,.05S307,308,307.5,308c0.19,0,.27,0,0.27.14a0.12,0.12,0,0,1-.14.1,2.53,2.53,0,0,0-.43.05c-0.46.07-.6,0.38-0.63,1s0,1,0,3.7v2.4c0,2.47.55,3.53,1.29,4.24a3.36,3.36,0,0,0,2.59.94,3.61,3.61,0,0,0,2.69-1.23,6.66,6.66,0,0,0,1-4.2V313c0-2.68,0-3.16,0-3.7a0.84,0.84,0,0,0-.74-1,3.18,3.18,0,0,0-.58-0.05,0.12,0.12,0,0,1-.14-0.1c0-.1.09-0.14,0.27-0.14,0.77,0,1.72.05,1.82,0.05s0.93-.05,1.44-0.05c0.19,0,.27,0,0.27.14a0.12,0.12,0,0,1-.14.1,1.48,1.48,0,0,0-.43.05,0.82,0.82,0,0,0-.63,1c0,0.55,0,1,0,3.7v1.84c0,1.85-.21,3.91-1.58,5.13a5,5,0,0,1-3.53,1.27,5.27,5.27,0,0,1-3.53-1.22c-0.84-.81-1.49-2-1.49-4.51V313Z" transform="translate(-215.16 -277.03)"/><path class="cls-2" d="M324.79,316c0,1.65,0,3,.09,3.72a0.83,0.83,0,0,0,.67.94,7.54,7.54,0,0,0,.77.07,0.11,0.11,0,0,1,.14.1c0,0.09-.09.14-0.27,0.14-0.94,0-2-.05-2.11-0.05s-1.17.05-1.68,0.05c-0.19,0-.27,0-0.27-0.14a0.11,0.11,0,0,1,.14-0.1,2.66,2.66,0,0,0,.51-0.07,0.92,0.92,0,0,0,.5-0.94c0.09-.72.09-2.08,0.09-3.72v-7.26l-2.54,0c-1.06,0-1.47.14-1.75,0.55a3.06,3.06,0,0,0-.29.53,0.19,0.19,0,0,1-.17.17c-0.05,0-.09-0.05-0.09-0.15s0.34-1.65.38-1.78a0.58,0.58,0,0,1,.17-0.33,3.19,3.19,0,0,0,.75.21c0.5,0.05,1.15.09,1.35,0.09h6.43a9.07,9.07,0,0,0,1.22-.09,4.18,4.18,0,0,1,.48-0.09c0.09,0,.09.1,0.09,0.21,0,0.51-.05,1.7-0.05,1.89s-0.05.22-.12,0.22-0.12-.05-0.14-0.29l0-.19c-0.07-.51-0.46-0.91-2.11-0.94l-2.16,0V316Z" transform="translate(-215.16 -277.03)"/><path class="cls-2" d="M335.55,308.45c0.21-.57.27-0.67,0.38-0.67s0.17,0.09.38,0.62,3,7.74,4,10.34c0.62,1.53,1.11,1.8,1.47,1.9a2.21,2.21,0,0,0,.69.1c0.1,0,.17,0,0.17.1s-0.15.14-.34,0.14-1.51,0-2.69,0c-0.33,0-.51,0-0.51-0.12a0.13,0.13,0,0,1,.12-0.12c0.1,0,.21-0.19.1-0.46l-1.6-4.22a0.15,0.15,0,0,0-.15-0.1h-3.69a0.18,0.18,0,0,0-.17.14l-1,3a3.62,3.62,0,0,0-.24,1.15,0.58,0.58,0,0,0,.65.5h0.17c0.12,0,.17,0,0.17.1s-0.1.14-.26,0.14c-0.41,0-1.15-.05-1.34-0.05s-1.13.05-1.94,0.05c-0.22,0-.33,0-0.33-0.14a0.13,0.13,0,0,1,.15-0.1l0.5,0c0.79-.1,1.13-0.75,1.44-1.61Zm1.78,6.86c0.09,0,.09-0.05.07-0.12l-1.63-4.63q-0.13-.39-0.26,0L334,315.19c0,0.09,0,.12.05,0.12h3.28Z" transform="translate(-215.16 -277.03)"/><path class="cls-2" d="M356.3,316c0,1.65,0,3,.09,3.72a0.83,0.83,0,0,0,.67.94,7.54,7.54,0,0,0,.77.07,0.11,0.11,0,0,1,.14.1c0,0.09-.09.14-0.27,0.14-0.94,0-2-.05-2.11-0.05s-1.17.05-1.68,0.05c-0.19,0-.27,0-0.27-0.14a0.11,0.11,0,0,1,.14-0.1,2.66,2.66,0,0,0,.51-0.07,0.92,0.92,0,0,0,.5-0.94c0.09-.72.09-2.08,0.09-3.72v-1.8a0.1,0.1,0,0,0-.1-0.1h-7.27a0.09,0.09,0,0,0-.1.1V316c0,1.65,0,3,.09,3.72a0.83,0.83,0,0,0,.67.94,7.55,7.55,0,0,0,.77.07,0.11,0.11,0,0,1,.14.1c0,0.09-.09.14-0.27,0.14-0.94,0-2-.05-2.11-0.05S345.5,321,345,321c-0.19,0-.27,0-0.27-0.14a0.11,0.11,0,0,1,.14-0.1,2.67,2.67,0,0,0,.51-0.07,0.92,0.92,0,0,0,.5-0.94c0.09-.72.09-2.08,0.09-3.72v-3c0-2.68,0-3.16,0-3.7a0.84,0.84,0,0,0-.74-1,3.18,3.18,0,0,0-.58-0.05,0.12,0.12,0,0,1-.14-0.1c0-.1.09-0.14,0.27-0.14,0.77,0,1.85.05,1.94,0.05s1.17-.05,1.68-0.05c0.19,0,.27,0,0.27.14a0.12,0.12,0,0,1-.14.1,2.52,2.52,0,0,0-.43.05,0.82,0.82,0,0,0-.63,1c0,0.55,0,1,0,3.7v0.36a0.09,0.09,0,0,0,.1.1h7.27a0.09,0.09,0,0,0,.1-0.1V313c0-2.68,0-3.16,0-3.7a0.84,0.84,0,0,0-.74-1,3.18,3.18,0,0,0-.58-0.05,0.12,0.12,0,0,1-.14-0.1c0-.1.09-0.14,0.27-0.14,0.77,0,1.85.05,1.94,0.05s1.17-.05,1.68-0.05c0.19,0,.27,0,0.27.14a0.12,0.12,0,0,1-.14.1,2.53,2.53,0,0,0-.43.05,0.82,0.82,0,0,0-.63,1c0,0.55,0,1,0,3.7v3Z" transform="translate(-215.16 -277.03)"/><path class="cls-2" d="M363.84,307.93a2.64,2.64,0,1,1-2.62,2.63,2.6,2.6,0,0,1,2.62-2.63h0Zm0,0.41a2.23,2.23,0,1,0,2.12,2.24,2.17,2.17,0,0,0-2.12-2.24h0Zm-0.49,3.76h-0.47v-2.94a5.26,5.26,0,0,1,.83-0.07,1.54,1.54,0,0,1,.91.22,0.7,0.7,0,0,1,.27.61,0.73,0.73,0,0,1-.57.71v0a0.71,0.71,0,0,1,.49.71,2.37,2.37,0,0,0,.19.73h-0.49a2.13,2.13,0,0,1-.2-0.75,0.55,0.55,0,0,0-.63-0.51h-0.33v1.26Zm0-1.63h0.34a0.59,0.59,0,0,0,.71-0.5,0.58,0.58,0,0,0-.71-0.52,2.27,2.27,0,0,0-.34,0v1Z" transform="translate(-215.16 -277.03)"/></svg>