<?xml version="1.0" encoding="UTF-8"?>
<svg id="Layer_1" data-name="Layer 1" xmlns="http://www.w3.org/2000/svg" viewBox="0 0 157.17 57.93">
  <rect x="2" y="12.85" width="57.1" height="32.42" style="fill: none; stroke: #3376a0; stroke-miterlimit: 10; stroke-width: 4px;"/>
  <g>
    <g>
      <path d="M30.58,56.43c-17.11,0-29.04-4.95-29.04-9.4s11.93-9.4,29.04-9.4,29.04,4.95,29.04,9.4-11.93,9.4-29.04,9.4Z" style="fill: #3376a0;"/>
      <path d="M30.58,39.13c17.82,0,27.54,5.22,27.54,7.9s-9.72,7.9-27.54,7.9-27.54-5.22-27.54-7.9,9.72-7.9,27.54-7.9M30.58,36.13C13.71,36.13.04,41.01.04,47.03s13.67,10.9,30.54,10.9,30.54-4.88,30.54-10.9-13.67-10.9-30.54-10.9h0Z" style="fill: #3376a0;"/>
    </g>
    <g>
      <path d="M30.58,47.06c-17.11,0-29.04-4.95-29.04-9.4s11.93-9.4,29.04-9.4,29.04,4.95,29.04,9.4-11.93,9.4-29.04,9.4Z" style="fill: #fff;"/>
      <path d="M30.58,29.77c17.82,0,27.54,5.22,27.54,7.9s-9.72,7.9-27.54,7.9-27.54-5.22-27.54-7.9,9.72-7.9,27.54-7.9M30.58,26.77C13.71,26.77.04,31.64.04,37.66s13.67,10.9,30.54,10.9,30.54-4.88,30.54-10.9-13.67-10.9-30.54-10.9h0Z" style="fill: #3376a0;"/>
    </g>
    <g>
      <path d="M30.58,38.22c-17.11,0-29.04-4.95-29.04-9.4s11.93-9.4,29.04-9.4,29.04,4.95,29.04,9.4-11.93,9.4-29.04,9.4Z" style="fill: #fff;"/>
      <path d="M30.58,20.92c17.82,0,27.54,5.22,27.54,7.9s-9.72,7.9-27.54,7.9S3.04,31.5,3.04,28.82s9.72-7.9,27.54-7.9M30.58,17.92C13.71,17.92.04,22.8.04,28.82s13.67,10.9,30.54,10.9,30.54-4.88,30.54-10.9-13.67-10.9-30.54-10.9h0Z" style="fill: #3376a0;"/>
    </g>
    <g>
      <path d="M30.58,29.14C13.47,29.14,1.54,24.19,1.54,19.74s11.93-9.4,29.04-9.4,29.04,4.95,29.04,9.4-11.93,9.4-29.04,9.4Z" style="fill: #fff;"/>
      <path d="M30.58,11.85c17.82,0,27.54,5.22,27.54,7.9s-9.72,7.9-27.54,7.9S3.04,22.42,3.04,19.74s9.72-7.9,27.54-7.9M30.58,8.85C13.71,8.85.04,13.73.04,19.74s13.67,10.9,30.54,10.9,30.54-4.88,30.54-10.9-13.67-10.9-30.54-10.9h0Z" style="fill: #3376a0;"/>
    </g>
    <g>
      <path d="M30.58,20.29C13.47,20.29,1.54,15.34,1.54,10.9S13.47,1.5,30.58,1.5s29.04,4.95,29.04,9.4-11.93,9.4-29.04,9.4Z" style="fill: #3376a0;"/>
      <path d="M30.58,3c17.82,0,27.54,5.22,27.54,7.9s-9.72,7.9-27.54,7.9S3.04,13.58,3.04,10.9,12.76,3,30.58,3M30.58,0C13.71,0,.04,4.88.04,10.9s13.67,10.9,30.54,10.9,30.54-4.88,30.54-10.9S47.45,0,30.58,0h0Z" style="fill: #3376a0;"/>
    </g>
  </g>
  <g>
    <circle cx="110.2" cy="29.83" r="6.16" style="fill: #fff; stroke: #3376a0; stroke-miterlimit: 10; stroke-width: 3px;"/>
    <circle cx="110.2" cy="11.35" r="6.16" style="fill: #fff; stroke: #3376a0; stroke-miterlimit: 10; stroke-width: 3px;"/>
    <circle cx="110.2" cy="48.31" r="6.16" style="fill: #fff; stroke: #3376a0; stroke-miterlimit: 10; stroke-width: 3px;"/>
  </g>
  <g>
    <line x1="124.06" y1="11.35" x2="148.7" y2="11.35" style="fill: none; stroke: #3376a0; stroke-miterlimit: 10; stroke-width: 8px;"/>
    <line x1="123.29" y1="29.06" x2="138.69" y2="29.06" style="fill: none; stroke: #3376a0; stroke-miterlimit: 10; stroke-width: 8px;"/>
    <line x1="123.29" y1="47.54" x2="157.17" y2="47.54" style="fill: none; stroke: #3376a0; stroke-miterlimit: 10; stroke-width: 8px;"/>
  </g>
  <g>
    <line x1="66.4" y1="29.06" x2="95.67" y2="29.06" style="fill: none; stroke: #666; stroke-miterlimit: 10; stroke-width: 5px;"/>
    <polygon points="86.22 40.72 84.28 38.63 94.57 29.07 84.28 19.5 86.22 17.41 98.76 29.07 86.22 40.72" style="fill: #666;"/>
  </g>
</svg>