<?xml version="1.0" encoding="UTF-8"?>
<svg id="Layer_1" data-name="Layer 1" xmlns="http://www.w3.org/2000/svg" viewBox="0 0 153.37 148.87">
  <defs>
    <style>
      .cls-1 {
        fill: none;
        stroke-width: 8px;
      }

      .cls-1, .cls-2, .cls-3 {
        stroke: #3376a0;
        stroke-miterlimit: 10;
      }

      .cls-2 {
        stroke-width: 5px;
      }

      .cls-2, .cls-3, .cls-4 {
        fill: #fff;
      }

      .cls-3 {
        stroke-width: 3px;
      }

      .cls-5 {
        fill: #3376a0;
      }
    </style>
  </defs>
  <ellipse class="cls-2" cx="74.08" cy="77.97" rx="54.42" ry="55.13"/>
  <g>
    <polygon class="cls-4" points="19.75 47.78 14.97 20.98 35.45 3.42 60.68 12.6 65.46 39.4 44.98 56.96 19.75 47.78"/>
    <path class="cls-5" d="M36.07,6.84l21.96,7.99,4.18,23.41-17.85,15.31-21.96-7.99-4.18-23.41,17.85-15.31M34.83,0L11.71,19.82l5.39,30.19,28.5,10.37,23.12-19.82-5.39-30.19L34.83,0h0Z"/>
  </g>
  <g>
    <polygon class="cls-4" points="103.41 65.1 111.94 42.81 135.18 39.16 149.96 57.76 141.43 80.05 118.19 83.71 103.41 65.1"/>
    <path class="cls-5" d="M133.92,42.39l12.63,15.9-7.3,19.07-19.8,3.11-12.63-15.9,7.3-19.07,19.8-3.11M136.45,35.92l-26.69,4.19-9.76,25.51,16.93,21.32,26.69-4.19,9.76-25.51-16.93-21.32h0Z"/>
  </g>
  <g>
    <polygon class="cls-4" points="39.28 139.26 36.05 121.18 49.86 109.33 66.87 115.52 70.1 133.61 56.28 145.45 39.28 139.26"/>
    <path class="cls-5" d="M50.48,112.75l13.73,5,2.62,14.7-11.18,9.59-13.73-5-2.62-14.7,11.18-9.59M49.24,105.91l-16.45,14.1,3.83,21.48,20.28,7.38,16.45-14.1-3.83-21.48-20.28-7.38h0Z"/>
  </g>
  <path class="cls-3" d="M28.12,19.16c.1,3.56-.21,9.85.13,14.14,1,2.27,3.79,4.79,5.29,6.83"/>
  <path class="cls-3" d="M116.41,54.69c0,2.36,0,6.7,0,9.86.02.81-.05,1.43.25,2.12,1.03,1.68,3.31,3.79,4.58,5.32"/>
  <polyline class="cls-3" points="43.84 125.75 44.08 132 46.26 135.1"/>
  <g>
    <circle class="cls-3" cx="61.83" cy="78" r="4.75"/>
    <circle class="cls-3" cx="61.83" cy="63.75" r="4.75"/>
    <circle class="cls-3" cx="61.83" cy="92.25" r="4.75"/>
  </g>
  <g>
    <line class="cls-1" x1="72.52" y1="63.75" x2="91.52" y2="63.75"/>
    <line class="cls-1" x1="71.92" y1="77.41" x2="83.8" y2="77.41"/>
    <line class="cls-1" x1="71.92" y1="91.66" x2="98.05" y2="91.66"/>
  </g>
</svg>